<svg width="68" height="54" viewBox="0 0 68 54" fill="none" xmlns="http://www.w3.org/2000/svg">
<path d="M67.9999 9.39288C68.0025 7.5859 67.4831 5.81664 66.5041 4.29783C65.5251 2.77902 64.1283 1.57534 62.4815 0.831514C60.8347 0.0876895 59.0081 -0.164607 57.2213 0.104964C55.4346 0.374534 53.7637 1.15449 52.4097 2.35105C51.6766 2.9977 51.0483 3.7541 50.547 4.5933V4.60209C50.4679 4.73399 50.3931 4.86882 50.3198 5.00365L50.2847 5.07546C50.2231 5.19123 50.166 5.30847 50.1103 5.42718C50.0927 5.46382 50.0766 5.50046 50.0604 5.5371C50.0121 5.64408 49.9652 5.75253 49.9212 5.86244C49.9022 5.90787 49.8846 5.9533 49.867 5.99874C49.8274 6.10132 49.7893 6.20391 49.7527 6.30796L49.6999 6.4633C49.6677 6.56296 49.6369 6.66408 49.6076 6.7652C49.59 6.82236 49.5739 6.87805 49.5592 6.9352C49.5314 7.03339 49.5079 7.13305 49.4845 7.22831C49.4698 7.28839 49.4552 7.34848 49.442 7.40857C49.4215 7.50822 49.4024 7.60934 49.3848 7.70167C49.3731 7.76322 49.3614 7.82477 49.3511 7.88633C49.335 7.98891 49.3218 8.09296 49.3086 8.19702C49.3013 8.2571 49.2925 8.31719 49.2852 8.37874C49.2735 8.49159 49.2661 8.60443 49.2573 8.71874C49.2573 8.7715 49.2485 8.82426 49.2456 8.87702C49.2368 9.04409 49.231 9.21116 49.231 9.38116C49.231 9.52771 49.231 9.67426 49.2427 9.81202V9.90581C49.2505 10.0436 49.2608 10.1813 49.2735 10.3191L49.2823 10.3894C49.2954 10.514 49.3101 10.6371 49.3291 10.7587C49.3291 10.7837 49.3291 10.81 49.3394 10.835C49.3599 10.9683 49.3848 11.1002 49.4112 11.2321C49.4112 11.2644 49.4244 11.2951 49.4303 11.3274C49.4566 11.4534 49.486 11.5794 49.5182 11.704V11.7319C49.5519 11.8623 49.5885 11.9898 49.6281 12.1173L49.6589 12.2169C49.6985 12.3415 49.7395 12.4631 49.7835 12.5848C49.7923 12.6112 49.8025 12.6375 49.8128 12.6639C49.8523 12.768 49.8934 12.872 49.9359 12.9746C49.9476 13.0054 49.9593 13.0347 49.9725 13.064C50.0223 13.1798 50.0736 13.2956 50.1279 13.4099L50.1762 13.5081C50.2275 13.6106 50.2788 13.7132 50.333 13.8144C51.098 15.2361 52.2152 16.4376 53.5777 17.3038C53.9353 17.5322 54.3085 17.7355 54.6944 17.912L54.7516 17.9383C55.0115 18.0556 55.2767 18.1611 55.5474 18.2549L55.6866 18.3018L55.9064 18.3707C55.9724 18.3912 56.0383 18.4088 56.1057 18.4278L56.3871 18.5011L56.6406 18.5597L56.8092 18.5934L57.0774 18.6418L57.2151 18.6638C57.347 18.6828 57.4804 18.7004 57.6137 18.7151L57.7266 18.7253C57.8336 18.7341 57.942 18.7429 58.0505 18.7488L58.1765 18.7561C58.323 18.7561 58.4608 18.7678 58.6044 18.7678C58.7744 18.7678 58.9415 18.7678 59.1086 18.7532L59.2668 18.7414C59.3812 18.7326 59.494 18.7253 59.6068 18.7136L59.79 18.6901C59.8926 18.677 59.9967 18.6638 60.0993 18.6476L60.2839 18.6139C60.3836 18.5963 60.4847 18.5773 60.577 18.5568L60.7573 18.5143C60.8569 18.4908 60.9566 18.4674 61.0504 18.4395C61.1075 18.4249 61.1632 18.4088 61.2204 18.3912C61.3215 18.3619 61.4226 18.3311 61.5223 18.2988L61.6776 18.2461C61.7817 18.2095 61.8843 18.1713 61.9869 18.1318L62.1231 18.0776C62.2331 18.0336 62.3415 17.9867 62.4485 17.9383L62.5584 17.8885C62.6771 17.8328 62.7944 17.7757 62.9101 17.7141L62.9819 17.6789C63.1168 17.6057 63.2516 17.5324 63.3835 17.4518H63.3923C64.2382 16.9545 65.0016 16.3285 65.6551 15.5964C67.1683 13.8845 68.0024 11.6778 67.9999 9.39288Z" fill="#FFB625"/>
<path d="M49.7368 20.308L34.2668 32.3399C33.8553 32.6598 33.3489 32.8335 32.8277 32.8335C32.3064 32.8335 31.8 32.6598 31.3885 32.3399L10.285 15.9261C10.0371 15.7388 9.82882 15.5042 9.67234 15.2357C9.51587 14.9673 9.4143 14.6705 9.37354 14.3625C9.33279 14.0544 9.35365 13.7414 9.43493 13.4415C9.5162 13.1416 9.65627 12.8609 9.84698 12.6156C10.0377 12.3703 10.2753 12.1654 10.5459 12.0127C10.8165 11.86 11.1147 11.7626 11.4233 11.7262C11.7318 11.6898 12.0446 11.715 12.3433 11.8005C12.642 11.886 12.9207 12.03 13.1633 12.2242L32.8277 27.5183L46.6358 16.779C45.2997 14.6176 44.5749 12.1343 44.5385 9.59353C44.5021 7.05279 45.1556 4.54974 46.4292 2.35095H8.20692C6.03102 2.35328 3.94491 3.21868 2.40632 4.75727C0.86773 6.29586 0.00232758 8.38197 0 10.5579V45.7304C0.00232758 47.9063 0.86773 49.9924 2.40632 51.531C3.94491 53.0696 6.03102 53.935 8.20692 53.9373H57.4484C59.6243 53.935 61.7104 53.0696 63.249 51.531C64.7876 49.9924 65.653 47.9063 65.6553 45.7304V21.5771C63.1869 23.0069 60.3418 23.6513 57.4982 23.4246C54.6546 23.1979 51.9475 22.1108 49.7368 20.308Z" fill="#1D785A"/>
</svg>
