<svg width="24" height="24" viewBox="0 0 24 24" fill="none" xmlns="http://www.w3.org/2000/svg">
<g clip-path="url(#clip0_149_255)">
<path d="M16.9455 16.9455H15.405V15.405H16.9455V16.9455ZM12.324 16.9455H13.8645V15.405H12.324V16.9455ZM20.0265 16.9455H18.486V15.405H20.0265V16.9455Z" fill="white"/>
<path fill-rule="evenodd" clip-rule="evenodd" d="M4.62151 9.24301V5.39176C4.62151 4.6837 4.76097 3.98258 5.03193 3.32842C5.30289 2.67426 5.70004 2.07988 6.20071 1.57921C6.70139 1.07854 7.29577 0.681384 7.94993 0.410423C8.60408 0.139462 9.30521 0 10.0133 0C10.7213 0 11.4224 0.139462 12.0766 0.410423C12.7308 0.681384 13.3251 1.07854 13.8258 1.57921C14.3265 2.07988 14.7236 2.67426 14.9946 3.32842C15.2656 3.98258 15.405 4.6837 15.405 5.39176V9.24301H17.7158C18.3286 9.24301 18.9164 9.48647 19.3497 9.91982C19.7831 10.3532 20.0265 10.9409 20.0265 11.5538V12.401C20.8971 12.5778 21.6798 13.0502 22.2421 13.738C22.8043 14.4258 23.1114 15.2869 23.1114 16.1753C23.1114 17.0636 22.8043 17.9247 22.2421 18.6125C21.6798 19.3004 20.8971 19.7727 20.0265 19.9495V20.7968C20.0265 21.4096 19.7831 21.9974 19.3497 22.4307C18.9164 22.8641 18.3286 23.1075 17.7158 23.1075H2.31075C1.6979 23.1075 1.11015 22.8641 0.676804 22.4307C0.243454 21.9974 0 21.4096 0 20.7968L0 11.5538C0 10.9409 0.243454 10.3532 0.676804 9.91982C1.11015 9.48647 1.6979 9.24301 2.31075 9.24301H4.62151ZM6.16201 5.39176C6.16201 4.37034 6.56776 3.39076 7.29001 2.66851C8.01226 1.94626 8.99185 1.5405 10.0133 1.5405C11.0347 1.5405 12.0143 1.94626 12.7365 2.66851C13.4588 3.39076 13.8645 4.37034 13.8645 5.39176V9.24301H6.16201V5.39176ZM13.0943 13.8645C12.4814 13.8645 11.8937 14.108 11.4603 14.5413C11.027 14.9747 10.7835 15.5624 10.7835 16.1753C10.7835 16.7881 11.027 17.3759 11.4603 17.8092C11.8937 18.2426 12.4814 18.486 13.0943 18.486H19.2563C19.8691 18.486 20.4569 18.2426 20.8902 17.8092C21.3236 17.3759 21.567 16.7881 21.567 16.1753C21.567 15.5624 21.3236 14.9747 20.8902 14.5413C20.4569 14.108 19.8691 13.8645 19.2563 13.8645H13.0943Z" fill="white"/>
</g>
<defs>
<clipPath id="clip0_149_255">
<rect width="23.1075" height="23.1075" fill="white"/>
</clipPath>
</defs>
</svg>
