<svg width="28" height="28" viewBox="0 0 28 28" fill="none" xmlns="http://www.w3.org/2000/svg">
<g clip-path="url(#clip0_149_243)">
<path d="M13.9904 23.3172C14.8259 23.3172 15.642 23.2053 16.4387 22.9814C17.2354 22.7576 17.9932 22.4323 18.7121 22.0056L14.1944 17.4879H13.9904C12.6885 17.4879 11.4255 17.6969 10.2013 18.1151C8.97717 18.5333 7.85017 19.1403 6.82032 19.9362C7.79187 21.0049 8.86058 21.8358 10.0264 22.4288C11.1923 23.0218 12.5136 23.318 13.9904 23.3172ZM23.871 27.1645L20.4318 23.7252C19.4796 24.347 18.4595 24.8231 17.3714 25.1534C16.2832 25.4837 15.1562 25.6489 13.9904 25.6489C12.3776 25.6489 10.862 25.3431 9.44351 24.7314C8.02505 24.1197 6.79118 23.2888 5.7419 22.2388C4.69262 21.1895 3.86214 19.9556 3.25045 18.5371C2.63876 17.1187 2.33253 15.6031 2.33175 13.9903C2.33175 12.8439 2.49225 11.7266 2.81326 10.6384C3.13426 9.55029 3.60526 8.52045 4.22628 7.5489L0.786987 4.08046L2.44834 2.4191L25.5324 25.5032L23.871 27.1645ZM23.7253 20.4025L17.0799 13.7571C17.4102 13.3879 17.6582 12.9752 17.8237 12.519C17.9893 12.0627 18.0717 11.5816 18.0709 11.0756C18.0709 9.94863 17.6726 8.98679 16.8759 8.19012C16.0792 7.39345 15.1174 6.99511 13.9904 6.99511C13.4852 6.99511 13.0044 7.07789 12.5482 7.24344C12.092 7.40899 11.6789 7.65654 11.3089 7.98609L7.57813 4.25534C8.53025 3.63354 9.55038 3.15748 10.6385 2.82716C11.7267 2.49683 12.8439 2.33167 13.9904 2.33167C15.6031 2.33167 17.1188 2.6379 18.5372 3.25036C19.9557 3.86283 21.1896 4.69331 22.2388 5.74181C23.2881 6.79109 24.119 8.02496 24.7315 9.44342C25.3439 10.8619 25.6498 12.3775 25.649 13.9903C25.649 15.1367 25.4838 16.254 25.1535 17.3421C24.8232 18.4303 24.3471 19.4504 23.7253 20.4025Z" fill="#FF7272"/>
</g>
<defs>
<clipPath id="clip0_149_243">
<rect width="27.9807" height="27.9807" fill="white"/>
</clipPath>
</defs>
</svg>
