<svg width="32" height="31" viewBox="0 0 32 31" fill="none" xmlns="http://www.w3.org/2000/svg">
<g clip-path="url(#clip0_479_118)">
<path d="M6.55549 16.3268L9.08995 16.9782C9.19556 17.0053 9.29185 17.0611 9.36656 17.1405L9.45532 17.2332C9.5332 17.3153 9.58587 17.42 9.60383 17.5314L9.9927 19.8324L10.3126 21.1025L9.68427 24.658L7.07482 24.1776C6.77814 24.0859 6.57153 23.8173 6.55578 23.5085L5.87002 16.9096C5.84007 16.6108 6.0584 16.3427 6.35725 16.3128C6.36136 16.3119 6.365 16.3128 6.36911 16.3119L6.38508 16.3102C6.44073 16.3051 6.49905 16.3123 6.55549 16.3268Z" fill="#4D4D4D"/>
<path d="M6.45339 16.4247L8.90956 17.0559C9.01152 17.0821 9.10418 17.137 9.17572 17.2136L9.2613 17.3036C9.33736 17.3852 9.38685 17.4872 9.40528 17.5968L10.0484 21.1743L10.2827 24.5827L6.92666 24.1375C6.63774 24.0458 6.43747 23.7828 6.4276 23.4813L5.78623 16.9967C5.75716 16.7019 5.97274 16.4371 6.26748 16.408C6.2693 16.4085 6.2693 16.4085 6.27159 16.4071L6.27569 16.4063C6.33635 16.4044 6.39742 16.4084 6.45339 16.4247Z" fill="black"/>
<path d="M8.72928 17.7123C8.68061 17.8337 8.54297 17.8934 8.42109 17.8466C8.29967 17.7979 8.23993 17.6603 8.28678 17.5384C8.33082 17.4274 8.4516 17.3653 8.56631 17.3948C8.70052 17.439 8.77301 17.5799 8.72928 17.7123Z" fill="#4D4D4D"/>
<path d="M8.67851 17.6994C8.64097 17.7926 8.53579 17.8393 8.44257 17.8018C8.34935 17.7643 8.30261 17.6591 8.34016 17.5659C8.37354 17.4813 8.46551 17.4331 8.55472 17.456C8.65481 17.4895 8.71064 17.597 8.67851 17.6994Z" fill="black"/>
<path d="M8.1572 17.5646C8.14245 17.5995 8.10333 17.6165 8.06803 17.6035C8.0332 17.5888 8.01621 17.5497 8.02915 17.5144C8.04115 17.4827 8.07665 17.4648 8.11107 17.4736C8.14865 17.4852 8.16925 17.5253 8.1572 17.5646Z" fill="white"/>
<path d="M17.4016 20.8247C16.8038 21.4169 15.8338 22.1688 15.9127 24.4303C15.9917 26.7295 16.0763 30.1208 16.0763 30.1208L18.4487 29.0211L17.4016 20.8247Z" fill="#016A4E"/>
<mask id="mask0_479_118" style="mask-type:luminance" maskUnits="userSpaceOnUse" x="19" y="12" width="10" height="11">
<path d="M21.8166 13.7672C21.8166 13.7672 21.7057 15.9384 21.4406 16.6923C21.1755 17.4461 19.822 18.8636 19.822 18.8636C19.822 18.8636 18.7993 22.4278 20.5194 22.3921C22.2395 22.3564 28.024 19.1493 28.024 19.1493C28.024 19.1493 26.1102 17.3239 25.7925 16.7167C25.6478 16.4441 25.4824 15.9704 25.2775 15.068C25.0725 14.1657 24.8056 12.3948 24.8056 12.3948L21.8166 13.7672Z" fill="white"/>
</mask>
<g mask="url(#mask0_479_118)">
<path d="M18.5891 11.9741L28.5695 11.7692L28.8026 23.182L18.8222 23.385L18.5891 11.9741Z" fill="url(#paint0_linear_479_118)"/>
</g>
<mask id="mask1_479_118" style="mask-type:luminance" maskUnits="userSpaceOnUse" x="17" y="6" width="10" height="12">
<path d="M21.7288 6.8357C20.9956 7.05189 20.332 7.27371 20.0237 7.23988C19.2059 7.14964 18.9409 6.84698 18.9409 6.84698C18.4258 7.1628 17.546 7.82452 17.5159 8.3039C17.4858 8.78327 17.3223 10.1857 17.4088 11.0034C17.4952 11.8212 17.64 13.3721 17.8035 14.3252C17.9671 15.2783 18.8732 17.1112 19.1251 17.2766C19.377 17.4421 21.0351 17.5022 21.5502 17.256C22.0653 17.0097 24.9641 14.8253 24.8212 12.778C24.8212 12.778 25.4359 12.9792 26.186 11.1219C26.3815 10.6387 24.8964 7.54254 24.6727 6.98421C24.5373 6.64771 24.2347 6.4992 23.8418 6.46348C23.2477 6.4146 22.4544 6.62139 21.7288 6.8357Z" fill="white"/>
</mask>
<g mask="url(#mask1_479_118)">
<path d="M16.4749 5.95409L26.6996 5.74542L26.9496 17.976L16.7249 18.1847L16.4749 5.95409Z" fill="url(#paint1_linear_479_118)"/>
</g>
<mask id="mask2_479_118" style="mask-type:luminance" maskUnits="userSpaceOnUse" x="19" y="5" width="8" height="10">
<path d="M19.7891 6.53619C18.7119 7.807 19.1894 8.42173 20.1162 8.14914C22.3683 7.48554 22.8702 7.99687 22.8853 9.26016C22.8909 9.68878 23.7425 10.3167 23.7857 10.7265C23.829 11.1363 24.3027 11.3412 24.3027 11.3412L24.4324 12.5688C24.4399 12.9128 24.4832 13.2549 24.5602 13.5914C24.6787 14.0332 25.1674 14.7119 25.1674 14.7119C25.1674 14.7119 24.9738 13.8546 25.831 12.8C27.8707 10.2903 25.5077 6.7599 23.3552 5.47593C23.1052 5.32742 22.8232 5.23906 22.5337 5.21463C21.5674 5.13003 20.494 5.7034 19.7891 6.53619Z" fill="white"/>
</mask>
<g mask="url(#mask2_479_118)">
<path d="M14 10.1437L22.9727 0.684082L32.4436 9.66998L23.4709 19.1277L14 10.1437Z" fill="url(#paint2_linear_479_118)"/>
</g>
<mask id="mask3_479_118" style="mask-type:luminance" maskUnits="userSpaceOnUse" x="17" y="10" width="8" height="8">
<path d="M18.4669 15.4541C18.3146 15.033 18.324 14.5706 18.4913 14.157C18.6642 13.7171 19.403 13.4596 20.3242 13.6156C21.2453 13.7716 21.4145 14.1927 21.5123 14.4841C21.61 14.7774 21.5311 15.7455 21.1119 15.9147C20.6927 16.0839 19.9858 15.7812 19.8843 15.5293C19.7828 15.2774 19.7019 15.2699 19.5854 15.221C19.4688 15.1722 19.3673 15.4053 19.1793 15.7154C19.1229 15.832 19.0026 15.9034 18.8748 15.8997C18.7169 15.8884 18.559 15.7418 18.4669 15.4541ZM23.7287 10.2374C23.7287 10.2374 23.5012 12.0327 23.3922 13.0272C23.2831 14.0217 22.9222 14.4785 22.362 14.3525C21.8037 14.2266 21.4803 13.5479 20.9822 13.3449C20.484 13.1419 19.7339 12.9746 19.0759 13.1343C18.6868 13.2189 18.3465 13.4539 18.1285 13.7885C17.9348 14.0856 17.8578 14.768 18.0589 15.6252C18.2601 16.4824 18.5251 17.2081 19.3372 17.5446C20.1494 17.8811 21.4296 17.7965 22.394 17.2532C23.3583 16.7099 24.0107 15.706 24.1479 15.0124C24.2851 14.3206 24.1799 12.6324 24.1291 11.9237C24.0783 11.215 24.2381 10.2543 24.2381 10.2543L23.7287 10.2374Z" fill="white"/>
</mask>
<g mask="url(#mask3_479_118)">
<path d="M21.0287 6.8589L14.0166 14.251L21.2246 21.0885L28.2367 13.6963L21.0287 6.8589Z" fill="black"/>
</g>
<path d="M12.0908 74.627C12.0908 74.627 14.4219 75.5557 18.2174 75.8076C18.8171 75.8471 19.4544 75.8715 20.1255 75.8715C25.9663 75.8715 29.6547 76.6629 31.544 76.3922C31.6286 76.3809 31.7075 76.3659 31.7808 76.349C31.7808 76.349 32.2489 51.0776 32.0741 47.7953C32.0252 46.8779 31.9444 39.4373 31.6417 33.5269C31.4481 29.8911 32.7678 24.1969 31.5007 21.4655C30.9029 20.1777 27.0341 17.9651 27.0341 17.9651C27.0341 17.9651 24.641 20.5255 21.9885 20.5969C19.5164 20.6627 19.9807 18.4557 19.9807 18.4557L17.4015 20.8244C16.8451 23.2645 16.4447 25.7366 16.2022 28.2256C16.0273 30.113 15.5348 33.8295 15.4671 37.6664C15.1325 40.7776 15.0103 46.1748 14.0816 52.9481C12.6454 63.3946 12.0889 74.627 12.0908 74.627Z" fill="#1B8368"/>
<path d="M26.533 11.378C26.533 11.378 25.5103 10.2181 23.9951 9.66166C22.5645 9.13529 21.1039 8.80067 19.5887 8.78375C18.0152 8.76683 17.3459 9.09393 17.3459 9.09393C17.3459 9.09393 17.6148 7.4321 18.1938 6.39252C18.816 5.27962 20.4139 4.35095 23.8993 5.37926C25.6288 5.89059 26.4747 7.30803 26.7135 8.51304C26.956 9.71617 26.533 11.378 26.533 11.378Z" fill="#016A4E"/>
<mask id="mask4_479_118" style="mask-type:luminance" maskUnits="userSpaceOnUse" x="24" y="9" width="2" height="4">
<path d="M24.0094 10.8532C23.9417 11.0299 24.4286 12.5657 24.4286 12.5657C24.4286 12.5657 24.8065 12.3928 25.4456 11.4904C26.0848 10.5881 25.6599 9.89254 25.0602 9.80042C25.0396 9.79666 25.0208 9.79478 25.002 9.7929C24.4455 9.74591 24.235 10.2723 24.0094 10.8532Z" fill="white"/>
</mask>
<g mask="url(#mask4_479_118)">
<path d="M23.7546 9.71802L26.1383 9.67102L26.1985 12.6883L23.8167 12.7371L23.7546 9.71802Z" fill="url(#paint3_linear_479_118)"/>
</g>
<mask id="mask5_479_118" style="mask-type:luminance" maskUnits="userSpaceOnUse" x="21" y="16" width="7" height="6">
<path d="M24.162 18.5521C22.7784 19.6255 21.6523 19.7477 21.6523 19.7477L21.2688 21.1294C21.2688 21.1294 22.6674 21.5449 24.2014 20.5523C25.7354 19.5597 27.0269 17.9637 27.0269 17.9637L26.3069 16.8828C26.3069 16.8828 25.5456 17.4787 24.162 18.5521Z" fill="white"/>
</mask>
<g mask="url(#mask5_479_118)">
<path d="M21.1406 16.4881L27.0999 16.3697L27.2108 21.8853L21.2515 22.0056L21.1406 16.4881Z" fill="url(#paint4_linear_479_118)"/>
</g>
<mask id="mask6_479_118" style="mask-type:luminance" maskUnits="userSpaceOnUse" x="19" y="17" width="3" height="5">
<path d="M19.6183 18.5526C19.6183 18.5526 19.3043 19.267 20.3251 20.4532C20.8158 21.0228 21.2839 21.1299 21.2839 21.1299L21.1278 19.6204C21.1278 19.6204 20.4774 18.6616 20.4642 17.9849L19.6183 18.5526Z" fill="white"/>
</mask>
<g mask="url(#mask6_479_118)">
<path d="M19.0916 17.9004L21.5411 17.8496L21.6069 21.1225L19.1573 21.1714L19.0916 17.9004Z" fill="url(#paint5_linear_479_118)"/>
</g>
<path d="M13.0653 31.6546C12.96 32.1528 12.2607 32.6209 11.849 32.6754C11.52 32.7187 11.7362 31.1997 11.7926 30.0642C11.8471 28.9852 12.3302 27.9193 12.7551 28.3968C13.1799 28.8743 13.2796 30.647 13.0653 31.6546Z" fill="#005037"/>
<mask id="mask7_479_118" style="mask-type:luminance" maskUnits="userSpaceOnUse" x="5" y="18" width="13" height="16">
<path d="M6.77757 18.1856C6.54136 18.2588 6.63754 18.5417 6.7209 18.7611C6.7209 18.7611 6.20073 18.1945 5.94501 18.1851C5.78728 18.1795 5.5033 18.4462 5.73338 18.8198C5.85431 19.0139 5.95827 19.2211 6.04122 19.4346C5.8215 19.4965 5.68873 19.7186 5.73423 19.9419C5.78816 20.2003 5.89462 20.4431 6.04733 20.657C6.04733 20.657 5.54614 20.7417 5.76187 21.1485C6.00914 21.6138 6.12925 21.9999 6.43389 22.4761C6.83016 23.0942 7.23069 24.0357 7.64179 24.3393C8.05289 24.6429 9.11869 25.5787 9.70814 26.0795C10.0206 26.3442 10.5115 26.911 10.9037 27.3864C12.008 28.8522 13.4879 31.092 14.5726 32.1432C15.245 32.7741 15.9524 33.3674 16.6948 33.9153C16.7185 33.838 16.74 33.762 16.762 33.6841C17.1291 32.4819 17.4818 31.2605 17.8769 30.0557C17.4725 29.5597 16.7848 29.0938 16.452 28.8103C15.4712 27.974 13.5353 26.2323 12.278 24.9542L12.2789 24.9506C11.858 24.33 11.349 23.5994 11.2497 23.1702C11.1503 22.7409 11.2471 22.1078 11.0644 21.7387C10.8812 21.3713 10.0536 20.619 9.78034 20.0811C9.50529 19.5426 9.3147 18.9171 9.11976 19.0941C8.92435 19.273 8.81713 19.5618 8.97273 19.9609C9.12832 20.3599 9.46165 20.9813 9.52843 21.2954C9.59522 21.6096 9.66174 21.8945 9.66174 21.8945C9.66174 21.8945 9.01981 21.0541 8.75092 20.688C8.41554 20.2408 8.11131 19.7705 7.84142 19.28C7.65644 18.9122 7.19405 18.2945 6.90018 18.1918C6.86288 18.1784 6.81913 18.1749 6.77757 18.1856Z" fill="white"/>
</mask>
<g mask="url(#mask7_479_118)">
<path d="M5.77811 17.6709L20.5815 22.8843L16.6964 33.9161L1.89304 28.7027L5.77811 17.6709Z" fill="url(#paint6_linear_479_118)"/>
</g>
<path d="M10.5208 28.8534C10.5208 28.8534 16.5898 35.3956 17.785 35.8657C19.5845 36.5747 18.5164 33.2839 18.7314 32.8326C18.9931 32.2826 18.8703 31.8085 19.1093 31.2488C19.2413 30.9392 19.0657 30.3156 19.2032 30.0074C19.2073 29.9988 14.3058 26.5264 14.31 26.5178L12.4633 24.9349C12.512 25.8481 12.2549 26.7505 11.732 27.5013C10.8489 28.7999 10.5208 28.8534 10.5208 28.8534Z" fill="#016A4E"/>
<path d="M17.3664 32.1789C17.5872 31.5268 17.747 30.5318 17.9407 29.8702L20.3602 30.8365C20.3602 30.8365 22.231 28.8374 23.3486 27.11C24.9892 24.5708 26.4776 21.5045 28.7696 20.8838C29.833 20.5939 33.1501 21.049 31.9189 24.8377C31.0085 27.6356 29.629 29.2418 28.4348 30.9336C27.2403 32.6271 22.459 37.8759 20.8669 37.7348C20.5163 37.7035 17.923 36.1482 16.3358 34.9538C16.6268 34.2093 17.1216 32.9053 17.3664 32.1789Z" fill="#016A4E"/>
<path d="M21.2763 21.129L20.4548 27.8215L21.3027 28.6712" fill="#016A4E"/>
<path d="M21.2763 21.129L20.4548 27.8215L21.3027 28.6712" stroke="#016A4E" stroke-width="0.294458" stroke-miterlimit="9.9979"/>
<path d="M21.7099 22.8173C21.6949 22.9884 21.8227 23.1406 21.9938 23.1557C22.1649 23.1707 22.3171 23.0429 22.3322 22.8718C22.3472 22.7007 22.2194 22.5485 22.0483 22.5334C21.8773 22.5184 21.725 22.6462 21.7099 22.8173Z" fill="#016A4E"/>
<path d="M21.3745 26.6581C21.3595 26.8292 21.4873 26.9815 21.6584 26.9965C21.8294 27.0116 21.9817 26.8837 21.9967 26.7126C22.0118 26.5416 21.8839 26.3893 21.7129 26.3743C21.5418 26.3592 21.3895 26.4852 21.3745 26.6581Z" fill="#016A4E"/>
</g>
<defs>
<linearGradient id="paint0_linear_479_118" x1="5.15869" y1="17.9655" x2="5.41626" y2="17.9602" gradientUnits="userSpaceOnUse">
<stop stop-color="#F8C1A9"/>
<stop offset="1" stop-color="#EBA789"/>
</linearGradient>
<linearGradient id="paint1_linear_479_118" x1="5.63791" y1="12.2976" x2="5.90524" y2="12.2921" gradientUnits="userSpaceOnUse">
<stop stop-color="#F8C1A9"/>
<stop offset="1" stop-color="#EBA789"/>
</linearGradient>
<linearGradient id="paint2_linear_479_118" x1="11.2531" y1="22.5212" x2="11.4317" y2="22.3329" gradientUnits="userSpaceOnUse">
<stop stop-color="#18778A"/>
<stop offset="1"/>
</linearGradient>
<linearGradient id="paint3_linear_479_118" x1="5.72544" y1="11.6035" x2="5.98511" y2="11.5982" gradientUnits="userSpaceOnUse">
<stop stop-color="#F8C1A9"/>
<stop offset="1" stop-color="#EBA789"/>
</linearGradient>
<linearGradient id="paint4_linear_479_118" x1="5.023" y1="19.5711" x2="5.2854" y2="19.5658" gradientUnits="userSpaceOnUse">
<stop stop-color="#EDEEEE"/>
<stop offset="1" stop-color="#D9DADC"/>
</linearGradient>
<linearGradient id="paint5_linear_479_118" x1="4.99633" y1="19.8194" x2="5.25585" y2="19.8142" gradientUnits="userSpaceOnUse">
<stop stop-color="#EDEEEE"/>
<stop offset="1" stop-color="#D9DADC"/>
</linearGradient>
<linearGradient id="paint6_linear_479_118" x1="3.96552" y1="23.2416" x2="4.21773" y2="23.3304" gradientUnits="userSpaceOnUse">
<stop stop-color="#F8C1A9"/>
<stop offset="1" stop-color="#EBA789"/>
</linearGradient>
<clipPath id="clip0_479_118">
<rect width="31.9459" height="30.5865" fill="white" transform="translate(0.0540771 0.0684204)"/>
</clipPath>
</defs>
</svg>
