<svg width="28" height="21" viewBox="0 0 28 21" fill="none" xmlns="http://www.w3.org/2000/svg">
<g clip-path="url(#clip0_749_126)">
<path d="M6.77858 20.5045V10.1392L3.56399 7.19838L0.681396 5.56641V18.6753C0.681396 19.6874 1.50142 20.5045 2.51059 20.5045H6.77858Z" fill="#4285F4"/>
<path d="M21.4119 20.5045H25.6799C26.6921 20.5045 27.509 19.6844 27.509 18.6753V5.56653L24.2441 7.43576L21.4119 10.1393V20.5045Z" fill="#34A853"/>
<path d="M6.77848 10.1392L6.34106 6.08915L6.77848 2.21289L14.0951 7.70037L21.4116 2.21289L21.9009 5.87988L21.4116 10.1392L14.0951 15.6266L6.77848 10.1392Z" fill="#EA4335"/>
<path d="M21.4119 2.21296V10.1392L27.509 5.5664V3.12751C27.509 0.865507 24.9269 -0.423995 23.1192 0.932576L21.4119 2.21296Z" fill="#FBBC04"/>
<path d="M0.681396 5.56645L3.48561 7.66968L6.77858 10.1393V2.21301L5.07126 0.932624C3.2604 -0.424052 0.681396 0.865555 0.681396 3.12745V5.56645Z" fill="#C5221F"/>
</g>
<defs>
<clipPath id="clip0_749_126">
<rect width="26.8275" height="20.2254" fill="white" transform="translate(0.681396 0.378662)"/>
</clipPath>
</defs>
</svg>
