<svg width="45" height="45" viewBox="0 0 45 45" fill="none" xmlns="http://www.w3.org/2000/svg">
<path d="M22.5 37.4999C23.8438 37.4999 25.1563 37.3199 26.4375 36.9599C27.7188 36.5999 28.9375 36.0768 30.0938 35.3905L22.8281 28.1249H22.5C20.4062 28.1249 18.375 28.4611 16.4063 29.1336C14.4375 29.8061 12.625 30.7824 10.9688 32.0624C12.5312 33.7811 14.25 35.1174 16.125 36.0711C18 37.0249 20.125 37.5011 22.5 37.4999ZM38.3906 43.6874L32.8594 38.1561C31.3281 39.1561 29.6875 39.9218 27.9375 40.453C26.1875 40.9843 24.375 41.2499 22.5 41.2499C19.9062 41.2499 17.4688 40.758 15.1875 39.7743C12.9063 38.7905 10.9219 37.4543 9.23438 35.7655C7.54688 34.078 6.21125 32.0936 5.2275 29.8124C4.24375 27.5311 3.75125 25.0936 3.75 22.4999C3.75 20.6561 4.00813 18.8593 4.52438 17.1093C5.04063 15.3593 5.79813 13.703 6.79688 12.1405L1.26562 6.56238L3.9375 3.8905L41.0625 41.0155L38.3906 43.6874ZM38.1563 32.8124L27.4688 22.1249C28 21.5311 28.3988 20.8674 28.665 20.1336C28.9313 19.3999 29.0638 18.6261 29.0625 17.8124C29.0625 15.9999 28.4219 14.453 27.1406 13.1718C25.8594 11.8905 24.3125 11.2499 22.5 11.2499C21.6875 11.2499 20.9144 11.383 20.1806 11.6493C19.4469 11.9155 18.7825 12.3136 18.1875 12.8436L12.1875 6.84363C13.7188 5.84363 15.3594 5.078 17.1094 4.54675C18.8594 4.0155 20.6562 3.74988 22.5 3.74988C25.0938 3.74988 27.5312 4.24238 29.8125 5.22738C32.0938 6.21238 34.0781 7.548 35.7656 9.23425C37.4531 10.9218 38.7894 12.9061 39.7744 15.1874C40.7594 17.4686 41.2513 19.9061 41.25 22.4999C41.25 24.3436 40.9844 26.1405 40.4531 27.8905C39.9219 29.6405 39.1563 31.2811 38.1563 32.8124Z" fill="#FF7272"/>
</svg>
