<svg width="360" height="430" viewBox="0 0 360 430" fill="none" xmlns="http://www.w3.org/2000/svg">
<path fill-rule="evenodd" clip-rule="evenodd" d="M163.659 53.9941C164.77 53.4392 165.7 52.5581 166.333 51.4597C165.727 51.9026 165.051 52.2318 164.336 52.4324C162.73 52.8886 161.017 52.6638 159.571 51.8074C158.125 50.951 157.065 49.5331 156.625 47.8652C156.405 47.0243 156.351 46.1461 156.466 45.2831C156.582 44.4201 156.864 43.5902 157.295 42.8432C156.246 43.6098 155.449 44.6932 155.013 45.9463C154.577 47.1994 154.522 48.5616 154.856 49.8483C155.186 51.0821 155.858 52.188 156.787 53.0293C157.432 53.6126 158.18 54.051 158.986 54.3222C158.973 54.3338 158.961 54.3459 158.949 54.3583C158.777 54.5369 158.679 54.7792 158.678 55.0322V57.0868C158.679 57.3399 158.777 57.5825 158.949 57.7613C159.121 57.9401 159.355 58.0408 159.598 58.0413H160.211C160.454 58.0401 160.687 57.9392 160.859 57.7604C161.03 57.5816 161.127 57.3396 161.128 57.0869V55.0322C161.127 54.8955 161.099 54.7619 161.045 54.6397C161.947 54.6223 162.839 54.4037 163.659 53.9941ZM159.438 64.0185H160.37C160.742 64.0178 161.099 63.8644 161.363 63.591C161.627 63.3176 161.776 62.9469 161.777 62.5597V59.4154C161.776 59.1149 161.686 58.822 161.519 58.5766C161.352 58.3311 161.117 58.1449 160.845 58.0432C160.675 58.2142 160.447 58.3098 160.211 58.3101H159.598C159.361 58.3105 159.133 58.2148 158.962 58.0432C158.69 58.145 158.455 58.3313 158.288 58.5767C158.122 58.8222 158.031 59.115 158.03 59.4154V62.5597C158.032 62.9469 158.181 63.3176 158.444 63.591C158.708 63.8644 159.065 64.0182 159.438 64.0185Z" fill="#154F30"/>
<path fill-rule="evenodd" clip-rule="evenodd" d="M163.553 67.7912C163.553 68.5814 163.328 69.3539 162.905 70.0111C162.847 70.1014 162.785 70.1894 162.72 70.2744C166.772 71.0582 170.277 73.5222 172.561 76.9074C175.059 80.7652 172.371 86.0196 167.89 86.0196H167.763C167.77 84.9691 167.576 83.9277 167.193 82.9561C166.81 81.9843 166.244 81.1017 165.529 80.3591C164.814 79.6166 163.965 79.0293 163.029 78.6313C162.094 78.233 161.092 78.0325 160.081 78.0409C158.047 78.0466 156.096 78.8889 154.658 80.3837C153.218 81.8788 152.407 83.9049 152.4 86.0196C152.4 90.2108 155.537 93.6024 159.443 94.0024H170.547L177.629 90.8755C177.763 90.816 177.91 90.7922 178.056 90.8059C178.202 90.8197 178.342 90.8711 178.465 90.9551C178.586 91.039 178.687 91.1532 178.756 91.2872C178.826 91.4212 178.862 91.5713 178.862 91.7234V94.0024H182.293C182.473 93.9386 182.639 93.8375 182.781 93.7052C182.922 93.5725 183.036 93.4117 183.116 93.232C183.195 93.0524 183.239 92.8576 183.244 92.6597C183.248 92.4619 183.215 92.2652 183.144 92.0815C182.42 90.1763 182.05 88.1458 182.054 86.0972C182.055 81.8459 183.682 77.7695 186.574 74.7635C189.467 71.7575 193.389 70.0679 197.48 70.0659C201.57 70.0659 205.494 71.7548 208.386 74.7605C211.279 77.7669 212.904 81.8439 212.904 86.0952C212.904 90.3465 211.279 94.4239 208.386 97.4299C205.494 100.436 201.57 102.125 197.48 102.125H178.862V103.983C178.862 104.135 178.826 104.285 178.756 104.419C178.687 104.553 178.587 104.667 178.465 104.751C178.342 104.835 178.202 104.886 178.056 104.901C177.91 104.914 177.763 104.89 177.629 104.831L171.493 102.121L159.892 101.985C151.06 101.985 143.827 94.1344 144.529 84.8244C144.998 77.6795 150.133 71.7447 156.747 70.3386C156.341 69.8298 156.063 69.2226 155.938 68.5707C155.79 67.7956 155.865 66.992 156.157 66.2622C156.447 65.5321 156.94 64.9081 157.573 64.4692C158.205 64.0299 158.948 63.7955 159.709 63.7955C160.213 63.7955 160.713 63.8989 161.18 64.0998C161.646 64.3006 162.07 64.5948 162.427 64.9659C162.784 65.337 163.067 65.7772 163.26 66.2622C163.454 66.7468 163.553 67.2667 163.553 67.7912ZM193.213 92.7319C194.476 93.6088 195.961 94.0766 197.48 94.076C199.514 94.0693 201.463 93.2263 202.901 91.7315C204.339 90.2367 205.151 88.2113 205.157 86.0972C205.158 84.5188 204.708 82.9753 203.864 81.6626C203.02 80.3498 201.821 79.3265 200.417 78.7223C199.014 78.1181 197.47 77.9596 195.98 78.2679C194.49 78.5756 193.122 79.3355 192.048 80.4518C190.974 81.5681 190.242 82.9904 189.946 84.5389C189.65 86.0871 189.802 87.6921 190.383 89.1503C190.965 90.6088 191.949 91.8551 193.213 92.7319Z" fill="#154F30"/>
<path d="M202.666 63.1661C202.666 64.2334 202.361 65.2765 201.791 66.1637C201.22 67.0513 200.409 67.7428 199.46 68.1512C198.512 68.5599 197.468 68.6667 196.461 68.4585C195.453 68.2503 194.528 67.7365 193.802 66.9818C193.076 66.2269 192.582 65.2654 192.381 64.2186C192.181 63.1718 192.283 62.0871 192.677 61.1011C193.07 60.1149 193.735 59.2721 194.589 58.6792C195.443 58.0862 196.447 57.7698 197.474 57.7698C198.851 57.7698 200.171 58.3383 201.145 59.3503C202.119 60.3623 202.666 61.7347 202.666 63.1661Z" fill="#154F30"/>
<path d="M20.7512 130.913C34.1394 70.5228 131.664 22.4765 178.752 6.00204C284.677 37.6723 330.026 102.472 339.46 130.913H354.719V424.502H5.00031V130.913H20.7512Z" stroke="#154F30" stroke-width="9.6875"/>
</svg>
