<svg width="20" height="20" viewBox="0 0 20 20" fill="none" xmlns="http://www.w3.org/2000/svg">
<path d="M13.2132 2.07337V0.673155C13.2132 0.305164 12.8856 0 12.4904 0C12.0953 0 11.7677 0.305164 11.7677 0.673155V2.01946H5.50373V0.673155C5.50373 0.305164 5.17607 0 4.78096 0C4.38585 0 4.0582 0.305164 4.0582 0.673155V2.07337C1.45625 2.29775 0.193861 3.74279 0.00112431 5.88791C-0.0181494 6.1482 0.213135 6.36364 0.482967 6.36364H16.7884C17.0679 6.36364 17.2992 6.13923 17.2703 5.88791C17.0775 3.74279 15.8152 2.29775 13.2132 2.07337Z" fill="white"/>
<path d="M15.455 12.7275C13.4459 12.7275 11.8186 14.3548 11.8186 16.3639C11.8186 17.0457 12.0096 17.6912 12.3459 18.2367C12.9732 19.2912 14.1277 20.0003 15.455 20.0003C16.7822 20.0003 17.9367 19.2912 18.564 18.2367C18.9004 17.6912 19.0913 17.0457 19.0913 16.3639C19.0913 14.3548 17.4641 12.7275 15.455 12.7275ZM17.3368 15.9731L15.4004 17.7639C15.2731 17.8821 15.1004 17.9457 14.9367 17.9457C14.764 17.9457 14.5912 17.8821 14.4549 17.7457L13.5549 16.8457C13.2913 16.5821 13.2913 16.1457 13.5549 15.8821C13.8185 15.6184 14.2549 15.6184 14.5186 15.8821L14.9549 16.3184L16.4096 14.973C16.6823 14.7184 17.1187 14.7366 17.3732 15.0094C17.6278 15.2821 17.6096 15.7094 17.3368 15.9731Z" fill="white"/>
<path d="M16.3041 8.18164H0.959063C0.431578 8.18164 0 8.58535 0 9.07878V14.6051C0 17.2965 1.43859 19.0907 4.79531 19.0907H9.52343C10.1852 19.0907 10.6455 18.4896 10.4345 17.9065C10.2427 17.3861 10.0798 16.812 10.0798 16.3993C10.0798 13.681 12.4486 11.4651 15.3546 11.4651C15.6327 11.4651 15.911 11.4831 16.1795 11.5279C16.7549 11.6087 17.2727 11.187 17.2727 10.6488V9.08776C17.2631 8.58536 16.8315 8.18164 16.3041 8.18164ZM5.95574 15.6906C5.77352 15.852 5.5242 15.9508 5.27484 15.9508C5.02549 15.9508 4.77617 15.852 4.59395 15.6906C4.42132 15.5201 4.31578 15.2869 4.31578 15.0536C4.31578 14.8204 4.42132 14.5871 4.59395 14.4167C4.68985 14.3359 4.78583 14.2732 4.91051 14.2283C5.26537 14.0848 5.6872 14.1655 5.95574 14.4167C6.12837 14.5871 6.23391 14.8204 6.23391 15.0536C6.23391 15.2869 6.12837 15.5201 5.95574 15.6906ZM5.95574 12.5506C5.90779 12.5865 5.85993 12.6225 5.81198 12.6583C5.75443 12.6942 5.69672 12.721 5.63918 12.7389C5.58163 12.7659 5.52415 12.7839 5.46661 12.7928C5.39948 12.8018 5.33239 12.8108 5.27484 12.8108C5.02549 12.8108 4.77617 12.7121 4.59395 12.5506C4.42132 12.3801 4.31578 12.1469 4.31578 11.9136C4.31578 11.6804 4.42132 11.4472 4.59395 11.2767C4.81453 11.0704 5.15012 10.9717 5.46661 11.0345C5.52415 11.0434 5.58163 11.0614 5.63918 11.0884C5.69672 11.1063 5.75443 11.1331 5.81198 11.169C5.85993 11.2048 5.90779 11.2408 5.95574 11.2767C6.12837 11.4472 6.23391 11.6804 6.23391 11.9136C6.23391 12.1469 6.12837 12.3801 5.95574 12.5506ZM9.31246 12.5506C9.13024 12.7121 8.88092 12.8108 8.63156 12.8108C8.38221 12.8108 8.13289 12.7121 7.95067 12.5506C7.77804 12.3801 7.6725 12.1469 7.6725 11.9136C7.6725 11.6804 7.77804 11.4472 7.95067 11.2767C8.31511 10.9448 8.95761 10.9448 9.31246 11.2767C9.48509 11.4472 9.59063 11.6804 9.59063 11.9136C9.59063 12.1469 9.48509 12.3801 9.31246 12.5506Z" fill="white"/>
</svg>
