<svg width="18" height="17" viewBox="0 0 18 17" fill="none" xmlns="http://www.w3.org/2000/svg">
<path d="M16.6668 5.10851L11.1931 0.65452C10.1234 -0.21248 8.45201 -0.220988 7.3907 0.646011L1.91698 5.10851C1.13145 5.74601 0.655266 7.02095 0.822401 8.02395L1.87516 14.433C2.1175 15.8695 3.42957 17 4.85858 17H13.7168C15.1291 17 16.4661 15.844 16.7084 14.4245L17.7614 8.01544C17.9118 7.02094 17.4356 5.74601 16.6668 5.10851ZM9.91446 13.6C9.91446 13.9485 9.63033 14.2375 9.2877 14.2375C8.94508 14.2375 8.66095 13.9485 8.66095 13.6V11.05C8.66095 10.7015 8.94508 10.4125 9.2877 10.4125C9.63033 10.4125 9.91446 10.7015 9.91446 11.05V13.6Z" fill="white"/>
</svg>
