<svg width="20" height="20" viewBox="0 0 20 20" fill="none" xmlns="http://www.w3.org/2000/svg">
<path fill-rule="evenodd" clip-rule="evenodd" d="M0.108333 4.93556C0.811667 4.71222 1.36889 4.58333 1.94444 4.58333C2.51833 4.58333 3.07389 4.71111 3.77333 4.93333C3.27889 2.67445 1.94444 0 1.94444 0C1.94444 0 0.570556 2.77556 0.108333 4.93556ZM3.88889 6.14111L3.71333 6.08278C2.88778 5.80722 2.40444 5.69389 1.94444 5.69389C1.48444 5.69389 1.00056 5.80722 0.175556 6.08278L0 6.14111V20H3.88889V6.14111ZM6.11111 12.2222V14.4444H5H7.22222V13.8889C7.22222 13.7415 7.28075 13.6002 7.38494 13.4961C7.48913 13.3919 7.63044 13.3333 7.77778 13.3333C7.92512 13.3333 8.06643 13.3919 8.17062 13.4961C8.2748 13.6002 8.33333 13.7415 8.33333 13.8889V14.4444H9.44444V13.8889C9.44444 13.7415 9.50298 13.6002 9.60716 13.4961C9.71135 13.3919 9.85266 13.3333 10 13.3333C10.1473 13.3333 10.2887 13.3919 10.3928 13.4961C10.497 13.6002 10.5556 13.7415 10.5556 13.8889V14.4444H11.6667V13.8889C11.6667 13.7415 11.7252 13.6002 11.8294 13.4961C11.9336 13.3919 12.0749 13.3333 12.2222 13.3333C12.3696 13.3333 12.5109 13.3919 12.6151 13.4961C12.7192 13.6002 12.7778 13.7415 12.7778 13.8889V14.4444H15H13.8889V12.2222H6.11111ZM14.5594 11.1111H5.44056C5.15722 10.4689 5 9.72444 5 8.88889C5 6.79722 6.76389 5.27833 8.24222 4.00611C8.68778 3.62278 9.10722 3.26167 9.44444 2.91389V1.11111H10.5556V2.91389C10.8928 3.26167 11.3122 3.62278 11.7578 4.00611C13.2356 5.27833 15 6.79722 15 8.88889C15 9.72444 14.8422 10.4689 14.5594 11.1111ZM16.1111 20H20V6.11111C19.9403 6.11117 19.8811 6.10161 19.8244 6.08278C18.9994 5.80722 18.5156 5.69389 18.0556 5.69389C17.5956 5.69389 17.1117 5.80722 16.2867 6.08278L16.1111 6.14111V20ZM16.2194 4.93556C16.9228 4.71222 17.48 4.58333 18.0556 4.58333C18.6289 4.58333 19.185 4.71111 19.8844 4.93333C19.39 2.67445 18.0556 0 18.0556 0C18.0556 0 16.6817 2.77556 16.2194 4.93556ZM15 20V15.5556H5V20H7.22222V19.3778C7.22228 18.955 7.34295 18.541 7.57007 18.1843C7.79719 17.8277 8.12133 17.5433 8.50445 17.3644L10 16.6667L11.4956 17.3644C11.8788 17.5433 12.203 17.8278 12.4301 18.1846C12.6572 18.5413 12.7778 18.9554 12.7778 19.3783V20H15Z" fill="white"/>
</svg>
