<svg width="21" height="23" viewBox="0 0 21 23" fill="none" xmlns="http://www.w3.org/2000/svg">
<path d="M8.06836 11.3423C8.06836 10.1023 9.07836 9.09229 10.3184 9.09229C11.5584 9.09229 12.5684 10.1023 12.5684 11.3423C12.5684 12.5823 11.5584 13.5923 10.3184 13.5923C9.07836 13.5923 8.06836 12.5823 8.06836 11.3423Z" fill="white"/>
<path fill-rule="evenodd" clip-rule="evenodd" d="M6.90825 2.5725C7.88825 -0.8575 12.7481 -0.8575 13.7281 2.5725C14.0381 3.6425 15.1281 4.27268 16.2081 4.00268C19.6681 3.13268 22.1082 7.35234 19.6182 9.91234C18.8482 10.7123 18.8482 11.9727 19.6182 12.7727C22.1082 15.3327 19.6681 19.5524 16.2081 18.6824C15.1281 18.4124 14.0381 19.0425 13.7281 20.1125C12.7481 23.5425 7.88825 23.5425 6.90825 20.1125C6.59825 19.0425 5.50827 18.4124 4.42827 18.6824C0.968272 19.5524 -1.47188 15.3327 1.01812 12.7727C1.78812 11.9727 1.78812 10.7123 1.01812 9.91234C-1.47188 7.35234 0.968272 3.13268 4.42827 4.00268C5.50827 4.27268 6.59825 3.6425 6.90825 2.5725ZM10.3182 7.59252C8.24817 7.59252 6.56816 9.27252 6.56816 11.3425C6.56816 13.4125 8.24817 15.0925 10.3182 15.0925C12.3882 15.0925 14.0682 13.4125 14.0682 11.3425C14.0682 9.27252 12.3882 7.59252 10.3182 7.59252Z" fill="white"/>
</svg>
