<svg width="172" height="88" viewBox="0 0 172 88" fill="none" xmlns="http://www.w3.org/2000/svg">
<g clip-path="url(#clip0_46_347)">
<path fill-rule="evenodd" clip-rule="evenodd" d="M122.704 11C125.645 11 128.029 13.3839 128.029 16.3246C128.029 19.2652 125.645 21.6491 122.704 21.6491H92.278C95.2187 21.6491 97.6026 24.033 97.6026 26.9737C97.6026 29.9143 95.2187 32.2982 92.278 32.2982H109.012C111.953 32.2982 114.337 34.6821 114.337 37.6228C114.337 40.5634 111.953 42.9473 109.012 42.9473H101.273C97.5661 42.9473 94.56 45.3312 94.56 48.2719C94.56 50.2323 96.0813 52.0072 99.1239 53.5964C102.065 53.5964 104.448 55.9803 104.448 58.921C104.448 61.8616 102.065 64.2455 99.1239 64.2455H35.9899C33.0492 64.2455 30.6654 61.8616 30.6654 58.921C30.6654 55.9803 33.0492 53.5964 35.9899 53.5964H6.32455C3.38389 53.5964 1 51.2125 1 48.2719C1 45.3312 3.38389 42.9473 6.32455 42.9473H36.7506C39.6912 42.9473 42.0751 40.5634 42.0751 37.6228C42.0751 34.6821 39.6912 32.2982 36.7506 32.2982H17.7343C14.7936 32.2982 12.4098 29.9143 12.4098 26.9737C12.4098 24.033 14.7936 21.6491 17.7343 21.6491H48.1603C45.2196 21.6491 42.8358 19.2652 42.8358 16.3246C42.8358 13.3839 45.2196 11 48.1603 11H122.704ZM122.704 32.2982C125.645 32.2982 128.029 34.6821 128.029 37.6228C128.029 40.5634 125.645 42.9473 122.704 42.9473C119.763 42.9473 117.379 40.5634 117.379 37.6228C117.379 34.6821 119.763 32.2982 122.704 32.2982Z" fill="#E9FFF4"/>
</g>
<path fill-rule="evenodd" clip-rule="evenodd" d="M166.675 11C169.616 11 172 13.3839 172 16.3246C172 19.2652 169.616 21.6491 166.675 21.6491H136.249C139.19 21.6491 141.574 24.033 141.574 26.9737C141.574 29.9143 139.19 32.2982 136.249 32.2982H152.984C155.924 32.2982 158.308 34.6821 158.308 37.6228C158.308 40.5634 155.924 42.9473 152.984 42.9473H145.245C141.537 42.9473 138.531 45.3312 138.531 48.2719C138.531 50.2323 140.053 52.0072 143.095 53.5964C146.036 53.5964 148.42 55.9803 148.42 58.921C148.42 61.8616 146.036 64.2455 143.095 64.2455H79.9613C77.0207 64.2455 74.6368 61.8616 74.6368 58.921C74.6368 55.9803 77.0207 53.5964 79.9613 53.5964H50.296C47.3553 53.5964 44.9714 51.2125 44.9714 48.2719C44.9714 45.3312 47.3553 42.9473 50.296 42.9473H80.722C83.6627 42.9473 86.0465 40.5634 86.0465 37.6228C86.0465 34.6821 83.6627 32.2982 80.722 32.2982H61.7057C58.7651 32.2982 56.3812 29.9143 56.3812 26.9737C56.3812 24.033 58.7651 21.6491 61.7057 21.6491H92.1317C89.1911 21.6491 86.8072 19.2652 86.8072 16.3246C86.8072 13.3839 89.1911 11 92.1317 11H166.675ZM166.675 32.2982C169.616 32.2982 172 34.6821 172 37.6228C172 40.5634 169.616 42.9473 166.675 42.9473C163.735 42.9473 161.351 40.5634 161.351 37.6228C161.351 34.6821 163.735 32.2982 166.675 32.2982Z" fill="#E9FFF4"/>
<g clip-path="url(#clip1_46_347)">
<mask id="mask0_46_347" style="mask-type:luminance" maskUnits="userSpaceOnUse" x="50" y="0" width="87" height="78">
<path d="M136.511 0H50V77.4691H136.511V0Z" fill="white"/>
</mask>
<g mask="url(#mask0_46_347)">
<path d="M113.42 65.7276C107.106 71.4981 98.9666 74.87 90.4215 75.2557C81.8763 75.6414 73.4668 73.0165 66.6583 67.8383C59.8499 62.6601 55.0743 55.257 53.1639 46.9193C51.2534 38.5815 52.3292 29.8377 56.2037 22.2117C60.0783 14.5857 66.5059 8.56098 74.3665 5.18758C82.227 1.81417 91.0221 1.30594 99.2189 3.75146C107.416 6.19698 114.495 11.4412 119.222 18.5701C123.949 25.6991 126.025 34.2608 125.087 42.7631" fill="#E9FFF4"/>
<path d="M113.42 65.7276C107.106 71.4981 98.9666 74.87 90.4215 75.2557C81.8763 75.6414 73.4668 73.0165 66.6583 67.8383C59.8499 62.6601 55.0743 55.257 53.1639 46.9193C51.2534 38.5815 52.3292 29.8377 56.2037 22.2117C60.0783 14.5857 66.5059 8.56098 74.3665 5.18758C82.227 1.81417 91.0221 1.30594 99.2189 3.75146C107.416 6.19698 114.495 11.4412 119.222 18.5701C123.949 25.6991 126.025 34.2608 125.087 42.7631" stroke="#054635" stroke-width="1.98279" stroke-miterlimit="10"/>
<path d="M136.511 56.8963C136.511 59.3872 135.773 61.8221 134.389 63.8932C133.005 65.9643 131.038 67.5785 128.737 68.5318C126.435 69.485 123.903 69.7344 121.46 69.2484C119.017 68.7625 116.773 67.563 115.012 65.8017C113.251 64.0404 112.051 61.7963 111.565 59.3533C111.079 56.9103 111.329 54.3781 112.282 52.0768C113.235 49.7755 114.849 47.8086 116.92 46.4247C118.991 45.0409 121.426 44.3022 123.917 44.3022C127.257 44.3022 130.461 45.6291 132.823 47.991C135.184 50.3528 136.511 53.5562 136.511 56.8963Z" fill="#054635"/>
<path d="M128.531 60.3792L127.4 61.5099L123.917 58.0268L120.434 61.5099L119.303 60.3792L122.786 56.8961L119.303 53.4129L120.434 52.2822L123.917 55.7653L127.4 52.2822L128.531 53.4129L125.048 56.8961L128.531 60.3792Z" fill="white"/>
</g>
<path d="M89.9278 14.9731V42.8398L79.1139 53.6537" stroke="#054635" stroke-width="1.98279" stroke-linecap="round"/>
<path d="M133.119 38.3527C134.362 38.3527 135.369 37.3453 135.369 36.1026C135.369 34.8599 134.362 33.8525 133.119 33.8525C131.876 33.8525 130.869 34.8599 130.869 36.1026C130.869 37.3453 131.876 38.3527 133.119 38.3527Z" fill="#EEFAF2" stroke="#054635" stroke-width="1.98279"/>
<path d="M56.0112 9.20185C57.2539 9.20185 58.2613 8.19445 58.2613 6.95176C58.2613 5.70906 57.2539 4.70166 56.0112 4.70166C54.7685 4.70166 53.7611 5.70906 53.7611 6.95176C53.7611 8.19445 54.7685 9.20185 56.0112 9.20185Z" fill="#EEFAF2" stroke="#054635" stroke-width="1.98279"/>
</g>
<path fill-rule="evenodd" clip-rule="evenodd" d="M39.0497 83.6776C37.9651 80.9672 35.817 78.8189 33.106 77.734L31 76.8922L33.106 76.0492C35.817 74.9644 37.9651 72.816 39.0497 70.1057L39.8922 68L40.7348 70.1057C41.8193 72.816 43.9674 74.9644 46.6785 76.0492L48.7844 76.8922L46.6785 77.734C43.9674 78.8189 41.8193 80.9672 40.7348 83.6776L39.8922 85.7844L39.0497 83.6776Z" stroke="#054635" stroke-width="2.5" stroke-linejoin="round"/>
<defs>
<clipPath id="clip0_46_347">
<rect width="161.229" height="67.5809" fill="white" transform="translate(0 15.1851)"/>
</clipPath>
<clipPath id="clip1_46_347">
<rect width="86.5114" height="77.4691" fill="white" transform="translate(50)"/>
</clipPath>
</defs>
</svg>
