<svg width="36" height="24" viewBox="0 0 36 24" fill="none" xmlns="http://www.w3.org/2000/svg">
<path d="M33 7.5V4.5H30V7.5H27V10.5H30V13.5H33V10.5H36V7.5H33ZM12 12C15.315 12 18 9.315 18 6C18 2.685 15.315 0 12 0C8.685 0 6 2.685 6 6C6 9.315 8.685 12 12 12ZM12 13.5C7.995 13.5 0 15.51 0 19.5V24H24V19.5C24 15.51 16.005 13.5 12 13.5ZM18.765 0.0750003C20.145 1.665 21 3.735 21 6C21 8.265 20.145 10.335 18.765 11.925C21.705 11.55 24 9.06 24 6C24 2.94 21.705 0.45 18.765 0.0750003ZM24.795 14.745C26.13 15.99 27 17.55 27 19.5V24H30V19.5C30 17.325 27.615 15.735 24.795 14.745Z" fill="white"/>
</svg>
