<svg width="170" height="170" viewBox="0 0 170 170" fill="none" xmlns="http://www.w3.org/2000/svg">
<g clip-path="url(#clip0_107_3001)">
<rect width="170" height="170" rx="85" fill="#E7FFF2"/>
<path d="M55.0125 89.1625V72.0125C55.0125 68.0712 55.7888 64.1685 57.2971 60.5272C58.8053 56.8859 61.016 53.5774 63.803 50.7905C66.5899 48.0035 69.8984 45.7928 73.5397 44.2846C77.181 42.7763 81.0837 42 85.025 42C88.9663 42 92.869 42.7763 96.5103 44.2846C100.152 45.7928 103.46 48.0035 106.247 50.7905C109.034 53.5774 111.245 56.8859 112.753 60.5272C114.261 64.1685 115.037 68.0712 115.037 72.0125V89.1625C115.037 99.3667 109.953 108.37 102.175 113.798V121.945C102.176 123.658 102.69 125.332 103.652 126.75C104.613 128.169 105.977 129.267 107.569 129.902L121.169 135.347C128.219 138.167 134.263 143.035 138.52 149.324C142.777 155.612 145.051 163.031 145.05 170.625H25C24.9987 163.031 27.2733 155.612 31.5301 149.324C35.787 143.035 41.8307 138.167 48.8814 135.347L62.4813 129.902C64.0725 129.267 65.4368 128.169 66.3981 126.75C67.3595 125.332 67.8739 123.658 67.875 121.945V113.798C63.9037 111.033 60.66 107.349 58.4203 103.059C56.1807 98.7693 55.0115 94.0017 55.0125 89.1625Z" fill="#154F30"/>
</g>
<defs>
<clipPath id="clip0_107_3001">
<rect width="170" height="170" rx="85" fill="white"/>
</clipPath>
</defs>
</svg>
