<svg width="93" height="93" viewBox="0 0 93 93" fill="none" xmlns="http://www.w3.org/2000/svg">
<rect width="93" height="93" rx="46.5" fill="#C3C3C3"/>
<path d="M34.5 39.8V32.6C34.5 30.9453 34.8233 29.3069 35.4515 27.7782C36.0797 26.2495 37.0004 24.8605 38.1612 23.6905C39.3219 22.5204 40.6999 21.5923 42.2165 20.9591C43.733 20.3259 45.3585 20 47 20C48.6415 20 50.267 20.3259 51.7835 20.9591C53.3001 21.5923 54.6781 22.5204 55.8388 23.6905C56.9996 24.8605 57.9203 26.2495 58.5485 27.7782C59.1767 29.3069 59.5 30.9453 59.5 32.6V39.8C59.5 44.084 57.3821 47.864 54.1429 50.1428V53.5628C54.1433 54.2822 54.3576 54.9849 54.758 55.5804C55.1584 56.1758 55.7266 56.6367 56.3893 56.9036L62.0536 59.1896C64.9898 60.3738 67.5067 62.4177 69.2796 65.0575C71.0525 67.6974 72 70.8121 72 74H22C22 70.8121 22.9475 67.6974 24.7204 65.0575C26.4933 62.4177 29.0102 60.3738 31.9464 59.1896L37.6107 56.9036C38.2734 56.6367 38.8416 56.1758 39.242 55.5804C39.6424 54.9849 39.8567 54.2822 39.8571 53.5628V50.1428C38.2023 48.9828 36.8506 47.4361 35.9177 45.635C34.9848 43.8338 34.4984 41.8318 34.5 39.8Z" fill="white"/>
</svg>
