<svg width="349" height="248" viewBox="0 0 349 248" fill="none" xmlns="http://www.w3.org/2000/svg">
<path fill-rule="evenodd" clip-rule="evenodd" d="M127.923 36H18.8466C8.99019 36 1 43.9902 1 53.8466V230.153C1 240.01 8.9902 248 18.8466 248H332.153C342.01 248 350 240.01 350 230.153V53.8466C350 43.9902 342.01 36 332.153 36H222.085C221.469 60.9963 200.626 81.0737 175.004 81.0737C149.382 81.0737 128.539 60.9963 127.923 36Z" fill="white"/>
<ellipse cx="175.651" cy="37.201" rx="40.6506" ry="37.201" fill="white"/>
<path d="M349.5 199H175V247.997H331.653C341.51 247.997 349.5 240.006 349.5 230.15V199Z" fill="#FF7272"/>
<path d="M249.857 220.229H251.727L254.576 225.188H254.694L257.543 220.229H259.413L255.455 226.856V231.138H253.815V226.856L249.857 220.229ZM263.018 231.304C262.212 231.304 261.517 231.131 260.935 230.787C260.356 230.439 259.909 229.951 259.593 229.322C259.28 228.69 259.124 227.95 259.124 227.101C259.124 226.263 259.28 225.524 259.593 224.885C259.909 224.246 260.349 223.747 260.914 223.388C261.482 223.029 262.146 222.85 262.906 222.85C263.368 222.85 263.815 222.926 264.248 223.079C264.682 223.232 265.07 223.472 265.415 223.798C265.759 224.125 266.031 224.549 266.23 225.071C266.429 225.59 266.528 226.22 266.528 226.962V227.527H260.024V226.334H264.967C264.967 225.915 264.882 225.544 264.712 225.22C264.541 224.894 264.302 224.636 263.993 224.448C263.687 224.26 263.329 224.166 262.917 224.166C262.469 224.166 262.079 224.276 261.745 224.496C261.415 224.713 261.159 224.997 260.978 225.348C260.8 225.696 260.711 226.075 260.711 226.483V227.415C260.711 227.962 260.807 228.427 260.999 228.811C261.194 229.194 261.466 229.487 261.814 229.69C262.162 229.888 262.569 229.988 263.034 229.988C263.336 229.988 263.611 229.945 263.859 229.86C264.108 229.771 264.323 229.64 264.504 229.466C264.685 229.292 264.824 229.077 264.919 228.821L266.427 229.093C266.306 229.537 266.09 229.926 265.777 230.26C265.468 230.59 265.079 230.847 264.611 231.032C264.145 231.213 263.614 231.304 263.018 231.304ZM274.426 224.954L272.983 225.21C272.922 225.025 272.827 224.849 272.695 224.682C272.567 224.516 272.393 224.379 272.173 224.272C271.953 224.166 271.678 224.113 271.347 224.113C270.896 224.113 270.52 224.214 270.218 224.416C269.916 224.615 269.765 224.872 269.765 225.188C269.765 225.462 269.867 225.682 270.069 225.849C270.271 226.016 270.598 226.153 271.049 226.259L272.349 226.557C273.102 226.731 273.663 227 274.032 227.362C274.401 227.724 274.586 228.195 274.586 228.773C274.586 229.263 274.444 229.7 274.16 230.084C273.879 230.464 273.487 230.762 272.983 230.979C272.482 231.195 271.901 231.304 271.241 231.304C270.325 231.304 269.577 231.108 268.998 230.718C268.42 230.323 268.064 229.764 267.933 229.04L269.472 228.805C269.568 229.207 269.765 229.51 270.064 229.716C270.362 229.919 270.751 230.02 271.23 230.02C271.752 230.02 272.17 229.912 272.482 229.695C272.795 229.475 272.951 229.207 272.951 228.891C272.951 228.635 272.855 228.42 272.663 228.246C272.475 228.072 272.186 227.941 271.795 227.852L270.41 227.548C269.646 227.374 269.082 227.097 268.716 226.717C268.354 226.337 268.173 225.856 268.173 225.274C268.173 224.791 268.308 224.368 268.578 224.006C268.847 223.644 269.22 223.361 269.696 223.159C270.172 222.953 270.717 222.85 271.331 222.85C272.216 222.85 272.912 223.042 273.42 223.425C273.927 223.805 274.263 224.315 274.426 224.954Z" fill="white"/>
<path d="M183 24.4307V22.1464C183 21.5461 182.456 21.0482 181.8 21.0482C181.144 21.0482 180.6 21.5461 180.6 22.1464V24.3428H170.2V22.1464C170.2 21.5461 169.656 21.0482 169 21.0482C168.344 21.0482 167.8 21.5461 167.8 22.1464V24.4307C163.48 24.7968 161.384 27.1542 161.064 30.6538C161.032 31.0784 161.416 31.4299 161.864 31.4299H188.936C189.4 31.4299 189.784 31.0638 189.736 30.6538C189.416 27.1542 187.32 24.7968 183 24.4307Z" fill="#FF7272"/>
<path d="M188.2 33.6256H162.6C161.72 33.6256 161 34.2845 161 35.0899V44.1095C161 48.5023 163.4 51.4308 169 51.4308H176.888C177.992 51.4308 178.76 50.4496 178.408 49.4978C178.088 48.6486 177.816 47.7116 177.816 47.038C177.816 42.6013 181.768 38.9846 186.616 38.9846C187.08 38.9846 187.545 39.014 187.993 39.0872C188.953 39.219 189.816 38.5308 189.816 37.6523V35.1045C189.8 34.2845 189.08 33.6256 188.2 33.6256ZM170.936 45.8812C170.632 46.1448 170.216 46.3059 169.8 46.3059C169.384 46.3059 168.968 46.1448 168.664 45.8812C168.376 45.603 168.2 45.2223 168.2 44.8416C168.2 44.4609 168.376 44.0803 168.664 43.8021C168.824 43.6703 168.984 43.5679 169.192 43.4946C169.784 43.2604 170.488 43.3921 170.936 43.8021C171.224 44.0803 171.4 44.4609 171.4 44.8416C171.4 45.2223 171.224 45.603 170.936 45.8812ZM170.936 40.7563C170.856 40.8149 170.776 40.8736 170.696 40.9322C170.6 40.9908 170.504 41.0345 170.408 41.0638C170.312 41.1077 170.216 41.1371 170.12 41.1517C170.008 41.1663 169.896 41.181 169.8 41.181C169.384 41.181 168.968 41.0199 168.664 40.7563C168.376 40.4781 168.2 40.0975 168.2 39.7168C168.2 39.3361 168.376 38.9554 168.664 38.6772C169.032 38.3404 169.592 38.1793 170.12 38.2818C170.216 38.2965 170.312 38.3258 170.408 38.3698C170.504 38.399 170.6 38.4427 170.696 38.5013C170.776 38.5599 170.856 38.6186 170.936 38.6772C171.224 38.9554 171.4 39.3361 171.4 39.7168C171.4 40.0975 171.224 40.4781 170.936 40.7563ZM176.536 40.7563C176.232 41.0199 175.816 41.181 175.4 41.181C174.984 41.181 174.568 41.0199 174.264 40.7563C173.976 40.4781 173.8 40.0975 173.8 39.7168C173.8 39.3361 173.976 38.9554 174.264 38.6772C174.872 38.1354 175.944 38.1354 176.536 38.6772C176.824 38.9554 177 39.3361 177 39.7168C177 40.0975 176.824 40.4781 176.536 40.7563Z" fill="#FF7272"/>
<path d="M186.143 41.3386C182.351 41.3386 179.286 44.1437 179.286 47.614C179.286 51.0842 182.351 53.8893 186.143 53.8893C189.935 53.8893 193 51.0842 193 47.614C193 44.1437 189.935 41.3386 186.143 41.3386ZM189.092 50.3124C189.028 50.3706 188.953 50.4167 188.87 50.4482C188.787 50.4797 188.698 50.4959 188.608 50.4959C188.518 50.4959 188.429 50.4797 188.346 50.4482C188.263 50.4167 188.188 50.3706 188.125 50.3124L186.143 48.4988L184.161 50.3124C184.033 50.4297 183.859 50.4956 183.678 50.4956C183.496 50.4956 183.322 50.4297 183.194 50.3124C183.066 50.195 182.994 50.0359 182.994 49.87C182.994 49.7878 183.012 49.7064 183.046 49.6305C183.08 49.5546 183.131 49.4857 183.194 49.4276L185.176 47.614L183.194 45.8004C183.066 45.6831 182.994 45.5239 182.994 45.358C182.994 45.1921 183.066 45.0329 183.194 44.9156C183.322 44.7982 183.496 44.7323 183.678 44.7323C183.859 44.7323 184.033 44.7982 184.161 44.9156L186.143 46.7292L188.125 44.9156C188.188 44.8575 188.263 44.8114 188.346 44.7799C188.429 44.7485 188.518 44.7323 188.608 44.7323C188.698 44.7323 188.787 44.7485 188.87 44.7799C188.953 44.8114 189.028 44.8575 189.092 44.9156C189.155 44.9737 189.205 45.0426 189.24 45.1186C189.274 45.1945 189.292 45.2758 189.292 45.358C189.292 45.4402 189.274 45.5215 189.24 45.5974C189.205 45.6733 189.155 45.7423 189.092 45.8004L187.11 47.614L189.092 49.4276C189.352 49.666 189.352 50.0676 189.092 50.3124Z" fill="#FF7272"/>
<path d="M0 199H174.5V247.997H17.8466C7.99019 247.997 0 240.006 0 230.15V199Z" fill="#9F9E9E"/>
<path d="M66.1985 230.223V219.314H70.1935C70.9677 219.314 71.6087 219.442 72.1165 219.698C72.6243 219.95 73.0043 220.293 73.2564 220.726C73.5085 221.156 73.6346 221.64 73.6346 222.18C73.6346 222.635 73.5511 223.018 73.3842 223.331C73.2173 223.64 72.9936 223.888 72.7131 224.076C72.4361 224.261 72.1307 224.396 71.7969 224.481V224.588C72.1591 224.605 72.5124 224.723 72.8569 224.939C73.2049 225.152 73.4925 225.456 73.7198 225.85C73.9471 226.244 74.0607 226.724 74.0607 227.288C74.0607 227.846 73.9293 228.347 73.6665 228.791C73.4073 229.231 73.006 229.581 72.4627 229.84C71.9194 230.096 71.2251 230.223 70.38 230.223H66.1985ZM67.8445 228.812H70.2202C71.0085 228.812 71.5732 228.659 71.9141 228.354C72.255 228.048 72.4254 227.667 72.4254 227.208C72.4254 226.864 72.3384 226.548 72.1644 226.26C71.9904 225.973 71.7418 225.744 71.4187 225.573C71.0991 225.403 70.7191 225.317 70.2788 225.317H67.8445V228.812ZM67.8445 224.034H70.0497C70.419 224.034 70.7511 223.963 71.0458 223.821C71.3441 223.679 71.5803 223.48 71.7543 223.224C71.9318 222.965 72.0206 222.659 72.0206 222.308C72.0206 221.857 71.8626 221.479 71.5465 221.173C71.2305 220.868 70.7457 220.715 70.0923 220.715H67.8445V224.034ZM78.2662 230.404C77.7477 230.404 77.2789 230.309 76.8599 230.117C76.4409 229.922 76.1088 229.639 75.8638 229.27C75.6223 228.901 75.5016 228.448 75.5016 227.912C75.5016 227.45 75.5904 227.07 75.7679 226.772C75.9455 226.473 76.1852 226.237 76.487 226.063C76.7889 225.889 77.1262 225.758 77.4991 225.669C77.872 225.58 78.252 225.513 78.639 225.467C79.1291 225.41 79.5268 225.364 79.8322 225.328C80.1376 225.289 80.3596 225.227 80.498 225.142C80.6365 225.056 80.7058 224.918 80.7058 224.726V224.689C80.7058 224.224 80.5744 223.863 80.3116 223.608C80.0524 223.352 79.6653 223.224 79.1504 223.224C78.6142 223.224 78.1916 223.343 77.8826 223.581C77.5772 223.815 77.3659 224.076 77.2488 224.364L75.752 224.023C75.9295 223.526 76.1887 223.125 76.5297 222.819C76.8741 222.51 77.2701 222.287 77.7175 222.148C78.165 222.006 78.6355 221.935 79.1291 221.935C79.4558 221.935 79.802 221.974 80.1678 222.052C80.5371 222.127 80.8816 222.265 81.2012 222.468C81.5243 222.67 81.7889 222.96 81.9949 223.336C82.2008 223.709 82.3038 224.194 82.3038 224.79V230.223H80.7484V229.105H80.6845C80.5815 229.311 80.427 229.513 80.2211 229.712C80.0151 229.911 79.7505 230.076 79.4274 230.207C79.1042 230.339 78.7172 230.404 78.2662 230.404ZM78.6124 229.126C79.0527 229.126 79.4292 229.039 79.7417 228.865C80.0577 228.691 80.2974 228.464 80.4608 228.183C80.6277 227.899 80.7111 227.596 80.7111 227.272V226.218C80.6543 226.275 80.5442 226.328 80.3809 226.378C80.2211 226.424 80.0382 226.465 79.8322 226.5C79.6262 226.532 79.4256 226.562 79.2303 226.591C79.035 226.615 78.8716 226.637 78.7402 226.654C78.4313 226.694 78.149 226.759 77.8933 226.852C77.6412 226.944 77.4387 227.077 77.286 227.251C77.1369 227.422 77.0623 227.649 77.0623 227.933C77.0623 228.327 77.2079 228.625 77.4991 228.828C77.7903 229.027 78.1614 229.126 78.6124 229.126ZM87.8715 230.389C87.0796 230.389 86.3978 230.209 85.8261 229.851C85.2579 229.488 84.8211 228.989 84.5157 228.354C84.2103 227.718 84.0576 226.99 84.0576 226.17C84.0576 225.339 84.2139 224.605 84.5264 223.97C84.8389 223.331 85.2792 222.832 85.8474 222.473C86.4156 222.114 87.085 221.935 87.8556 221.935C88.477 221.935 89.031 222.05 89.5175 222.281C90.004 222.509 90.3964 222.828 90.6947 223.24C90.9965 223.652 91.1759 224.133 91.2327 224.684H89.6826C89.5974 224.3 89.4021 223.97 89.0967 223.693C88.7948 223.416 88.39 223.277 87.8822 223.277C87.4383 223.277 87.0494 223.395 86.7156 223.629C86.3854 223.86 86.1279 224.19 85.9433 224.62C85.7586 225.046 85.6663 225.55 85.6663 226.132C85.6663 226.729 85.7568 227.244 85.9379 227.677C86.1191 228.11 86.3747 228.446 86.705 228.684C87.0388 228.922 87.4312 229.041 87.8822 229.041C88.184 229.041 88.4575 228.986 88.7025 228.876C88.9511 228.762 89.1588 228.601 89.3257 228.391C89.4962 228.181 89.6151 227.929 89.6826 227.635H91.2327C91.1759 228.164 91.0036 228.636 90.716 229.052C90.4284 229.467 90.0431 229.794 89.5601 230.032C89.0807 230.27 88.5178 230.389 87.8715 230.389ZM94.4007 227.448L94.3901 225.504H94.6671L97.927 222.042H99.834L96.1159 225.983H95.8656L94.4007 227.448ZM92.9359 230.223V219.314H94.5286V230.223H92.9359ZM98.1028 230.223L95.1731 226.335L96.2704 225.222L100.058 230.223H98.1028Z" fill="white"/>
</svg>
