<svg width="349" height="364" viewBox="0 0 349 364" fill="none" xmlns="http://www.w3.org/2000/svg">
<path fill-rule="evenodd" clip-rule="evenodd" d="M126.917 39H17.8466C7.99019 39 0 46.9902 0 56.8466V346.153C0 356.01 7.9902 364 17.8466 364H331.153C341.01 364 349 356.01 349 346.153V56.8466C349 46.9902 341.01 39 331.153 39H221.092C220.641 66.471 199.732 88.5914 174.004 88.5914C148.277 88.5914 127.367 66.471 126.917 39Z" fill="white"/>
<circle cx="174.651" cy="40.6506" r="40.6506" fill="white"/>
<path d="M349.5 310H175V363.54H331.653C341.51 363.54 349.5 355.55 349.5 345.693V310Z" fill="#FF7272"/>
<path d="M249.857 332.911H251.727L254.576 337.87H254.694L257.543 332.911H259.413L255.455 339.538V343.82H253.815V339.538L249.857 332.911ZM263.018 343.985C262.212 343.985 261.517 343.813 260.935 343.469C260.356 343.121 259.909 342.632 259.593 342.004C259.28 341.372 259.124 340.631 259.124 339.783C259.124 338.945 259.28 338.206 259.593 337.567C259.909 336.928 260.349 336.429 260.914 336.07C261.482 335.711 262.146 335.532 262.906 335.532C263.368 335.532 263.815 335.608 264.248 335.761C264.682 335.914 265.07 336.153 265.415 336.48C265.759 336.807 266.031 337.231 266.23 337.753C266.429 338.272 266.528 338.902 266.528 339.644V340.209H260.024V339.016H264.967C264.967 338.597 264.882 338.225 264.712 337.902C264.541 337.576 264.302 337.318 263.993 337.13C263.687 336.942 263.329 336.848 262.917 336.848C262.469 336.848 262.079 336.958 261.745 337.178C261.415 337.395 261.159 337.679 260.978 338.03C260.8 338.378 260.711 338.756 260.711 339.165V340.097C260.711 340.644 260.807 341.109 260.999 341.493C261.194 341.876 261.466 342.169 261.814 342.371C262.162 342.57 262.569 342.67 263.034 342.67C263.336 342.67 263.611 342.627 263.859 342.542C264.108 342.453 264.323 342.322 264.504 342.148C264.685 341.974 264.824 341.759 264.919 341.503L266.427 341.775C266.306 342.219 266.09 342.608 265.777 342.941C265.468 343.272 265.079 343.529 264.611 343.714C264.145 343.895 263.614 343.985 263.018 343.985ZM274.426 337.636L272.983 337.892C272.922 337.707 272.827 337.531 272.695 337.364C272.567 337.197 272.393 337.061 272.173 336.954C271.953 336.848 271.678 336.794 271.347 336.794C270.896 336.794 270.52 336.896 270.218 337.098C269.916 337.297 269.765 337.554 269.765 337.87C269.765 338.144 269.867 338.364 270.069 338.531C270.271 338.698 270.598 338.835 271.049 338.941L272.349 339.239C273.102 339.413 273.663 339.681 274.032 340.044C274.401 340.406 274.586 340.876 274.586 341.455C274.586 341.945 274.444 342.382 274.16 342.766C273.879 343.146 273.487 343.444 272.983 343.661C272.482 343.877 271.901 343.985 271.241 343.985C270.325 343.985 269.577 343.79 268.998 343.4C268.42 343.005 268.064 342.446 267.933 341.722L269.472 341.487C269.568 341.888 269.765 342.192 270.064 342.398C270.362 342.6 270.751 342.702 271.23 342.702C271.752 342.702 272.17 342.593 272.482 342.377C272.795 342.157 272.951 341.888 272.951 341.572C272.951 341.317 272.855 341.102 272.663 340.928C272.475 340.754 272.186 340.623 271.795 340.534L270.41 340.23C269.646 340.056 269.082 339.779 268.716 339.399C268.354 339.019 268.173 338.538 268.173 337.956C268.173 337.473 268.308 337.05 268.578 336.688C268.847 336.326 269.22 336.043 269.696 335.841C270.172 335.635 270.717 335.532 271.331 335.532C272.216 335.532 272.912 335.724 273.42 336.107C273.927 336.487 274.263 336.997 274.426 337.636Z" fill="white"/>
<path d="M182 26.6961V24.2C182 23.544 181.456 23 180.8 23C180.144 23 179.6 23.544 179.6 24.2V26.6001H169.2V24.2C169.2 23.544 168.656 23 168 23C167.344 23 166.8 23.544 166.8 24.2V26.6961C162.48 27.0962 160.384 29.6722 160.064 33.4963C160.032 33.9603 160.416 34.3443 160.864 34.3443H187.936C188.4 34.3443 188.784 33.9443 188.736 33.4963C188.416 29.6722 186.32 27.0962 182 26.6961Z" fill="#FF7272"/>
<path d="M187.2 36.7435H161.6C160.72 36.7435 160 37.4635 160 38.3436V48.1996C160 52.9996 162.4 56.1997 168 56.1997H175.888C176.992 56.1997 177.76 55.1276 177.408 54.0875C177.088 53.1595 176.816 52.1356 176.816 51.3996C176.816 46.5515 180.768 42.5995 185.616 42.5995C186.08 42.5995 186.545 42.6316 186.993 42.7116C187.953 42.8556 188.816 42.1036 188.816 41.1436V38.3596C188.8 37.4636 188.08 36.7435 187.2 36.7435ZM169.936 50.1355C169.632 50.4235 169.216 50.5996 168.8 50.5996C168.384 50.5996 167.968 50.4235 167.664 50.1355C167.376 49.8315 167.2 49.4156 167.2 48.9996C167.2 48.5836 167.376 48.1676 167.664 47.8636C167.824 47.7196 167.984 47.6077 168.192 47.5277C168.784 47.2717 169.488 47.4156 169.936 47.8636C170.224 48.1676 170.4 48.5836 170.4 48.9996C170.4 49.4156 170.224 49.8315 169.936 50.1355ZM169.936 44.5354C169.856 44.5994 169.776 44.6636 169.696 44.7276C169.6 44.7916 169.504 44.8394 169.408 44.8714C169.312 44.9194 169.216 44.9515 169.12 44.9675C169.008 44.9835 168.896 44.9995 168.8 44.9995C168.384 44.9995 167.968 44.8234 167.664 44.5354C167.376 44.2314 167.2 43.8155 167.2 43.3995C167.2 42.9835 167.376 42.5675 167.664 42.2635C168.032 41.8955 168.592 41.7195 169.12 41.8315C169.216 41.8475 169.312 41.8796 169.408 41.9276C169.504 41.9596 169.6 42.0073 169.696 42.0713C169.776 42.1353 169.856 42.1995 169.936 42.2635C170.224 42.5675 170.4 42.9835 170.4 43.3995C170.4 43.8155 170.224 44.2314 169.936 44.5354ZM175.536 44.5354C175.232 44.8234 174.816 44.9995 174.4 44.9995C173.984 44.9995 173.568 44.8234 173.264 44.5354C172.976 44.2314 172.8 43.8155 172.8 43.3995C172.8 42.9835 172.976 42.5675 173.264 42.2635C173.872 41.6715 174.944 41.6715 175.536 42.2635C175.824 42.5675 176 42.9835 176 43.3995C176 43.8155 175.824 44.2314 175.536 44.5354Z" fill="#FF7272"/>
<path d="M185.143 45.1719C181.351 45.1719 178.286 48.2371 178.286 52.0291C178.286 55.8212 181.351 58.8864 185.143 58.8864C188.935 58.8864 192 55.8212 192 52.0291C192 48.2371 188.935 45.1719 185.143 45.1719ZM188.092 54.9777C188.028 55.0413 187.953 55.0917 187.87 55.1261C187.787 55.1606 187.698 55.1783 187.608 55.1783C187.518 55.1783 187.429 55.1606 187.346 55.1261C187.263 55.0917 187.188 55.0413 187.125 54.9777L185.143 52.996L183.161 54.9777C183.033 55.106 182.859 55.178 182.678 55.178C182.496 55.178 182.322 55.106 182.194 54.9777C182.066 54.8495 181.994 54.6756 181.994 54.4943C181.994 54.4045 182.012 54.3156 182.046 54.2327C182.08 54.1497 182.131 54.0744 182.194 54.0109L184.176 52.0291L182.194 50.0474C182.066 49.9192 181.994 49.7453 181.994 49.5639C181.994 49.3826 182.066 49.2087 182.194 49.0805C182.322 48.9523 182.496 48.8803 182.678 48.8803C182.859 48.8803 183.033 48.9523 183.161 49.0805L185.143 51.0622L187.125 49.0805C187.188 49.017 187.263 48.9667 187.346 48.9323C187.429 48.8979 187.518 48.8803 187.608 48.8803C187.698 48.8803 187.787 48.8979 187.87 48.9323C187.953 48.9667 188.028 49.017 188.092 49.0805C188.155 49.144 188.205 49.2194 188.24 49.3023C188.274 49.3853 188.292 49.4742 188.292 49.5639C188.292 49.6537 188.274 49.7426 188.24 49.8256C188.205 49.9085 188.155 49.9839 188.092 50.0474L186.11 52.0291L188.092 54.0109C188.352 54.2714 188.352 54.7103 188.092 54.9777Z" fill="#FF7272"/>
<path d="M0 310H174.5V363.54H17.8466C7.99019 363.54 0 355.55 0 345.693V310Z" fill="#9F9E9E"/>
<path d="M66.1985 342.82V331.911H70.1935C70.9677 331.911 71.6087 332.039 72.1165 332.295C72.6243 332.547 73.0043 332.89 73.2564 333.323C73.5085 333.752 73.6346 334.237 73.6346 334.777C73.6346 335.232 73.5511 335.615 73.3842 335.928C73.2173 336.237 72.9936 336.485 72.7131 336.673C72.4361 336.858 72.1307 336.993 71.7969 337.078V337.185C72.1591 337.202 72.5124 337.32 72.8569 337.536C73.2049 337.749 73.4925 338.053 73.7198 338.447C73.9471 338.841 74.0607 339.321 74.0607 339.885C74.0607 340.443 73.9293 340.944 73.6665 341.387C73.4073 341.828 73.006 342.178 72.4627 342.437C71.9194 342.692 71.2251 342.82 70.38 342.82H66.1985ZM67.8445 341.409H70.2202C71.0085 341.409 71.5732 341.256 71.9141 340.951C72.255 340.645 72.4254 340.263 72.4254 339.805C72.4254 339.461 72.3384 339.145 72.1644 338.857C71.9904 338.57 71.7418 338.341 71.4187 338.17C71.0991 338 70.7191 337.914 70.2788 337.914H67.8445V341.409ZM67.8445 336.631H70.0497C70.419 336.631 70.7511 336.56 71.0458 336.418C71.3441 336.276 71.5803 336.077 71.7543 335.821C71.9318 335.562 72.0206 335.256 72.0206 334.905C72.0206 334.454 71.8626 334.076 71.5465 333.77C71.2305 333.465 70.7457 333.312 70.0923 333.312H67.8445V336.631ZM78.2662 343.001C77.7477 343.001 77.2789 342.906 76.8599 342.714C76.4409 342.518 76.1088 342.236 75.8638 341.867C75.6223 341.498 75.5016 341.045 75.5016 340.509C75.5016 340.047 75.5904 339.667 75.7679 339.369C75.9455 339.07 76.1852 338.834 76.487 338.66C76.7889 338.486 77.1262 338.355 77.4991 338.266C77.872 338.177 78.252 338.11 78.639 338.064C79.1291 338.007 79.5268 337.961 79.8322 337.925C80.1376 337.886 80.3596 337.824 80.498 337.739C80.6365 337.653 80.7058 337.515 80.7058 337.323V337.286C80.7058 336.821 80.5744 336.46 80.3116 336.205C80.0524 335.949 79.6653 335.821 79.1504 335.821C78.6142 335.821 78.1916 335.94 77.8826 336.178C77.5772 336.412 77.3659 336.673 77.2488 336.961L75.752 336.62C75.9295 336.123 76.1887 335.722 76.5297 335.416C76.8741 335.107 77.2701 334.884 77.7175 334.745C78.165 334.603 78.6355 334.532 79.1291 334.532C79.4558 334.532 79.802 334.571 80.1678 334.649C80.5371 334.724 80.8816 334.862 81.2012 335.065C81.5243 335.267 81.7889 335.556 81.9949 335.933C82.2008 336.306 82.3038 336.79 82.3038 337.387V342.82H80.7484V341.702H80.6845C80.5815 341.908 80.427 342.11 80.2211 342.309C80.0151 342.508 79.7505 342.673 79.4274 342.804C79.1042 342.936 78.7172 343.001 78.2662 343.001ZM78.6124 341.723C79.0527 341.723 79.4292 341.636 79.7417 341.462C80.0577 341.288 80.2974 341.061 80.4608 340.78C80.6277 340.496 80.7111 340.192 80.7111 339.869V338.815C80.6543 338.871 80.5442 338.925 80.3809 338.974C80.2211 339.021 80.0382 339.061 79.8322 339.097C79.6262 339.129 79.4256 339.159 79.2303 339.188C79.035 339.212 78.8716 339.234 78.7402 339.251C78.4313 339.29 78.149 339.356 77.8933 339.449C77.6412 339.541 77.4387 339.674 77.286 339.848C77.1369 340.018 77.0623 340.246 77.0623 340.53C77.0623 340.924 77.2079 341.222 77.4991 341.425C77.7903 341.624 78.1614 341.723 78.6124 341.723ZM87.8715 342.985C87.0796 342.985 86.3978 342.806 85.8261 342.447C85.2579 342.085 84.8211 341.586 84.5157 340.951C84.2103 340.315 84.0576 339.587 84.0576 338.767C84.0576 337.936 84.2139 337.202 84.5264 336.567C84.8389 335.928 85.2792 335.429 85.8474 335.07C86.4156 334.711 87.085 334.532 87.8556 334.532C88.477 334.532 89.031 334.647 89.5175 334.878C90.004 335.105 90.3964 335.425 90.6947 335.837C90.9965 336.249 91.1759 336.73 91.2327 337.281H89.6826C89.5974 336.897 89.4021 336.567 89.0967 336.29C88.7948 336.013 88.39 335.874 87.8822 335.874C87.4383 335.874 87.0494 335.991 86.7156 336.226C86.3854 336.457 86.1279 336.787 85.9433 337.217C85.7586 337.643 85.6663 338.147 85.6663 338.729C85.6663 339.326 85.7568 339.841 85.9379 340.274C86.1191 340.707 86.3747 341.043 86.705 341.281C87.0388 341.519 87.4312 341.638 87.8822 341.638C88.184 341.638 88.4575 341.583 88.7025 341.473C88.9511 341.359 89.1588 341.197 89.3257 340.988C89.4962 340.778 89.6151 340.526 89.6826 340.232H91.2327C91.1759 340.761 91.0036 341.233 90.716 341.648C90.4284 342.064 90.0431 342.391 89.5601 342.629C89.0807 342.866 88.5178 342.985 87.8715 342.985ZM94.4007 340.045L94.3901 338.101H94.6671L97.927 334.638H99.834L96.1159 338.58H95.8656L94.4007 340.045ZM92.9359 342.82V331.911H94.5286V342.82H92.9359ZM98.1028 342.82L95.1731 338.932L96.2704 337.819L100.058 342.82H98.1028Z" fill="white"/>
</svg>
