<svg width="374" height="260" viewBox="0 0 374 260" fill="none" xmlns="http://www.w3.org/2000/svg">
<g filter="url(#filter0_d_2031_4)">
<path fill-rule="evenodd" clip-rule="evenodd" d="M138.911 40.6367H29.8466C19.9902 40.6367 12 48.6269 12 58.4833V228.365C12 238.222 19.9902 246.212 29.8466 246.212H343.153C353.01 246.212 361 238.222 361 228.365V58.4833C361 48.6269 353.01 40.6367 343.153 40.6367H233.097C232.838 66.4249 211.853 87.2503 186.004 87.2503C160.155 87.2503 139.17 66.4249 138.911 40.6367Z" fill="white"/>
</g>
<circle cx="186.415" cy="40.6506" r="40.6506" fill="white"/>
<path d="M361 193.624H186.5V247.164H343.153C353.01 247.164 361 239.174 361 229.317V193.624Z" fill="#FF7272"/>
<path d="M261.217 216.535H263.087L265.937 221.494H266.054L268.904 216.535H270.773L266.816 223.161V227.444H265.175V223.161L261.217 216.535ZM274.378 227.609C273.572 227.609 272.878 227.437 272.295 227.092C271.717 226.744 271.269 226.256 270.953 225.627C270.641 224.995 270.484 224.255 270.484 223.406C270.484 222.568 270.641 221.83 270.953 221.19C271.269 220.551 271.71 220.052 272.274 219.693C272.842 219.335 273.506 219.155 274.266 219.155C274.728 219.155 275.175 219.232 275.609 219.385C276.042 219.537 276.431 219.777 276.775 220.104C277.12 220.43 277.391 220.855 277.59 221.377C277.789 221.895 277.888 222.526 277.888 223.268V223.832H271.385V222.639H276.328C276.328 222.22 276.243 221.849 276.072 221.526C275.902 221.199 275.662 220.942 275.353 220.754C275.048 220.565 274.689 220.471 274.277 220.471C273.83 220.471 273.439 220.581 273.105 220.801C272.775 221.018 272.519 221.302 272.338 221.654C272.161 222.002 272.072 222.38 272.072 222.788V223.72C272.072 224.267 272.168 224.733 272.359 225.116C272.555 225.5 272.826 225.793 273.174 225.995C273.522 226.194 273.929 226.293 274.394 226.293C274.696 226.293 274.971 226.251 275.22 226.165C275.468 226.077 275.683 225.945 275.864 225.771C276.045 225.597 276.184 225.382 276.28 225.127L277.787 225.398C277.667 225.842 277.45 226.231 277.137 226.565C276.828 226.895 276.44 227.153 275.971 227.337C275.506 227.518 274.975 227.609 274.378 227.609ZM285.787 221.26L284.343 221.515C284.283 221.331 284.187 221.155 284.055 220.988C283.928 220.821 283.754 220.684 283.533 220.578C283.313 220.471 283.038 220.418 282.708 220.418C282.257 220.418 281.88 220.519 281.579 220.722C281.277 220.92 281.126 221.178 281.126 221.494C281.126 221.767 281.227 221.988 281.429 222.154C281.632 222.321 281.959 222.458 282.41 222.565L283.709 222.863C284.462 223.037 285.023 223.305 285.392 223.667C285.762 224.029 285.946 224.5 285.946 225.079C285.946 225.569 285.804 226.006 285.52 226.389C285.24 226.769 284.847 227.067 284.343 227.284C283.842 227.501 283.262 227.609 282.601 227.609C281.685 227.609 280.938 227.414 280.359 227.023C279.78 226.629 279.425 226.07 279.293 225.345L280.833 225.111C280.929 225.512 281.126 225.816 281.424 226.022C281.722 226.224 282.111 226.325 282.591 226.325C283.113 226.325 283.53 226.217 283.842 226C284.155 225.78 284.311 225.512 284.311 225.196C284.311 224.94 284.215 224.725 284.024 224.551C283.835 224.377 283.546 224.246 283.155 224.157L281.77 223.854C281.007 223.68 280.442 223.403 280.076 223.023C279.714 222.643 279.533 222.162 279.533 221.579C279.533 221.096 279.668 220.674 279.938 220.311C280.208 219.949 280.581 219.667 281.057 219.464C281.532 219.258 282.078 219.155 282.692 219.155C283.576 219.155 284.272 219.347 284.78 219.731C285.288 220.111 285.623 220.62 285.787 221.26Z" fill="white"/>
<path d="M12 193.624H186.5V247.164H29.8466C19.9902 247.164 12 239.174 12 229.317V193.624Z" fill="#9F9E9E"/>
<path d="M97.692 215.535V226.444H96.1792L90.6341 218.443H90.5329V226.444H88.887V215.535H90.4104L95.9608 223.546H96.0621V215.535H97.692ZM103.412 226.609C102.645 226.609 101.975 226.433 101.403 226.082C100.832 225.73 100.388 225.238 100.072 224.606C99.7557 223.974 99.5977 223.235 99.5977 222.39C99.5977 221.542 99.7557 220.799 100.072 220.164C100.388 219.528 100.832 219.034 101.403 218.683C101.975 218.331 102.645 218.155 103.412 218.155C104.179 218.155 104.848 218.331 105.42 218.683C105.991 219.034 106.435 219.528 106.751 220.164C107.067 220.799 107.225 221.542 107.225 222.39C107.225 223.235 107.067 223.974 106.751 224.606C106.435 225.238 105.991 225.73 105.42 226.082C104.848 226.433 104.179 226.609 103.412 226.609ZM103.417 225.272C103.914 225.272 104.326 225.141 104.653 224.878C104.979 224.615 105.221 224.265 105.377 223.828C105.537 223.392 105.617 222.91 105.617 222.385C105.617 221.863 105.537 221.383 105.377 220.947C105.221 220.506 104.979 220.153 104.653 219.887C104.326 219.62 103.914 219.487 103.417 219.487C102.916 219.487 102.501 219.62 102.17 219.887C101.844 220.153 101.6 220.506 101.441 220.947C101.284 221.383 101.206 221.863 101.206 222.385C101.206 222.91 101.284 223.392 101.441 223.828C101.6 224.265 101.844 224.615 102.17 224.878C102.501 225.141 102.916 225.272 103.417 225.272Z" fill="white"/>
<path d="M198.06 26.025H192.142L190.452 24.2207H181.998L180.307 26.025H174.39V29.6337H198.06M176.08 53.09C176.08 54.047 176.437 54.9649 177.071 55.6417C177.705 56.3184 178.565 56.6986 179.462 56.6986H192.988C193.885 56.6986 194.745 56.3184 195.379 55.6417C196.013 54.9649 196.369 54.047 196.369 53.09V31.438H176.08V53.09Z" fill="#FF7272"/>
<defs>
<filter id="filter0_d_2031_4" x="0.869435" y="30.1007" width="372.45" height="229.025" filterUnits="userSpaceOnUse" color-interpolation-filters="sRGB">
<feFlood flood-opacity="0" result="BackgroundImageFix"/>
<feColorMatrix in="SourceAlpha" type="matrix" values="0 0 0 0 0 0 0 0 0 0 0 0 0 0 0 0 0 0 127 0" result="hardAlpha"/>
<feOffset dx="0.594511" dy="1.18902"/>
<feGaussianBlur stdDeviation="5.86254"/>
<feComposite in2="hardAlpha" operator="out"/>
<feColorMatrix type="matrix" values="0 0 0 0 0 0 0 0 0 0 0 0 0 0 0 0 0 0 0.25 0"/>
<feBlend mode="normal" in2="BackgroundImageFix" result="effect1_dropShadow_2031_4"/>
<feBlend mode="normal" in="SourceGraphic" in2="effect1_dropShadow_2031_4" result="shape"/>
</filter>
</defs>
</svg>
