<svg width="13" height="13" viewBox="0 0 13 13" fill="none" xmlns="http://www.w3.org/2000/svg">
<path d="M7.99965 10.1062L4.30885 8.19947C3.95457 8.53259 3.50411 8.7589 3.01425 8.84986C2.52439 8.94082 2.01706 8.89237 1.55623 8.71061C1.0954 8.52885 0.701687 8.22192 0.424739 7.82852C0.14779 7.43512 0 6.97285 0 6.5C0 6.02715 0.14779 5.56488 0.424739 5.17148C0.701687 4.77808 1.0954 4.47115 1.55623 4.28939C2.01706 4.10763 2.52439 4.05918 3.01425 4.15014C3.50411 4.2411 3.95457 4.46741 4.30885 4.80053L7.99965 2.89375C7.87306 2.33119 7.96449 1.74426 8.2572 1.24029C8.54992 0.736332 9.02436 0.349014 9.59376 0.149171C10.1632 -0.0506734 10.7895 -0.0496891 11.3582 0.151943C11.9269 0.353576 12.4 0.742382 12.6909 1.24726C12.9819 1.75214 13.0712 2.33936 12.9427 2.90152C12.8141 3.46369 12.4763 3.96324 11.9908 4.30882C11.5054 4.6544 10.9049 4.82292 10.2991 4.78356C9.69326 4.7442 9.12265 4.49959 8.69158 4.09447L5.00078 6.00124C5.07461 6.32984 5.07461 6.66948 5.00078 6.99807L8.69158 8.90553C9.12265 8.50041 9.69326 8.2558 10.2991 8.21644C10.9049 8.17708 11.5054 8.3456 11.9908 8.69118C12.4763 9.03676 12.8141 9.53631 12.9427 10.0985C13.0712 10.6606 12.9819 11.2479 12.6909 11.7527C12.4 12.2576 11.9269 12.6464 11.3582 12.8481C10.7895 13.0497 10.1632 13.0507 9.59376 12.8508C9.02436 12.651 8.54992 12.2637 8.2572 11.7597C7.96449 11.2557 7.87306 10.6688 7.99965 10.1062Z" fill="#3D5347"/>
</svg>
