<svg width="16" height="19" viewBox="0 0 16 19" fill="none" xmlns="http://www.w3.org/2000/svg">
<path d="M12.2228 2.05317V0.666667C12.2228 0.302222 11.9206 0 11.5562 0C11.1917 0 10.8895 0.302222 10.8895 0.666667V2H5.11171V0.666667C5.11171 0.302222 4.80949 0 4.44505 0C4.0806 0 3.77838 0.302222 3.77838 0.666667V2.05317C1.37838 2.27539 0.213971 3.7065 0.0361933 5.83095C0.0184155 6.08872 0.231749 6.30208 0.480638 6.30208H15.5206C15.7783 6.30208 15.9917 6.07984 15.965 5.83095C15.7872 3.7065 14.6228 2.27539 12.2228 2.05317Z" fill="#838383"/>
<path d="M15.1111 7.63525H0.888889C0.4 7.63525 0 8.03525 0 8.52414V13.9998C0 16.6665 1.33333 18.4443 4.44444 18.4443H11.5556C14.6667 18.4443 16 16.6665 16 13.9998V8.52414C16 8.03525 15.6 7.63525 15.1111 7.63525ZM5.51997 15.0754C5.47552 15.1109 5.43116 15.1552 5.38672 15.1819C5.33339 15.2175 5.2799 15.2442 5.22656 15.262C5.17323 15.2887 5.11996 15.3065 5.06662 15.3154C5.0044 15.3243 4.95111 15.3332 4.88889 15.3332C4.77333 15.3332 4.65788 15.3064 4.55122 15.262C4.43566 15.2175 4.3467 15.1554 4.25781 15.0754C4.09781 14.9065 4 14.6754 4 14.4443C4 14.2132 4.09781 13.9819 4.25781 13.813C4.3467 13.733 4.43566 13.6708 4.55122 13.6264C4.71122 13.5552 4.88885 13.5374 5.06662 13.573C5.11996 13.5819 5.17323 13.5997 5.22656 13.6264C5.2799 13.6441 5.33339 13.6709 5.38672 13.7064C5.43116 13.742 5.47552 13.7774 5.51997 13.813C5.67997 13.9819 5.77778 14.2132 5.77778 14.4443C5.77778 14.6754 5.67997 14.9065 5.51997 15.0754ZM5.51997 11.9642C5.35108 12.1242 5.12 12.2221 4.88889 12.2221C4.65778 12.2221 4.4267 12.1242 4.25781 11.9642C4.09781 11.7954 4 11.5643 4 11.3332C4 11.1021 4.09781 10.8708 4.25781 10.7019C4.5067 10.453 4.89767 10.373 5.22656 10.5152C5.34212 10.5597 5.43997 10.6219 5.51997 10.7019C5.67997 10.8708 5.77778 11.1021 5.77778 11.3332C5.77778 11.5643 5.67997 11.7954 5.51997 11.9642ZM8.63108 15.0754C8.46219 15.2354 8.23111 15.3332 8 15.3332C7.76889 15.3332 7.53781 15.2354 7.36892 15.0754C7.20892 14.9065 7.11111 14.6754 7.11111 14.4443C7.11111 14.2132 7.20892 13.9819 7.36892 13.813C7.69781 13.4841 8.30219 13.4841 8.63108 13.813C8.79108 13.9819 8.88889 14.2132 8.88889 14.4443C8.88889 14.6754 8.79108 14.9065 8.63108 15.0754ZM8.63108 11.9642C8.58663 11.9998 8.54227 12.0352 8.49783 12.0708C8.4445 12.1064 8.39101 12.1331 8.33767 12.1509C8.28434 12.1775 8.23107 12.1954 8.17773 12.2043C8.11551 12.2132 8.06222 12.2221 8 12.2221C7.76889 12.2221 7.53781 12.1242 7.36892 11.9642C7.20892 11.7954 7.11111 11.5643 7.11111 11.3332C7.11111 11.1021 7.20892 10.8708 7.36892 10.7019C7.44892 10.6219 7.54677 10.5597 7.66233 10.5152C7.99122 10.373 8.38219 10.453 8.63108 10.7019C8.79108 10.8708 8.88889 11.1021 8.88889 11.3332C8.88889 11.5643 8.79108 11.7954 8.63108 11.9642ZM11.7422 15.0754C11.5733 15.2354 11.3422 15.3332 11.1111 15.3332C10.88 15.3332 10.6489 15.2354 10.48 15.0754C10.32 14.9065 10.2222 14.6754 10.2222 14.4443C10.2222 14.2132 10.32 13.9819 10.48 13.813C10.8089 13.4841 11.4133 13.4841 11.7422 13.813C11.9022 13.9819 12 14.2132 12 14.4443C12 14.6754 11.9022 14.9065 11.7422 15.0754ZM11.7422 11.9642C11.6977 11.9998 11.6534 12.0352 11.6089 12.0708C11.5556 12.1064 11.5021 12.1331 11.4488 12.1509C11.3955 12.1775 11.3422 12.1954 11.2888 12.2043C11.2266 12.2132 11.1644 12.2221 11.1111 12.2221C10.88 12.2221 10.6489 12.1242 10.48 11.9642C10.32 11.7954 10.2222 11.5643 10.2222 11.3332C10.2222 11.1021 10.32 10.8708 10.48 10.7019C10.5689 10.6219 10.6579 10.5597 10.7734 10.5152C10.9334 10.4441 11.1111 10.4263 11.2888 10.4619C11.3422 10.4707 11.3955 10.4886 11.4488 10.5152C11.5021 10.533 11.5556 10.5598 11.6089 10.5953C11.6534 10.6309 11.6977 10.6663 11.7422 10.7019C11.9022 10.8708 12 11.1021 12 11.3332C12 11.5643 11.9022 11.7954 11.7422 11.9642Z" fill="#838383"/>
</svg>
