<svg width="17" height="17" viewBox="0 0 17 17" fill="none" xmlns="http://www.w3.org/2000/svg">
<g clip-path="url(#clip0_561_3463)">
<path d="M14.5744 9.23958L13.4797 9.28768C12.8148 9.31716 12.2896 9.90603 12.2896 10.6237V13.9785C12.2896 15.2633 11.3228 16.3044 10.1311 16.3044H6.89587C5.70339 16.3044 4.73746 15.2633 4.73746 13.9785V10.5151C4.73746 9.8587 4.25644 9.31872 3.64817 9.29234L2.45337 9.23958L4.73824 6.67773H7.0681C7.3156 6.67773 7.56077 6.72739 7.79119 6.82515C8.25593 7.02143 8.77264 7.02143 9.23737 6.82515H9.23815C9.46857 6.72816 9.71374 6.67851 9.96124 6.67851H12.2911L14.5744 9.23958Z" fill="#F2C14E"/>
<path d="M8.51351 6.36022C9.60315 6.36022 10.4865 5.30911 10.4865 4.01251C10.4865 2.7159 9.60315 1.66479 8.51351 1.66479C7.42386 1.66479 6.54053 2.7159 6.54053 4.01251C6.54053 5.30911 7.42386 6.36022 8.51351 6.36022Z" fill="#F2C14E"/>
<path d="M15.7993 8.69941C15.3602 9.06095 14.7108 8.99889 14.3492 8.55976L11.1978 4.73716L12.7875 3.42676L15.939 7.24935C16.3005 7.68848 16.2384 8.33787 15.7993 8.69941Z" fill="#F2C14E"/>
<path d="M1.14973 8.77705C1.58886 9.13859 2.23825 9.07652 2.59979 8.6374L5.75128 4.8148L4.16157 3.50439L1.01008 7.32699C0.648537 7.76612 0.710605 8.4155 1.14973 8.77705Z" fill="#F2C14E"/>
<path d="M11.5872 1.93866C11.5872 1.93866 11.6198 3.20407 11.1209 4.05129C11.0185 4.22586 11.0395 4.45008 11.1768 4.59904C11.1783 4.60059 11.1807 4.60292 11.1822 4.60447L12.6315 3.38407C12.6315 3.38407 12.1675 2.61675 12.1132 2.33667C12.0985 2.25909 12.0706 2.18461 12.0217 2.12254C11.9456 2.02789 11.8114 1.92703 11.5872 1.93866Z" fill="#F2C14E"/>
<path d="M5.36655 2.0163C5.36655 2.0163 5.33397 3.28171 5.83284 4.12893C5.93525 4.3035 5.9143 4.52772 5.77698 4.67668C5.77543 4.67823 5.7731 4.68056 5.77155 4.68211L4.32227 3.4617C4.32227 3.4617 4.78622 2.69439 4.84053 2.41431C4.85527 2.33673 4.8832 2.26224 4.93208 2.20018C5.00811 2.10552 5.14234 2.00466 5.36655 2.0163Z" fill="#F2C14E"/>
<path d="M10.4857 2.94108H6.54053V2.17764C6.54053 1.49102 7.09759 0.93396 7.78421 0.93396H9.24202C9.92943 0.93396 10.4857 1.49102 10.4857 2.17764V2.94108Z" fill="#F2C14E"/>
</g>
<defs>
<clipPath id="clip0_561_3463">
<rect width="15.399" height="15.3695" fill="white" transform="translate(0.775146 0.93396)"/>
</clipPath>
</defs>
</svg>
