<svg width="23" height="24" viewBox="0 0 23 24" fill="none" xmlns="http://www.w3.org/2000/svg">
<path d="M11.8274 0.966797C5.69038 0.966797 0.689453 5.96773 0.689453 12.1047C0.689453 18.2417 5.69038 23.2427 11.8274 23.2427C17.9644 23.2427 22.9653 18.2417 22.9653 12.1047C22.9653 5.96773 17.9644 0.966797 11.8274 0.966797ZM16.6725 16.081C16.5166 16.3484 16.238 16.493 15.9484 16.493C15.8036 16.493 15.6589 16.4597 15.5253 16.3706L12.0724 14.31C11.2148 13.7977 10.5798 12.6729 10.5798 11.6816V7.11496C10.5798 6.6583 10.9585 6.27961 11.4152 6.27961C11.8718 6.27961 12.2505 6.6583 12.2505 7.11496V11.6816C12.2505 12.0826 12.5848 12.6727 12.93 12.8732L16.3829 14.9338C16.7839 15.1677 16.9175 15.6801 16.6725 16.081Z" fill="#1D785A"/>
</svg>
