<svg width="15" height="16" viewBox="0 0 15 16" fill="none" xmlns="http://www.w3.org/2000/svg">
<g clip-path="url(#clip0_561_3471)">
<path d="M13.6712 8.32872L12.5743 8.37692C11.9082 8.40646 11.3819 8.99645 11.3819 9.71549V13.0767C11.3819 14.364 10.4133 15.4071 9.21936 15.4071H5.97787C4.78311 15.4071 3.81533 14.364 3.81533 13.0767V9.60666C3.81533 8.94904 3.33338 8.40801 2.72395 8.38158L1.52686 8.32872L3.81611 5.76196H6.15044C6.39841 5.76196 6.64405 5.81171 6.87492 5.90966C7.34054 6.10632 7.85825 6.10632 8.32387 5.90966H8.32465C8.55552 5.81249 8.80115 5.76274 9.04912 5.76274H11.3835L13.6712 8.32872Z" fill="#F2C14E"/>
<path d="M7.59859 5.44418C8.69032 5.44418 9.57535 4.39105 9.57535 3.09196C9.57535 1.79287 8.69032 0.739746 7.59859 0.739746C6.50685 0.739746 5.62183 1.79287 5.62183 3.09196C5.62183 4.39105 6.50685 5.44418 7.59859 5.44418Z" fill="#F2C14E"/>
<path d="M9.57457 2.01841H5.62183V1.25351C5.62183 0.565573 6.17995 0.00744629 6.86789 0.00744629H8.32851C9.01722 0.00744629 9.57457 0.565573 9.57457 1.25351V2.01841Z" fill="#F2C14E"/>
<rect x="3.85376" y="9.53992" width="7.48996" height="0.510679" fill="white"/>
<rect x="3.85376" y="11.5829" width="7.48996" height="0.510679" fill="white"/>
<path d="M12.6401 6.09482C12.6401 6.09482 14.1482 7.7622 14.2282 9.42881C14.2803 10.521 14.128 10.9827 13.8823 11.3387C13.6437 11.6854 13.248 11.8891 12.8275 11.8891H7.59912C7.59912 11.8891 8.31349 10.8404 7.59912 9.73741H12.2833L11.7275 8.4758L9.38544 5.77689H11.6483C11.6475 5.77689 12.2864 5.65485 12.6401 6.09482Z" fill="#F2C14E"/>
<path d="M7.4802 11.8898H6.45645C5.86256 11.8898 5.38062 11.4079 5.38062 10.814C5.38062 10.2201 5.86256 9.73816 6.45645 9.73816H7.4802C8.07408 9.73816 8.55603 10.2201 8.55603 10.814C8.55603 11.4079 8.07408 11.8898 7.4802 11.8898Z" fill="white" stroke="#F2C14E" stroke-width="0.170226" stroke-miterlimit="10"/>
<path d="M2.55801 6.09482C2.55801 6.09482 1.04998 7.7622 0.96991 9.42881C0.917829 10.521 1.07019 10.9827 1.31582 11.3387C1.55447 11.6854 1.95013 11.8891 2.37067 11.8891H7.59824C7.59824 11.8891 6.88387 10.8404 7.59824 9.73741H2.9148L3.4706 8.4758L5.81271 5.77689H3.54988C3.54988 5.77689 2.91169 5.65485 2.55801 6.09482Z" fill="#F2C14E"/>
</g>
<defs>
<clipPath id="clip0_561_3471">
<rect width="13.2777" height="15.399" fill="white" transform="translate(0.959717 0.00744629)"/>
</clipPath>
</defs>
</svg>
