<svg width="86" height="86" viewBox="0 0 86 86" fill="none" xmlns="http://www.w3.org/2000/svg">
<path d="M20.2502 71.344L16.6502 83H14.2022L12.0102 75.776C11.9675 75.664 11.9275 75.5413 11.8902 75.408C11.8529 75.2693 11.8155 75.1253 11.7782 74.976C11.7409 75.1253 11.7035 75.2693 11.6662 75.408C11.6289 75.5413 11.5889 75.664 11.5462 75.776L9.32219 83H6.87419L3.27419 71.344H5.54619C5.78085 71.344 5.97552 71.3973 6.13019 71.504C6.29019 71.6107 6.39419 71.752 6.44219 71.928L8.04219 78.008C8.09019 78.2 8.13819 78.4107 8.18619 78.64C8.23419 78.864 8.28219 79.0987 8.33019 79.344C8.42619 78.8427 8.54352 78.3973 8.68219 78.008L10.5702 71.928C10.6182 71.7787 10.7195 71.6453 10.8742 71.528C11.0342 71.4053 11.2262 71.344 11.4502 71.344H12.2502C12.4849 71.344 12.6742 71.4 12.8182 71.512C12.9622 71.6187 13.0715 71.7573 13.1462 71.928L15.0182 78.008C15.1569 78.3813 15.2742 78.8053 15.3702 79.28C15.4129 79.04 15.4555 78.816 15.4982 78.608C15.5462 78.3947 15.5942 78.1947 15.6422 78.008L17.2422 71.928C17.2849 71.7733 17.3862 71.6373 17.5462 71.52C17.7062 71.4027 17.8982 71.344 18.1222 71.344H20.2502ZM26.7489 78.544L25.6689 75.352C25.5889 75.1493 25.5036 74.912 25.4129 74.64C25.3223 74.3627 25.2316 74.064 25.1409 73.744C25.0609 74.0693 24.9756 74.3707 24.8849 74.648C24.7943 74.9253 24.7089 75.1653 24.6289 75.368L23.5569 78.544H26.7489ZM31.0449 83H28.9489C28.7143 83 28.5249 82.9467 28.3809 82.84C28.2369 82.728 28.1276 82.5867 28.0529 82.416L27.3649 80.384H22.9329L22.2449 82.416C22.1863 82.5653 22.0796 82.7013 21.9249 82.824C21.7756 82.9413 21.5889 83 21.3649 83H19.2529L23.7649 71.344H26.5329L31.0449 83ZM35.7559 76.824C36.1239 76.824 36.4359 76.7787 36.6919 76.688C36.9533 76.592 37.1666 76.4613 37.3319 76.296C37.4973 76.1307 37.6173 75.9387 37.6919 75.72C37.7666 75.496 37.8039 75.256 37.8039 75C37.8039 74.488 37.6359 74.088 37.2999 73.8C36.9693 73.512 36.4546 73.368 35.7559 73.368H34.6679V76.824H35.7559ZM41.4999 83H39.0519C38.5986 83 38.2733 82.8293 38.0759 82.488L36.1399 79.104C36.0493 78.96 35.9479 78.856 35.8359 78.792C35.7239 78.7227 35.5639 78.688 35.3559 78.688H34.6679V83H31.9639V71.344H35.7559C36.5986 71.344 37.3159 71.432 37.9079 71.608C38.5053 71.7787 38.9906 72.0187 39.3639 72.328C39.7426 72.6373 40.0173 73.0027 40.1879 73.424C40.3586 73.8453 40.4439 74.304 40.4439 74.8C40.4439 75.1787 40.3933 75.536 40.2919 75.872C40.1906 76.208 40.0413 76.52 39.8439 76.808C39.6466 77.0907 39.4013 77.344 39.1079 77.568C38.8199 77.792 38.4866 77.976 38.1079 78.12C38.2839 78.2107 38.4493 78.3253 38.6039 78.464C38.7586 78.5973 38.8973 78.7573 39.0199 78.944L41.4999 83ZM52.6556 71.344V83H51.2476C51.0396 83 50.8636 82.968 50.7196 82.904C50.5809 82.8347 50.4422 82.7173 50.3036 82.552L44.8076 75.6C44.8289 75.808 44.8422 76.0107 44.8476 76.208C44.8582 76.4 44.8636 76.5813 44.8636 76.752V83H42.4796V71.344H43.9036C44.0209 71.344 44.1196 71.3493 44.1996 71.36C44.2796 71.3707 44.3516 71.392 44.4156 71.424C44.4796 71.4507 44.5409 71.4907 44.5996 71.544C44.6582 71.5973 44.7249 71.6693 44.7996 71.76L50.3436 78.76C50.3169 78.536 50.2982 78.32 50.2876 78.112C50.2769 77.8987 50.2716 77.6987 50.2716 77.512V71.344H52.6556ZM57.6371 83H54.9171V71.344H57.6371V83ZM70.0618 71.344V83H68.6538C68.4458 83 68.2698 82.968 68.1258 82.904C67.9871 82.8347 67.8485 82.7173 67.7098 82.552L62.2138 75.6C62.2351 75.808 62.2485 76.0107 62.2538 76.208C62.2645 76.4 62.2698 76.5813 62.2698 76.752V83H59.8858V71.344H61.3098C61.4271 71.344 61.5258 71.3493 61.6058 71.36C61.6858 71.3707 61.7578 71.392 61.8218 71.424C61.8858 71.4507 61.9471 71.4907 62.0058 71.544C62.0645 71.5973 62.1311 71.6693 62.2058 71.76L67.7498 78.76C67.7231 78.536 67.7045 78.32 67.6938 78.112C67.6831 77.8987 67.6778 77.6987 67.6778 77.512V71.344H70.0618ZM77.9233 76.96H82.0673V81.88C81.47 82.3173 80.8326 82.6347 80.1553 82.832C79.4833 83.0293 78.7793 83.128 78.0433 83.128C77.0833 83.128 76.2086 82.9787 75.4193 82.68C74.6353 82.376 73.9633 81.96 73.4033 81.432C72.8433 80.8987 72.4113 80.2693 72.1073 79.544C71.8033 78.8133 71.6513 78.0213 71.6513 77.168C71.6513 76.2987 71.7953 75.5013 72.0833 74.776C72.3713 74.0453 72.782 73.416 73.3153 72.888C73.854 72.36 74.502 71.9493 75.2593 71.656C76.022 71.3627 76.8726 71.216 77.8113 71.216C78.2966 71.216 78.7526 71.256 79.1793 71.336C79.606 71.416 79.998 71.5253 80.3553 71.664C80.718 71.8027 81.0486 71.968 81.3473 72.16C81.646 72.352 81.9126 72.56 82.1473 72.784L81.3633 73.976C81.2406 74.1627 81.0806 74.2773 80.8833 74.32C80.6913 74.3627 80.4833 74.3147 80.2593 74.176C80.046 74.048 79.8433 73.9387 79.6513 73.848C79.4646 73.752 79.2726 73.6747 79.0753 73.616C78.878 73.5573 78.67 73.5147 78.4513 73.488C78.2326 73.4613 77.9873 73.448 77.7153 73.448C77.2086 73.448 76.7526 73.5387 76.3473 73.72C75.942 73.896 75.5953 74.1467 75.3073 74.472C75.0246 74.7973 74.806 75.1893 74.6513 75.648C74.4966 76.1013 74.4193 76.608 74.4193 77.168C74.4193 77.7867 74.5046 78.336 74.6753 78.816C74.846 79.296 75.086 79.7013 75.3953 80.032C75.71 80.3627 76.0833 80.616 76.5153 80.792C76.9526 80.9627 77.4353 81.048 77.9633 81.048C78.2886 81.048 78.582 81.016 78.8433 80.952C79.11 80.888 79.3686 80.8027 79.6193 80.696V78.928H78.4673C78.2966 78.928 78.1633 78.8827 78.0673 78.792C77.9713 78.7013 77.9233 78.5867 77.9233 78.448V76.96Z" fill="#FF7272"/>
<path d="M23.5476 54.2495H62.4527C66.431 54.2495 68.911 49.9354 66.9218 46.4995L47.4693 12.8904C45.4801 9.45452 40.5202 9.45452 38.531 12.8904L19.0785 46.4995C17.0893 49.9354 19.5693 54.2495 23.5476 54.2495ZM43.0001 36.1662C41.5793 36.1662 40.4168 35.0037 40.4168 33.5829V28.4162C40.4168 26.9954 41.5793 25.8329 43.0001 25.8329C44.421 25.8329 45.5835 26.9954 45.5835 28.4162V33.5829C45.5835 35.0037 44.421 36.1662 43.0001 36.1662ZM45.5835 46.4995H40.4168V41.3329H45.5835V46.4995Z" fill="#FF7272"/>
</svg>
