<svg width="20" height="20" viewBox="0 0 20 20" fill="none" xmlns="http://www.w3.org/2000/svg">
<path d="M13.2132 2.07337V0.673155C13.2132 0.305164 12.8856 0 12.4904 0C12.0953 0 11.7677 0.305164 11.7677 0.673155V2.01946H5.50373V0.673155C5.50373 0.305164 5.17607 0 4.78096 0C4.38585 0 4.0582 0.305164 4.0582 0.673155V2.07337C1.45625 2.29775 0.193861 3.74279 0.00112431 5.88791C-0.0181494 6.1482 0.213135 6.36364 0.482967 6.36364H16.7884C17.0679 6.36364 17.2992 6.13923 17.2703 5.88791C17.0775 3.74279 15.8152 2.29775 13.2132 2.07337Z" fill="#9F9E9E"/>
<path d="M15.455 12.7273C13.4459 12.7273 11.8186 14.3546 11.8186 16.3637C11.8186 17.0455 12.0096 17.691 12.3459 18.2364C12.9732 19.291 14.1277 20 15.455 20C16.7822 20 17.9367 19.291 18.564 18.2364C18.9004 17.691 19.0913 17.0455 19.0913 16.3637C19.0913 14.3546 17.4641 12.7273 15.455 12.7273ZM17.3368 15.9728L15.4004 17.7637C15.2731 17.8819 15.1004 17.9455 14.9367 17.9455C14.764 17.9455 14.5912 17.8819 14.4549 17.7455L13.5549 16.8455C13.2913 16.5819 13.2913 16.1454 13.5549 15.8818C13.8185 15.6182 14.2549 15.6182 14.5186 15.8818L14.9549 16.3182L16.4096 14.9727C16.6823 14.7182 17.1187 14.7364 17.3732 15.0091C17.6278 15.2818 17.6096 15.7092 17.3368 15.9728Z" fill="#9F9E9E"/>
<path d="M16.3041 8.18182H0.959063C0.431578 8.18182 0 8.58553 0 9.07896V14.6052C0 17.2966 1.43859 19.0909 4.79531 19.0909H9.52343C10.1852 19.0909 10.6455 18.4898 10.4345 17.9066C10.2427 17.3863 10.0798 16.8122 10.0798 16.3995C10.0798 13.6812 12.4486 11.4653 15.3546 11.4653C15.6327 11.4653 15.911 11.4833 16.1795 11.5281C16.7549 11.6089 17.2727 11.1872 17.2727 10.6489V9.08794C17.2631 8.58554 16.8315 8.18182 16.3041 8.18182ZM5.95574 15.6907C5.77352 15.8522 5.5242 15.9509 5.27484 15.9509C5.02549 15.9509 4.77617 15.8522 4.59395 15.6907C4.42132 15.5203 4.31578 15.2871 4.31578 15.0538C4.31578 14.8205 4.42132 14.5873 4.59395 14.4169C4.68985 14.3361 4.78583 14.2734 4.91051 14.2285C5.26537 14.085 5.6872 14.1657 5.95574 14.4169C6.12837 14.5873 6.23391 14.8205 6.23391 15.0538C6.23391 15.2871 6.12837 15.5203 5.95574 15.6907ZM5.95574 12.5508C5.90779 12.5866 5.85993 12.6226 5.81198 12.6585C5.75443 12.6944 5.69672 12.7212 5.63918 12.7391C5.58163 12.766 5.52415 12.784 5.46661 12.793C5.39948 12.802 5.33239 12.811 5.27484 12.811C5.02549 12.811 4.77617 12.7122 4.59395 12.5508C4.42132 12.3803 4.31578 12.1471 4.31578 11.9138C4.31578 11.6806 4.42132 11.4474 4.59395 11.2769C4.81453 11.0706 5.15012 10.9719 5.46661 11.0347C5.52415 11.0436 5.58163 11.0616 5.63918 11.0885C5.69672 11.1065 5.75443 11.1333 5.81198 11.1691C5.85993 11.205 5.90779 11.241 5.95574 11.2769C6.12837 11.4474 6.23391 11.6806 6.23391 11.9138C6.23391 12.1471 6.12837 12.3803 5.95574 12.5508ZM9.31246 12.5508C9.13024 12.7122 8.88092 12.811 8.63156 12.811C8.38221 12.811 8.13289 12.7122 7.95067 12.5508C7.77804 12.3803 7.6725 12.1471 7.6725 11.9138C7.6725 11.6806 7.77804 11.4474 7.95067 11.2769C8.31511 10.945 8.95761 10.945 9.31246 11.2769C9.48509 11.4474 9.59063 11.6806 9.59063 11.9138C9.59063 12.1471 9.48509 12.3803 9.31246 12.5508Z" fill="#9F9E9E"/>
</svg>
