<svg width="21" height="20" viewBox="0 0 21 20" fill="none" xmlns="http://www.w3.org/2000/svg">
<path d="M19.4687 6.01001L13.0291 0.770023C11.7706 -0.249977 9.8043 -0.259986 8.5557 0.760013L2.11603 6.01001C1.19187 6.76001 0.631654 8.25994 0.828284 9.43994L2.06682 16.98C2.35193 18.67 3.89554 20 5.57673 20H15.9982C17.6597 20 19.2326 18.64 19.5177 16.97L20.7565 9.42993C20.9335 8.25993 20.3732 6.76001 19.4687 6.01001ZM11.5248 16C11.5248 16.41 11.1906 16.75 10.7875 16.75C10.3844 16.75 10.0501 16.41 10.0501 16V13C10.0501 12.59 10.3844 12.25 10.7875 12.25C11.1906 12.25 11.5248 12.59 11.5248 13V16Z" fill="#9F9E9E"/>
</svg>
