<svg width="20" height="20" viewBox="0 0 20 20" fill="none" xmlns="http://www.w3.org/2000/svg">
<path d="M10 0C4.49 0 0 4.49 0 10C0 15.51 4.49 20 10 20C15.51 20 20 15.51 20 10C20 4.49 15.51 0 10 0ZM14.3501 13.5701C14.2101 13.8101 13.96 13.9399 13.7 13.9399C13.57 13.9399 13.4401 13.9101 13.3201 13.8301L10.22 11.98C9.44997 11.52 8.87988 10.5101 8.87988 9.62012V5.52002C8.87988 5.11002 9.21988 4.77002 9.62988 4.77002C10.0399 4.77002 10.3799 5.11002 10.3799 5.52002V9.62012C10.3799 9.98012 10.68 10.5099 10.99 10.6899L14.0901 12.54C14.4501 12.75 14.5701 13.2101 14.3501 13.5701Z" fill="#9F9E9E"/>
</svg>
