<svg width="183" height="72" viewBox="0 0 183 72" fill="none" xmlns="http://www.w3.org/2000/svg">
<path fill-rule="evenodd" clip-rule="evenodd" d="M22.1121 12.8529C23.3922 12.2133 24.4641 11.1978 25.1945 9.93174C24.4958 10.4422 23.7166 10.8217 22.8921 11.0529C21.0417 11.5787 19.0667 11.3196 17.4 10.3325C15.7336 9.34537 14.5124 7.71101 14.0048 5.78855C13.7515 4.81934 13.6897 3.80701 13.8223 2.8123C13.9552 1.81763 14.28 0.86104 14.7772 3.05176e-05C13.5683 0.883686 12.6502 2.13237 12.1474 3.57673C11.6446 5.02109 11.5812 6.59126 11.966 8.07431C12.347 9.49646 13.1213 10.7712 14.1921 11.7409C14.9347 12.4132 15.7977 12.9186 16.7262 13.2311C16.7117 13.2445 16.6975 13.2584 16.6838 13.2727C16.4849 13.4786 16.3728 13.7579 16.3717 14.0495V16.4176C16.3724 16.7094 16.4849 16.989 16.6834 17.1951C16.8823 17.4013 17.1512 17.5173 17.432 17.5179H18.1382C18.4182 17.5165 18.6864 17.4002 18.8845 17.1941C19.0823 16.988 19.194 16.709 19.1948 16.4178V14.0495C19.194 13.892 19.1613 13.738 19.0998 13.5971C20.1393 13.577 21.1673 13.325 22.1121 12.8529ZM17.2469 24.4074H18.321C18.7505 24.4067 19.162 24.2298 19.4659 23.9147C19.7698 23.5996 19.9416 23.1722 19.9434 22.7259V19.1017C19.9419 18.7554 19.838 18.4178 19.6458 18.1348C19.4536 17.8519 19.1821 17.6373 18.8685 17.5201C18.6726 17.7171 18.4104 17.8273 18.1378 17.8277H17.4316C17.1582 17.8282 16.8953 17.7178 16.6983 17.5201C16.385 17.6374 16.1139 17.8521 15.9217 18.135C15.7299 18.4179 15.626 18.7554 15.6249 19.1017V22.7259C15.6268 23.1722 15.7981 23.5996 16.102 23.9147C16.4059 24.2298 16.8175 24.4071 17.2469 24.4074Z" fill="#FFB625"/>
<path fill-rule="evenodd" clip-rule="evenodd" d="M21.9806 28.7579C21.9806 29.6687 21.7206 30.559 21.2338 31.3166C21.1668 31.4207 21.0956 31.5221 21.0208 31.62C25.6905 32.5235 29.7301 35.3636 32.3625 39.2655C35.2419 43.712 32.1431 49.7685 26.9784 49.7685H26.8321C26.8406 48.5577 26.6175 47.3573 26.1754 46.2374C25.7337 45.1172 25.0816 44.1 24.2577 43.244C23.4339 42.3882 22.4547 41.7112 21.3769 41.2525C20.299 40.7934 19.144 40.5623 17.979 40.572C15.6341 40.5785 13.3864 41.5494 11.7279 43.2723C10.0691 44.9957 9.13381 47.331 9.12622 49.7685C9.12622 54.5994 12.7421 58.5087 17.2438 58.9698H30.041L38.2036 55.3655C38.3584 55.297 38.528 55.2695 38.6959 55.2854C38.8639 55.3013 39.0259 55.3605 39.1667 55.4573C39.3071 55.554 39.4229 55.6857 39.5026 55.8401C39.5827 55.9946 39.6244 56.1676 39.6244 56.3429V58.9698H43.5786C43.7865 58.8962 43.9776 58.7797 44.141 58.6271C44.3038 58.4743 44.4353 58.2889 44.5272 58.0818C44.6189 57.8747 44.6692 57.6502 44.6747 57.4221C44.6803 57.1941 44.6412 56.9673 44.56 56.7556C43.7254 54.5596 43.299 52.2192 43.3031 49.8579C43.3053 44.9577 45.1794 40.2592 48.5132 36.7943C51.847 33.3295 56.368 31.382 61.0824 31.3797C65.7972 31.3797 70.319 33.3264 73.6529 36.7909C76.9867 40.2561 78.8596 44.9554 78.8596 49.8556C78.8596 54.7558 76.9867 59.4555 73.6529 62.9204C70.319 66.3853 65.7972 68.332 61.0824 68.332H39.6244V70.4737C39.6244 70.6493 39.5827 70.8215 39.5026 70.9764C39.4229 71.1313 39.3074 71.2626 39.1667 71.3588C39.0259 71.4556 38.8639 71.515 38.6959 71.5316C38.528 71.5468 38.3584 71.5192 38.2036 71.4514L31.1315 68.3277L17.7604 68.1706C7.58165 68.1706 -0.754765 59.1219 0.0543351 48.3909C0.59505 40.1554 6.51264 33.3147 14.1358 31.694C13.6687 31.1076 13.3473 30.4077 13.2036 29.6563C13.0326 28.7629 13.1201 27.8366 13.4557 26.9954C13.7909 26.1539 14.3589 25.4347 15.0877 24.9288C15.8162 24.4225 16.6732 24.1522 17.5496 24.1522C18.1314 24.1522 18.7075 24.2714 19.2454 24.5029C19.7828 24.7344 20.2715 25.0736 20.6826 25.5012C21.0942 25.929 21.4204 26.4364 21.6431 26.9954C21.8659 27.554 21.9806 28.1532 21.9806 28.7579ZM56.1643 57.5054C57.6202 58.5161 59.3319 59.0553 61.0824 59.0545C63.427 59.0468 65.6732 58.0752 67.3311 56.3522C68.9884 54.6292 69.9238 52.2947 69.9311 49.8579C69.9318 48.0386 69.4129 46.2595 68.4402 44.7464C67.4682 43.2333 66.0859 42.0537 64.4684 41.3574C62.8512 40.661 61.0712 40.4783 59.3543 40.8336C57.6369 41.1882 56.0597 42.0642 54.8217 43.3509C53.584 44.6376 52.7408 46.2769 52.3993 48.0618C52.0581 49.8463 52.2332 51.6963 52.9035 53.377C53.574 55.0582 54.7084 56.4946 56.1643 57.5054Z" fill="#1D785A"/>
<path d="M67.0656 23.4228C67.0656 24.653 66.7143 25.8554 66.0571 26.8781C65.3994 27.9011 64.4646 28.6982 63.3711 29.1688C62.2776 29.6399 61.0746 29.763 59.9137 29.523C58.7528 29.2831 57.6864 28.6908 56.8496 27.821C56.0127 26.9508 55.4428 25.8426 55.2116 24.636C54.9806 23.4294 55.0991 22.1791 55.5523 21.0426C56.0053 19.906 56.7721 18.9345 57.7565 18.2511C58.7405 17.5676 59.8977 17.2029 61.0813 17.2029C62.6683 17.2029 64.1905 17.8582 65.3127 19.0246C66.4352 20.1911 67.0656 21.773 67.0656 23.4228Z" fill="#79939E"/>
<path d="M96.5161 42.5859C96.577 42.5859 96.6378 42.5985 96.6987 42.6239C96.7595 42.6442 96.8178 42.6822 96.8736 42.738L97.8929 43.8105C97.4466 44.3937 96.8863 44.8348 96.2118 45.134C95.5425 45.4281 94.7489 45.5752 93.831 45.5752C92.9893 45.5752 92.2337 45.4332 91.5643 45.1492C90.9 44.8602 90.3346 44.4646 89.8681 43.9626C89.4067 43.4555 89.0517 42.8572 88.8032 42.1675C88.5547 41.4728 88.4305 40.7198 88.4305 39.9084C88.4305 39.0819 88.5649 38.3237 88.8336 37.6341C89.1024 36.9394 89.4802 36.341 89.967 35.839C90.4538 35.337 91.037 34.9465 91.7165 34.6676C92.396 34.3887 93.1439 34.2493 93.9604 34.2493C94.3762 34.2493 94.7666 34.2873 95.1317 34.3633C95.5019 34.4343 95.8467 34.5358 96.1662 34.6676C96.4857 34.7944 96.7798 34.949 97.0486 35.1316C97.3173 35.3141 97.5556 35.5119 97.7636 35.7249L96.8964 36.8887C96.8406 36.9597 96.7747 37.0256 96.6987 37.0864C96.6226 37.1422 96.5161 37.1701 96.3792 37.1701C96.2879 37.1701 96.2017 37.1498 96.1206 37.1093C96.0394 37.0687 95.9532 37.0205 95.862 36.9647C95.7707 36.9039 95.6693 36.8405 95.5577 36.7746C95.4512 36.7036 95.3219 36.6402 95.1698 36.5844C95.0227 36.5236 94.8478 36.4729 94.6449 36.4323C94.4472 36.3917 94.2139 36.3714 93.9451 36.3714C93.5192 36.3714 93.1287 36.45 92.7738 36.6072C92.4239 36.7644 92.1196 36.9952 91.861 37.2994C91.6074 37.5986 91.4097 37.9688 91.2677 38.41C91.1308 38.8461 91.0623 39.3455 91.0623 39.9084C91.0623 40.4764 91.1384 40.9809 91.2905 41.4221C91.4477 41.8633 91.6582 42.236 91.9218 42.5402C92.1906 42.8394 92.5025 43.0676 92.8574 43.2248C93.2124 43.382 93.5927 43.4606 93.9984 43.4606C94.2317 43.4606 94.4446 43.4505 94.6373 43.4302C94.83 43.4048 95.01 43.3668 95.1774 43.3161C95.3447 43.2603 95.5019 43.1893 95.649 43.1031C95.796 43.0118 95.9456 42.8977 96.0978 42.7608C96.1586 42.7101 96.2245 42.6695 96.2955 42.6391C96.3665 42.6036 96.44 42.5859 96.5161 42.5859ZM113.413 39.9084C113.413 40.7096 113.274 41.455 112.995 42.1447C112.721 42.8343 112.333 43.4352 111.831 43.9474C111.329 44.4545 110.723 44.8526 110.013 45.1416C109.308 45.4307 108.525 45.5752 107.663 45.5752C106.801 45.5752 106.015 45.4307 105.305 45.1416C104.595 44.8526 103.986 44.4545 103.479 43.9474C102.977 43.4352 102.587 42.8343 102.308 42.1447C102.034 41.455 101.897 40.7096 101.897 39.9084C101.897 39.1072 102.034 38.3618 102.308 37.6721C102.587 36.9825 102.977 36.3841 103.479 35.877C103.986 35.3699 104.595 34.9719 105.305 34.6828C106.015 34.3938 106.801 34.2493 107.663 34.2493C108.525 34.2493 109.308 34.3963 110.013 34.6904C110.723 34.9795 111.329 35.3775 111.831 35.8846C112.333 36.3917 112.721 36.9901 112.995 37.6797C113.274 38.3694 113.413 39.1123 113.413 39.9084ZM110.781 39.9084C110.781 39.3608 110.71 38.8689 110.568 38.4328C110.426 37.9916 110.221 37.6189 109.952 37.3146C109.689 37.0104 109.364 36.7771 108.979 36.6148C108.593 36.4526 108.155 36.3714 107.663 36.3714C107.166 36.3714 106.722 36.4526 106.332 36.6148C105.946 36.7771 105.619 37.0104 105.35 37.3146C105.087 37.6189 104.884 37.9916 104.742 38.4328C104.6 38.8689 104.529 39.3608 104.529 39.9084C104.529 40.4611 104.6 40.9581 104.742 41.3993C104.884 41.8354 105.087 42.2055 105.35 42.5098C105.619 42.8141 105.946 43.0473 106.332 43.2096C106.722 43.3668 107.166 43.4454 107.663 43.4454C108.155 43.4454 108.593 43.3668 108.979 43.2096C109.364 43.0473 109.689 42.8141 109.952 42.5098C110.221 42.2055 110.426 41.8354 110.568 41.3993C110.71 40.9581 110.781 40.4611 110.781 39.9084ZM128.122 34.371V45.4535H126.784C126.586 45.4535 126.419 45.4231 126.282 45.3622C126.15 45.2963 126.018 45.1847 125.886 45.0275L120.661 38.4176C120.681 38.6153 120.694 38.808 120.699 38.9956C120.709 39.1782 120.714 39.3506 120.714 39.5129V45.4535H118.447V34.371H119.801C119.913 34.371 120.006 34.376 120.083 34.3862C120.159 34.3963 120.227 34.4166 120.288 34.447C120.349 34.4724 120.407 34.5104 120.463 34.5611C120.519 34.6118 120.582 34.6803 120.653 34.7665L125.924 41.4221C125.899 41.2091 125.881 41.0037 125.871 40.806C125.861 40.6031 125.856 40.413 125.856 40.2355V34.371H128.122ZM143.469 34.371V45.4535H142.13C141.932 45.4535 141.765 45.4231 141.628 45.3622C141.496 45.2963 141.365 45.1847 141.233 45.0275L136.007 38.4176C136.027 38.6153 136.04 38.808 136.045 38.9956C136.055 39.1782 136.06 39.3506 136.06 39.5129V45.4535H133.794V34.371H135.148C135.259 34.371 135.353 34.376 135.429 34.3862C135.505 34.3963 135.574 34.4166 135.634 34.447C135.695 34.4724 135.754 34.5104 135.809 34.5611C135.865 34.6118 135.928 34.6803 135.999 34.7665L141.271 41.4221C141.245 41.2091 141.228 41.0037 141.217 40.806C141.207 40.6031 141.202 40.413 141.202 40.2355V34.371H143.469ZM151.726 36.3486V38.9348H155.21V40.8364H151.726V43.4758H156.275V45.4535H149.14V34.371H156.275V36.3486H151.726ZM168.851 42.5859C168.912 42.5859 168.973 42.5985 169.034 42.6239C169.095 42.6442 169.153 42.6822 169.209 42.738L170.228 43.8105C169.782 44.3937 169.221 44.8348 168.547 45.134C167.878 45.4281 167.084 45.5752 166.166 45.5752C165.324 45.5752 164.569 45.4332 163.899 45.1492C163.235 44.8602 162.67 44.4646 162.203 43.9626C161.742 43.4555 161.387 42.8572 161.138 42.1675C160.89 41.4728 160.766 40.7198 160.766 39.9084C160.766 39.0819 160.9 38.3237 161.169 37.6341C161.437 36.9394 161.815 36.341 162.302 35.839C162.789 35.337 163.372 34.9465 164.052 34.6676C164.731 34.3887 165.479 34.2493 166.295 34.2493C166.711 34.2493 167.102 34.2873 167.467 34.3633C167.837 34.4343 168.182 34.5358 168.501 34.6676C168.821 34.7944 169.115 34.949 169.384 35.1316C169.652 35.3141 169.891 35.5119 170.099 35.7249L169.231 36.8887C169.176 36.9597 169.11 37.0256 169.034 37.0864C168.958 37.1422 168.851 37.1701 168.714 37.1701C168.623 37.1701 168.537 37.1498 168.456 37.1093C168.374 37.0687 168.288 37.0205 168.197 36.9647C168.106 36.9039 168.004 36.8405 167.893 36.7746C167.786 36.7036 167.657 36.6402 167.505 36.5844C167.358 36.5236 167.183 36.4729 166.98 36.4323C166.782 36.3917 166.549 36.3714 166.28 36.3714C165.854 36.3714 165.464 36.45 165.109 36.6072C164.759 36.7644 164.455 36.9952 164.196 37.2994C163.942 37.5986 163.745 37.9688 163.603 38.41C163.466 38.8461 163.397 39.3455 163.397 39.9084C163.397 40.4764 163.473 40.9809 163.626 41.4221C163.783 41.8633 163.993 42.236 164.257 42.5402C164.526 42.8394 164.838 43.0676 165.192 43.2248C165.547 43.382 165.928 43.4606 166.333 43.4606C166.567 43.4606 166.78 43.4505 166.972 43.4302C167.165 43.4048 167.345 43.3668 167.512 43.3161C167.68 43.2603 167.837 43.1893 167.984 43.1031C168.131 43.0118 168.281 42.8977 168.433 42.7608C168.494 42.7101 168.56 42.6695 168.631 42.6391C168.702 42.6036 168.775 42.5859 168.851 42.5859ZM182.375 36.4095H179.256V45.4535H176.685V36.4095H173.566V34.371H182.375V36.4095Z" fill="#1D785A"/>
<path d="M101.506 53.7742V64.8567H99.2392V58.4826C99.2392 58.3355 99.2417 58.1758 99.2468 58.0034C99.2569 57.8309 99.2722 57.656 99.2924 57.4785L96.3488 63.1757C96.2575 63.3532 96.1333 63.4876 95.9761 63.5788C95.8239 63.6701 95.649 63.7158 95.4512 63.7158H95.1013C94.9035 63.7158 94.7261 63.6701 94.5689 63.5788C94.4167 63.4876 94.295 63.3532 94.2038 63.1757L91.2601 57.4633C91.2753 57.6459 91.288 57.8259 91.2981 58.0034C91.3083 58.1758 91.3133 58.3355 91.3133 58.4826V64.8567H89.0466V53.7742H91.0091C91.1206 53.7742 91.217 53.7767 91.2981 53.7818C91.3843 53.7869 91.4604 53.8021 91.5263 53.8274C91.5922 53.8528 91.6505 53.8934 91.7013 53.9491C91.757 53.9999 91.8103 54.0734 91.861 54.1697L94.7134 59.7909C94.8148 59.9836 94.9112 60.1839 95.0024 60.3918C95.0988 60.5997 95.1901 60.8127 95.2763 61.0307C95.3625 60.8076 95.4512 60.5895 95.5425 60.3766C95.6388 60.1636 95.7403 59.9607 95.8467 59.768L98.6915 54.1697C98.7422 54.0734 98.793 53.9999 98.8437 53.9491C98.8994 53.8934 98.9603 53.8528 99.0262 53.8274C99.0921 53.8021 99.1657 53.7869 99.2468 53.7818C99.333 53.7767 99.4319 53.7742 99.5435 53.7742H101.506ZM112.508 60.62L111.481 57.585C111.405 57.3923 111.324 57.1667 111.238 56.908C111.152 56.6443 111.066 56.3604 110.979 56.0561C110.903 56.3654 110.822 56.652 110.736 56.9156C110.65 57.1793 110.569 57.4075 110.493 57.6002L109.473 60.62H112.508ZM116.593 64.8567H114.6C114.377 64.8567 114.197 64.806 114.06 64.7046C113.923 64.5981 113.819 64.4637 113.748 64.3015L113.094 62.3694H108.88L108.226 64.3015C108.17 64.4434 108.069 64.5727 107.922 64.6894C107.78 64.8009 107.602 64.8567 107.389 64.8567H105.381L109.671 53.7742H112.303L116.593 64.8567ZM128.325 54.7022C128.325 54.834 128.302 54.9633 128.257 55.0901C128.216 55.2169 128.158 55.336 128.082 55.4476L122.879 62.8791H128.158V64.8567H119.608V63.8679C119.608 63.7513 119.628 63.6372 119.669 63.5256C119.709 63.409 119.765 63.3025 119.836 63.2061L125.054 55.7519H120.034V53.7742H128.325V54.7022ZM137.415 60.8405C137.415 61.4592 137.336 62.0221 137.179 62.5292C137.027 63.0363 136.793 63.4724 136.479 63.8375C136.17 64.1975 135.779 64.4789 135.308 64.6818C134.836 64.8795 134.281 64.9784 133.642 64.9784C133.353 64.9784 133.066 64.9632 132.782 64.9328C132.503 64.9024 132.212 64.8516 131.908 64.7807L132.045 63.2822C132.06 63.1504 132.113 63.0439 132.204 62.9627C132.296 62.8816 132.425 62.841 132.592 62.841C132.678 62.841 132.785 62.8562 132.912 62.8867C133.038 62.912 133.191 62.9247 133.368 62.9247C133.617 62.9247 133.832 62.8917 134.015 62.8258C134.202 62.7548 134.357 62.6407 134.479 62.4835C134.6 62.3213 134.692 62.1108 134.752 61.8522C134.813 61.5936 134.844 61.2741 134.844 60.8938V53.7742H137.415V60.8405ZM145.561 64.8567H142.975V53.7742H145.561V64.8567ZM161.276 59.3117C161.276 60.1129 161.136 60.8532 160.857 61.5327C160.583 62.2072 160.196 62.7929 159.694 63.2898C159.192 63.7817 158.586 64.1671 157.876 64.446C157.171 64.7198 156.387 64.8567 155.525 64.8567H151.22V53.7742H155.525C156.387 53.7742 157.171 53.9136 157.876 54.1926C158.586 54.4715 159.192 54.8568 159.694 55.3487C160.196 55.8406 160.583 56.4263 160.857 57.1058C161.136 57.7802 161.276 58.5155 161.276 59.3117ZM158.644 59.3117C158.644 58.764 158.573 58.2696 158.431 57.8284C158.289 57.3872 158.084 57.0145 157.815 56.7103C157.551 56.4009 157.227 56.1651 156.841 56.0029C156.456 55.8355 156.017 55.7519 155.525 55.7519H153.806V62.8791H155.525C156.017 62.8791 156.456 62.7979 156.841 62.6357C157.227 62.4683 157.551 62.2325 157.815 61.9283C158.084 61.6189 158.289 61.2437 158.431 60.8025C158.573 60.3613 158.644 59.8644 158.644 59.3117Z" fill="#79939E"/>
</svg>
