<svg width="162" height="64" viewBox="0 0 162 64" fill="none" xmlns="http://www.w3.org/2000/svg">
<path fill-rule="evenodd" clip-rule="evenodd" d="M19.5464 11.3617C20.678 10.7963 21.6255 9.89852 22.2711 8.7794C21.6535 9.23062 20.9648 9.56607 20.2359 9.77047C18.6002 10.2353 16.8543 10.0062 15.381 9.13367C13.908 8.26106 12.8285 6.81633 12.3798 5.11694C12.1559 4.26019 12.1012 3.36532 12.2184 2.48602C12.3359 1.60676 12.6231 0.761168 13.0626 6.10352e-05C11.9939 0.781186 11.1824 1.88499 10.7379 3.16176C10.2934 4.43853 10.2374 5.82651 10.5775 7.13748C10.9144 8.39462 11.5988 9.52145 12.5454 10.3787C13.2018 10.973 13.9647 11.4197 14.7854 11.6959C14.7726 11.7078 14.7601 11.7201 14.7479 11.7327C14.5721 11.9147 14.473 12.1616 14.472 12.4194V14.5127C14.4727 14.7707 14.5721 15.0178 14.7475 15.2C14.9234 15.3822 15.1611 15.4848 15.4094 15.4853H16.0336C16.2811 15.4841 16.5182 15.3812 16.6933 15.1991C16.8682 15.0169 16.9669 14.7703 16.9676 14.5129V12.4194C16.9669 12.2801 16.938 12.144 16.8836 12.0195C17.8025 12.0017 18.7112 11.7789 19.5464 11.3617ZM15.2457 21.5755H16.1952C16.5748 21.5748 16.9386 21.4184 17.2073 21.1399C17.4759 20.8613 17.6277 20.4836 17.6294 20.089V16.8854C17.628 16.5792 17.5361 16.2808 17.3663 16.0307C17.1964 15.7806 16.9564 15.5909 16.6791 15.4872C16.506 15.6614 16.2742 15.7589 16.0332 15.7592H15.409C15.1673 15.7596 14.9349 15.662 14.7607 15.4872C14.4838 15.591 14.2442 15.7808 14.0743 16.0309C13.9047 16.2809 13.8129 16.5793 13.8119 16.8854V20.089C13.8136 20.4836 13.965 20.8613 14.2337 21.1399C14.5023 21.4184 14.8661 21.5751 15.2457 21.5755Z" fill="#FFB625"/>
<path fill-rule="evenodd" clip-rule="evenodd" d="M19.4302 25.4211C19.4302 26.2262 19.2004 27.0133 18.7701 27.6829C18.7108 27.7749 18.6479 27.8646 18.5817 27.9512C22.7096 28.7498 26.2805 31.2604 28.6075 34.7095C31.1528 38.6401 28.4136 43.9939 23.8481 43.9939H23.7187C23.7263 42.9235 23.5291 41.8625 23.1383 40.8725C22.7478 39.8823 22.1713 38.983 21.4431 38.2264C20.7148 37.4699 19.8493 36.8714 18.8965 36.4659C17.9437 36.0601 16.9227 35.8559 15.8929 35.8644C13.8201 35.8702 11.8332 36.7284 10.3671 38.2514C8.90078 39.7748 8.07401 41.8392 8.06731 43.9939C8.06731 48.2643 11.2636 51.7199 15.243 52.1275H26.5554L33.7708 48.9415C33.9077 48.8809 34.0576 48.8566 34.206 48.8706C34.3545 48.8847 34.4977 48.937 34.6222 49.0226C34.7463 49.1081 34.8487 49.2245 34.9191 49.361C34.9899 49.4975 35.0268 49.6504 35.0268 49.8055V52.1275H38.5222C38.7059 52.0625 38.8748 51.9595 39.0193 51.8246C39.1633 51.6895 39.2795 51.5256 39.3607 51.3426C39.4418 51.1595 39.4862 50.961 39.4911 50.7594C39.4961 50.5579 39.4615 50.3574 39.3897 50.1702C38.652 48.2291 38.275 46.1602 38.2786 44.0729C38.2806 39.7413 39.9373 35.5879 42.8842 32.5251C45.8312 29.4623 49.8277 27.7408 53.995 27.7387C58.1627 27.7387 62.1599 29.4595 65.1069 32.522C68.054 35.5852 69.7095 39.7392 69.7095 44.0709C69.7095 48.4025 68.054 52.5569 65.1069 55.6198C62.1599 58.6826 58.1627 60.4034 53.995 60.4034H35.0268V62.2966C35.0268 62.4519 34.9899 62.6041 34.9191 62.741C34.8487 62.8779 34.7466 62.9941 34.6222 63.079C34.4977 63.1646 34.3545 63.2172 34.206 63.2318C34.0576 63.2453 33.9077 63.2208 33.7708 63.1609L27.5193 60.3996L15.6996 60.2608C6.70195 60.2608 -0.667189 52.262 0.0480306 42.7761C0.526007 35.4962 5.75698 29.4492 12.4956 28.0166C12.0828 27.4982 11.7986 26.8795 11.6716 26.2153C11.5204 25.4256 11.5978 24.6067 11.8944 23.8632C12.1907 23.1193 12.6928 22.4835 13.3371 22.0363C13.9811 21.5887 14.7386 21.3499 15.5133 21.3499C16.0276 21.3499 16.5369 21.4552 17.0123 21.6599C17.4874 21.8645 17.9194 22.1643 18.2828 22.5423C18.6466 22.9204 18.935 23.369 19.1319 23.8632C19.3288 24.3569 19.4302 24.8866 19.4302 25.4211ZM49.6476 50.833C50.9345 51.7265 52.4476 52.2031 53.995 52.2024C56.0675 52.1956 58.0531 51.3367 59.5187 49.8136C60.9837 48.2906 61.8106 46.2269 61.817 44.0729C61.8176 42.4647 61.3589 40.892 60.4991 39.5545C59.6398 38.2169 58.4179 37.1743 56.9881 36.5587C55.5586 35.9431 53.9851 35.7816 52.4674 36.0957C50.9493 36.4092 49.5551 37.1835 48.4607 38.3209C47.3667 39.4583 46.6213 40.9074 46.3194 42.4852C46.0178 44.0627 46.1726 45.698 46.7651 47.1837C47.3578 48.6698 48.3606 49.9396 49.6476 50.833Z" fill="#1D785A"/>
<path d="M59.284 20.7051C59.284 21.7926 58.9735 22.8554 58.3926 23.7594C57.8112 24.6637 56.9848 25.3683 56.0182 25.7844C55.0516 26.2008 53.9881 26.3096 52.9619 26.0975C51.9357 25.8854 50.9931 25.3618 50.2533 24.593C49.5135 23.8237 49.0098 22.8441 48.8054 21.7775C48.6013 20.7109 48.706 19.6057 49.1066 18.6011C49.507 17.5963 50.1849 16.7376 51.055 16.1334C51.9249 15.5293 52.9478 15.2068 53.9941 15.2068C55.3969 15.2068 56.7425 15.7861 57.7345 16.8172C58.7267 17.8483 59.284 19.2467 59.284 20.7051Z" fill="#79939E"/>
<path d="M85.3173 37.3851C85.3711 37.3851 85.4249 37.3963 85.4787 37.4187C85.5325 37.4366 85.584 37.4703 85.6334 37.5196L86.5344 38.4676C86.1399 38.9831 85.6446 39.3731 85.0484 39.6376C84.4567 39.8976 83.7552 40.0276 82.9438 40.0276C82.1997 40.0276 81.5318 39.9021 80.9401 39.651C80.3529 39.3955 79.8531 39.0459 79.4407 38.6021C79.0328 38.1539 78.719 37.6249 78.4994 37.0153C78.2797 36.4012 78.1699 35.7355 78.1699 35.0183C78.1699 34.2877 78.2887 33.6175 78.5263 33.0079C78.7638 32.3938 79.0978 31.8648 79.5281 31.4211C79.9584 30.9773 80.4739 30.6321 81.0746 30.3856C81.6753 30.1391 82.3364 30.0158 83.0581 30.0158C83.4257 30.0158 83.7709 30.0494 84.0936 30.1166C84.4208 30.1794 84.7256 30.269 85.008 30.3856C85.2904 30.4977 85.5504 30.6344 85.788 30.7957C86.0256 30.9571 86.2363 31.1319 86.42 31.3202L85.6535 32.349C85.6042 32.4117 85.5459 32.47 85.4787 32.5238C85.4115 32.5731 85.3173 32.5977 85.1963 32.5977C85.1156 32.5977 85.0394 32.5798 84.9677 32.5439C84.896 32.5081 84.8198 32.4655 84.7391 32.4162C84.6584 32.3624 84.5688 32.3064 84.4701 32.2481C84.376 32.1853 84.2617 32.1293 84.1272 32.08C83.9972 32.0262 83.8426 31.9814 83.6633 31.9455C83.4885 31.9097 83.2823 31.8917 83.0447 31.8917C82.6681 31.8917 82.323 31.9612 82.0092 32.1002C81.6999 32.2391 81.431 32.4431 81.2024 32.712C80.9782 32.9765 80.8034 33.3037 80.6779 33.6937C80.5569 34.0792 80.4964 34.5207 80.4964 35.0183C80.4964 35.5204 80.5636 35.9664 80.6981 36.3564C80.837 36.7463 81.0231 37.0758 81.2561 37.3448C81.4937 37.6092 81.7694 37.8109 82.0832 37.9499C82.397 38.0889 82.7331 38.1583 83.0918 38.1583C83.2979 38.1583 83.4862 38.1494 83.6566 38.1314C83.8269 38.109 83.986 38.0754 84.1339 38.0306C84.2819 37.9813 84.4208 37.9185 84.5508 37.8423C84.6808 37.7616 84.8131 37.6608 84.9475 37.5397C85.0013 37.4949 85.0596 37.4591 85.1223 37.4322C85.1851 37.4008 85.2501 37.3851 85.3173 37.3851ZM100.254 35.0183C100.254 35.7266 100.131 36.3855 99.8841 36.9951C99.642 37.6047 99.2991 38.1359 98.8553 38.5887C98.4116 39.0369 97.8759 39.3888 97.2483 39.6443C96.6253 39.8998 95.9327 40.0276 95.1707 40.0276C94.4087 40.0276 93.7139 39.8998 93.0863 39.6443C92.4587 39.3888 91.9208 39.0369 91.4726 38.5887C91.0288 38.1359 90.6837 37.6047 90.4371 36.9951C90.1951 36.3855 90.074 35.7266 90.074 35.0183C90.074 34.3101 90.1951 33.6511 90.4371 33.0415C90.6837 32.4319 91.0288 31.9029 91.4726 31.4547C91.9208 31.0064 92.4587 30.6545 93.0863 30.399C93.7139 30.1435 94.4087 30.0158 95.1707 30.0158C95.9327 30.0158 96.6253 30.1458 97.2483 30.4058C97.8759 30.6613 98.4116 31.0132 98.8553 31.4614C99.2991 31.9097 99.642 32.4386 99.8841 33.0482C100.131 33.6579 100.254 34.3146 100.254 35.0183ZM97.9275 35.0183C97.9275 34.5342 97.8647 34.0994 97.7392 33.7139C97.6137 33.3239 97.4321 32.9944 97.1946 32.7255C96.9615 32.4565 96.6746 32.2503 96.3339 32.1069C95.9932 31.9635 95.6055 31.8917 95.1707 31.8917C94.7314 31.8917 94.3392 31.9635 93.994 32.1069C93.6533 32.2503 93.3642 32.4565 93.1266 32.7255C92.8936 32.9944 92.7142 33.3239 92.5887 33.7139C92.4632 34.0994 92.4005 34.5342 92.4005 35.0183C92.4005 35.5069 92.4632 35.9462 92.5887 36.3362C92.7142 36.7217 92.8936 37.0489 93.1266 37.3179C93.3642 37.5868 93.6533 37.793 93.994 37.9365C94.3392 38.0754 94.7314 38.1449 95.1707 38.1449C95.6055 38.1449 95.9932 38.0754 96.3339 37.9365C96.6746 37.793 96.9615 37.5868 97.1946 37.3179C97.4321 37.0489 97.6137 36.7217 97.7392 36.3362C97.8647 35.9462 97.9275 35.5069 97.9275 35.0183ZM113.256 30.1234V39.92H112.073C111.898 39.92 111.75 39.8931 111.629 39.8393C111.513 39.781 111.396 39.6824 111.28 39.5434L106.66 33.7004C106.678 33.8753 106.689 34.0456 106.694 34.2115C106.703 34.3728 106.707 34.5252 106.707 34.6687V39.92H104.704V30.1234H105.901C105.999 30.1234 106.082 30.1278 106.149 30.1368C106.217 30.1458 106.277 30.1637 106.331 30.1906C106.385 30.213 106.436 30.2466 106.486 30.2915C106.535 30.3363 106.591 30.3968 106.654 30.473L111.313 36.3564C111.291 36.1681 111.275 35.9865 111.266 35.8117C111.257 35.6324 111.253 35.4643 111.253 35.3074V30.1234H113.256ZM126.822 30.1234V39.92H125.639C125.464 39.92 125.316 39.8931 125.195 39.8393C125.079 39.781 124.962 39.6824 124.845 39.5434L120.226 33.7004C120.244 33.8753 120.255 34.0456 120.26 34.2115C120.269 34.3728 120.273 34.5252 120.273 34.6687V39.92H118.27V30.1234H119.466C119.565 30.1234 119.648 30.1278 119.715 30.1368C119.782 30.1458 119.843 30.1637 119.897 30.1906C119.951 30.213 120.002 30.2466 120.051 30.2915C120.101 30.3363 120.157 30.3968 120.219 30.473L124.879 36.3564C124.857 36.1681 124.841 35.9865 124.832 35.8117C124.823 35.6324 124.819 35.4643 124.819 35.3074V30.1234H126.822ZM134.122 31.8716V34.1577H137.201V35.8386H134.122V38.1718H138.142V39.92H131.835V30.1234H138.142V31.8716H134.122ZM149.259 37.3851C149.313 37.3851 149.367 37.3963 149.421 37.4187C149.475 37.4366 149.526 37.4703 149.575 37.5196L150.476 38.4676C150.082 38.9831 149.587 39.3731 148.99 39.6376C148.399 39.8976 147.697 40.0276 146.886 40.0276C146.142 40.0276 145.474 39.9021 144.882 39.651C144.295 39.3955 143.795 39.0459 143.383 38.6021C142.975 38.1539 142.661 37.6249 142.441 37.0153C142.222 36.4012 142.112 35.7355 142.112 35.0183C142.112 34.2877 142.231 33.6175 142.468 33.0079C142.706 32.3938 143.04 31.8648 143.47 31.4211C143.9 30.9773 144.416 30.6321 145.017 30.3856C145.617 30.1391 146.278 30.0158 147 30.0158C147.368 30.0158 147.713 30.0494 148.036 30.1166C148.363 30.1794 148.668 30.269 148.95 30.3856C149.232 30.4977 149.492 30.6344 149.73 30.7957C149.968 30.9571 150.178 31.1319 150.362 31.3202L149.596 32.349C149.546 32.4117 149.488 32.47 149.421 32.5238C149.353 32.5731 149.259 32.5977 149.138 32.5977C149.058 32.5977 148.981 32.5798 148.91 32.5439C148.838 32.5081 148.762 32.4655 148.681 32.4162C148.6 32.3624 148.511 32.3064 148.412 32.2481C148.318 32.1853 148.204 32.1293 148.069 32.08C147.939 32.0262 147.785 31.9814 147.605 31.9455C147.43 31.9097 147.224 31.8917 146.987 31.8917C146.61 31.8917 146.265 31.9612 145.951 32.1002C145.642 32.2391 145.373 32.4431 145.144 32.712C144.92 32.9765 144.745 33.3037 144.62 33.6937C144.499 34.0792 144.438 34.5207 144.438 35.0183C144.438 35.5204 144.506 35.9664 144.64 36.3564C144.779 36.7463 144.965 37.0758 145.198 37.3448C145.436 37.6092 145.711 37.8109 146.025 37.9499C146.339 38.0889 146.675 38.1583 147.034 38.1583C147.24 38.1583 147.428 38.1494 147.599 38.1314C147.769 38.109 147.928 38.0754 148.076 38.0306C148.224 37.9813 148.363 37.9185 148.493 37.8423C148.623 37.7616 148.755 37.6608 148.89 37.5397C148.943 37.4949 149.002 37.4591 149.064 37.4322C149.127 37.4008 149.192 37.3851 149.259 37.3851ZM161.214 31.9254H158.457V39.92H156.184V31.9254H153.427V30.1234H161.214V31.9254Z" fill="#1D785A"/>
<path d="M89.7282 47.2752V57.0718H87.7245V51.4373C87.7245 51.3073 87.7267 51.1661 87.7312 51.0137C87.7402 50.8613 87.7536 50.7066 87.7715 50.5497L85.1694 55.5859C85.0887 55.7428 84.9789 55.8615 84.8399 55.9422C84.7055 56.0229 84.5508 56.0633 84.376 56.0633H84.0667C83.8919 56.0633 83.735 56.0229 83.596 55.9422C83.4616 55.8615 83.354 55.7428 83.2733 55.5859L80.6712 50.5363C80.6846 50.6976 80.6958 50.8568 80.7048 51.0137C80.7138 51.1661 80.7182 51.3073 80.7182 51.4373V57.0718H78.7145V47.2752H80.4493C80.5479 47.2752 80.6331 47.2775 80.7048 47.2819C80.781 47.2864 80.8482 47.2999 80.9065 47.3223C80.9648 47.3447 81.0163 47.3806 81.0612 47.4299C81.1105 47.4747 81.1575 47.5397 81.2024 47.6249L83.7238 52.5938C83.8134 52.7641 83.8986 52.9412 83.9793 53.125C84.0645 53.3087 84.1452 53.497 84.2214 53.6898C84.2976 53.4925 84.376 53.2998 84.4567 53.1115C84.5419 52.9232 84.6315 52.7439 84.7256 52.5736L87.2404 47.6249C87.2852 47.5397 87.33 47.4747 87.3748 47.4299C87.4241 47.3806 87.4779 47.3447 87.5362 47.3223C87.5945 47.2999 87.6595 47.2864 87.7312 47.2819C87.8074 47.2775 87.8948 47.2752 87.9934 47.2752H89.7282ZM99.4539 53.3267L98.5462 50.6439C98.4789 50.4735 98.4072 50.274 98.331 50.0454C98.2548 49.8123 98.1786 49.5613 98.1024 49.2924C98.0351 49.5658 97.9634 49.8191 97.8872 50.0522C97.811 50.2853 97.7393 50.487 97.6721 50.6573L96.7711 53.3267H99.4539ZM103.065 57.0718H101.303C101.106 57.0718 100.947 57.027 100.826 56.9374C100.705 56.8432 100.613 56.7244 100.55 56.581L99.9716 54.8731H96.2466L95.6684 56.581C95.619 56.7065 95.5294 56.8208 95.3994 56.9239C95.2739 57.0225 95.117 57.0718 94.9287 57.0718H93.1536L96.9459 47.2752H99.2723L103.065 57.0718ZM113.435 48.0955C113.435 48.2121 113.415 48.3264 113.375 48.4384C113.339 48.5505 113.288 48.6558 113.22 48.7545L108.621 55.3236H113.288V57.0718H105.73V56.1977C105.73 56.0946 105.748 55.9938 105.784 55.8952C105.82 55.7921 105.869 55.6979 105.932 55.6128L110.544 49.0234H106.106V47.2752H113.435V48.0955ZM121.47 53.5217C121.47 54.0685 121.401 54.5661 121.262 55.0143C121.127 55.4626 120.921 55.8481 120.643 56.1708C120.37 56.4891 120.025 56.7379 119.608 56.9172C119.191 57.092 118.7 57.1794 118.135 57.1794C117.88 57.1794 117.627 57.166 117.376 57.1391C117.129 57.1122 116.871 57.0674 116.602 57.0046L116.723 55.68C116.737 55.5635 116.784 55.4693 116.865 55.3976C116.945 55.3259 117.06 55.29 117.208 55.29C117.284 55.29 117.378 55.3035 117.49 55.3304C117.602 55.3528 117.736 55.364 117.893 55.364C118.113 55.364 118.303 55.3348 118.465 55.2766C118.631 55.2138 118.767 55.113 118.875 54.974C118.983 54.8306 119.063 54.6445 119.117 54.4159C119.171 54.1873 119.198 53.9049 119.198 53.5687V47.2752H121.47V53.5217ZM128.672 57.0718H126.385V47.2752H128.672V57.0718ZM142.563 52.1702C142.563 52.8784 142.44 53.5329 142.193 54.1335C141.951 54.7297 141.608 55.2474 141.164 55.6867C140.721 56.1215 140.185 56.4622 139.557 56.7088C138.934 56.9508 138.242 57.0718 137.48 57.0718H133.674V47.2752H137.48C138.242 47.2752 138.934 47.3985 139.557 47.645C140.185 47.8916 140.721 48.2322 141.164 48.6671C141.608 49.1019 141.951 49.6196 142.193 50.2203C142.44 50.8164 142.563 51.4664 142.563 52.1702ZM140.236 52.1702C140.236 51.6861 140.174 51.249 140.048 50.859C139.923 50.469 139.741 50.1396 139.504 49.8706C139.27 49.5972 138.984 49.3887 138.643 49.2453C138.302 49.0974 137.914 49.0234 137.48 49.0234H135.96V55.3236H137.48C137.914 55.3236 138.302 55.2519 138.643 55.1085C138.984 54.9606 139.27 54.7521 139.504 54.4832C139.741 54.2097 139.923 53.878 140.048 53.488C140.174 53.0981 140.236 52.6588 140.236 52.1702Z" fill="#79939E"/>
</svg>
