<svg width="161" height="63" viewBox="0 0 161 63" fill="none" xmlns="http://www.w3.org/2000/svg">
<g filter="url(#filter0_i_2236_1449)">
<path fill-rule="evenodd" clip-rule="evenodd" d="M19.3679 11.2579C20.4891 10.6977 21.428 9.80817 22.0677 8.69925C21.4557 9.14635 20.7733 9.47874 20.051 9.68128C18.4303 10.1418 16.7004 9.91488 15.2405 9.05029C13.7809 8.18565 12.7112 6.75409 12.2666 5.0702C12.0447 4.22127 11.9906 3.33456 12.1067 2.46328C12.2232 1.59204 12.5077 0.754164 12.9432 0C11.8842 0.774 11.0801 1.86773 10.6397 3.13285C10.1993 4.39798 10.1438 5.7733 10.4808 7.07231C10.8146 8.31798 11.4928 9.43453 12.4307 10.2839C13.0811 10.8728 13.837 11.3154 14.6503 11.5892C14.6376 11.6009 14.6252 11.6131 14.6131 11.6256C14.4389 11.806 14.3408 12.0506 14.3398 12.3061V14.3803C14.3404 14.6359 14.4389 14.8807 14.6128 15.0613C14.787 15.2418 15.0226 15.3435 15.2685 15.344H15.8871C16.1323 15.3428 16.3673 15.2409 16.5408 15.0604C16.714 14.8799 16.8119 14.6355 16.8125 14.3805V12.3061C16.8119 12.168 16.7832 12.0331 16.7294 11.9098C17.6399 11.8921 18.5403 11.6714 19.3679 11.2579ZM15.1064 21.3786H16.0472C16.4234 21.3779 16.7839 21.223 17.0501 20.947C17.3163 20.671 17.4667 20.2967 17.4683 19.9057V16.7313C17.467 16.4279 17.3759 16.1322 17.2076 15.8844C17.0393 15.6366 16.8015 15.4486 16.5268 15.3459C16.3552 15.5185 16.1255 15.6151 15.8867 15.6154H15.2682C15.0287 15.6158 14.7984 15.5191 14.6258 15.3459C14.3515 15.4487 14.114 15.6367 13.9457 15.8846C13.7776 16.1324 13.6866 16.428 13.6857 16.7313V19.9057C13.6873 20.2967 13.8374 20.671 14.1036 20.947C14.3698 21.223 14.7303 21.3783 15.1064 21.3786Z" fill="#EC9D00"/>
<path fill-rule="evenodd" clip-rule="evenodd" d="M19.2529 25.1889C19.2529 25.9867 19.0252 26.7665 18.5988 27.4301C18.5401 27.5212 18.4778 27.6101 18.4122 27.6959C22.5025 28.4872 26.0407 30.9749 28.3465 34.3926C30.8686 38.2873 28.1544 43.5923 23.6306 43.5923H23.5024C23.5099 42.5317 23.3144 41.4803 22.9272 40.4993C22.5403 39.5182 21.9691 38.6271 21.2475 37.8774C20.5259 37.1278 19.6682 36.5348 18.7241 36.133C17.78 35.7309 16.7684 35.5285 15.7479 35.5369C13.694 35.5427 11.7252 36.3931 10.2725 37.9022C8.81958 39.4117 8.00036 41.4572 7.99371 43.5923C7.99371 47.8237 11.1609 51.2478 15.104 51.6517H26.3131L33.4627 48.4947C33.5984 48.4347 33.7469 48.4106 33.894 48.4245C34.0411 48.4384 34.183 48.4903 34.3063 48.5751C34.4293 48.6598 34.5308 48.7751 34.6006 48.9104C34.6707 49.0457 34.7072 49.1972 34.7072 49.3508V51.6517H38.1708C38.3528 51.5872 38.5202 51.4852 38.6634 51.3516C38.806 51.2176 38.9211 51.0553 39.0017 50.8739C39.082 50.6925 39.126 50.4958 39.1309 50.2961C39.1358 50.0964 39.1015 49.8977 39.0304 49.7123C38.2994 47.7888 37.9258 45.7389 37.9294 43.6706C37.9313 39.3784 39.5729 35.2629 42.493 32.2281C45.4131 29.1932 49.3731 27.4874 53.5025 27.4853C57.6322 27.4853 61.5929 29.1905 64.513 32.225C67.4331 35.2603 69.0736 39.3764 69.0736 43.6686C69.0736 47.9607 67.4331 52.0772 64.513 55.1121C61.5929 58.147 57.6322 59.8521 53.5025 59.8521H34.7072V61.728C34.7072 61.8819 34.6707 62.0327 34.6006 62.1683C34.5308 62.304 34.4296 62.4191 34.3063 62.5033C34.183 62.5881 34.0411 62.6402 33.894 62.6547C33.7469 62.668 33.5984 62.6438 33.4627 62.5844L27.2683 59.8483L15.5564 59.7107C6.64081 59.7107 -0.661103 51.7849 0.0475924 42.3856C0.521208 35.1721 5.70446 29.1803 12.3816 27.7607C11.9725 27.247 11.691 26.6339 11.5651 25.9758C11.4153 25.1933 11.492 24.382 11.7859 23.6452C12.0795 22.9081 12.577 22.2781 13.2154 21.8349C13.8535 21.3915 14.6042 21.1548 15.3718 21.1548C15.8814 21.1548 16.386 21.2592 16.8571 21.462C17.3279 21.6648 17.7559 21.9618 18.116 22.3364C18.4765 22.711 18.7623 23.1555 18.9573 23.6452C19.1524 24.1344 19.2529 24.6593 19.2529 25.1889ZM49.1947 50.369C50.4698 51.2543 51.9692 51.7266 53.5025 51.7259C55.5561 51.7191 57.5235 50.8681 58.9757 49.3589C60.4274 47.8498 61.2467 45.8049 61.2531 43.6706C61.2537 42.077 60.7992 40.5187 59.9472 39.1934C59.0958 37.868 57.885 36.8348 56.4682 36.2249C55.0518 35.6149 53.4927 35.4549 51.9888 35.7661C50.4845 36.0767 49.103 36.844 48.0186 37.971C46.9346 39.098 46.196 40.5339 45.8969 42.0973C45.598 43.6604 45.7513 45.2808 46.3385 46.7529C46.9258 48.2255 47.9195 49.4837 49.1947 50.369Z" fill="#154F30"/>
<path d="M58.7431 20.5165C58.7431 21.594 58.4354 22.6471 57.8597 23.5429C57.2836 24.439 56.4648 25.1371 55.507 25.5494C54.5492 25.9621 53.4955 26.0699 52.4786 25.8596C51.4618 25.6495 50.5278 25.1307 49.7947 24.3689C49.0617 23.6066 48.5626 22.6359 48.36 21.5791C48.1577 20.5222 48.2615 19.4271 48.6585 18.4316C49.0552 17.436 49.7269 16.5851 50.5891 15.9865C51.451 15.3878 52.4646 15.0684 53.5014 15.0684C54.8914 15.0684 56.2247 15.6423 57.2076 16.664C58.1908 17.6857 58.7431 19.0714 58.7431 20.5165Z" fill="#79939E"/>
<path d="M84.5401 37.163C84.5934 37.163 84.6467 37.1741 84.7 37.1964C84.7533 37.2141 84.8044 37.2474 84.8532 37.2963L85.746 38.2357C85.3551 38.7465 84.8643 39.1329 84.2736 39.395C83.6873 39.6526 82.9922 39.7814 82.1882 39.7814C81.4509 39.7814 80.7891 39.657 80.2028 39.4083C79.6209 39.1551 79.1257 38.8087 78.7171 38.369C78.3129 37.9248 78.002 37.4007 77.7843 36.7966C77.5667 36.1881 77.4579 35.5285 77.4579 34.8178C77.4579 34.0939 77.5756 33.4298 77.811 32.8258C78.0464 32.2173 78.3773 31.6931 78.8037 31.2534C79.2301 30.8137 79.7409 30.4717 80.3361 30.2274C80.9312 29.9831 81.5864 29.861 82.3015 29.861C82.6657 29.861 83.0077 29.8943 83.3275 29.9609C83.6518 30.0231 83.9538 30.1119 84.2336 30.2274C84.5134 30.3384 84.771 30.4739 85.0065 30.6338C85.2419 30.7937 85.4506 30.9669 85.6327 31.1535L84.8732 32.1728C84.8243 32.235 84.7666 32.2928 84.7 32.3461C84.6334 32.3949 84.5401 32.4194 84.4202 32.4194C84.3402 32.4194 84.2647 32.4016 84.1936 32.3661C84.1226 32.3305 84.0471 32.2883 83.9671 32.2395C83.8872 32.1862 83.7983 32.1306 83.7006 32.0729C83.6073 32.0107 83.4941 31.9552 83.3608 31.9063C83.232 31.853 83.0788 31.8086 82.9011 31.7731C82.7279 31.7376 82.5236 31.7198 82.2882 31.7198C81.9151 31.7198 81.5731 31.7886 81.2621 31.9263C80.9557 32.064 80.6892 32.2661 80.4626 32.5326C80.2406 32.7947 80.0673 33.1189 79.943 33.5053C79.823 33.8873 79.7631 34.3248 79.7631 34.8178C79.7631 35.3153 79.8297 35.7573 79.963 36.1437C80.1006 36.5301 80.285 36.8566 80.5159 37.1231C80.7513 37.3851 81.0245 37.585 81.3354 37.7227C81.6463 37.8604 81.9795 37.9292 82.3348 37.9292C82.5391 37.9292 82.7257 37.9203 82.8944 37.9026C83.0632 37.8804 83.2209 37.8471 83.3675 37.8026C83.5141 37.7538 83.6518 37.6916 83.7806 37.6161C83.9094 37.5361 84.0404 37.4362 84.1736 37.3163C84.2269 37.2719 84.2847 37.2363 84.3469 37.2097C84.4091 37.1786 84.4735 37.163 84.5401 37.163ZM99.3404 34.8178C99.3404 35.5196 99.2182 36.1726 98.974 36.7766C98.7341 37.3807 98.3943 37.907 97.9546 38.3556C97.5149 38.7998 96.9841 39.1485 96.3623 39.4016C95.7449 39.6548 95.0586 39.7814 94.3035 39.7814C93.5485 39.7814 92.86 39.6548 92.2382 39.4016C91.6163 39.1485 91.0833 38.7998 90.6392 38.3556C90.1995 37.907 89.8574 37.3807 89.6132 36.7766C89.3733 36.1726 89.2534 35.5196 89.2534 34.8178C89.2534 34.1161 89.3733 33.4631 89.6132 32.8591C89.8574 32.255 90.1995 31.7309 90.6392 31.2867C91.0833 30.8426 91.6163 30.4939 92.2382 30.2407C92.86 29.9875 93.5485 29.861 94.3035 29.861C95.0586 29.861 95.7449 29.9898 96.3623 30.2474C96.9841 30.5006 97.5149 30.8492 97.9546 31.2934C98.3943 31.7376 98.7341 32.2617 98.974 32.8657C99.2182 33.4698 99.3404 34.1205 99.3404 34.8178ZM97.0352 34.8178C97.0352 34.3381 96.973 33.9073 96.8486 33.5253C96.7243 33.1389 96.5444 32.8124 96.309 32.5459C96.078 32.2794 95.7937 32.0751 95.4562 31.933C95.1186 31.7909 94.7344 31.7198 94.3035 31.7198C93.8683 31.7198 93.4796 31.7909 93.1376 31.933C92.8 32.0751 92.5136 32.2794 92.2781 32.5459C92.0472 32.8124 91.8695 33.1389 91.7451 33.5253C91.6208 33.9073 91.5586 34.3381 91.5586 34.8178C91.5586 35.302 91.6208 35.7373 91.7451 36.1237C91.8695 36.5057 92.0472 36.8299 92.2781 37.0964C92.5136 37.3629 92.8 37.5672 93.1376 37.7094C93.4796 37.8471 93.8683 37.9159 94.3035 37.9159C94.7344 37.9159 95.1186 37.8471 95.4562 37.7094C95.7937 37.5672 96.078 37.3629 96.309 37.0964C96.5444 36.8299 96.7243 36.5057 96.8486 36.1237C96.973 35.7373 97.0352 35.302 97.0352 34.8178ZM112.224 29.9676V39.6748H111.052C110.878 39.6748 110.732 39.6482 110.612 39.5949C110.496 39.5371 110.381 39.4394 110.266 39.3017L105.688 33.512C105.706 33.6852 105.717 33.854 105.722 34.0184C105.731 34.1782 105.735 34.3293 105.735 34.4714V39.6748H103.75V29.9676H104.936C105.033 29.9676 105.115 29.972 105.182 29.9809C105.249 29.9898 105.309 30.0075 105.362 30.0342C105.415 30.0564 105.466 30.0897 105.515 30.1341C105.564 30.1785 105.62 30.2385 105.682 30.314L110.299 36.1437C110.277 35.9571 110.261 35.7772 110.252 35.604C110.243 35.4264 110.239 35.2598 110.239 35.1043V29.9676H112.224ZM125.666 29.9676V39.6748H124.494C124.321 39.6748 124.174 39.6482 124.054 39.5949C123.939 39.5371 123.823 39.4394 123.708 39.3017L119.13 33.512C119.148 33.6852 119.159 33.854 119.164 34.0184C119.173 34.1782 119.177 34.3293 119.177 34.4714V39.6748H117.192V29.9676H118.378C118.475 29.9676 118.558 29.972 118.624 29.9809C118.691 29.9898 118.751 30.0075 118.804 30.0342C118.857 30.0564 118.908 30.0897 118.957 30.1341C119.006 30.1785 119.062 30.2385 119.124 30.314L123.741 36.1437C123.719 35.9571 123.703 35.7772 123.694 35.604C123.685 35.4264 123.681 35.2598 123.681 35.1043V29.9676H125.666ZM132.899 31.6998V33.9651H135.95V35.6307H132.899V37.9426H136.883V39.6748H130.634V29.9676H136.883V31.6998H132.899ZM147.899 37.163C147.952 37.163 148.005 37.1741 148.059 37.1964C148.112 37.2141 148.163 37.2474 148.212 37.2963L149.105 38.2357C148.714 38.7465 148.223 39.1329 147.632 39.395C147.046 39.6526 146.351 39.7814 145.547 39.7814C144.81 39.7814 144.148 39.657 143.562 39.4083C142.98 39.1551 142.484 38.8087 142.076 38.369C141.672 37.9248 141.361 37.4007 141.143 36.7966C140.925 36.1881 140.817 35.5285 140.817 34.8178C140.817 34.0939 140.934 33.4298 141.17 32.8258C141.405 32.2173 141.736 31.6931 142.162 31.2534C142.589 30.8137 143.1 30.4717 143.695 30.2274C144.29 29.9831 144.945 29.861 145.66 29.861C146.024 29.861 146.366 29.8943 146.686 29.9609C147.01 30.0231 147.313 30.1119 147.592 30.2274C147.872 30.3384 148.13 30.4739 148.365 30.6338C148.601 30.7937 148.809 30.9669 148.991 31.1535L148.232 32.1728C148.183 32.235 148.125 32.2928 148.059 32.3461C147.992 32.3949 147.899 32.4194 147.779 32.4194C147.699 32.4194 147.623 32.4016 147.552 32.3661C147.481 32.3305 147.406 32.2883 147.326 32.2395C147.246 32.1862 147.157 32.1306 147.059 32.0729C146.966 32.0107 146.853 31.9552 146.72 31.9063C146.591 31.853 146.437 31.8086 146.26 31.7731C146.087 31.7376 145.882 31.7198 145.647 31.7198C145.274 31.7198 144.932 31.7886 144.621 31.9263C144.314 32.064 144.048 32.2661 143.821 32.5326C143.599 32.7947 143.426 33.1189 143.302 33.5053C143.182 33.8873 143.122 34.3248 143.122 34.8178C143.122 35.3153 143.188 35.7573 143.322 36.1437C143.459 36.5301 143.644 36.8566 143.875 37.1231C144.11 37.3851 144.383 37.585 144.694 37.7227C145.005 37.8604 145.338 37.9292 145.694 37.9292C145.898 37.9292 146.084 37.9203 146.253 37.9026C146.422 37.8804 146.58 37.8471 146.726 37.8026C146.873 37.7538 147.01 37.6916 147.139 37.6161C147.268 37.5361 147.399 37.4362 147.532 37.3163C147.586 37.2719 147.643 37.2363 147.706 37.2097C147.768 37.1786 147.832 37.163 147.899 37.163ZM159.744 31.7531H157.012V39.6748H154.76V31.7531H152.029V29.9676H159.744V31.7531Z" fill="#154F30"/>
<path d="M88.9107 46.9627V56.6699H86.9253V51.0868C86.9253 50.9579 86.9275 50.818 86.9319 50.667C86.9408 50.516 86.9541 50.3628 86.9719 50.2073L84.3935 55.1975C84.3136 55.353 84.2047 55.4707 84.067 55.5506C83.9338 55.6306 83.7806 55.6705 83.6073 55.6705H83.3009C83.1276 55.6705 82.9722 55.6306 82.8345 55.5506C82.7012 55.4707 82.5946 55.353 82.5147 55.1975L79.9363 50.194C79.9496 50.3539 79.9607 50.5116 79.9696 50.667C79.9785 50.818 79.9829 50.9579 79.9829 51.0868V56.6699H77.9975V46.9627H79.7164C79.8142 46.9627 79.8985 46.9649 79.9696 46.9693C80.0451 46.9738 80.1117 46.9871 80.1695 47.0093C80.2272 47.0315 80.2783 47.0671 80.3227 47.1159C80.3716 47.1603 80.4182 47.2247 80.4626 47.3091L82.9611 52.2327C83.0499 52.4015 83.1343 52.5769 83.2142 52.759C83.2986 52.9411 83.3786 53.1277 83.4541 53.3187C83.5296 53.1233 83.6073 52.9323 83.6873 52.7457C83.7717 52.5592 83.8605 52.3815 83.9538 52.2127L86.4456 47.3091C86.49 47.2247 86.5344 47.1603 86.5788 47.1159C86.6277 47.0671 86.681 47.0315 86.7387 47.0093C86.7964 46.9871 86.8609 46.9738 86.9319 46.9693C87.0074 46.9649 87.094 46.9627 87.1918 46.9627H88.9107ZM98.5477 52.9589L97.6482 50.3006C97.5816 50.1318 97.5105 49.9341 97.435 49.7076C97.3595 49.4767 97.284 49.2279 97.2085 48.9614C97.1419 49.2324 97.0708 49.4833 96.9953 49.7143C96.9198 49.9452 96.8487 50.1451 96.7821 50.3139L95.8893 52.9589H98.5477ZM102.125 56.6699H100.38C100.184 56.6699 100.027 56.6255 99.9068 56.5367C99.7869 56.4434 99.6958 56.3257 99.6336 56.1836L99.0607 54.4913H95.3696L94.7967 56.1836C94.7478 56.3079 94.659 56.4212 94.5302 56.5233C94.4058 56.6211 94.2503 56.6699 94.0638 56.6699H92.3049L96.0625 46.9627H98.3678L102.125 56.6699ZM112.402 47.7755C112.402 47.891 112.382 48.0042 112.342 48.1153C112.306 48.2263 112.255 48.3307 112.188 48.4284L107.631 54.9377H112.255V56.6699H104.766V55.8038C104.766 55.7016 104.784 55.6017 104.82 55.504C104.855 55.4018 104.904 55.3086 104.966 55.2242L109.537 48.6949H105.14V46.9627H112.402V47.7755ZM120.363 53.1521C120.363 53.694 120.295 54.187 120.157 54.6312C120.024 55.0754 119.819 55.4573 119.544 55.7771C119.273 56.0925 118.931 56.339 118.518 56.5167C118.105 56.6899 117.618 56.7765 117.059 56.7765C116.806 56.7765 116.555 56.7632 116.306 56.7365C116.062 56.7099 115.806 56.6655 115.54 56.6033L115.66 55.2908C115.673 55.1753 115.72 55.082 115.8 55.011C115.88 54.9399 115.993 54.9044 116.139 54.9044C116.215 54.9044 116.308 54.9177 116.419 54.9443C116.53 54.9665 116.663 54.9776 116.819 54.9776C117.037 54.9776 117.225 54.9488 117.385 54.891C117.55 54.8289 117.685 54.7289 117.792 54.5912C117.898 54.4491 117.978 54.2648 118.031 54.0382C118.085 53.8117 118.111 53.5319 118.111 53.1988V46.9627H120.363V53.1521ZM127.499 56.6699H125.234V46.9627H127.499V56.6699ZM141.263 51.813C141.263 52.5147 141.141 53.1632 140.897 53.7584C140.657 54.3492 140.317 54.8622 139.878 55.2974C139.438 55.7283 138.907 56.0659 138.285 56.3101C137.668 56.55 136.982 56.6699 136.227 56.6699H132.456V46.9627H136.227C136.982 46.9627 137.668 47.0848 138.285 47.3291C138.907 47.5734 139.438 47.911 139.878 48.3418C140.317 48.7726 140.657 49.2857 140.897 49.8808C141.141 50.4716 141.263 51.1156 141.263 51.813ZM138.958 51.813C138.958 51.3333 138.896 50.9002 138.772 50.5138C138.647 50.1274 138.467 49.8009 138.232 49.5344C138.001 49.2635 137.717 49.0569 137.379 48.9148C137.042 48.7682 136.657 48.6949 136.227 48.6949H134.721V54.9377H136.227C136.657 54.9377 137.042 54.8666 137.379 54.7245C137.717 54.5779 138.001 54.3714 138.232 54.1049C138.467 53.8339 138.647 53.5052 138.772 53.1188C138.896 52.7324 138.958 52.2971 138.958 51.813Z" fill="#79939E"/>
</g>
<defs>
<filter id="filter0_i_2236_1449" x="0" y="0" width="159.744" height="63.3541" filterUnits="userSpaceOnUse" color-interpolation-filters="sRGB">
<feFlood flood-opacity="0" result="BackgroundImageFix"/>
<feBlend mode="normal" in="SourceGraphic" in2="BackgroundImageFix" result="shape"/>
<feColorMatrix in="SourceAlpha" type="matrix" values="0 0 0 0 0 0 0 0 0 0 0 0 0 0 0 0 0 0 127 0" result="hardAlpha"/>
<feOffset dy="0.695942"/>
<feGaussianBlur stdDeviation="0.347971"/>
<feComposite in2="hardAlpha" operator="arithmetic" k2="-1" k3="1"/>
<feColorMatrix type="matrix" values="0 0 0 0 0 0 0 0 0 0 0 0 0 0 0 0 0 0 0.25 0"/>
<feBlend mode="normal" in2="shape" result="effect1_innerShadow_2236_1449"/>
</filter>
</defs>
</svg>
