<svg width="147" height="57" viewBox="0 0 147 57" fill="none" xmlns="http://www.w3.org/2000/svg">
<path fill-rule="evenodd" clip-rule="evenodd" d="M18.3408 10.1999C19.3567 9.69235 20.2074 8.88641 20.787 7.88171C20.2325 8.28679 19.6142 8.58794 18.9598 8.77145C17.4914 9.18871 15.924 8.9831 14.6013 8.19976C13.2789 7.41637 12.3098 6.11935 11.9069 4.59371C11.7059 3.82456 11.6569 3.02118 11.7621 2.23179C11.8676 1.44243 12.1253 0.683289 12.5199 0C11.5605 0.70126 10.8319 1.6922 10.4329 2.83843C10.0339 3.98467 9.98364 5.23073 10.289 6.40766C10.5913 7.53627 11.2058 8.54789 12.0556 9.31745C12.6449 9.851 13.3298 10.252 14.0666 10.5001C14.0551 10.5107 14.0439 10.5217 14.0329 10.533C13.8751 10.6964 13.7862 10.9181 13.7853 11.1495V13.0288C13.7858 13.2604 13.8751 13.4823 14.0326 13.6459C14.1905 13.8094 14.4039 13.9015 14.6268 13.902H15.1872C15.4094 13.9009 15.6222 13.8086 15.7794 13.645C15.9364 13.4815 16.0251 13.2601 16.0256 13.029V11.1495C16.0251 11.0245 15.9991 10.9023 15.9503 10.7905C16.7752 10.7745 17.591 10.5746 18.3408 10.1999ZM14.4798 19.3694H15.3322C15.6731 19.3688 15.9997 19.2285 16.2409 18.9784C16.482 18.7283 16.6183 18.3892 16.6198 18.035V15.1589C16.6186 14.884 16.5361 14.6161 16.3836 14.3916C16.2311 14.1671 16.0156 13.9968 15.7667 13.9037C15.6113 14.0601 15.4032 14.1476 15.1868 14.1479H14.6264C14.4095 14.1482 14.2008 14.0607 14.0445 13.9037C13.7959 13.9968 13.5807 14.1672 13.4282 14.3918C13.276 14.6163 13.1935 14.8841 13.1927 15.1589V18.035C13.1941 18.3892 13.3301 18.7283 13.5713 18.9784C13.8125 19.2285 14.1391 19.3692 14.4798 19.3694Z" fill="#FFB625"/>
<path fill-rule="evenodd" clip-rule="evenodd" d="M18.2365 22.822C18.2365 23.5448 18.0302 24.2514 17.6439 24.8526C17.5907 24.9351 17.5343 25.0156 17.4749 25.0934C21.1807 25.8103 24.3864 28.0642 26.4755 31.1607C28.7606 34.6895 26.3014 39.4958 22.2028 39.4958H22.0866C22.0934 38.5349 21.9163 37.5823 21.5655 36.6936C21.215 35.8046 20.6974 34.9973 20.0436 34.3181C19.3898 33.6389 18.6128 33.1016 17.7574 32.7376C16.9021 32.3732 15.9855 32.1899 15.0609 32.1975C13.2001 32.2028 11.4163 32.9732 10.1001 34.3405C8.7837 35.7081 8.04147 37.5614 8.03545 39.4958C8.03545 43.3296 10.905 46.4319 14.4775 46.7978H24.6332L31.1109 43.9375C31.2338 43.8832 31.3684 43.8614 31.5016 43.8739C31.6349 43.8866 31.7635 43.9335 31.8752 44.0104C31.9867 44.0871 32.0786 44.1916 32.1419 44.3141C32.2054 44.4367 32.2385 44.574 32.2385 44.7132V46.7978H35.3765C35.5415 46.7394 35.6931 46.647 35.8228 46.5259C35.952 46.4046 36.0564 46.2575 36.1293 46.0931C36.2021 45.9288 36.242 45.7506 36.2464 45.5696C36.2508 45.3887 36.2198 45.2087 36.1554 45.0407C35.493 43.298 35.1546 41.4407 35.1579 39.5668C35.1596 35.678 36.6469 31.9493 39.2925 29.1996C41.9382 26.45 45.5261 24.9045 49.2674 24.9026C53.009 24.9026 56.5974 26.4475 59.2431 29.1969C61.8889 31.9469 63.3751 35.6762 63.3751 39.565C63.3751 43.4537 61.8889 47.1833 59.2431 49.933C56.5974 52.6827 53.009 54.2276 49.2674 54.2276H32.2385V55.9272C32.2385 56.0666 32.2054 56.2032 32.1419 56.3262C32.0786 56.4491 31.987 56.5533 31.8752 56.6296C31.7635 56.7064 31.6349 56.7536 31.5016 56.7668C31.3684 56.7789 31.2338 56.7569 31.1109 56.7032L25.4986 54.2242L14.8874 54.0995C6.80969 54.0995 0.193995 46.9186 0.836089 38.4026C1.26519 31.867 5.96134 26.4383 12.011 25.1521C11.6403 24.6867 11.3853 24.1312 11.2712 23.535C11.1355 22.826 11.205 22.0909 11.4713 21.4233C11.7373 20.7555 12.188 20.1848 12.7664 19.7832C13.3446 19.3814 14.0247 19.167 14.7202 19.167C15.1818 19.167 15.6391 19.2616 16.0659 19.4453C16.4924 19.629 16.8802 19.8981 17.2065 20.2375C17.5331 20.577 17.792 20.9797 17.9687 21.4233C18.1455 21.8666 18.2365 22.3422 18.2365 22.822ZM45.3644 45.6357C46.5197 46.4378 47.8782 46.8657 49.2674 46.8651C51.128 46.859 52.9105 46.0879 54.2263 44.7206C55.5415 43.3532 56.2838 41.5006 56.2896 39.5668C56.2901 38.123 55.8783 36.7111 55.1064 35.5103C54.335 34.3095 53.238 33.3734 51.9544 32.8208C50.6711 32.2682 49.2585 32.1232 47.8959 32.4052C46.5331 32.6866 45.2814 33.3817 44.2989 34.4028C43.3167 35.424 42.6475 36.7249 42.3765 38.1414C42.1058 39.5576 42.2447 41.0257 42.7767 42.3595C43.3087 43.6936 44.209 44.8336 45.3644 45.6357Z" fill="#1D785A"/>
<path d="M54.0161 18.5879C54.0161 19.5642 53.7373 20.5184 53.2158 21.33C52.6938 22.1419 51.952 22.7744 51.0842 23.1479C50.2164 23.5218 49.2617 23.6195 48.3404 23.429C47.4191 23.2386 46.5729 22.7686 45.9087 22.0783C45.2446 21.3877 44.7924 20.5082 44.6089 19.5507C44.4256 18.5932 44.5196 17.601 44.8793 16.699C45.2387 15.797 45.8473 15.0261 46.6285 14.4837C47.4094 13.9413 48.3277 13.6519 49.267 13.6519C50.5264 13.6519 51.7344 14.1719 52.625 15.0976C53.5158 16.0233 54.0161 17.2787 54.0161 18.5879Z" fill="#79939E"/>
<path d="M77.3863 33.8918C77.4345 33.8918 77.4828 33.9018 77.5311 33.922C77.5794 33.9381 77.6257 33.9682 77.67 34.0125L78.4788 34.8636C78.1247 35.3264 77.68 35.6765 77.1448 35.914C76.6136 36.1474 75.9838 36.2641 75.2554 36.2641C74.5874 36.2641 73.9878 36.1514 73.4566 35.926C72.9294 35.6966 72.4807 35.3828 72.1105 34.9844C71.7443 34.5819 71.4626 34.1071 71.2654 33.5598C71.0682 33.0085 70.9696 32.4109 70.9696 31.767C70.9696 31.111 71.0762 30.5094 71.2895 29.9621C71.5028 29.4108 71.8026 28.9359 72.1889 28.5375C72.5753 28.1391 73.0381 27.8293 73.5773 27.6079C74.1166 27.3866 74.7101 27.2759 75.358 27.2759C75.688 27.2759 75.9979 27.3061 76.2876 27.3665C76.5814 27.4228 76.8551 27.5033 77.1086 27.6079C77.3621 27.7085 77.5955 27.8313 77.8088 27.9761C78.0221 28.121 78.2112 28.278 78.3762 28.447L77.6881 29.3705C77.6438 29.4269 77.5915 29.4792 77.5311 29.5275C77.4708 29.5718 77.3863 29.5939 77.2776 29.5939C77.2052 29.5939 77.1368 29.5778 77.0724 29.5456C77.008 29.5134 76.9396 29.4752 76.8671 29.4309C76.7947 29.3826 76.7142 29.3323 76.6257 29.28C76.5412 29.2237 76.4385 29.1734 76.3178 29.1291C76.2011 29.0808 76.0623 29.0406 75.9013 29.0084C75.7444 28.9762 75.5592 28.9601 75.346 28.9601C75.0079 28.9601 74.6981 29.0224 74.4164 29.1472C74.1387 29.2719 73.8972 29.455 73.692 29.6965C73.4908 29.9339 73.3338 30.2277 73.2212 30.5778C73.1125 30.9239 73.0582 31.3203 73.0582 31.767C73.0582 32.2177 73.1185 32.6181 73.2393 32.9682C73.364 33.3183 73.531 33.6141 73.7403 33.8556C73.9536 34.093 74.2011 34.2741 74.4828 34.3988C74.7645 34.5236 75.0663 34.586 75.3882 34.586C75.5733 34.586 75.7424 34.5779 75.8953 34.5618C76.0482 34.5417 76.1911 34.5115 76.3239 34.4713C76.4567 34.427 76.5814 34.3707 76.6981 34.3022C76.8148 34.2298 76.9335 34.1393 77.0543 34.0306C77.1025 33.9904 77.1549 33.9582 77.2112 33.934C77.2675 33.9059 77.3259 33.8918 77.3863 33.8918ZM90.7957 31.767C90.7957 32.4028 90.685 32.9944 90.4637 33.5417C90.2463 34.089 89.9385 34.5658 89.5401 34.9723C89.1417 35.3747 88.6608 35.6906 88.0974 35.92C87.538 36.1494 86.9163 36.2641 86.2322 36.2641C85.548 36.2641 84.9243 36.1494 84.3609 35.92C83.7975 35.6906 83.3146 35.3747 82.9122 34.9723C82.5138 34.5658 82.2039 34.089 81.9826 33.5417C81.7653 32.9944 81.6566 32.4028 81.6566 31.767C81.6566 31.1311 81.7653 30.5396 81.9826 29.9923C82.2039 29.445 82.5138 28.9701 82.9122 28.5677C83.3146 28.1653 83.7975 27.8494 84.3609 27.62C84.9243 27.3906 85.548 27.2759 86.2322 27.2759C86.9163 27.2759 87.538 27.3926 88.0974 27.626C88.6608 27.8554 89.1417 28.1713 89.5401 28.5737C89.9385 28.9762 90.2463 29.451 90.4637 29.9983C90.685 30.5456 90.7957 31.1352 90.7957 31.767ZM88.7071 31.767C88.7071 31.3324 88.6507 30.942 88.5381 30.5959C88.4254 30.2458 88.2624 29.95 88.0491 29.7086C87.8398 29.4671 87.5823 29.282 87.2765 29.1532C86.9706 29.0245 86.6225 28.9601 86.2322 28.9601C85.8378 28.9601 85.4857 29.0245 85.1758 29.1532C84.87 29.282 84.6104 29.4671 84.3971 29.7086C84.1878 29.95 84.0269 30.2458 83.9142 30.5959C83.8015 30.942 83.7452 31.3324 83.7452 31.767C83.7452 32.2056 83.8015 32.6 83.9142 32.9501C84.0269 33.2962 84.1878 33.59 84.3971 33.8314C84.6104 34.0729 84.87 34.258 85.1758 34.3868C85.4857 34.5115 85.8378 34.5739 86.2322 34.5739C86.6225 34.5739 86.9706 34.5115 87.2765 34.3868C87.5823 34.258 87.8398 34.0729 88.0491 33.8314C88.2624 33.59 88.4254 33.2962 88.5381 32.9501C88.6507 32.6 88.7071 32.2056 88.7071 31.767ZM102.469 27.3725V36.1675H101.406C101.249 36.1675 101.117 36.1433 101.008 36.095C100.903 36.0427 100.799 35.9542 100.694 35.8294L96.5471 30.5838C96.5632 30.7408 96.5732 30.8937 96.5773 31.0426C96.5853 31.1875 96.5893 31.3243 96.5893 31.4531V36.1675H94.7905V27.3725H95.865C95.9535 27.3725 96.0279 27.3765 96.0883 27.3846C96.1487 27.3926 96.203 27.4087 96.2513 27.4329C96.2996 27.453 96.3459 27.4832 96.3901 27.5234C96.4344 27.5637 96.4847 27.618 96.541 27.6864L100.724 32.9682C100.704 32.7992 100.69 32.6362 100.682 32.4793C100.674 32.3183 100.67 32.1674 100.67 32.0265V27.3725H102.469ZM114.648 27.3725V36.1675H113.585C113.428 36.1675 113.295 36.1433 113.187 36.095C113.082 36.0427 112.978 35.9542 112.873 35.8294L108.726 30.5838C108.742 30.7408 108.752 30.8937 108.756 31.0426C108.764 31.1875 108.768 31.3243 108.768 31.4531V36.1675H106.969V27.3725H108.044C108.132 27.3725 108.207 27.3765 108.267 27.3846C108.328 27.3926 108.382 27.4087 108.43 27.4329C108.478 27.453 108.525 27.4832 108.569 27.5234C108.613 27.5637 108.664 27.618 108.72 27.6864L112.903 32.9682C112.883 32.7992 112.869 32.6362 112.861 32.4793C112.853 32.3183 112.849 32.1674 112.849 32.0265V27.3725H114.648ZM121.201 28.942V30.9943H123.965V32.5034H121.201V34.598H124.81V36.1675H119.148V27.3725H124.81V28.942H121.201ZM134.791 33.8918C134.839 33.8918 134.887 33.9018 134.935 33.922C134.984 33.9381 135.03 33.9682 135.074 34.0125L135.883 34.8636C135.529 35.3264 135.084 35.6765 134.549 35.914C134.018 36.1474 133.388 36.2641 132.66 36.2641C131.992 36.2641 131.392 36.1514 130.861 35.926C130.334 35.6966 129.885 35.3828 129.515 34.9844C129.149 34.5819 128.867 34.1071 128.67 33.5598C128.473 33.0085 128.374 32.4109 128.374 31.767C128.374 31.111 128.481 30.5094 128.694 29.9621C128.907 29.4108 129.207 28.9359 129.593 28.5375C129.98 28.1391 130.442 27.8293 130.982 27.6079C131.521 27.3866 132.115 27.2759 132.762 27.2759C133.092 27.2759 133.402 27.3061 133.692 27.3665C133.986 27.4228 134.259 27.5033 134.513 27.6079C134.766 27.7085 135 27.8313 135.213 27.9761C135.426 28.121 135.616 28.278 135.781 28.447L135.092 29.3705C135.048 29.4269 134.996 29.4792 134.935 29.5275C134.875 29.5718 134.791 29.5939 134.682 29.5939C134.61 29.5939 134.541 29.5778 134.477 29.5456C134.412 29.5134 134.344 29.4752 134.271 29.4309C134.199 29.3826 134.119 29.3323 134.03 29.28C133.946 29.2237 133.843 29.1734 133.722 29.1291C133.605 29.0808 133.467 29.0406 133.306 29.0084C133.149 28.9762 132.964 28.9601 132.75 28.9601C132.412 28.9601 132.102 29.0224 131.821 29.1472C131.543 29.2719 131.302 29.455 131.096 29.6965C130.895 29.9339 130.738 30.2277 130.626 30.5778C130.517 30.9239 130.463 31.3203 130.463 31.767C130.463 32.2177 130.523 32.6181 130.644 32.9682C130.768 33.3183 130.935 33.6141 131.145 33.8556C131.358 34.093 131.605 34.2741 131.887 34.3988C132.169 34.5236 132.471 34.586 132.793 34.586C132.978 34.586 133.147 34.5779 133.3 34.5618C133.453 34.5417 133.595 34.5115 133.728 34.4713C133.861 34.427 133.986 34.3707 134.102 34.3022C134.219 34.2298 134.338 34.1393 134.459 34.0306C134.507 33.9904 134.559 33.9582 134.616 33.934C134.672 33.9059 134.73 33.8918 134.791 33.8918ZM145.523 28.9902H143.048V36.1675H141.007V28.9902H138.533V27.3725H145.523V28.9902Z" fill="#1D785A"/>
<path d="M81.3461 42.7709V51.5659H79.5473V46.5074C79.5473 46.3907 79.5493 46.264 79.5533 46.1272C79.5614 45.9903 79.5734 45.8515 79.5895 45.7106L77.2535 50.2319C77.181 50.3727 77.0824 50.4794 76.9577 50.5518C76.8369 50.6242 76.6981 50.6605 76.5412 50.6605H76.2635C76.1065 50.6605 75.9657 50.6242 75.8409 50.5518C75.7202 50.4794 75.6236 50.3727 75.5512 50.2319L73.2151 45.6986C73.2272 45.8434 73.2373 45.9863 73.2453 46.1272C73.2534 46.264 73.2574 46.3907 73.2574 46.5074V51.5659H71.4585V42.7709H73.0159C73.1045 42.7709 73.1809 42.773 73.2453 42.777C73.3137 42.781 73.3741 42.7931 73.4264 42.8132C73.4787 42.8333 73.525 42.8655 73.5652 42.9098C73.6095 42.95 73.6518 43.0084 73.692 43.0848L75.9556 47.5457C76.0361 47.6986 76.1126 47.8576 76.185 48.0226C76.2615 48.1876 76.3339 48.3566 76.4023 48.5296C76.4707 48.3526 76.5412 48.1795 76.6136 48.0105C76.6901 47.8415 76.7705 47.6805 76.8551 47.5276L79.1127 43.0848C79.1529 43.0084 79.1931 42.95 79.2334 42.9098C79.2776 42.8655 79.3259 42.8333 79.3783 42.8132C79.4306 42.7931 79.4889 42.781 79.5533 42.777C79.6217 42.773 79.7002 42.7709 79.7887 42.7709H81.3461ZM90.0774 48.2037L89.2625 45.7952C89.2021 45.6422 89.1378 45.4632 89.0693 45.2579C89.0009 45.0487 88.9325 44.8233 88.8641 44.5818C88.8037 44.8273 88.7394 45.0547 88.6709 45.264C88.6025 45.4732 88.5381 45.6543 88.4778 45.8072L87.6689 48.2037H90.0774ZM93.3189 51.5659H91.7374C91.5604 51.5659 91.4175 51.5257 91.3088 51.4452C91.2002 51.3607 91.1177 51.254 91.0613 51.1253L90.5422 49.592H87.1981L86.6789 51.1253C86.6347 51.2379 86.5542 51.3406 86.4375 51.4331C86.3248 51.5217 86.184 51.5659 86.0149 51.5659H84.4213L87.8259 42.7709H89.9144L93.3189 51.5659ZM102.629 43.5074C102.629 43.612 102.611 43.7146 102.575 43.8152C102.543 43.9158 102.497 44.0104 102.436 44.0989L98.3074 49.9965H102.497V51.5659H95.7118V50.7812C95.7118 50.6886 95.7279 50.5981 95.7601 50.5096C95.7923 50.417 95.8365 50.3325 95.8929 50.256L100.034 44.3404H96.0498V42.7709H102.629V43.5074ZM109.843 48.3787C109.843 48.8697 109.781 49.3164 109.656 49.7188C109.535 50.1212 109.35 50.4673 109.1 50.757C108.855 51.0428 108.545 51.2661 108.171 51.4271C107.797 51.584 107.356 51.6625 106.849 51.6625C106.619 51.6625 106.392 51.6504 106.167 51.6263C105.945 51.6021 105.714 51.5619 105.473 51.5056L105.581 50.3164C105.593 50.2118 105.636 50.1273 105.708 50.0629C105.78 49.9985 105.883 49.9663 106.016 49.9663C106.084 49.9663 106.169 49.9784 106.269 50.0025C106.37 50.0226 106.491 50.0327 106.632 50.0327C106.829 50.0327 107 50.0065 107.145 49.9542C107.294 49.8979 107.416 49.8073 107.513 49.6826C107.609 49.5538 107.682 49.3868 107.73 49.1816C107.778 48.9763 107.803 48.7228 107.803 48.421V42.7709H109.843V48.3787ZM116.308 51.5659H114.255V42.7709H116.308V51.5659ZM128.779 47.1654C128.779 47.8012 128.668 48.3888 128.447 48.928C128.229 49.4633 127.922 49.9281 127.523 50.3224C127.125 50.7128 126.644 51.0186 126.081 51.24C125.521 51.4573 124.899 51.5659 124.215 51.5659H120.799V42.7709H124.215C124.899 42.7709 125.521 42.8816 126.081 43.1029C126.644 43.3243 127.125 43.6301 127.523 44.0205C127.922 44.4108 128.229 44.8756 128.447 45.4149C128.668 45.9501 128.779 46.5336 128.779 47.1654ZM126.69 47.1654C126.69 46.7308 126.634 46.3384 126.521 45.9883C126.409 45.6382 126.246 45.3424 126.032 45.101C125.823 44.8555 125.565 44.6684 125.26 44.5396C124.954 44.4068 124.606 44.3404 124.215 44.3404H122.851V49.9965H124.215C124.606 49.9965 124.954 49.9321 125.26 49.8033C125.565 49.6705 125.823 49.4834 126.032 49.2419C126.246 48.9964 126.409 48.6986 126.521 48.3485C126.634 47.9984 126.69 47.6041 126.69 47.1654Z" fill="#79939E"/>
</svg>
