<svg width="38" height="34" viewBox="0 0 38 34" fill="none" xmlns="http://www.w3.org/2000/svg">
<path fill-rule="evenodd" clip-rule="evenodd" d="M10.4487 6.07344C11.0536 5.7712 11.5601 5.29131 11.9052 4.69307C11.575 4.93428 11.2069 5.11359 10.8172 5.22286C9.94286 5.47131 9.00959 5.34888 8.222 4.88245C7.43461 4.41599 6.85753 3.6437 6.61766 2.73527C6.49797 2.27729 6.46877 1.79893 6.53142 1.32889C6.59424 0.858876 6.74772 0.406856 6.98265 0C6.41139 0.417557 5.97758 1.0076 5.73997 1.69011C5.50239 2.37262 5.47247 3.11458 5.65427 3.81537C5.83432 4.48739 6.20019 5.08974 6.70619 5.54797C7.0571 5.86566 7.46488 6.10445 7.90363 6.25214C7.89678 6.25848 7.89008 6.26504 7.88357 6.27177C7.78961 6.36908 7.73663 6.50105 7.7361 6.63887V7.75788C7.73644 7.89576 7.78961 8.02787 7.88339 8.12527C7.97738 8.22267 8.10446 8.2775 8.23716 8.27779H8.57084C8.70316 8.27714 8.82989 8.22215 8.92351 8.12478C9.01698 8.02741 9.06976 7.89557 9.07011 7.75797V6.63887C9.06976 6.56441 9.05429 6.49164 9.02525 6.42508C9.51643 6.41557 10.0022 6.29651 10.4487 6.07344ZM8.14967 11.5333H8.65723C8.86017 11.533 9.05464 11.4494 9.19825 11.3005C9.34186 11.1516 9.423 10.9497 9.42388 10.7387V9.0262C9.42316 8.86254 9.37405 8.70302 9.28326 8.56931C9.19243 8.43561 9.06414 8.33422 8.91594 8.27881C8.82338 8.37193 8.69949 8.42401 8.57065 8.42418H8.23697C8.10779 8.4244 7.98355 8.37226 7.89043 8.27881C7.74242 8.33425 7.61431 8.43571 7.52348 8.56941C7.43285 8.70308 7.38374 8.86257 7.38324 9.0262V10.7387C7.38412 10.9497 7.46507 11.1516 7.60868 11.3005C7.75229 11.4494 7.94676 11.5332 8.14967 11.5333Z" fill="#EC9D00"/>
<path fill-rule="evenodd" clip-rule="evenodd" d="M10.3866 13.5889C10.3866 14.0192 10.2637 14.44 10.0337 14.7979C10.002 14.8471 9.9684 14.8951 9.93304 14.9413C12.1396 15.3682 14.0485 16.7103 15.2924 18.5541C16.653 20.6552 15.1887 23.5171 12.7482 23.5171H12.6791C12.6831 22.9449 12.5777 22.3777 12.3688 21.8485C12.16 21.3192 11.8519 20.8385 11.4626 20.4341C11.0733 20.0297 10.6106 19.7097 10.1013 19.493C9.59196 19.276 9.0462 19.1669 8.49569 19.1714C7.38766 19.1745 6.32552 19.6333 5.54183 20.4474C4.75799 21.2618 4.31603 22.3653 4.31245 23.5171C4.31245 25.7999 6.02108 27.6471 8.1483 27.865H14.1954L18.0525 26.1619C18.1257 26.1295 18.2058 26.1165 18.2851 26.124C18.3645 26.1315 18.441 26.1595 18.5076 26.2052C18.5739 26.2509 18.6287 26.3132 18.6663 26.3861C18.7042 26.4591 18.7239 26.5409 18.7239 26.6237V27.865H20.5924C20.6906 27.8302 20.7809 27.7752 20.8581 27.7031C20.9351 27.6309 20.9972 27.5433 21.0406 27.4454C21.084 27.3475 21.1077 27.2414 21.1103 27.1337C21.113 27.026 21.0945 26.9188 21.0561 26.8187C20.6617 25.7811 20.4602 24.6752 20.4622 23.5594C20.4632 21.2438 21.3488 19.0236 22.9241 17.3864C24.4994 15.7491 26.6358 14.8289 28.8635 14.8277C31.0914 14.8277 33.2281 15.7476 34.8035 17.3847C36.3788 19.0222 37.2638 21.2427 37.2638 23.5583C37.2638 25.8738 36.3788 28.0945 34.8035 29.7318C33.2281 31.3691 31.0914 32.289 28.8635 32.289H18.7239V33.301C18.7239 33.384 18.7042 33.4653 18.6663 33.5385C18.6287 33.6117 18.5741 33.6738 18.5076 33.7192C18.441 33.765 18.3645 33.7931 18.2851 33.8009C18.2058 33.8081 18.1257 33.795 18.0525 33.763L14.7107 32.2869L8.39238 32.2127C3.58258 32.2127 -0.356652 27.9369 0.0256752 22.8661C0.281181 18.9746 3.07744 15.7421 6.67964 14.9763C6.45894 14.6992 6.30707 14.3684 6.23913 14.0134C6.15833 13.5912 6.19971 13.1535 6.35828 12.756C6.51666 12.3584 6.78505 12.0185 7.12946 11.7795C7.4737 11.5402 7.87866 11.4125 8.29279 11.4125C8.56768 11.4125 8.83994 11.4689 9.09408 11.5783C9.34804 11.6877 9.57895 11.8479 9.77324 12.05C9.96771 12.2521 10.1219 12.4919 10.2271 12.756C10.3324 13.02 10.3866 13.3031 10.3866 13.5889ZM26.5396 27.173C27.2275 27.6506 28.0363 27.9054 28.8635 27.9051C29.9714 27.9014 31.0328 27.4423 31.8162 26.6281C32.5994 25.814 33.0414 24.7108 33.0448 23.5594C33.0452 22.6997 32.7999 21.859 32.3403 21.144C31.881 20.429 31.2278 19.8716 30.4635 19.5425C29.6993 19.2135 28.8582 19.1272 28.0469 19.2951C27.2354 19.4626 26.4901 19.8765 25.9051 20.4845C25.3203 21.0926 24.9218 21.8672 24.7604 22.7106C24.5992 23.5539 24.6819 24.428 24.9987 25.2222C25.3155 26.0166 25.8516 26.6954 26.5396 27.173Z" fill="#154F30"/>
<path d="M31.6909 11.0682C31.6909 11.6495 31.525 12.2177 31.2144 12.7009C30.9036 13.1844 30.4619 13.561 29.9452 13.7834C29.4284 14.006 28.86 14.0642 28.3114 13.9508C27.7629 13.8374 27.259 13.5575 26.8635 13.1465C26.468 12.7353 26.1988 12.2116 26.0895 11.6415C25.9804 11.0713 26.0363 10.4805 26.2505 9.9435C26.4646 9.4064 26.8269 8.94736 27.2921 8.6244C27.757 8.30145 28.3038 8.12909 28.8632 8.12909C29.613 8.12909 30.3323 8.43875 30.8626 8.98993C31.393 9.54112 31.6909 10.2886 31.6909 11.0682Z" fill="#79939E"/>
</svg>
