<svg width="430" height="283" viewBox="0 0 430 283" fill="none" xmlns="http://www.w3.org/2000/svg">
<g opacity="0.4">
<mask id="mask0_27_718" style="mask-type:luminance" maskUnits="userSpaceOnUse" x="-4" y="0" width="438" height="290">
<path d="M434 0.35791H-4V289.668H434V0.35791Z" fill="white"/>
</mask>
<g mask="url(#mask0_27_718)">
<g opacity="0.25">
<path d="M-4 138.766V289.668H432.617V140.022H434V138.72H430.991C431.245 137.901 431.418 137.049 431.418 136.138C431.418 132.38 429.021 129.188 425.666 127.977C425.666 127.931 425.678 127.885 425.678 127.839C425.678 126.548 424.871 125.464 423.707 125.05L423.292 123.782C423.373 123.655 423.43 123.528 423.43 123.378C423.43 123.079 423.246 122.825 423.004 122.721L422.75 118.71C422.75 118.687 422.727 118.675 422.704 118.675C422.681 118.675 422.658 118.687 422.658 118.71L422.404 122.721C422.151 122.848 421.978 123.079 421.978 123.378C421.978 123.528 422.036 123.655 422.105 123.782L421.69 125.05C420.549 125.464 419.731 126.548 419.731 127.839C419.731 127.885 419.753 127.931 419.753 127.977C416.399 129.188 414.002 132.357 414.002 136.138C414.002 137.049 414.175 137.901 414.428 138.72H411.42V138.766H411.12V123.632H411.282C411.674 123.632 411.962 123.321 411.962 122.952V122.56C411.962 122.18 411.651 121.88 411.282 121.88H410.348C410.394 121.626 410.406 121.361 410.406 121.108C410.406 119.275 409.426 117.65 407.973 116.751C407.074 116.186 406.302 115.46 405.68 114.618C405.795 114.514 405.876 114.365 405.876 114.18C405.876 113.95 405.726 113.742 405.518 113.639L405.368 111.31H405.196L405.046 113.639C404.838 113.719 404.689 113.938 404.689 114.18C404.689 114.353 404.758 114.514 404.884 114.618C404.262 115.471 403.49 116.186 402.579 116.751C401.115 117.65 400.147 119.275 400.147 121.108C400.147 121.373 400.182 121.626 400.205 121.88H399.306C398.914 121.88 398.626 122.191 398.626 122.56V122.952C398.626 123.332 398.937 123.632 399.306 123.632H399.433V133.279H397.197C397.773 132.184 398.084 131.02 398.084 129.822C398.084 125.626 394.28 121.972 388.552 119.92C384.829 118.583 381.659 116.797 379.181 114.687C379.273 114.514 379.342 114.307 379.342 114.076C379.342 113.535 379.019 113.062 378.547 112.855L378.201 107.553H377.809L377.463 112.855C376.991 113.062 376.668 113.535 376.668 114.076C376.668 114.307 376.726 114.491 376.829 114.687C374.351 116.797 371.205 118.572 367.459 119.92C361.73 121.972 357.926 125.649 357.926 129.822C357.926 130.525 358.042 131.205 358.249 131.873H356.612C357.131 130.167 357.419 128.369 357.419 126.502C357.419 117.189 350.4 109.535 341.386 108.486L340.245 105.005C340.233 104.982 340.13 104.948 339.98 104.913L339.323 95.2425C339.323 95.2079 339.288 95.1734 339.254 95.1734C339.208 95.1734 339.185 95.2079 339.185 95.2425L338.551 104.902C338.412 104.936 338.308 104.959 338.285 104.994L337.144 108.475C330.39 109.259 324.765 113.754 322.367 119.863L322.172 109.673H323.117V107.864H322.125L321.872 94.9543H322.978V93.9055H322.333V93.5481H321.688V88.8685H322.333V88.419H321.307C321.399 88.1424 321.446 87.8427 321.446 87.5314C321.446 86.448 320.869 85.5144 320.028 84.9842C319.498 84.6499 319.048 84.2234 318.691 83.7392C318.748 83.6701 318.795 83.5894 318.795 83.4857C318.795 83.3474 318.702 83.2206 318.587 83.1745L318.506 81.9643C318.564 81.9873 318.61 81.9872 318.668 81.9872C319.129 81.9872 319.498 81.6415 319.567 81.215C319.44 81.4686 319.175 81.6415 318.875 81.6415C318.46 81.6415 318.126 81.3072 318.126 80.8923C318.126 80.5926 318.299 80.3275 318.553 80.2007C318.115 80.2699 317.769 80.6388 317.769 81.0998C317.769 81.4917 318.022 81.826 318.391 81.9412L318.322 83.186C318.195 83.2436 318.114 83.3589 318.114 83.4972C318.114 83.601 318.149 83.6932 318.218 83.7508C317.861 84.2579 317.4 84.673 316.881 84.9957C316.028 85.5259 315.452 86.4595 315.452 87.543C315.452 87.8542 315.498 88.1539 315.59 88.4305H314.564V88.8801H315.187V93.5828H314.564V93.9286H313.919V94.9889H315.014L314.76 107.898H313.769V109.708H314.726L314.461 123.805H313.054V125.614H314.438L314.311 132H309.4C310.945 129.095 311.798 126.018 311.798 122.802C311.798 111.621 301.62 101.847 286.348 96.3606C276.447 92.8105 267.906 88.0963 261.301 82.5291C261.589 82.0104 261.762 81.4341 261.762 80.8117C261.762 79.3478 260.886 78.0798 259.618 77.5381L258.696 63.4414H257.647L256.725 77.5381C255.469 78.0798 254.57 79.3478 254.57 80.8117C254.57 81.4341 254.754 82.0334 255.031 82.5291C248.438 88.1078 239.989 92.776 229.996 96.3606C227.149 97.3865 224.475 98.5621 222.008 99.853V59.119H222.285C222.884 59.119 223.391 58.6235 223.391 58.0126V57.3901C223.391 56.7792 222.884 56.2836 222.285 56.2836H220.763C220.832 55.8571 220.867 55.4422 220.867 55.0158C220.867 52.042 219.299 49.4255 216.925 47.9617C215.472 47.0511 214.216 45.8869 213.225 44.5038C213.409 44.3309 213.513 44.0887 213.513 43.8121C213.513 43.4202 213.283 43.0859 212.937 42.9361L212.706 39.1671H212.418L212.188 42.9361C211.842 43.0859 211.6 43.4202 211.6 43.8121C211.6 44.0772 211.727 44.3309 211.911 44.5038C210.92 45.8869 209.675 47.0511 208.211 47.9617C205.848 49.414 204.269 52.0189 204.269 55.0158C204.269 55.4422 204.315 55.8571 204.373 56.2836H202.897C202.298 56.2836 201.791 56.7792 201.791 57.3901V58.0126C201.791 58.6235 202.275 59.119 202.897 59.119H203.128V85.0417C200.143 76.178 194.126 68.7205 186.311 63.8794C179.361 59.5801 173.321 53.9322 168.549 47.3276C169.436 46.4978 170.001 45.3105 170.001 43.985C170.001 42.1177 168.872 40.504 167.258 39.7894L166.221 23.8139C166.901 23.9292 167.615 23.9984 168.318 23.9984C174.358 23.9984 179.338 19.4917 180.098 13.6709C178.485 17.025 175.073 19.3302 171.108 19.3302C165.598 19.3302 161.114 14.8581 161.114 9.33696C161.114 5.38343 163.431 1.96007 166.785 0.35791C160.953 1.11865 156.446 6.09797 156.446 12.1262C156.446 17.3938 159.881 21.8545 164.63 23.4105L163.569 39.7894C161.944 40.504 160.826 42.1062 160.826 43.985C160.826 45.3105 161.38 46.4747 162.279 47.3276C157.495 53.9553 151.525 59.534 144.505 63.8794C133.209 70.8644 125.66 83.382 125.66 97.6747C125.66 101.767 126.294 105.72 127.446 109.443H117.995C118.041 108.821 118.075 108.198 118.075 107.553C118.075 94.3781 108.151 83.5318 95.3568 82.0449L93.7432 77.1116C93.7317 77.0655 93.5818 77.0194 93.3743 76.9733L92.4867 63.2916C92.4867 63.2455 92.4177 63.1994 92.3601 63.1994C92.3025 63.1994 92.2447 63.2339 92.2447 63.2916L91.3572 76.9733C91.1497 77.0079 90.9998 77.0425 90.9883 77.1116L89.3516 82.0449C76.5689 83.5318 66.6564 94.3781 66.6564 107.553C66.6564 110.215 67.0482 112.763 67.7975 115.16H59.0489V119.021H63.1177V138.766H53.8967L53.378 111.229H55.7984V108.06H53.3203L52.8479 83.2897H54.5191V80.12H52.7902L52.3636 57.4363H54.2771V55.5921H53.1476V54.9696H52.0065V46.7167H53.1476V45.933H51.3494C51.5108 45.4374 51.5914 44.9186 51.5914 44.3768C51.5914 42.475 50.5772 40.8269 49.0787 39.8932C48.1682 39.3169 47.3613 38.5792 46.7389 37.7032C46.8541 37.5995 46.9347 37.4381 46.9347 37.2537C46.9347 37.0001 46.7851 36.7926 46.5661 36.6889L46.4161 34.591C46.4968 34.6025 46.589 34.6141 46.6927 34.6141C47.4996 34.6141 48.1451 34.0263 48.2489 33.2541C48.0414 33.7036 47.5803 34.0147 47.0616 34.0147C46.3355 34.0147 45.7475 33.4154 45.7475 32.6893C45.7475 32.1706 46.0589 31.7095 46.4969 31.502C45.7361 31.6058 45.1365 32.2627 45.1365 33.0581C45.1365 33.7612 45.5978 34.3491 46.2202 34.545L46.0818 36.7235C45.8743 36.8157 45.7129 37.0347 45.7129 37.2883C45.7129 37.4612 45.7937 37.611 45.909 37.7263C45.2866 38.6253 44.4797 39.3514 43.5461 39.9277C42.0592 40.8613 41.0449 42.5096 41.0449 44.3999C41.0449 44.9532 41.1371 45.472 41.2869 45.9561H39.4888V46.7398H40.5837V55.0042H39.4888V55.6265H38.3477V57.4593H40.2725L39.8461 80.143H38.0941V83.3243H39.7885L39.2929 108.06H36.803V111.229H39.2352L38.7051 138.766H34.0484V89.6176H34.4519C35.3855 89.6176 36.1347 88.8685 36.1347 87.9348V86.9667C36.1347 86.033 35.3855 85.2723 34.4519 85.2723H32.1466C32.2389 84.6499 32.3079 84.0159 32.3079 83.3589C32.3079 78.8176 29.9105 74.8409 26.3027 72.6163C24.1012 71.2562 22.1646 69.4582 20.6547 67.3489C20.9428 67.0837 21.1159 66.7149 21.1159 66.2999C21.1159 65.7121 20.7586 65.1935 20.2399 64.963L19.871 59.2227H19.4446L19.0757 64.963C18.557 65.1935 18.1997 65.7121 18.1997 66.2999C18.1997 66.7149 18.3725 67.0837 18.6606 67.3489C17.1392 69.4582 15.2259 71.2332 13.0013 72.6163C9.4051 74.8409 7.00769 78.8176 7.00769 83.3589C7.00769 84.0159 7.0652 84.6499 7.16893 85.2723H4.94443C4.0108 85.2723 3.2501 86.033 3.2501 86.9667V87.9348C3.2501 88.8685 4.0108 89.6176 4.94443 89.6176H5.2672V138.766H-4ZM408.481 128.035C408.481 126.663 408.884 125.522 409.426 125.188C409.979 125.522 410.383 126.663 410.383 128.035V133.371H408.492V128.035H408.481ZM402.879 127.47C402.879 125.972 403.882 124.692 405.265 124.324C406.648 124.715 407.651 125.972 407.651 127.47V133.371H404.02V133.279H402.867V127.47H402.879ZM400.182 128.035C400.182 126.663 400.574 125.522 401.127 125.188C401.68 125.522 402.072 126.663 402.072 128.035V133.279H400.193V128.035H400.182ZM320.477 89.7215C320.477 89.5716 320.604 89.4679 320.731 89.4679H320.858C320.985 89.4679 321.1 89.5947 321.1 89.7215V93.5828H320.466V89.7215H320.477ZM319.29 89.7215C319.29 89.5716 319.417 89.4679 319.544 89.4679H319.671C319.797 89.4679 319.924 89.5947 319.924 89.7215V93.5828H319.279V89.7215H319.29ZM318.114 89.7215C318.114 89.5716 318.23 89.4679 318.356 89.4679H318.483C318.61 89.4679 318.737 89.5947 318.737 89.7215V93.5828H318.091V89.7215H318.114ZM316.904 89.7215C316.904 89.5716 317.031 89.4679 317.158 89.4679H317.284C317.411 89.4679 317.527 89.5947 317.527 89.7215V93.5828H316.893V89.7215H316.904ZM315.717 89.7215C315.717 89.5716 315.844 89.4679 315.971 89.4679H316.097C316.224 89.4679 316.339 89.5947 316.339 89.7215V93.5828H315.706V89.7215H315.717ZM217.789 66.2308C217.789 64.0293 218.435 62.1736 219.311 61.6203C220.187 62.1736 220.844 64.0293 220.844 66.2308V74.8525H217.789V66.2308ZM208.73 65.3202C208.73 62.8882 210.355 60.848 212.602 60.2371C214.827 60.8595 216.464 62.8997 216.464 65.3202V74.864H208.73V65.3202ZM204.373 66.2308C204.373 64.0293 205.018 62.1736 205.894 61.6203C206.77 62.1736 207.427 64.0293 207.427 66.2308V74.8525H204.373V66.2308ZM49.8971 48.2037C49.8971 47.9501 50.0929 47.7541 50.3465 47.7541H50.5657C50.8193 47.7541 51.0151 47.9501 51.0151 48.2037V54.9581H49.8971V48.2037ZM47.8107 48.2037C47.8107 47.9501 47.9953 47.7541 48.2489 47.7541H48.4793C48.7214 47.7541 48.9172 47.9501 48.9172 48.2037V54.9581H47.8107V48.2037ZM45.7359 48.2037C45.7359 47.9501 45.9436 47.7541 46.1741 47.7541H46.393C46.6466 47.7541 46.8427 47.9501 46.8427 48.2037V54.9581H45.7359V48.2037ZM43.6384 48.2037C43.6384 47.9501 43.8457 47.7541 44.0878 47.7541H44.3067C44.5603 47.7541 44.7564 47.9501 44.7564 48.2037V54.9581H43.6384V48.2037ZM41.552 48.2037C41.552 47.9501 41.7478 47.7541 41.9899 47.7541H42.2206C42.4742 47.7541 42.6585 47.9501 42.6585 48.2037V54.9581H41.552V48.2037ZM27.582 100.475C27.582 97.1213 28.5618 94.3089 29.9103 93.456C31.2589 94.3205 32.2387 97.1213 32.2387 100.475V113.639H27.582V100.475ZM13.7619 99.0808C13.7619 95.3694 16.2518 92.2688 19.6636 91.3236C23.0638 92.2688 25.5649 95.3809 25.5649 99.0808V113.616H13.7735V99.0808H13.7619ZM7.13432 100.475C7.13432 97.1213 8.11408 94.3089 9.46266 93.456C10.8112 94.3205 11.791 97.1213 11.791 100.475V113.639H7.13432V100.475Z" fill="#145B48"/>
</g>
</g>
</g>
</svg>
