<svg width="1728" height="758" viewBox="0 0 1728 758" fill="none" xmlns="http://www.w3.org/2000/svg">
<g opacity="0.4">
<mask id="mask0_1201_901" style="mask-type:luminance" maskUnits="userSpaceOnUse" x="0" y="0" width="1742" height="1151">
<path d="M1742 0H0V1150.64H1742V0Z" fill="white"/>
</mask>
<g mask="url(#mask0_1201_901)">
<g opacity="0.25">
<path d="M0 550.472V1150.64H1736.5V555.468H1742V550.289H1730.03C1731.04 547.034 1731.73 543.642 1731.73 540.02C1731.73 525.076 1722.2 512.377 1708.86 507.564C1708.86 507.38 1708.9 507.197 1708.9 507.014C1708.9 501.88 1705.69 497.57 1701.06 495.92L1699.41 490.878C1699.73 490.373 1699.96 489.869 1699.96 489.273C1699.96 488.081 1699.23 487.072 1698.27 486.659L1697.26 470.706C1697.26 470.615 1697.17 470.569 1697.07 470.569C1696.98 470.569 1696.89 470.615 1696.89 470.706L1695.88 486.659C1694.87 487.164 1694.19 488.081 1694.19 489.273C1694.19 489.869 1694.42 490.373 1694.69 490.878L1693.04 495.92C1688.5 497.57 1685.25 501.88 1685.25 507.014C1685.25 507.197 1685.34 507.38 1685.34 507.564C1672 512.377 1662.46 524.984 1662.46 540.02C1662.46 543.642 1663.15 547.034 1664.16 550.289H1652.19V550.472H1651V490.281H1651.65C1653.2 490.281 1654.35 489.044 1654.35 487.577V486.018C1654.35 484.505 1653.11 483.313 1651.65 483.313H1647.93C1648.12 482.304 1648.16 481.25 1648.16 480.242C1648.16 472.953 1644.26 466.489 1638.49 462.913C1634.91 460.667 1631.84 457.779 1629.37 454.432C1629.82 454.02 1630.15 453.424 1630.15 452.691C1630.15 451.774 1629.55 450.949 1628.72 450.536L1628.13 441.276H1627.44L1626.84 450.536C1626.02 450.857 1625.42 451.728 1625.42 452.691C1625.42 453.378 1625.7 454.02 1626.2 454.432C1623.73 457.825 1620.66 460.667 1617.03 462.913C1611.21 466.489 1607.36 472.953 1607.36 480.242C1607.36 481.296 1607.5 482.304 1607.59 483.313H1604.01C1602.46 483.313 1601.31 484.551 1601.31 486.018V487.577C1601.31 489.09 1602.55 490.281 1604.01 490.281H1604.52V528.651H1595.63C1597.92 524.296 1599.16 519.666 1599.16 514.899C1599.16 498.212 1584.03 483.68 1561.24 475.52C1546.44 470.202 1533.83 463.097 1523.97 454.708C1524.34 454.02 1524.62 453.195 1524.62 452.278C1524.62 450.123 1523.33 448.245 1521.45 447.419L1520.08 426.332H1518.52L1517.14 447.419C1515.26 448.245 1513.98 450.123 1513.98 452.278C1513.98 453.195 1514.21 453.928 1514.62 454.708C1504.77 463.097 1492.25 470.157 1477.35 475.52C1454.57 483.68 1439.44 498.304 1439.44 514.899C1439.44 517.695 1439.9 520.4 1440.73 523.059H1434.22C1436.28 516.274 1437.43 509.122 1437.43 501.696C1437.43 464.655 1409.51 434.217 1373.66 430.045L1369.12 416.201C1369.07 416.109 1368.66 415.971 1368.07 415.834L1365.45 377.372C1365.45 377.234 1365.32 377.097 1365.18 377.097C1364.99 377.097 1364.9 377.234 1364.9 377.372L1362.38 415.788C1361.83 415.925 1361.42 416.017 1361.33 416.155L1356.79 429.999C1329.93 433.116 1307.55 450.994 1298.02 475.291L1297.24 434.766H1301V427.569H1297.06L1296.05 376.226H1300.45V372.055H1297.88V370.633H1295.31V352.022H1297.88V350.234H1293.8C1294.17 349.134 1294.35 347.942 1294.35 346.704C1294.35 342.395 1292.06 338.682 1288.71 336.573C1286.6 335.243 1284.82 333.547 1283.4 331.622C1283.62 331.347 1283.81 331.026 1283.81 330.613C1283.81 330.063 1283.44 329.559 1282.98 329.375L1282.66 324.562C1282.89 324.654 1283.07 324.654 1283.3 324.654C1285.14 324.654 1286.6 323.279 1286.88 321.582C1286.38 322.591 1285.32 323.279 1284.13 323.279C1282.48 323.279 1281.15 321.949 1281.15 320.299C1281.15 319.107 1281.84 318.053 1282.85 317.548C1281.1 317.823 1279.73 319.29 1279.73 321.124C1279.73 322.683 1280.74 324.012 1282.2 324.471L1281.93 329.421C1281.42 329.651 1281.1 330.109 1281.1 330.659C1281.1 331.072 1281.24 331.438 1281.52 331.668C1280.1 333.685 1278.26 335.335 1276.2 336.619C1272.81 338.728 1270.51 342.441 1270.51 346.75C1270.51 347.987 1270.7 349.179 1271.06 350.28H1266.98V352.068H1269.46V370.771H1266.98V372.146H1264.42V376.364H1268.77L1267.76 427.707H1263.82V434.904H1267.63L1266.57 490.969H1260.98V498.166H1266.48L1265.98 523.562H1246.45C1252.59 512.01 1255.98 499.771 1255.98 486.981C1255.98 442.514 1215.5 403.64 1154.76 381.819C1115.38 367.7 1081.41 348.95 1055.15 326.809C1056.29 324.746 1056.98 322.454 1056.98 319.978C1056.98 314.156 1053.5 309.113 1048.45 306.959L1044.79 250.894H1040.62L1036.95 306.959C1031.95 309.113 1028.38 314.156 1028.38 319.978C1028.38 322.454 1029.11 324.837 1030.21 326.809C1003.99 348.996 970.386 367.562 930.641 381.819C919.318 385.899 908.683 390.574 898.872 395.709V233.703H899.972C902.356 233.703 904.373 231.732 904.373 229.302V226.827C904.373 224.397 902.356 222.426 899.972 222.426H893.921C894.196 220.73 894.334 219.08 894.334 217.383C894.334 205.556 888.099 195.15 878.655 189.328C872.879 185.707 867.883 181.077 863.94 175.575C864.674 174.888 865.086 173.925 865.086 172.825C865.086 171.266 864.169 169.936 862.794 169.34L861.877 154.351H860.731L859.815 169.34C858.44 169.936 857.477 171.266 857.477 172.825C857.477 173.879 857.981 174.888 858.715 175.575C854.772 181.077 849.821 185.707 843.999 189.328C834.602 195.104 828.321 205.465 828.321 217.383C828.321 219.08 828.504 220.73 828.734 222.426H822.866C820.482 222.426 818.465 224.397 818.465 226.827V229.302C818.465 231.732 820.39 233.703 822.866 233.703H823.782V336.802C811.909 301.549 787.98 271.889 756.899 252.636C729.257 235.537 705.235 213.074 686.256 186.807C689.786 183.506 692.032 178.784 692.032 173.512C692.032 166.086 687.54 159.668 681.122 156.826L676.996 93.2886C679.701 93.747 682.543 94.0222 685.339 94.0222C709.361 94.0222 729.164 76.0981 732.19 52.9479C725.772 66.2879 712.203 75.4559 696.433 75.4559C674.52 75.4559 656.688 57.6695 656.688 35.7112C656.688 19.9873 665.902 6.37205 679.242 0C656.046 3.02558 638.122 22.8292 638.122 46.8046C638.122 67.7544 651.783 85.4955 670.67 91.6842L666.452 156.826C659.988 159.668 655.542 166.04 655.542 173.512C655.542 178.784 657.743 183.414 661.318 186.807C642.294 213.166 618.548 235.353 590.63 252.636C545.705 280.416 515.678 330.201 515.678 387.045C515.678 403.319 518.199 419.043 522.784 433.85H485.193C485.377 431.374 485.513 428.899 485.513 426.332C485.513 373.934 446.043 330.797 395.159 324.883L388.741 305.262C388.695 305.079 388.099 304.896 387.274 304.712L383.744 250.298C383.744 250.114 383.47 249.931 383.24 249.931C383.011 249.931 382.782 250.069 382.782 250.298L379.252 304.712C378.426 304.85 377.83 304.987 377.784 305.262L371.275 324.883C320.436 330.797 281.012 373.934 281.012 426.332C281.012 436.921 282.571 447.053 285.551 456.588H250.756V471.944H266.938V550.472H230.265L228.202 440.955H237.828V428.348H227.973L226.094 329.834H232.74V317.227H225.864L224.167 227.01H231.778V219.676H227.286V217.2H222.747V184.377H227.286V181.26H220.134C220.776 179.289 221.096 177.225 221.096 175.071C221.096 167.507 217.063 160.952 211.103 157.239C207.482 154.947 204.273 152.013 201.797 148.529C202.255 148.116 202.576 147.474 202.576 146.741C202.576 145.732 201.981 144.907 201.11 144.494L200.513 136.151C200.834 136.197 201.201 136.243 201.613 136.243C204.822 136.243 207.39 133.905 207.803 130.834C206.977 132.621 205.144 133.859 203.081 133.859C200.193 133.859 197.854 131.475 197.854 128.587C197.854 126.524 199.093 124.691 200.835 123.865C197.809 124.278 195.424 126.891 195.424 130.054C195.424 132.85 197.259 135.189 199.734 135.968L199.184 144.632C198.359 144.999 197.716 145.87 197.716 146.878C197.716 147.566 198.038 148.162 198.497 148.62C196.021 152.196 192.812 155.084 189.099 157.376C183.185 161.089 179.151 167.644 179.151 175.163C179.151 177.363 179.518 179.426 180.114 181.352H172.962V184.469H177.317V217.338H172.962V219.813H168.424V227.102H176.079L174.384 317.319H167.415V329.971H174.154L172.183 428.348H162.281V440.955H171.954L169.845 550.472H151.325V355.001H152.93C156.643 355.001 159.623 352.021 159.623 348.308V344.458C159.623 340.744 156.643 337.719 152.93 337.719H143.761C144.128 335.243 144.403 332.722 144.403 330.109C144.403 312.047 134.868 296.231 120.519 287.384C111.763 281.975 104.061 274.823 98.0558 266.434C99.2018 265.38 99.8901 263.913 99.8901 262.263C99.8901 259.925 98.469 257.862 96.4061 256.945L94.9388 234.115H93.2432L91.776 256.945C89.7131 257.862 88.2919 259.925 88.2919 262.263C88.2919 263.913 88.9791 265.38 90.1252 266.434C84.074 274.823 76.4646 281.883 67.6171 287.384C53.3144 296.231 43.7794 312.047 43.7794 330.109C43.7794 332.722 44.0082 335.243 44.4207 337.719H35.5735C31.8603 337.719 28.8349 340.744 28.8349 344.458V348.308C28.8349 352.021 31.8603 355.001 35.5735 355.001H36.8572V550.472H0ZM1640.51 507.793C1640.51 502.338 1642.11 497.8 1644.26 496.47C1646.46 497.8 1648.07 502.338 1648.07 507.793V529.017H1640.55V507.793H1640.51ZM1618.23 505.547C1618.23 499.587 1622.21 494.499 1627.72 493.032C1633.22 494.591 1637.2 499.587 1637.2 505.547V529.017H1622.76V528.651H1618.18V505.547H1618.23ZM1607.5 507.793C1607.5 502.338 1609.06 497.8 1611.26 496.47C1613.46 497.8 1615.02 502.338 1615.02 507.793V528.651H1607.54V507.793H1607.5ZM1290.5 355.414C1290.5 354.818 1291.01 354.406 1291.51 354.406H1292.01C1292.52 354.406 1292.98 354.91 1292.98 355.414V370.771H1290.46V355.414H1290.5ZM1285.78 355.414C1285.78 354.818 1286.28 354.406 1286.79 354.406H1287.29C1287.8 354.406 1288.3 354.91 1288.3 355.414V370.771H1285.73V355.414H1285.78ZM1281.1 355.414C1281.1 354.818 1281.56 354.406 1282.07 354.406H1282.57C1283.07 354.406 1283.58 354.91 1283.58 355.414V370.771H1281.01V355.414H1281.1ZM1276.29 355.414C1276.29 354.818 1276.79 354.406 1277.3 354.406H1277.8C1278.31 354.406 1278.77 354.91 1278.77 355.414V370.771H1276.24V355.414H1276.29ZM1271.57 355.414C1271.57 354.818 1272.07 354.406 1272.58 354.406H1273.08C1273.59 354.406 1274.04 354.91 1274.04 355.414V370.771H1271.52V355.414H1271.57ZM882.093 261.988C882.093 253.232 884.661 245.851 888.145 243.651C891.629 245.851 894.242 253.232 894.242 261.988V296.278H882.093V261.988ZM846.062 258.366C846.062 248.693 852.525 240.579 861.464 238.15C870.312 240.625 876.822 248.739 876.822 258.366V296.323H846.062V258.366ZM828.734 261.988C828.734 253.232 831.301 245.851 834.785 243.651C838.269 245.851 840.881 253.232 840.881 261.988V296.278H828.734V261.988ZM214.358 190.291C214.358 189.282 215.137 188.503 216.145 188.503H217.017C218.025 188.503 218.804 189.282 218.804 190.291V217.154H214.358V190.291ZM206.06 190.291C206.06 189.282 206.794 188.503 207.803 188.503H208.719C209.682 188.503 210.461 189.282 210.461 190.291V217.154H206.06V190.291ZM197.808 190.291C197.808 189.282 198.634 188.503 199.551 188.503H200.422C201.43 188.503 202.21 189.282 202.21 190.291V217.154H197.808V190.291ZM189.466 190.291C189.466 189.282 190.29 188.503 191.253 188.503H192.124C193.132 188.503 193.912 189.282 193.912 190.291V217.154H189.466V190.291ZM181.168 190.291C181.168 189.282 181.947 188.503 182.91 188.503H183.827C184.836 188.503 185.569 189.282 185.569 190.291V217.154H181.168V190.291ZM125.607 398.184C125.607 384.844 129.504 373.659 134.867 370.267C140.231 373.705 144.127 384.844 144.127 398.184V450.536H125.607V398.184ZM70.6423 392.638C70.6423 377.877 80.5447 365.545 94.114 361.786C107.637 365.545 117.585 377.922 117.585 392.638V450.445H70.6882V392.638H70.6423ZM44.2831 398.184C44.2831 384.844 48.1797 373.659 53.5433 370.267C58.9068 373.705 62.8035 384.844 62.8035 398.184V450.536H44.2831V398.184Z" fill="#145B48"/>
</g>
</g>
</g>
</svg>
