<svg width="216" height="97" viewBox="0 0 216 97" fill="none" xmlns="http://www.w3.org/2000/svg">
<path fill-rule="evenodd" clip-rule="evenodd" d="M46 91.3745H137C137.5 91.3745 138 91.3246 138.5 91.2148C139 91.3246 139.5 91.3745 140 91.3745H192C195.9 91.3745 199 88.2512 199 84.3895C199 80.5278 195.9 77.4045 192 77.4045H186C182.1 77.4045 179 74.2812 179 70.4195C179 66.5578 182.1 63.4345 186 63.4345H205C208.9 63.4345 212 60.3112 212 56.4495C212 52.5878 208.9 49.4645 205 49.4645H183C186.9 49.4645 190 46.3412 190 42.4794C190 38.6177 186.9 35.4944 183 35.4944H119C122.9 35.4944 126 32.3711 126 28.5094C126 24.6477 122.9 21.5244 119 21.5244H62C58.1 21.5244 55 24.6477 55 28.5094C55 32.3711 58.1 35.4944 62 35.4944H22C18.1 35.4944 15 38.6177 15 42.4794C15 46.3412 18.1 49.4645 22 49.4645H47C50.9 49.4645 54 52.5878 54 56.4495C54 60.3112 50.9 63.4345 47 63.4345H7C3.1 63.4345 0 66.5578 0 70.4195C0 74.2812 3.1 77.4045 7 77.4045H46C42.1 77.4045 39 80.5278 39 84.3895C39 88.2512 42.1 91.3745 46 91.3745ZM209 91.3745C212.9 91.3745 216 88.2512 216 84.3895C216 80.5278 212.9 77.4045 209 77.4045C205.1 77.4045 202 80.5278 202 84.3895C202 88.2512 205.1 91.3745 209 91.3745Z" fill="#E9FFF4"/>
<path d="M137.142 22.9498L99.7431 21.3204C95.7428 21.1462 92.3584 24.2408 92.1838 28.2325L89.6445 86.2674C89.4698 90.2591 92.5711 93.6362 96.5713 93.8105L133.97 95.4399C137.971 95.6142 141.355 92.5196 141.53 88.5279L144.069 30.493C144.244 26.5013 141.142 23.1241 137.142 22.9498Z" fill="#E9FFF4" stroke="#054635" stroke-width="1.5"/>
<path d="M107.39 10.6388L70.2748 15.5146C65.4836 16.1441 62.1109 20.53 62.7417 25.3109L70.3403 82.9041C70.971 87.685 75.3664 91.0504 80.1575 90.421L117.273 85.5451C122.064 84.9157 125.437 80.5298 124.806 75.7489L117.207 18.1557C116.577 13.3748 112.181 10.0094 107.39 10.6388Z" fill="#E9FFF4" stroke="#054635" stroke-width="1.5"/>
<path d="M63.5001 25.2067C62.9001 20.8361 66.0005 16.8347 70.4005 16.2559L107.5 11.3764C111.9 10.8076 115.9 13.881 116.5 18.2516L117.7 27.2224L64.7003 34.1874L63.5001 25.2067Z" fill="#E9FFF4"/>
<path d="M126.187 14.9015C126.797 14.8214 127.226 14.2634 127.145 13.6551C127.065 13.0469 126.506 12.6186 125.896 12.6987L120.746 13.3753C120.136 13.4554 119.707 14.0135 119.787 14.6217C119.868 15.23 120.427 15.6582 121.036 15.5781L126.187 14.9015Z" fill="#054635"/>
<path d="M108.952 1.10143C108.872 0.493181 108.313 0.0649603 107.703 0.145038C107.094 0.225115 106.665 0.783183 106.745 1.39143L107.423 6.53091C107.503 7.13916 108.063 7.56738 108.672 7.4873C109.282 7.40722 109.711 6.84915 109.631 6.2409L108.952 1.10143Z" fill="#054635"/>
<path d="M120.788 4.55019C121.162 4.06347 121.07 3.36615 120.582 2.99268C120.095 2.6192 119.396 2.71092 119.022 3.19764L115.859 7.31034C115.485 7.79706 115.577 8.49447 116.065 8.86795C116.552 9.24142 117.251 9.14961 117.625 8.66289L120.788 4.55019Z" fill="#054635"/>
<path d="M71.7363 36.7448L111.47 31.525C112.009 31.4541 112.502 31.833 112.573 32.3697C112.644 32.9063 112.266 33.3996 111.726 33.4705L71.993 38.6903C71.453 38.7612 70.9595 38.382 70.8887 37.8458C70.818 37.3095 71.1964 36.8157 71.7363 36.7448Z" fill="#154F30" stroke="#054635"/>
<path d="M73.7363 51.4332L113.47 46.2134C114.009 46.1426 114.502 46.5214 114.573 47.0581C114.644 47.5947 114.266 48.088 113.726 48.1588L73.993 53.3786C73.453 53.4496 72.9594 53.0703 72.8887 52.5341C72.8179 51.9979 73.1963 51.5042 73.7363 51.4332Z" fill="#154F30" stroke="#054635"/>
<path d="M75.6367 66.1119L115.37 60.8922C115.91 60.8212 116.404 61.2004 116.474 61.7366C116.545 62.2729 116.167 62.7667 115.627 62.8377L75.8934 68.0575C75.3534 68.1284 74.8598 67.7491 74.7891 67.2128C74.7183 66.6766 75.0967 66.1829 75.6367 66.1119Z" fill="#154F30" stroke="#054635"/>
</svg>
