<svg width="223" height="142" viewBox="0 0 223 142" fill="none" xmlns="http://www.w3.org/2000/svg">
<rect x="59.8364" y="129.259" width="84.1176" height="12.0168" fill="#B3B3B3"/>
<path fill-rule="evenodd" clip-rule="evenodd" d="M141.542 21.3457H11.769V129.49H197.776V99.2102H189.125V120.838H20.4206V29.9971H141.542V21.3457Z" fill="#B3B3B3"/>
<g clip-path="url(#clip0_369_22577)">
<path d="M198.158 0H160.804C156.401 0 152.799 3.60199 152.799 8.00442V77.376C152.799 81.7785 156.401 85.3805 160.804 85.3805H198.158C202.56 85.3805 206.162 81.7785 206.162 77.376V8.00442C206.162 3.60199 202.56 0 198.158 0ZM168.808 4.00221H190.153V6.67035H168.808V4.00221ZM179.481 80.0442C178.065 80.0442 176.708 79.482 175.707 78.4812C174.707 77.4805 174.144 76.1232 174.144 74.7079C174.144 73.2926 174.707 71.9353 175.707 70.9346C176.708 69.9338 178.065 69.3716 179.481 69.3716C180.896 69.3716 182.253 69.9338 183.254 70.9346C184.255 71.9353 184.817 73.2926 184.817 74.7079C184.817 76.1232 184.255 77.4805 183.254 78.4812C182.253 79.482 180.896 80.0442 179.481 80.0442ZM200.826 64.0353H158.136V10.6726H200.826V64.0353Z" fill="#B3B3B3"/>
<path d="M171.345 40.3434L168.321 37.1297C169.809 35.5851 171.513 34.4018 173.433 33.5796C175.353 32.7575 177.369 32.3465 179.481 32.3465C181.592 32.3465 183.615 32.764 185.547 33.5991C187.479 34.4341 189.177 35.6359 190.64 37.2044L187.616 40.3434C186.536 39.2223 185.294 38.3569 183.89 37.747C182.485 37.1372 181.016 36.8317 179.481 36.8307C177.945 36.8307 176.475 37.1362 175.071 37.747C173.668 38.3579 172.426 39.2233 171.345 40.3434ZM165.225 33.9907L162.201 30.8517C164.481 28.4352 167.115 26.5852 170.104 25.3017C173.092 24.0182 176.218 23.3769 179.481 23.3779C182.744 23.3779 185.871 24.0197 188.859 25.3032C191.847 26.5867 194.481 28.4362 196.76 30.8517L193.736 33.9907C191.84 32.0226 189.662 30.5094 187.202 29.4511C184.741 28.3928 182.167 27.8632 179.481 27.8622C176.793 27.8622 174.219 28.3918 171.758 29.4511C169.298 30.5104 167.12 32.0236 165.225 33.9907ZM179.481 48.7888L174.405 43.4824C175.077 42.7848 175.851 42.2492 176.727 41.8755C177.604 41.5018 178.522 41.315 179.481 41.315C180.441 41.315 181.359 41.5018 182.235 41.8755C183.112 42.2492 183.885 42.7848 184.556 43.4824L179.481 48.7888Z" fill="#B3B3B3"/>
</g>
<path d="M29.9404 83.5789L30.0652 72.9751C35.2215 72.9751 40.1492 73.9523 44.8482 75.9067C49.5471 77.8612 53.7263 80.6681 57.3857 84.3274C61.045 87.9868 63.8519 92.1876 65.8064 96.9298C67.7608 101.672 68.6964 106.62 68.6133 111.773L58.1342 111.773C58.1342 108.03 57.4264 104.433 56.0109 100.982C54.5954 97.5303 52.5586 94.4739 49.9006 91.8125C47.2392 89.1511 44.1828 87.1144 40.7314 85.7022C37.2799 84.29 33.6829 83.5823 29.9404 83.5789ZM29.9404 62.3712L29.9404 51.8921C37.9245 51.8089 45.5767 53.2852 52.8971 56.3208C60.2175 59.3564 66.7038 63.7019 72.3558 69.3573C78.0112 75.0127 82.3567 81.5006 85.3923 88.821C88.4279 96.1414 89.9042 103.792 89.821 111.773L79.3419 111.773C79.3419 105.202 78.0935 98.9025 75.5969 92.8729C73.1002 86.8432 69.5248 81.4997 64.8707 76.8424C60.2134 72.185 54.869 68.6088 48.8377 66.1138C42.8064 63.6187 36.5073 62.3712 29.9404 62.3712ZM29.9404 111.773L30.0028 94.1204C32.3315 94.1204 34.567 94.5678 36.7094 95.4627C38.8518 96.3576 40.7538 97.6359 42.4155 99.2976C44.0789 100.961 45.358 102.864 46.2529 105.006C47.1478 107.149 47.5944 109.383 47.5927 111.71L29.9404 111.773Z" fill="#B3B3B3"/>
<defs>
<clipPath id="clip0_369_22577">
<rect width="85.3805" height="85.3805" fill="white" transform="translate(136.791)"/>
</clipPath>
</defs>
</svg>
