<svg width="64" height="64" viewBox="0 0 64 64" fill="none" xmlns="http://www.w3.org/2000/svg">
<rect x="0.0185547" width="63.2313" height="63.2313" rx="12.6463" fill="#154F30"/>
<g clip-path="url(#clip0_2236_1078)">
<path d="M39.9319 10.7626C39.8452 10.6657 36.72 10.8009 34.0005 13.7526C31.281 16.7017 31.6994 20.0845 31.7606 20.1712C31.8218 20.258 35.6383 20.3932 38.0747 16.9619C40.511 13.5306 40.0187 10.8621 39.9319 10.7626ZM48.3864 40.6952C48.264 40.4503 42.455 37.5471 42.9958 31.9652C43.5367 26.3807 47.269 24.85 47.3277 24.6842C47.3864 24.5184 45.8046 22.6688 44.1285 21.7325C42.8979 21.0724 41.5359 20.6942 40.1411 20.6253C39.8656 20.6177 38.9089 20.383 36.942 20.9213C35.646 21.2759 32.7249 22.4239 31.9213 22.4698C31.1152 22.5157 28.7171 21.1381 26.1379 20.7733C24.4873 20.4544 22.7372 21.1075 21.4846 21.6101C20.2345 22.1101 17.8569 23.5336 16.1935 27.317C14.5302 31.0978 15.4001 37.0879 16.0226 38.9502C16.6451 40.81 17.6171 43.8586 19.2702 46.0832C20.7397 48.5935 22.6887 50.3359 23.5026 50.9278C24.3164 51.5197 26.6124 51.9125 28.2043 51.0987C29.485 50.313 31.7963 49.8614 32.7096 49.8946C33.6204 49.9278 35.4164 50.2875 37.2558 51.2697C38.7125 51.7722 40.0901 51.563 41.4703 51.0018C42.8504 50.438 44.848 48.3001 47.1797 43.9657C48.065 41.9503 48.468 40.861 48.3864 40.6952Z" fill="#FEE8A3"/>
<path d="M39.9319 10.7626C39.8452 10.6657 36.72 10.8009 34.0005 13.7526C31.281 16.7017 31.6994 20.0845 31.7606 20.1712C31.8218 20.258 35.6383 20.3932 38.0747 16.9619C40.511 13.5306 40.0187 10.8621 39.9319 10.7626ZM48.3864 40.6952C48.264 40.4503 42.455 37.5471 42.9958 31.9652C43.5367 26.3807 47.269 24.85 47.3277 24.6842C47.3864 24.5184 45.8046 22.6688 44.1285 21.7325C42.8979 21.0724 41.5359 20.6942 40.1411 20.6253C39.8656 20.6177 38.9089 20.383 36.942 20.9213C35.646 21.2759 32.7249 22.4239 31.9213 22.4698C31.1152 22.5157 28.7171 21.1381 26.1379 20.7733C24.4873 20.4544 22.7372 21.1075 21.4846 21.6101C20.2345 22.1101 17.8569 23.5336 16.1935 27.317C14.5302 31.0978 15.4001 37.0879 16.0226 38.9502C16.6451 40.81 17.6171 43.8586 19.2702 46.0832C20.7397 48.5935 22.6887 50.3359 23.5026 50.9278C24.3164 51.5197 26.6124 51.9125 28.2043 51.0987C29.485 50.313 31.7963 49.8614 32.7096 49.8946C33.6204 49.9278 35.4164 50.2875 37.2558 51.2697C38.7125 51.7722 40.0901 51.563 41.4703 51.0018C42.8504 50.438 44.848 48.3001 47.1797 43.9657C48.065 41.9503 48.468 40.861 48.3864 40.6952Z" fill="#FEE8A3"/>
</g>
<defs>
<clipPath id="clip0_2236_1078">
<rect width="40.8183" height="40.8183" fill="white" transform="translate(11.4004 10.749)"/>
</clipPath>
</defs>
</svg>
