<svg width="64" height="64" viewBox="0 0 64 64" fill="none" xmlns="http://www.w3.org/2000/svg">
<rect x="0.0185547" y="0.768555" width="63.2313" height="63.2313" rx="12.6463" fill="#154F30"/>
<path d="M23.6167 14.0479L45.8743 26.953C46.4095 27.3331 46.8471 27.8366 47.1505 28.4216C47.4539 29.0066 47.6143 29.6562 47.6185 30.3163C47.6227 30.9765 47.4705 31.6281 47.1746 32.2169C46.8787 32.8058 46.4476 33.3149 45.9172 33.7019L23.6167 46.9999" stroke="#FEE7A2" stroke-width="2.26993" stroke-miterlimit="10" stroke-linecap="round"/>
<path d="M15.4809 46.0759L15.1934 20.1897C15.2454 19.5312 15.4526 18.8947 15.7979 18.3333C16.1431 17.7719 16.6164 17.3018 17.1783 16.962C17.7401 16.6223 18.3744 16.4228 19.0281 16.3802C19.6819 16.3376 20.3363 16.4531 20.9369 16.717L43.627 29.3321" stroke="#FEE7A2" stroke-width="2.26993" stroke-miterlimit="10" stroke-linecap="round"/>
<path d="M47.1241 38.1794L25.1252 51.5265C24.5355 51.8138 23.8864 51.955 23.2317 51.9383C22.5771 51.9216 21.9359 51.7475 21.3614 51.4304C20.787 51.1133 20.296 50.6625 19.9292 50.1155C19.5625 49.5684 19.3306 48.941 19.2529 48.2853L18.5571 22.1699" stroke="#FEE7A2" stroke-width="2.26993" stroke-miterlimit="10" stroke-linecap="round"/>
<path d="M38.7731 32.4143L38.7737 32.4147C38.7739 32.4148 38.7743 32.4153 38.7747 32.4161C38.7756 32.4176 38.7765 32.4202 38.7765 32.4233C38.7765 32.4264 38.7756 32.4289 38.7747 32.4305C38.7739 32.432 38.7733 32.4321 38.774 32.4317L38.7731 32.4323L23.8201 41.1397C23.8195 41.1381 23.819 41.1361 23.819 41.1337V41.1337V23.7127C23.8191 23.7104 23.8195 23.7084 23.8201 23.7068L38.7731 32.4143Z" fill="#FEE7A2" stroke="#FEE7A2" stroke-width="2.26993"/>
</svg>
