<svg width="14" height="14" viewBox="0 0 14 14" fill="none" xmlns="http://www.w3.org/2000/svg">
<rect x="0.335938" y="0.078125" width="13.6644" height="13.6644" rx="2.73288" fill="#154F30"/>
<path d="M5.43652 2.94794L10.2464 5.73676C10.3621 5.8189 10.4567 5.92771 10.5222 6.05413C10.5878 6.18055 10.6225 6.32093 10.6234 6.46359C10.6243 6.60624 10.5914 6.74706 10.5274 6.87432C10.4635 7.00157 10.3703 7.11159 10.2557 7.19523L5.43652 10.0689" stroke="white" stroke-width="0.490538" stroke-miterlimit="10" stroke-linecap="round"/>
<path d="M3.67836 9.86961L3.61621 4.27554C3.62745 4.13324 3.67224 3.9957 3.74685 3.87438C3.82146 3.75305 3.92373 3.65145 4.04515 3.57804C4.16657 3.50462 4.30363 3.46152 4.44491 3.45231C4.5862 3.4431 4.72762 3.46805 4.8574 3.52509L9.76078 6.25124" stroke="white" stroke-width="0.490538" stroke-miterlimit="10" stroke-linecap="round"/>
<path d="M10.5162 8.16287L5.76214 11.0472C5.63472 11.1093 5.49444 11.1398 5.35297 11.1362C5.21149 11.1326 5.07292 11.095 4.94879 11.0264C4.82465 10.9579 4.71854 10.8605 4.63928 10.7423C4.56003 10.6241 4.50992 10.4885 4.49313 10.3468L4.34277 4.70319" stroke="white" stroke-width="0.490538" stroke-miterlimit="10" stroke-linecap="round"/>
<path d="M8.71124 6.91707L8.71144 6.91719L8.7116 6.91745C8.7118 6.91779 8.71198 6.91834 8.71198 6.91901C8.71198 6.91968 8.7118 6.92023 8.7116 6.92057L8.71144 6.92084L8.71124 6.92095L5.47988 8.80266C5.47974 8.80231 5.47964 8.80186 5.47964 8.80135V5.03664C5.47965 5.03615 5.47974 5.03571 5.47988 5.03537L8.71124 6.91707ZM5.47946 8.80338L5.47881 8.80375L5.47946 8.80338Z" fill="white" stroke="white" stroke-width="0.490538"/>
</svg>
