<svg width="14" height="14" viewBox="0 0 14 14" fill="none" xmlns="http://www.w3.org/2000/svg">
<rect width="13.6644" height="13.6644" rx="2.73288" fill="#154F30"/>
<g clip-path="url(#clip0_273_24764)">
<path d="M8.62385 2.32534C8.60511 2.30439 7.92976 2.33361 7.34206 2.97147C6.75437 3.60878 6.84478 4.33981 6.85801 4.35856C6.87125 4.3773 7.696 4.40652 8.2225 3.66501C8.749 2.92351 8.6426 2.34684 8.62385 2.32534ZM10.4509 8.79383C10.4244 8.7409 9.1691 8.11352 9.28597 6.90725C9.40285 5.70044 10.2094 5.36966 10.2221 5.33382C10.2348 5.29799 9.89296 4.89829 9.53075 4.69596C9.26481 4.55331 8.97048 4.47158 8.66906 4.45669C8.60952 4.45504 8.40278 4.40432 7.97772 4.52064C7.69766 4.59728 7.06641 4.84536 6.89275 4.85529C6.71853 4.86521 6.2003 4.5675 5.64293 4.48867C5.28624 4.41975 4.90804 4.56089 4.63735 4.6695C4.36721 4.77755 3.85339 5.08518 3.49393 5.90277C3.13448 6.71981 3.32248 8.01428 3.457 8.41673C3.59152 8.81864 3.80156 9.47745 4.15881 9.95819C4.47637 10.5007 4.89756 10.8772 5.07343 11.0051C5.2493 11.133 5.74548 11.2179 6.08949 11.0421C6.36625 10.8723 6.86573 10.7747 7.0631 10.7818C7.25992 10.789 7.64804 10.8667 8.04553 11.079C8.36033 11.1876 8.65803 11.1424 8.95629 11.0211C9.25455 10.8993 9.68622 10.4373 10.1901 9.5006C10.3814 9.06507 10.4685 8.82966 10.4509 8.79383Z" fill="white"/>
<path d="M8.62385 2.32534C8.60511 2.30439 7.92976 2.33361 7.34206 2.97147C6.75437 3.60878 6.84478 4.33981 6.85801 4.35856C6.87125 4.3773 7.696 4.40652 8.2225 3.66501C8.749 2.92351 8.6426 2.34684 8.62385 2.32534ZM10.4509 8.79383C10.4244 8.7409 9.1691 8.11352 9.28597 6.90725C9.40285 5.70044 10.2094 5.36966 10.2221 5.33382C10.2348 5.29799 9.89296 4.89829 9.53075 4.69596C9.26481 4.55331 8.97048 4.47158 8.66906 4.45669C8.60952 4.45504 8.40278 4.40432 7.97772 4.52064C7.69766 4.59728 7.06641 4.84536 6.89275 4.85529C6.71853 4.86521 6.2003 4.5675 5.64293 4.48867C5.28624 4.41975 4.90804 4.56089 4.63735 4.6695C4.36721 4.77755 3.85339 5.08518 3.49393 5.90277C3.13448 6.71981 3.32248 8.01428 3.457 8.41673C3.59152 8.81864 3.80156 9.47745 4.15881 9.95819C4.47637 10.5007 4.89756 10.8772 5.07343 11.0051C5.2493 11.133 5.74548 11.2179 6.08949 11.0421C6.36625 10.8723 6.86573 10.7747 7.0631 10.7818C7.25992 10.789 7.64804 10.8667 8.04553 11.079C8.36033 11.1876 8.65803 11.1424 8.95629 11.0211C9.25455 10.8993 9.68622 10.4373 10.1901 9.5006C10.3814 9.06507 10.4685 8.82966 10.4509 8.79383Z" fill="white"/>
</g>
<defs>
<clipPath id="clip0_273_24764">
<rect width="8.82092" height="8.82092" fill="white" transform="translate(2.45996 2.32233)"/>
</clipPath>
</defs>
</svg>
