<svg width="430" height="386" viewBox="0 0 430 386" fill="none" xmlns="http://www.w3.org/2000/svg">
<rect width="430" height="386" fill="#B9E4CF"/>
<path d="M213.803 143C214.45 143 215.072 143.308 215.46 143.82C219.954 149.754 225.575 153.419 232.75 158.11C233.423 158.546 234.109 159.007 234.822 159.468C238.564 161.929 240.74 166.094 240.74 170.503C240.74 174.168 239.277 177.487 236.881 179.909H190.725C188.342 177.474 186.865 174.155 186.865 170.503C186.865 166.094 189.028 161.929 192.784 159.468C193.483 159.007 194.182 158.558 194.856 158.11C202.031 153.419 207.651 149.754 212.145 143.82C212.534 143.308 213.155 143 213.803 143ZM199.298 208.617V199.389C199.298 197.685 197.912 196.314 196.19 196.314C194.467 196.314 193.082 197.685 193.082 199.389V208.617H186.865C184.573 208.617 182.721 206.784 182.721 204.516V188.112C182.721 185.843 184.573 184.01 186.865 184.01H240.74C243.032 184.01 244.884 185.843 244.884 188.112V204.516C244.884 206.784 243.032 208.617 240.74 208.617H234.524V199.389C234.524 197.685 233.138 196.314 231.416 196.314C229.693 196.314 228.307 197.685 228.307 199.389V208.617H220.019V201.184C220.019 198.749 218.931 196.442 217.04 194.878L213.803 192.213L210.565 194.878C208.674 196.442 207.586 198.749 207.586 201.184V208.617H199.298ZM171.117 143.666C171.475 143.398 171.912 143.253 172.361 143.253C172.809 143.253 173.246 143.398 173.604 143.666L175.676 145.204C180.105 148.498 182.721 153.663 182.721 159.148V159.404H162V159.148C162 153.663 164.616 148.498 169.045 145.204L171.117 143.666ZM162 163.505H182.721V181.012C180.248 182.434 178.577 185.074 178.577 188.112V204.516C178.577 205.746 178.849 206.899 179.328 207.95C178.473 208.386 177.515 208.617 176.505 208.617H168.216C164.784 208.617 162 205.861 162 202.465V163.505Z" fill="#2E382E"/>
<ellipse cx="238.165" cy="194.705" rx="29.2945" ry="29.2945" fill="#B9E4CF"/>
<path d="M232.423 198.049C233.346 198.049 234.231 197.683 234.884 197.03C235.537 196.377 235.904 195.491 235.904 194.568C235.904 193.645 235.537 192.759 234.884 192.106C234.231 191.453 233.346 191.087 232.423 191.087C231.499 191.087 230.614 191.453 229.961 192.106C229.308 192.759 228.941 193.645 228.941 194.568C228.941 195.491 229.308 196.377 229.961 197.03C230.614 197.683 231.499 198.049 232.423 198.049Z" fill="#2E382E"/>
<path d="M254.471 207.335C254.471 208.567 253.981 209.747 253.111 210.618C252.24 211.488 251.06 211.977 249.829 211.977H226.619C225.388 211.977 224.207 211.488 223.337 210.618C222.466 209.747 221.977 208.567 221.977 207.335V188.768C221.977 187.537 222.465 186.357 223.335 185.487C224.205 184.617 225.384 184.127 226.614 184.126C226.614 182.895 227.103 181.714 227.974 180.844C228.844 179.973 230.025 179.484 231.256 179.484H254.466C255.697 179.484 256.878 179.973 257.748 180.844C258.619 181.714 259.108 182.895 259.108 184.126V202.694C259.108 203.924 258.619 205.104 257.75 205.974C256.88 206.845 255.701 207.334 254.471 207.335ZM254.466 181.805H231.256C230.641 181.805 230.05 182.049 229.615 182.485C229.18 182.92 228.935 183.51 228.935 184.126H249.829C251.06 184.126 252.24 184.615 253.111 185.485C253.981 186.356 254.471 187.537 254.471 188.768V205.015C255.085 205.013 255.674 204.768 256.109 204.333C256.543 203.898 256.787 203.308 256.787 202.694V184.126C256.787 183.51 256.542 182.92 256.107 182.485C255.672 182.049 255.081 181.805 254.466 181.805ZM226.619 186.447C226.003 186.447 225.413 186.691 224.978 187.127C224.543 187.562 224.298 188.152 224.298 188.768V207.335L230.439 201.872C230.629 201.683 230.878 201.565 231.145 201.539C231.411 201.513 231.679 201.58 231.901 201.728L238.075 205.843L246.686 197.232C246.858 197.06 247.08 196.946 247.32 196.907C247.561 196.868 247.807 196.905 248.025 197.014L252.15 201.533V188.768C252.15 188.152 251.905 187.562 251.47 187.127C251.035 186.691 250.444 186.447 249.829 186.447H226.619Z" fill="#2E382E"/>
</svg>
