<svg width="18" height="18" viewBox="0 0 18 18" fill="none" xmlns="http://www.w3.org/2000/svg">
<path d="M5.34217 1.49912C5.4636 1.25777 5.64973 1.0549 5.87979 0.913134C6.10985 0.771371 6.37479 0.696297 6.64504 0.696289H10.3048C10.5758 0.696298 10.8414 0.771783 11.0719 0.914277C11.3023 1.05677 11.4885 1.26064 11.6096 1.50301L12.1784 2.6402H13.8216C14.4662 2.6402 15.0845 2.8962 15.5404 3.35189C15.9962 3.80758 16.2523 4.42563 16.2523 5.07008V8.7256C15.6993 8.26681 15.0591 7.92464 14.3704 7.71969C13.6816 7.51473 12.9585 7.45123 12.2445 7.53301C12.0131 6.61375 11.4539 5.81059 10.6719 5.27444C9.88987 4.73828 8.93893 4.50604 7.99771 4.62134C7.0565 4.73663 6.1898 5.19154 5.56044 5.90058C4.93108 6.60962 4.5824 7.524 4.57989 8.47192C4.57992 9.33981 4.87032 10.1828 5.40487 10.8667C5.93942 11.5505 6.68741 12.0361 7.52983 12.246C7.41073 13.288 7.60218 14.342 8.08015 15.2756H3.12727C2.4826 15.2756 1.86433 15.0196 1.40848 14.5639C0.952628 14.1082 0.696533 13.4902 0.696533 12.8457V5.07008C0.696533 4.42563 0.952628 3.80758 1.40848 3.35189C1.86433 2.8962 2.4826 2.6402 3.12727 2.6402H4.77046L5.34217 1.49912ZM8.46907 5.55606C9.82348 5.55606 10.962 6.47941 11.2907 7.72934C10.4498 7.98549 9.68482 8.44447 9.06322 9.06585C8.44162 9.68723 7.98247 10.4519 7.72624 11.2925C7.04156 11.1113 6.44621 10.6873 6.05121 10.0996C5.65621 9.51186 5.48854 8.8006 5.57947 8.09843C5.6704 7.39626 6.01371 6.75113 6.54539 6.28334C7.07706 5.81555 7.76079 5.55705 8.46907 5.55606ZM17.2197 12.8457C17.2197 14.0057 16.7588 15.1182 15.9382 15.9384C15.1177 16.7587 14.0048 17.2195 12.8444 17.2195C11.684 17.2195 10.5711 16.7587 9.75058 15.9384C8.93004 15.1182 8.46907 14.0057 8.46907 12.8457C8.46907 11.6857 8.93004 10.5732 9.75058 9.75297C10.5711 8.93272 11.684 8.47192 12.8444 8.47192C14.0048 8.47192 15.1177 8.93272 15.9382 9.75297C16.7588 10.5732 17.2197 11.6857 17.2197 12.8457ZM13.3306 10.9018C13.3306 10.7729 13.2793 10.6493 13.1882 10.5582C13.097 10.467 12.9733 10.4158 12.8444 10.4158C12.7155 10.4158 12.5918 10.467 12.5006 10.5582C12.4095 10.6493 12.3583 10.7729 12.3583 10.9018V12.3597H10.8998C10.7709 12.3597 10.6472 12.4109 10.5561 12.5021C10.4649 12.5932 10.4137 12.7168 10.4137 12.8457C10.4137 12.9746 10.4649 13.0982 10.5561 13.1893C10.6472 13.2805 10.7709 13.3317 10.8998 13.3317H12.3583V14.7896C12.3583 14.9185 12.4095 15.0421 12.5006 15.1333C12.5918 15.2244 12.7155 15.2756 12.8444 15.2756C12.9733 15.2756 13.097 15.2244 13.1882 15.1333C13.2793 15.0421 13.3306 14.9185 13.3306 14.7896V13.3317H14.789C14.9179 13.3317 15.0416 13.2805 15.1328 13.1893C15.2239 13.0982 15.2751 12.9746 15.2751 12.8457C15.2751 12.7168 15.2239 12.5932 15.1328 12.5021C15.0416 12.4109 14.9179 12.3597 14.789 12.3597H13.3306V10.9018Z" fill="#1B8368"/>
</svg>
