<svg width="44" height="29" viewBox="0 0 44 29" fill="none" xmlns="http://www.w3.org/2000/svg">
<rect x="9.72385" y="26.3203" width="17.0167" height="2.43096" fill="white"/>
<path fill-rule="evenodd" clip-rule="evenodd" d="M26.2526 4.48999H0V26.3672H37.6288V20.2417H35.8786V24.6168H1.75017V6.23995H26.2526V4.48999Z" fill="white"/>
<path d="M34.302 9.69796V5.38776H32.1469V9.69796H27.8367V11.8531H32.1469V16.1633H34.302V11.8531H38.6122V9.69796H34.302ZM33.2245 21.551C30.3666 21.551 27.6258 20.4157 25.605 18.3949C23.5842 16.3741 22.449 13.6334 22.449 10.7755C22.449 7.91767 23.5842 5.17687 25.605 3.15607C27.6258 1.13527 30.3666 0 33.2245 0C36.0823 0 38.8231 1.13527 40.8439 3.15607C42.8647 5.17687 44 7.91767 44 10.7755C44 13.6334 42.8647 16.3741 40.8439 18.3949C38.8231 20.4157 36.0823 21.551 33.2245 21.551Z" fill="white"/>
</svg>
