<svg width="18" height="21" viewBox="0 0 18 21" fill="none" xmlns="http://www.w3.org/2000/svg">
<path d="M13.7502 2.30981V0.75C13.7502 0.34 13.4102 0 13.0002 0C12.5902 0 12.2502 0.34 12.2502 0.75V2.25H5.75019V0.75C5.75019 0.34 5.41019 0 5.00019 0C4.59019 0 4.25019 0.34 4.25019 0.75V2.30981C1.55019 2.55981 0.240229 4.16982 0.0402292 6.55982C0.0202292 6.84982 0.260229 7.08984 0.540229 7.08984H17.4602C17.7502 7.08984 17.9902 6.83982 17.9602 6.55982C17.7602 4.16982 16.4502 2.55981 13.7502 2.30981Z" fill="#3D544E"/>
<path d="M17 8.58984H1C0.45 8.58984 0 9.03984 0 9.58984V15.75C0 18.75 1.5 20.75 5 20.75H13C16.5 20.75 18 18.75 18 15.75V9.58984C18 9.03984 17.55 8.58984 17 8.58984ZM6.20996 16.96C6.15996 17 6.11006 17.0498 6.06006 17.0798C6.00006 17.1198 5.93988 17.1499 5.87988 17.1699C5.81988 17.1999 5.75995 17.22 5.69995 17.23C5.62995 17.24 5.57 17.25 5.5 17.25C5.37 17.25 5.24012 17.2199 5.12012 17.1699C4.99012 17.1199 4.89004 17.05 4.79004 16.96C4.61004 16.77 4.5 16.51 4.5 16.25C4.5 15.99 4.61004 15.7298 4.79004 15.5398C4.89004 15.4498 4.99012 15.3798 5.12012 15.3298C5.30012 15.2498 5.49995 15.2298 5.69995 15.2698C5.75995 15.2798 5.81988 15.2998 5.87988 15.3298C5.93988 15.3498 6.00006 15.3799 6.06006 15.4199C6.11006 15.4599 6.15996 15.4998 6.20996 15.5398C6.38996 15.7298 6.5 15.99 6.5 16.25C6.5 16.51 6.38996 16.77 6.20996 16.96ZM6.20996 13.46C6.01996 13.64 5.76 13.75 5.5 13.75C5.24 13.75 4.98004 13.64 4.79004 13.46C4.61004 13.27 4.5 13.01 4.5 12.75C4.5 12.49 4.61004 12.2298 4.79004 12.0398C5.07004 11.7598 5.50988 11.6698 5.87988 11.8298C6.00988 11.8798 6.11996 11.9498 6.20996 12.0398C6.38996 12.2298 6.5 12.49 6.5 12.75C6.5 13.01 6.38996 13.27 6.20996 13.46ZM9.70996 16.96C9.51996 17.14 9.26 17.25 9 17.25C8.74 17.25 8.48004 17.14 8.29004 16.96C8.11004 16.77 8 16.51 8 16.25C8 15.99 8.11004 15.7298 8.29004 15.5398C8.66004 15.1698 9.33996 15.1698 9.70996 15.5398C9.88996 15.7298 10 15.99 10 16.25C10 16.51 9.88996 16.77 9.70996 16.96ZM9.70996 13.46C9.65996 13.5 9.61006 13.5398 9.56006 13.5798C9.50006 13.6198 9.43988 13.6499 9.37988 13.6699C9.31988 13.6999 9.25995 13.72 9.19995 13.73C9.12995 13.74 9.07 13.75 9 13.75C8.74 13.75 8.48004 13.64 8.29004 13.46C8.11004 13.27 8 13.01 8 12.75C8 12.49 8.11004 12.2298 8.29004 12.0398C8.38004 11.9498 8.49012 11.8798 8.62012 11.8298C8.99012 11.6698 9.42996 11.7598 9.70996 12.0398C9.88996 12.2298 10 12.49 10 12.75C10 13.01 9.88996 13.27 9.70996 13.46ZM13.21 16.96C13.02 17.14 12.76 17.25 12.5 17.25C12.24 17.25 11.98 17.14 11.79 16.96C11.61 16.77 11.5 16.51 11.5 16.25C11.5 15.99 11.61 15.7298 11.79 15.5398C12.16 15.1698 12.84 15.1698 13.21 15.5398C13.39 15.7298 13.5 15.99 13.5 16.25C13.5 16.51 13.39 16.77 13.21 16.96ZM13.21 13.46C13.16 13.5 13.1101 13.5398 13.0601 13.5798C13.0001 13.6198 12.9399 13.6499 12.8799 13.6699C12.8199 13.6999 12.76 13.72 12.7 13.73C12.63 13.74 12.56 13.75 12.5 13.75C12.24 13.75 11.98 13.64 11.79 13.46C11.61 13.27 11.5 13.01 11.5 12.75C11.5 12.49 11.61 12.2298 11.79 12.0398C11.89 11.9498 11.9901 11.8798 12.1201 11.8298C12.3001 11.7498 12.5 11.7298 12.7 11.7698C12.76 11.7798 12.8199 11.7998 12.8799 11.8298C12.9399 11.8498 13.0001 11.8799 13.0601 11.9199C13.1101 11.9599 13.16 11.9998 13.21 12.0398C13.39 12.2298 13.5 12.49 13.5 12.75C13.5 13.01 13.39 13.27 13.21 13.46Z" fill="#3D544E"/>
</svg>
