<svg width="50" height="50" viewBox="0 0 50 50" fill="none" xmlns="http://www.w3.org/2000/svg">
<circle cx="25" cy="25" r="25" fill="#1B8368"/>
<path d="M20.1872 14.3724C20.3709 14.0073 20.6525 13.7003 21.0006 13.4858C21.3487 13.2713 21.7495 13.1577 22.1584 13.1577H27.6957C28.1057 13.1577 28.5076 13.2719 28.8563 13.4875C29.205 13.7031 29.4868 14.0116 29.6699 14.3783L30.5305 16.0989H33.0167C33.9921 16.0989 34.9275 16.4862 35.6173 17.1757C36.307 17.8652 36.6945 18.8003 36.6945 19.7754V25.3062C35.8577 24.6121 34.8892 24.0944 33.847 23.7843C32.8049 23.4742 31.7108 23.3781 30.6305 23.5018C30.2804 22.111 29.4343 20.8958 28.2511 20.0846C27.0679 19.2733 25.6291 18.922 24.2051 19.0964C22.781 19.2708 21.4696 19.9591 20.5174 21.0319C19.5652 22.1047 19.0376 23.4882 19.0338 24.9224C19.0339 26.2356 19.4732 27.511 20.282 28.5457C21.0908 29.5805 22.2225 30.3151 23.4971 30.6327C23.3169 32.2093 23.6066 33.8039 24.3298 35.2165H16.836C15.8606 35.2165 14.9251 34.8292 14.2354 34.1397C13.5457 33.4503 13.1582 32.5151 13.1582 31.5401V19.7754C13.1582 18.8003 13.5457 17.8652 14.2354 17.1757C14.9251 16.4862 15.8606 16.0989 16.836 16.0989H19.3221L20.1872 14.3724ZM24.9182 20.5107C26.9675 20.5107 28.6902 21.9077 29.1874 23.7989C27.9151 24.1864 26.7577 24.8809 25.8172 25.8211C24.8767 26.7612 24.182 27.9182 23.7943 29.1901C22.7584 28.9158 21.8576 28.2743 21.26 27.3851C20.6623 26.4959 20.4086 25.4197 20.5462 24.3573C20.6838 23.2949 21.2032 22.3188 22.0077 21.6111C22.8121 20.9033 23.8466 20.5122 24.9182 20.5107ZM38.1582 31.5401C38.1582 33.2952 37.4607 34.9784 36.2193 36.2194C34.9778 37.4605 33.2939 38.1577 31.5382 38.1577C29.7825 38.1577 28.0987 37.4605 26.8572 36.2194C25.6157 34.9784 24.9182 33.2952 24.9182 31.5401C24.9182 29.785 25.6157 28.1017 26.8572 26.8607C28.0987 25.6196 29.7825 24.9224 31.5382 24.9224C33.2939 24.9224 34.9778 25.6196 36.2193 26.8607C37.4607 28.1017 38.1582 29.785 38.1582 31.5401ZM32.2738 28.5989C32.2738 28.4039 32.1963 28.2169 32.0583 28.079C31.9204 27.9411 31.7333 27.8636 31.5382 27.8636C31.3431 27.8636 31.156 27.9411 31.0181 28.079C30.8802 28.2169 30.8027 28.4039 30.8027 28.5989V30.8048H28.596C28.4009 30.8048 28.2138 30.8822 28.0759 31.0201C27.9379 31.158 27.8605 31.3451 27.8605 31.5401C27.8605 31.7351 27.9379 31.9221 28.0759 32.06C28.2138 32.1979 28.4009 32.2754 28.596 32.2754H30.8027V34.4812C30.8027 34.6763 30.8802 34.8633 31.0181 35.0012C31.156 35.1391 31.3431 35.2165 31.5382 35.2165C31.7333 35.2165 31.9204 35.1391 32.0583 35.0012C32.1963 34.8633 32.2738 34.6763 32.2738 34.4812V32.2754H34.4804C34.6755 32.2754 34.8626 32.1979 35.0005 32.06C35.1385 31.9221 35.216 31.7351 35.216 31.5401C35.216 31.3451 35.1385 31.158 35.0005 31.0201C34.8626 30.8822 34.6755 30.8048 34.4804 30.8048H32.2738V28.5989Z" fill="white"/>
</svg>
