<svg width="38" height="25" viewBox="0 0 38 25" fill="none" xmlns="http://www.w3.org/2000/svg">
<path d="M12.125 8C12.2266 8 12.3241 8.05223 12.385 8.13929C13.0898 9.14693 13.9714 9.76936 15.0967 10.5659C15.2023 10.6399 15.31 10.7182 15.4217 10.7966C16.0087 11.2145 16.35 11.9218 16.35 12.6704C16.35 13.2929 16.1205 13.8565 15.7447 14.2679H8.50531C8.13156 13.8544 7.9 13.2907 7.9 12.6704C7.9 11.9218 8.23922 11.2145 8.82828 10.7966C8.93797 10.7182 9.04766 10.6421 9.15328 10.5659C10.2786 9.76936 11.1602 9.14693 11.865 8.13929C11.9259 8.05223 12.0234 8 12.125 8ZM9.85 19.1429V17.5759C9.85 17.2864 9.63266 17.0536 9.3625 17.0536C9.09234 17.0536 8.875 17.2864 8.875 17.5759V19.1429H7.9C7.54047 19.1429 7.25 18.8316 7.25 18.4464V15.6607C7.25 15.2755 7.54047 14.9643 7.9 14.9643H16.35C16.7095 14.9643 17 15.2755 17 15.6607V18.4464C17 18.8316 16.7095 19.1429 16.35 19.1429H15.375V17.5759C15.375 17.2864 15.1577 17.0536 14.8875 17.0536C14.6173 17.0536 14.4 17.2864 14.4 17.5759V19.1429H13.1V17.8806C13.1 17.4671 12.9294 17.0753 12.6328 16.8098L12.125 16.3571L11.6172 16.8098C11.3206 17.0753 11.15 17.4671 11.15 17.8806V19.1429H9.85ZM5.43 8.11317C5.48612 8.06763 5.5546 8.04298 5.625 8.04298C5.6954 8.04298 5.76388 8.06763 5.82 8.11317L6.145 8.37433C6.83969 8.93365 7.25 9.81071 7.25 10.7422V10.7857H4V10.7422C4 9.81071 4.41031 8.93365 5.105 8.37433L5.43 8.11317ZM4 11.4821H7.25V14.455C6.86203 14.6966 6.6 15.1449 6.6 15.6607V18.4464C6.6 18.6554 6.64266 18.8512 6.71781 19.0297C6.58375 19.1037 6.43344 19.1429 6.275 19.1429H4.975C4.43672 19.1429 4 18.6749 4 18.0982V11.4821Z" fill="white"/>
<rect x="8" y="23" width="14" height="2" fill="white"/>
<path fill-rule="evenodd" clip-rule="evenodd" d="M21.5985 5.03955H0V23.0383H30.9579V17.9988H29.518V21.5985H1.4399V6.47953H21.5985V5.03955Z" fill="white"/>
<path d="M23.3698 8.90704L23.4778 6.74599C24.5291 6.78615 25.5262 7.02377 26.4691 7.45885C27.4119 7.89394 28.2422 8.49879 28.9598 9.2734C29.6774 10.048 30.217 10.9264 30.5785 11.9085C30.9401 12.8906 31.0923 13.9067 31.0352 14.9567L28.8987 14.8751C28.9278 14.112 28.8115 13.3731 28.5498 12.6583C28.288 11.9436 27.8966 11.3046 27.3754 10.7412C26.8535 10.1779 26.2461 9.7388 25.5534 9.42399C24.8607 9.10918 24.1328 8.93687 23.3698 8.90704ZM23.5349 4.58299L23.6166 2.4464C25.2451 2.49163 26.7938 2.85221 28.2627 3.52815C29.7316 4.20409 31.0203 5.14061 32.1286 6.33771C33.2377 7.53483 34.0731 8.8915 34.6351 10.4077C35.197 11.9239 35.4384 13.4953 35.3593 15.1218L33.2227 15.0402C33.2739 13.7006 33.0684 12.4064 32.6063 11.1576C32.1442 9.90873 31.4569 8.79139 30.5442 7.80555C29.6309 6.81969 28.5691 6.04891 27.3588 5.49323C26.1485 4.93755 24.8739 4.63414 23.5349 4.58299ZM23.1502 14.6555L23.3004 11.0568C23.7752 11.075 24.2275 11.1836 24.6574 11.3828C25.0872 11.5819 25.4651 11.8573 25.7909 12.2091C26.1171 12.5612 26.3631 12.9591 26.5289 13.4029C26.6946 13.8467 26.7683 14.3058 26.7498 14.7802L23.1502 14.6555Z" fill="white"/>
</svg>
