<svg width="20" height="21" viewBox="0 0 20 21" fill="none" xmlns="http://www.w3.org/2000/svg">
<path d="M9.99984 2.41602C5.40817 2.41602 1.6665 6.15768 1.6665 10.7493C1.6665 15.341 5.40817 19.0827 9.99984 19.0827C14.5915 19.0827 18.3332 15.341 18.3332 10.7493C18.3332 6.15768 14.5915 2.41602 9.99984 2.41602ZM13.6248 13.7243C13.5082 13.9243 13.2998 14.0327 13.0832 14.0327C12.9748 14.0327 12.8665 14.0077 12.7665 13.941L10.1832 12.3993C9.5415 12.016 9.0665 11.1743 9.0665 10.4327V7.01602C9.0665 6.67435 9.34984 6.39102 9.6915 6.39102C10.0332 6.39102 10.3165 6.67435 10.3165 7.01602V10.4327C10.3165 10.7327 10.5665 11.1743 10.8248 11.3243L13.4082 12.866C13.7082 13.041 13.8082 13.4243 13.6248 13.7243Z" fill="#F2C14E"/>
</svg>
