<svg width="12" height="16" viewBox="0 0 12 16" fill="none" xmlns="http://www.w3.org/2000/svg">
<path d="M1.12488 13.7251C1.12488 14.6507 1.85515 15.408 2.7477 15.408H9.23896C10.1315 15.408 10.8618 14.6507 10.8618 13.7251V3.62756H1.12488V13.7251ZM3.69705 8.33132C3.54533 8.17398 3.4601 7.96059 3.4601 7.73809C3.4601 7.51558 3.54533 7.30219 3.69705 7.14486C3.84876 6.98752 4.05453 6.89913 4.26909 6.89913C4.48365 6.89913 4.68942 6.98752 4.84113 7.14486L5.99333 8.33132L7.13741 7.14486C7.28913 6.98752 7.4949 6.89913 7.70946 6.89913C7.92401 6.89913 8.12978 6.98752 8.2815 7.14486C8.43321 7.30219 8.51845 7.51558 8.51845 7.73809C8.51845 7.96059 8.43321 8.17398 8.2815 8.33132L7.13741 9.51777L8.2815 10.7042C8.35662 10.7821 8.41621 10.8746 8.45687 10.9764C8.49752 11.0782 8.51845 11.1873 8.51845 11.2975C8.51845 11.4076 8.49752 11.5167 8.45687 11.6185C8.41621 11.7203 8.35662 11.8128 8.2815 11.8907C8.20638 11.9686 8.11719 12.0304 8.01904 12.0726C7.92089 12.1147 7.81569 12.1364 7.70946 12.1364C7.60322 12.1364 7.49802 12.1147 7.39987 12.0726C7.30172 12.0304 7.21254 11.9686 7.13741 11.8907L5.99333 10.7042L4.84924 11.8907C4.77412 11.9686 4.68494 12.0304 4.58679 12.0726C4.48864 12.1147 4.38344 12.1364 4.2772 12.1364C4.17096 12.1364 4.06577 12.1147 3.96762 12.0726C3.86946 12.0304 3.78028 11.9686 3.70516 11.8907C3.63004 11.8128 3.57045 11.7203 3.52979 11.6185C3.48914 11.5167 3.46821 11.4076 3.46821 11.2975C3.46821 11.1873 3.48914 11.0782 3.52979 10.9764C3.57045 10.8746 3.63004 10.7821 3.70516 10.7042L4.84924 9.51777L3.69705 8.33132ZM10.8618 1.10318H8.83326L8.25716 0.505742C8.1111 0.354279 7.90014 0.261719 7.68917 0.261719H4.29749C4.08652 0.261719 3.87556 0.354279 3.7295 0.505742L3.1534 1.10318H1.12488C0.67861 1.10318 0.313477 1.48184 0.313477 1.94464C0.313477 2.40744 0.67861 2.7861 1.12488 2.7861H10.8618C11.308 2.7861 11.6732 2.40744 11.6732 1.94464C11.6732 1.48184 11.308 1.10318 10.8618 1.10318Z" fill="#FF5050"/>
</svg>
