<svg width="99" height="99" viewBox="0 0 99 99" fill="none" xmlns="http://www.w3.org/2000/svg">
<g filter="url(#filter0_d_2951_700)">
<circle cx="49.4351" cy="47.4351" r="24.4351" fill="white"/>
</g>
<path d="M42.999 55.1273C42.999 56.4961 44.079 57.6161 45.3989 57.6161H54.9984C56.3183 57.6161 57.3982 56.4961 57.3982 55.1273V40.1948H42.999V55.1273ZM46.8028 47.1509C46.5784 46.9182 46.4524 46.6026 46.4524 46.2736C46.4524 45.9445 46.5784 45.629 46.8028 45.3963C47.0272 45.1636 47.3315 45.0329 47.6488 45.0329C47.9661 45.0329 48.2704 45.1636 48.4947 45.3963L50.1986 47.1509L51.8905 45.3963C52.1149 45.1636 52.4192 45.0329 52.7365 45.0329C53.0538 45.0329 53.3581 45.1636 53.5824 45.3963C53.8068 45.629 53.9328 45.9445 53.9328 46.2736C53.9328 46.6026 53.8068 46.9182 53.5824 47.1509L51.8905 48.9054L53.5824 50.66C53.6935 50.7752 53.7817 50.912 53.8418 51.0625C53.9019 51.213 53.9328 51.3744 53.9328 51.5373C53.9328 51.7002 53.9019 51.8616 53.8418 52.0121C53.7817 52.1626 53.6935 52.2994 53.5824 52.4146C53.4714 52.5298 53.3395 52.6212 53.1943 52.6835C53.0492 52.7459 52.8936 52.778 52.7365 52.778C52.5794 52.778 52.4238 52.7459 52.2787 52.6835C52.1335 52.6212 52.0016 52.5298 51.8905 52.4146L50.1986 50.66L48.5067 52.4146C48.3956 52.5298 48.2637 52.6212 48.1186 52.6835C47.9734 52.7459 47.8179 52.778 47.6608 52.778C47.5037 52.778 47.3481 52.7459 47.2029 52.6835C47.0578 52.6212 46.9259 52.5298 46.8148 52.4146C46.7037 52.2994 46.6156 52.1626 46.5555 52.0121C46.4953 51.8616 46.4644 51.7002 46.4644 51.5373C46.4644 51.3744 46.4953 51.213 46.5555 51.0625C46.6156 50.912 46.7037 50.7752 46.8148 50.66L48.5067 48.9054L46.8028 47.1509ZM57.3982 36.4617H54.3984L53.5464 35.5782C53.3305 35.3542 53.0185 35.2173 52.7065 35.2173H47.6908C47.3788 35.2173 47.0668 35.3542 46.8508 35.5782L45.9988 36.4617H42.999C42.339 36.4617 41.7991 37.0216 41.7991 37.706C41.7991 38.3904 42.339 38.9504 42.999 38.9504H57.3982C58.0582 38.9504 58.5982 38.3904 58.5982 37.706C58.5982 37.0216 58.0582 36.4617 57.3982 36.4617Z" fill="#FF5050"/>
<defs>
<filter id="filter0_d_2951_700" x="0" y="0" width="98.8701" height="98.8701" filterUnits="userSpaceOnUse" color-interpolation-filters="sRGB">
<feFlood flood-opacity="0" result="BackgroundImageFix"/>
<feColorMatrix in="SourceAlpha" type="matrix" values="0 0 0 0 0 0 0 0 0 0 0 0 0 0 0 0 0 0 127 0" result="hardAlpha"/>
<feOffset dy="2"/>
<feGaussianBlur stdDeviation="12.5"/>
<feComposite in2="hardAlpha" operator="out"/>
<feColorMatrix type="matrix" values="0 0 0 0 0.441667 0 0 0 0 0.441667 0 0 0 0 0.441667 0 0 0 0.1 0"/>
<feBlend mode="normal" in2="BackgroundImageFix" result="effect1_dropShadow_2951_700"/>
<feBlend mode="normal" in="SourceGraphic" in2="effect1_dropShadow_2951_700" result="shape"/>
</filter>
</defs>
</svg>
