<svg width="86" height="86" viewBox="0 0 86 86" fill="none" xmlns="http://www.w3.org/2000/svg">
<g filter="url(#filter0_d_454_510)">
<circle cx="42.8701" cy="40.8701" r="17.8701" fill="white"/>
</g>
<path d="M38.1632 46.4959C38.1632 47.497 38.953 48.316 39.9183 48.316H46.9387C47.904 48.316 48.6938 47.497 48.6938 46.4959V35.5753H38.1632V46.4959ZM40.945 40.6625C40.7809 40.4923 40.6888 40.2615 40.6888 40.0209C40.6888 39.7802 40.7809 39.5495 40.945 39.3793C41.1091 39.2091 41.3317 39.1135 41.5637 39.1135C41.7958 39.1135 42.0183 39.2091 42.1824 39.3793L43.4285 40.6625L44.6658 39.3793C44.8299 39.2091 45.0525 39.1135 45.2845 39.1135C45.5166 39.1135 45.7391 39.2091 45.9032 39.3793C46.0673 39.5495 46.1595 39.7802 46.1595 40.0209C46.1595 40.2615 46.0673 40.4923 45.9032 40.6625L44.6658 41.9456L45.9032 43.2288C45.9844 43.3131 46.0489 43.4131 46.0929 43.5232C46.1368 43.6333 46.1595 43.7512 46.1595 43.8704C46.1595 43.9896 46.1368 44.1075 46.0929 44.2176C46.0489 44.3277 45.9844 44.4277 45.9032 44.512C45.8219 44.5962 45.7255 44.6631 45.6193 44.7087C45.5132 44.7543 45.3994 44.7777 45.2845 44.7777C45.1696 44.7777 45.0559 44.7543 44.9497 44.7087C44.8435 44.6631 44.7471 44.5962 44.6658 44.512L43.4285 43.2288L42.1912 44.512C42.1099 44.5962 42.0135 44.6631 41.9073 44.7087C41.8012 44.7543 41.6874 44.7777 41.5725 44.7777C41.4576 44.7777 41.3438 44.7543 41.2377 44.7087C41.1315 44.6631 41.0351 44.5962 40.9538 44.512C40.8726 44.4277 40.8081 44.3277 40.7641 44.2176C40.7202 44.1075 40.6975 43.9896 40.6975 43.8704C40.6975 43.7512 40.7202 43.6333 40.7641 43.5232C40.8081 43.4131 40.8726 43.3131 40.9538 43.2288L42.1912 41.9456L40.945 40.6625ZM48.6938 32.8451H46.4999L45.8769 32.199C45.7189 32.0352 45.4907 31.9351 45.2626 31.9351H41.5944C41.3663 31.9351 41.1381 32.0352 40.9801 32.199L40.3571 32.8451H38.1632C37.6805 32.8451 37.2856 33.2546 37.2856 33.7552C37.2856 34.2557 37.6805 34.6652 38.1632 34.6652H48.6938C49.1765 34.6652 49.5714 34.2557 49.5714 33.7552C49.5714 33.2546 49.1765 32.8451 48.6938 32.8451Z" fill="#FF5050"/>
<defs>
<filter id="filter0_d_454_510" x="0" y="0" width="85.7402" height="85.7402" filterUnits="userSpaceOnUse" color-interpolation-filters="sRGB">
<feFlood flood-opacity="0" result="BackgroundImageFix"/>
<feColorMatrix in="SourceAlpha" type="matrix" values="0 0 0 0 0 0 0 0 0 0 0 0 0 0 0 0 0 0 127 0" result="hardAlpha"/>
<feOffset dy="2"/>
<feGaussianBlur stdDeviation="12.5"/>
<feComposite in2="hardAlpha" operator="out"/>
<feColorMatrix type="matrix" values="0 0 0 0 0.441667 0 0 0 0 0.441667 0 0 0 0 0.441667 0 0 0 0.1 0"/>
<feBlend mode="normal" in2="BackgroundImageFix" result="effect1_dropShadow_454_510"/>
<feBlend mode="normal" in="SourceGraphic" in2="effect1_dropShadow_454_510" result="shape"/>
</filter>
</defs>
</svg>
