<svg width="32" height="36" viewBox="0 0 32 36" fill="none" xmlns="http://www.w3.org/2000/svg">
<path d="M22.0006 3.69615V1.20002C22.0006 0.544008 21.4566 0 20.8006 0C20.1446 0 19.6006 0.544008 19.6006 1.20002V3.60005H9.20044V1.20002C9.20044 0.544008 8.65644 0 8.00043 0C7.34442 0 6.80041 0.544008 6.80041 1.20002V3.69615C2.48034 4.09616 0.384372 6.67219 0.0643667 10.4963C0.0323662 10.9603 0.416372 11.3443 0.864379 11.3443H27.9367C28.4007 11.3443 28.7847 10.9443 28.7367 10.4963C28.4167 6.67219 26.3207 4.09616 22.0006 3.69615Z" fill="#FF7272"/>
<path d="M27.2004 13.7437H1.60002C0.720011 13.7437 0 14.4637 0 15.3437V25.1997C0 29.9998 2.40004 33.1998 8.00012 33.1998H15.8881C16.9921 33.1998 17.7601 32.1277 17.4081 31.0877C17.0881 30.1597 16.8163 29.1357 16.8163 28.3997C16.8163 23.5517 20.7683 19.5996 25.6164 19.5996C26.0804 19.5996 26.5446 19.6317 26.9926 19.7117C27.9526 19.8557 28.8165 19.1037 28.8165 18.1437V15.3597C28.8005 14.4637 28.0804 13.7437 27.2004 13.7437ZM9.93609 27.1357C9.63208 27.4237 9.21614 27.5997 8.80013 27.5997C8.38413 27.5997 7.96818 27.4237 7.66418 27.1357C7.37617 26.8316 7.20011 26.4157 7.20011 25.9997C7.20011 25.5837 7.37617 25.1677 7.66418 24.8637C7.82418 24.7197 7.98431 24.6078 8.19231 24.5278C8.78432 24.2718 9.48808 24.4157 9.93609 24.8637C10.2241 25.1677 10.4002 25.5837 10.4002 25.9997C10.4002 26.4157 10.2241 26.8316 9.93609 27.1357ZM9.93609 21.5356C9.85609 21.5996 9.77624 21.6638 9.69624 21.7278C9.60024 21.7918 9.50396 21.8395 9.40796 21.8715C9.31195 21.9195 9.21606 21.9516 9.12006 21.9676C9.00806 21.9836 8.89614 21.9996 8.80013 21.9996C8.38413 21.9996 7.96818 21.8236 7.66418 21.5356C7.37617 21.2316 7.20011 20.8156 7.20011 20.3996C7.20011 19.9836 7.37617 19.5677 7.66418 19.2637C8.03218 18.8957 8.59205 18.7196 9.12006 18.8316C9.21606 18.8476 9.31195 18.8797 9.40796 18.9277C9.50396 18.9597 9.60024 19.0075 9.69624 19.0715C9.77624 19.1355 9.85609 19.1997 9.93609 19.2637C10.2241 19.5677 10.4002 19.9836 10.4002 20.3996C10.4002 20.8156 10.2241 21.2316 9.93609 21.5356ZM15.5362 21.5356C15.2322 21.8236 14.8162 21.9996 14.4002 21.9996C13.9842 21.9996 13.5683 21.8236 13.2643 21.5356C12.9763 21.2316 12.8002 20.8156 12.8002 20.3996C12.8002 19.9836 12.9763 19.5677 13.2643 19.2637C13.8723 18.6716 14.9442 18.6716 15.5362 19.2637C15.8242 19.5677 16.0002 19.9836 16.0002 20.3996C16.0002 20.8156 15.8242 21.2316 15.5362 21.5356Z" fill="#FF7272"/>
<path d="M25.1429 22.1719C21.3508 22.1719 18.2856 25.2371 18.2856 29.0291C18.2856 32.8212 21.3508 35.8864 25.1429 35.8864C28.9349 35.8864 32.0001 32.8212 32.0001 29.0291C32.0001 25.2371 28.9349 22.1719 25.1429 22.1719ZM28.0915 31.9777C28.0281 32.0413 27.9527 32.0917 27.8698 32.1261C27.7868 32.1606 27.6979 32.1783 27.6081 32.1783C27.5183 32.1783 27.4293 32.1606 27.3464 32.1261C27.2634 32.0917 27.1881 32.0413 27.1246 31.9777L25.1429 29.996L23.1611 31.9777C23.0329 32.106 22.859 32.178 22.6777 32.178C22.4964 32.178 22.3225 32.106 22.1943 31.9777C22.0661 31.8495 21.994 31.6756 21.994 31.4943C21.994 31.4045 22.0117 31.3156 22.0461 31.2327C22.0804 31.1497 22.1308 31.0744 22.1943 31.0109L24.176 29.0291L22.1943 27.0474C22.0661 26.9192 21.994 26.7453 21.994 26.5639C21.994 26.3826 22.0661 26.2087 22.1943 26.0805C22.3225 25.9523 22.4964 25.8803 22.6777 25.8803C22.859 25.8803 23.0329 25.9523 23.1611 26.0805L25.1429 28.0622L27.1246 26.0805C27.1881 26.017 27.2635 25.9667 27.3464 25.9323C27.4294 25.8979 27.5183 25.8803 27.6081 25.8803C27.6979 25.8803 27.7868 25.8979 27.8697 25.9323C27.9527 25.9667 28.028 26.017 28.0915 26.0805C28.155 26.144 28.2054 26.2194 28.2397 26.3023C28.2741 26.3853 28.2918 26.4742 28.2918 26.5639C28.2918 26.6537 28.2741 26.7426 28.2397 26.8256C28.2054 26.9085 28.155 26.9839 28.0915 27.0474L26.1098 29.0291L28.0915 31.0109C28.3521 31.2714 28.3521 31.7103 28.0915 31.9777Z" fill="#FF7272"/>
</svg>
