<svg width="68" height="68" viewBox="0 0 68 68" fill="none" xmlns="http://www.w3.org/2000/svg">
<g clip-path="url(#clip0_58_2052)">
<path d="M49.8666 49.8666H45.3333V45.3333H49.8666V49.8666ZM36.2666 49.8666H40.7999V45.3333H36.2666V49.8666ZM58.9333 49.8666H54.3999V45.3333H58.9333V49.8666Z" fill="#FFB625"/>
<path fill-rule="evenodd" clip-rule="evenodd" d="M13.6 27.2V15.8667C13.6 13.783 14.0104 11.7198 14.8078 9.79476C15.6052 7.86972 16.7739 6.1206 18.2472 4.64724C19.7206 3.17388 21.4697 2.00515 23.3948 1.20778C25.3198 0.410403 27.383 0 29.4667 0C31.5503 0 33.6135 0.410403 35.5386 1.20778C37.4636 2.00515 39.2127 3.17388 40.6861 4.64724C42.1595 6.1206 43.3282 7.86972 44.1256 9.79476C44.9229 11.7198 45.3333 13.783 45.3333 15.8667V27.2H52.1333C53.9368 27.2 55.6664 27.9164 56.9417 29.1917C58.2169 30.4669 58.9333 32.1965 58.9333 34V36.4933C61.4953 37.0136 63.7987 38.4035 65.4531 40.4277C67.1076 42.4518 68.0114 44.9857 68.0114 47.6C68.0114 50.2143 67.1076 52.7482 65.4531 54.7723C63.7987 56.7965 61.4953 58.1864 58.9333 58.7067V61.2C58.9333 63.0035 58.2169 64.7331 56.9417 66.0083C55.6664 67.2836 53.9368 68 52.1333 68H6.8C4.99653 68 3.26692 67.2836 1.99167 66.0083C0.716426 64.7331 0 63.0035 0 61.2L0 34C0 32.1965 0.716426 30.4669 1.99167 29.1917C3.26692 27.9164 4.99653 27.2 6.8 27.2H13.6ZM18.1333 15.8667C18.1333 12.8609 19.3274 9.9782 21.4528 7.85279C23.5782 5.72738 26.4609 4.53333 29.4667 4.53333C32.4725 4.53333 35.3551 5.72738 37.4805 7.85279C39.606 9.9782 40.8 12.8609 40.8 15.8667V27.2H18.1333V15.8667ZM38.5333 40.8C36.7299 40.8 35.0003 41.5164 33.725 42.7917C32.4498 44.0669 31.7333 45.7965 31.7333 47.6C31.7333 49.4035 32.4498 51.1331 33.725 52.4083C35.0003 53.6836 36.7299 54.4 38.5333 54.4H56.6667C58.4701 54.4 60.1997 53.6836 61.475 52.4083C62.7502 51.1331 63.4667 49.4035 63.4667 47.6C63.4667 45.7965 62.7502 44.0669 61.475 42.7917C60.1997 41.5164 58.4701 40.8 56.6667 40.8H38.5333Z" fill="#1D785A"/>
</g>
<defs>
<clipPath id="clip0_58_2052">
<rect width="68" height="68" fill="white"/>
</clipPath>
</defs>
</svg>
