<svg width="68" height="53" viewBox="0 0 68 53" fill="none" xmlns="http://www.w3.org/2000/svg">
<path d="M33.4025 0C33.82 0 34.2208 0.198327 34.4713 0.528872C37.369 4.35493 40.9932 6.71833 45.6194 9.74282C46.0536 10.0238 46.4962 10.3213 46.9555 10.6188C49.3688 12.2054 50.7717 14.8911 50.7717 17.7337C50.7717 20.0971 49.8281 22.2374 48.2833 23.7992H18.5217C16.9852 22.2292 16.0332 20.0889 16.0332 17.7337C16.0332 14.8911 17.4277 12.2054 19.8494 10.6188C20.3003 10.3213 20.7513 10.032 21.1855 9.74282C25.8118 6.71833 29.4359 4.35493 32.3336 0.528872C32.5841 0.198327 32.9849 0 33.4025 0ZM24.0498 42.3098V36.36C24.0498 35.2609 23.1563 34.3767 22.0456 34.3767C20.935 34.3767 20.0415 35.2609 20.0415 36.36V42.3098H16.0332C14.5551 42.3098 13.361 41.1281 13.361 39.6654V29.088C13.361 27.6253 14.5551 26.4436 16.0332 26.4436H50.7717C52.2498 26.4436 53.4439 27.6253 53.4439 29.088V39.6654C53.4439 41.1281 52.2498 42.3098 50.7717 42.3098H46.7634V36.36C46.7634 35.2609 45.8699 34.3767 44.7593 34.3767C43.6487 34.3767 42.7551 35.2609 42.7551 36.36V42.3098H37.4108V37.5169C37.4108 35.9468 36.7093 34.4593 35.4901 33.4512L33.4025 31.7323L31.3148 33.4512C30.0956 34.4593 29.3942 35.9468 29.3942 37.5169V42.3098H24.0498ZM5.87883 0.429709C6.10956 0.256778 6.39106 0.163188 6.68049 0.163188C6.96992 0.163188 7.25143 0.256778 7.48215 0.429709L8.81825 1.42134C11.6742 3.5451 13.361 6.87534 13.361 10.4122V10.5774H0V10.4122C0 6.87534 1.68682 3.5451 4.54273 1.42134L5.87883 0.429709ZM0 13.2218H13.361V24.5099C11.766 25.4272 10.6888 27.1295 10.6888 29.088V39.6654C10.6888 40.4587 10.8642 41.2024 11.1731 41.8801C10.622 42.161 10.004 42.3098 9.35269 42.3098H4.0083C1.79538 42.3098 0 40.5331 0 38.3432V13.2218Z" fill="#2E382E"/>
<ellipse cx="49.1108" cy="33.3388" rx="18.8891" ry="18.8891" fill="#E5FFF1"/>
<path d="M45.4082 35.4955C46.0035 35.4955 46.5745 35.259 46.9955 34.838C47.4165 34.4171 47.653 33.8461 47.653 33.2507C47.653 32.6553 47.4165 32.0843 46.9955 31.6634C46.5745 31.2424 46.0035 31.0059 45.4082 31.0059C44.8128 31.0059 44.2418 31.2424 43.8208 31.6634C43.3998 32.0843 43.1633 32.6553 43.1633 33.2507C43.1633 33.8461 43.3998 34.4171 43.8208 34.838C44.2418 35.259 44.8128 35.4955 45.4082 35.4955Z" fill="#2E382E"/>
<path d="M59.6247 41.4827C59.6247 42.2765 59.3094 43.0378 58.748 43.5991C58.1867 44.1604 57.4254 44.4758 56.6316 44.4758H41.666C40.8721 44.4758 40.1108 44.1604 39.5495 43.5991C38.9882 43.0378 38.6729 42.2765 38.6729 41.4827V29.5102C38.6729 28.7169 38.9878 27.956 39.5485 27.3948C40.1091 26.8335 40.8697 26.5178 41.663 26.517C41.663 25.7232 41.9783 24.9619 42.5396 24.4006C43.101 23.8393 43.8623 23.5239 44.6561 23.5239H59.6217C60.4155 23.5239 61.1769 23.8393 61.7382 24.4006C62.2995 24.9619 62.6148 25.7232 62.6148 26.517V38.4895C62.6148 39.2828 62.2999 40.0437 61.7392 40.6049C61.1786 41.1662 60.418 41.4819 59.6247 41.4827ZM59.6217 25.0205H44.6561C44.2592 25.0205 43.8785 25.1782 43.5979 25.4588C43.3172 25.7395 43.1595 26.1201 43.1595 26.517H56.6316C57.4254 26.517 58.1867 26.8324 58.748 27.3937C59.3094 27.955 59.6247 28.7163 59.6247 29.5102V39.9861C60.0211 39.9853 60.401 39.8273 60.681 39.5467C60.961 39.2661 61.1183 38.8859 61.1183 38.4895V26.517C61.1183 26.1201 60.9606 25.7395 60.6799 25.4588C60.3993 25.1782 60.0186 25.0205 59.6217 25.0205ZM41.666 28.0136C41.2691 28.0136 40.8884 28.1713 40.6077 28.4519C40.3271 28.7326 40.1694 29.1133 40.1694 29.5102V41.4827L44.1293 37.9598C44.2516 37.8379 44.4123 37.7621 44.5842 37.7451C44.756 37.7282 44.9284 37.7713 45.0721 37.867L49.053 40.5204L54.6052 34.9681C54.7162 34.857 54.8593 34.7837 55.0143 34.7584C55.1693 34.7332 55.3283 34.7573 55.4688 34.8275L58.1281 37.7413V29.5102C58.1281 29.1133 57.9705 28.7326 57.6898 28.4519C57.4092 28.1713 57.0285 28.0136 56.6316 28.0136H41.666Z" fill="#2E382E"/>
</svg>
