<svg width="146" height="99" viewBox="0 0 146 99" fill="none" xmlns="http://www.w3.org/2000/svg">
<g clip-path="url(#clip0_1_3269)">
<path d="M110.649 8.9382L106.189 7.8415L104.945 12.9882C103.809 12.3986 102.607 11.8488 101.389 11.369L98.5615 18.4675C100.135 19.0886 101.625 19.8196 103.091 20.6557L101.203 28.4632C99.482 27.3059 97.6483 26.3067 95.7337 25.5659L92.9058 32.6644C95.202 33.5901 97.3482 34.9057 99.2481 36.5508L97.1332 45.4522C95.3218 42.8279 92.8474 40.877 90.078 39.7628L84.4223 53.9597L94.7959 54.9668L92.0413 66.4373L96.4962 67.4772M123.55 30.0674C120.697 25.3937 117.149 21.4419 113.128 18.2276L111.083 26.6086C113.363 28.8273 115.33 31.267 117.029 34.0494C121.516 41.3968 123.244 49.6524 122.454 57.5955L130.06 58.3227C130.978 48.7798 128.939 38.8929 123.55 30.0674ZM110.508 38.0315C110.003 37.2055 109.512 36.4012 108.912 35.6632L106.191 46.8451C107.201 49.8688 107.541 53.0637 107.241 56.1412L114.848 56.8684C115.475 50.5165 114.092 43.9007 110.508 38.0315Z" fill="#1D785A"/>
</g>
<path d="M49.4355 29.6663C49.8495 29.6663 50.2471 29.8792 50.4955 30.2341C53.3693 34.3425 56.9635 36.8802 61.5516 40.1278C61.9823 40.4295 62.4212 40.749 62.8767 41.0684C65.2701 42.7721 66.6614 45.6559 66.6614 48.7083C66.6614 51.246 65.7256 53.5442 64.1935 55.2213H34.6774C33.1536 53.5353 32.2095 51.2372 32.2095 48.7083C32.2095 45.6559 33.5925 42.7721 35.9942 41.0684C36.4414 40.749 36.8887 40.4384 37.3193 40.1278C41.9074 36.8802 45.5016 34.3425 48.3754 30.2341C48.6238 29.8792 49.0214 29.6663 49.4355 29.6663ZM40.1599 75.0974V68.7086C40.1599 67.5285 39.2738 66.579 38.1723 66.579C37.0709 66.579 36.1847 67.5285 36.1847 68.7086V75.0974H32.2095C30.7436 75.0974 29.5593 73.8285 29.5593 72.2579V60.9002C29.5593 59.3296 30.7436 58.0607 32.2095 58.0607H66.6614C68.1273 58.0607 69.3116 59.3296 69.3116 60.9002V72.2579C69.3116 73.8285 68.1273 75.0974 66.6614 75.0974H62.6862V68.7086C62.6862 67.5285 61.8001 66.579 60.6986 66.579C59.5971 66.579 58.711 67.5285 58.711 68.7086V75.0974H53.4107V69.9509C53.4107 68.265 52.715 66.6678 51.5059 65.5852L49.4355 63.7396L47.365 65.5852C46.1559 66.6678 45.4602 68.265 45.4602 69.9509V75.0974H40.1599ZM22.1389 30.1277C22.3677 29.942 22.6469 29.8415 22.934 29.8415C23.221 29.8415 23.5002 29.942 23.729 30.1277L25.0541 31.1925C27.8864 33.4729 29.5593 37.0488 29.5593 40.8466V41.024H16.3086V40.8466C16.3086 37.0488 17.9815 33.4729 20.8138 31.1925L22.1389 30.1277ZM16.3086 43.8635H29.5593V55.9844C27.9775 56.9693 26.9092 58.7972 26.9092 60.9002V72.2579C26.9092 73.1098 27.0831 73.9084 27.3895 74.636C26.8429 74.9377 26.2301 75.0974 25.5841 75.0974H20.2838C18.0892 75.0974 16.3086 73.1896 16.3086 70.8382V43.8635Z" fill="#1D785A"/>
<rect x="32.6172" y="90.8232" width="57.0801" height="8.1543" fill="#1D785A"/>
<path fill-rule="evenodd" clip-rule="evenodd" d="M88.0606 17.5959H0V90.9797H126.22V70.4329H120.349V85.1092H5.87071V23.4668H88.0606V17.5959Z" fill="#1D785A"/>
<defs>
<clipPath id="clip0_1_3269">
<rect width="61.1279" height="61.1279" fill="white" transform="translate(114.143) rotate(58.5909)"/>
</clipPath>
</defs>
</svg>
