<svg width="175" height="116" viewBox="0 0 175 116" fill="none" xmlns="http://www.w3.org/2000/svg">
<g filter="url(#filter0_d_1_2671)">
<rect x="46.4602" y="98.5007" width="64.1013" height="9.15733" fill="#B3B3B3"/>
<path fill-rule="evenodd" clip-rule="evenodd" d="M108.723 16.2661H9.8309V98.6766H151.577V75.6023H144.984V92.0836H16.4237V22.8588H108.723V16.2661Z" fill="#B3B3B3"/>
<g clip-path="url(#clip0_1_2671)">
<path d="M151.867 0H123.402C120.047 0 117.302 2.74488 117.302 6.09973V58.964C117.302 62.3189 120.047 65.0637 123.402 65.0637H151.867C155.222 65.0637 157.967 62.3189 157.967 58.964V6.09973C157.967 2.74488 155.222 0 151.867 0ZM129.502 3.04986H145.768V5.0831H129.502V3.04986ZM137.635 60.9973C136.556 60.9973 135.522 60.5688 134.759 59.8062C133.997 59.0436 133.568 58.0093 133.568 56.9308C133.568 55.8523 133.997 54.8179 134.759 54.0553C135.522 53.2927 136.556 52.8643 137.635 52.8643C138.713 52.8643 139.748 53.2927 140.51 54.0553C141.273 54.8179 141.701 55.8523 141.701 56.9308C141.701 58.0093 141.273 59.0436 140.51 59.8062C139.748 60.5688 138.713 60.9973 137.635 60.9973ZM153.901 48.7978H121.369V8.13297H153.901V48.7978Z" fill="#B3B3B3"/>
<path d="M131.435 30.7436L129.131 28.2946C130.264 27.1176 131.563 26.2158 133.026 25.5893C134.489 24.9629 136.025 24.6496 137.635 24.6496C139.244 24.6496 140.785 24.9678 142.258 25.6042C143.73 26.2405 145.024 27.1563 146.139 28.3516L143.834 30.7436C143.011 29.8893 142.065 29.2298 140.995 28.7651C139.924 28.3003 138.804 28.0676 137.635 28.0668C136.464 28.0668 135.344 28.2996 134.275 28.7651C133.205 29.2306 132.259 29.8901 131.435 30.7436ZM126.771 25.9026L124.467 23.5105C126.204 21.669 128.212 20.2593 130.489 19.2812C132.766 18.3031 135.148 17.8144 137.635 17.8152C140.122 17.8152 142.504 18.3042 144.781 19.2823C147.059 20.2604 149.066 21.6698 150.802 23.5105L148.498 25.9026C147.053 24.4028 145.393 23.2497 143.518 22.4432C141.643 21.6368 139.682 21.2332 137.635 21.2324C135.586 21.2324 133.625 21.636 131.75 22.4432C129.875 23.2505 128.215 24.4036 126.771 25.9026ZM137.635 37.1794L133.767 33.1357C134.279 32.6041 134.869 32.196 135.537 31.9112C136.205 31.6264 136.904 31.484 137.635 31.484C138.366 31.484 139.066 31.6264 139.734 31.9112C140.402 32.196 140.991 32.6041 141.503 33.1357L137.635 37.1794Z" fill="#B3B3B3"/>
</g>
<path d="M23.6781 63.6912L23.7732 55.6106C27.7026 55.6106 31.4577 56.3553 35.0385 57.8447C38.6193 59.334 41.804 61.473 44.5926 64.2616C47.3812 67.0502 49.5202 70.2514 51.0096 73.8652C52.499 77.479 53.212 81.2493 53.1486 85.1761L45.163 85.1761C45.163 82.3242 44.6237 79.5831 43.545 76.9529C42.4663 74.3228 40.9142 71.9936 38.8887 69.9656C36.8606 67.9375 34.5315 66.3854 31.9013 65.3092C29.2712 64.2331 26.5301 63.6937 23.6781 63.6912ZM23.6781 47.53L23.6781 39.5444C29.7623 39.4811 35.5937 40.606 41.1722 42.9193C46.7506 45.2326 51.6934 48.544 56.0006 52.8537C60.3102 57.1633 63.6217 62.1074 65.935 67.6859C68.2482 73.2644 69.3732 79.0944 69.3098 85.1761L61.3243 85.1761C61.3243 80.1693 60.373 75.3685 58.4704 70.7736C56.5678 66.1788 53.8432 62.1068 50.2966 58.5576C46.7475 55.0085 42.6748 52.2833 38.0787 50.382C33.4826 48.4806 28.6824 47.53 23.6781 47.53ZM23.6781 85.1761L23.7257 71.7243C25.5002 71.7243 27.2038 72.0653 28.8364 72.7472C30.469 73.4291 31.9184 74.4032 33.1847 75.6695C34.4523 76.9371 35.427 78.3872 36.109 80.0198C36.7909 81.6524 37.1312 83.3553 37.13 85.1286L23.6781 85.1761Z" fill="#B3B3B3"/>
</g>
<defs>
<filter id="filter0_d_1_2671" x="5.8309" y="0" width="168.336" height="115.658" filterUnits="userSpaceOnUse" color-interpolation-filters="sRGB">
<feFlood flood-opacity="0" result="BackgroundImageFix"/>
<feColorMatrix in="SourceAlpha" type="matrix" values="0 0 0 0 0 0 0 0 0 0 0 0 0 0 0 0 0 0 127 0" result="hardAlpha"/>
<feOffset dy="4"/>
<feGaussianBlur stdDeviation="2"/>
<feComposite in2="hardAlpha" operator="out"/>
<feColorMatrix type="matrix" values="0 0 0 0 0 0 0 0 0 0 0 0 0 0 0 0 0 0 0.25 0"/>
<feBlend mode="normal" in2="BackgroundImageFix" result="effect1_dropShadow_1_2671"/>
<feBlend mode="normal" in="SourceGraphic" in2="effect1_dropShadow_1_2671" result="shape"/>
</filter>
<clipPath id="clip0_1_2671">
<rect width="65.0637" height="65.0637" fill="white" transform="translate(105.103)"/>
</clipPath>
</defs>
</svg>
