<svg width="23" height="26" viewBox="0 0 23 26" fill="none" xmlns="http://www.w3.org/2000/svg">
<path d="M17.0741 2.80237V0.909836C17.0741 0.412459 16.6616 0 16.1643 0C15.6669 0 15.2544 0.412459 15.2544 0.909836V2.72951H7.36917V0.909836C7.36917 0.412459 6.95671 0 6.45934 0C5.96196 0 5.5495 0.412459 5.5495 0.909836V2.80237C2.27409 3.10565 0.684956 5.05876 0.442333 7.9581C0.418071 8.30991 0.709219 8.60094 1.04889 8.60094H21.5747C21.9265 8.60094 22.2176 8.29778 22.1813 7.9581C21.9386 5.05876 20.3495 3.10565 17.0741 2.80237Z" fill="#F2C14E"/>
<path d="M21.0165 10.4205H1.60667C0.939456 10.4205 0.393555 10.9664 0.393555 11.6336V19.1065C0.393555 22.7458 2.21323 25.172 6.45913 25.172H16.164C20.4099 25.172 22.2296 22.7458 22.2296 19.1065V11.6336C22.2296 10.9664 21.6837 10.4205 21.0165 10.4205ZM7.92695 20.5743C7.86629 20.6228 7.80576 20.6835 7.7451 20.7199C7.67231 20.7684 7.59931 20.8049 7.52653 20.8292C7.45374 20.8655 7.38104 20.8897 7.30825 20.9019C7.22333 20.914 7.1506 20.9261 7.06569 20.9261C6.90798 20.9261 6.75042 20.8898 6.60484 20.8292C6.44714 20.7685 6.32573 20.6835 6.20442 20.5743C5.98606 20.3438 5.85257 20.0284 5.85257 19.713C5.85257 19.3976 5.98606 19.0823 6.20442 18.8518C6.32573 18.7426 6.44714 18.6576 6.60484 18.5969C6.8232 18.4999 7.06563 18.4757 7.30825 18.5242C7.38104 18.5363 7.45374 18.5605 7.52653 18.5969C7.59931 18.6212 7.67231 18.6577 7.7451 18.7062C7.80576 18.7547 7.86629 18.8032 7.92695 18.8518C8.14531 19.0823 8.2788 19.3976 8.2788 19.713C8.2788 20.0284 8.14531 20.3438 7.92695 20.5743ZM7.92695 16.3284C7.69646 16.5468 7.3811 16.6802 7.06569 16.6802C6.75028 16.6802 6.43491 16.5468 6.20442 16.3284C5.98606 16.0979 5.85257 15.7825 5.85257 15.4671C5.85257 15.1517 5.98606 14.8364 6.20442 14.6059C6.54409 14.2662 7.07767 14.1569 7.52653 14.351C7.68423 14.4117 7.81777 14.4967 7.92695 14.6059C8.14531 14.8364 8.2788 15.1517 8.2788 15.4671C8.2788 15.7825 8.14531 16.0979 7.92695 16.3284ZM12.1729 20.5743C11.9424 20.7927 11.627 20.9261 11.3116 20.9261C10.9962 20.9261 10.6808 20.7927 10.4503 20.5743C10.232 20.3438 10.0985 20.0284 10.0985 19.713C10.0985 19.3976 10.232 19.0823 10.4503 18.8518C10.8992 18.4029 11.724 18.4029 12.1729 18.8518C12.3912 19.0823 12.5247 19.3976 12.5247 19.713C12.5247 20.0284 12.3912 20.3438 12.1729 20.5743ZM12.1729 16.3284C12.1122 16.3769 12.0517 16.4254 11.991 16.474C11.9182 16.5225 11.8452 16.559 11.7724 16.5833C11.6996 16.6196 11.6269 16.6438 11.5542 16.656C11.4692 16.6681 11.3965 16.6802 11.3116 16.6802C10.9962 16.6802 10.6808 16.5468 10.4503 16.3284C10.232 16.0979 10.0985 15.7825 10.0985 15.4671C10.0985 15.1517 10.232 14.8364 10.4503 14.6059C10.5595 14.4967 10.693 14.4117 10.8507 14.351C11.2996 14.1569 11.8332 14.2662 12.1729 14.6059C12.3912 14.8364 12.5247 15.1517 12.5247 15.4671C12.5247 15.7825 12.3912 16.0979 12.1729 16.3284ZM16.4188 20.5743C16.1883 20.7927 15.8729 20.9261 15.5575 20.9261C15.2421 20.9261 14.9267 20.7927 14.6962 20.5743C14.4779 20.3438 14.3444 20.0284 14.3444 19.713C14.3444 19.3976 14.4779 19.0823 14.6962 18.8518C15.1451 18.4029 15.9699 18.4029 16.4188 18.8518C16.6371 19.0823 16.7706 19.3976 16.7706 19.713C16.7706 20.0284 16.6371 20.3438 16.4188 20.5743ZM16.4188 16.3284C16.3581 16.3769 16.2976 16.4254 16.2369 16.474C16.1641 16.5225 16.0911 16.559 16.0183 16.5833C15.9455 16.6196 15.8728 16.6438 15.8001 16.656C15.7151 16.6681 15.6303 16.6802 15.5575 16.6802C15.2421 16.6802 14.9267 16.5468 14.6962 16.3284C14.4779 16.0979 14.3444 15.7825 14.3444 15.4671C14.3444 15.1517 14.4779 14.8364 14.6962 14.6059C14.8175 14.4967 14.9389 14.4117 15.0966 14.351C15.315 14.254 15.5574 14.2298 15.8001 14.2783C15.8728 14.2904 15.9455 14.3146 16.0183 14.351C16.0911 14.3753 16.1641 14.4118 16.2369 14.4603C16.2976 14.5088 16.3581 14.5573 16.4188 14.6059C16.6371 14.8364 16.7706 15.1517 16.7706 15.4671C16.7706 15.7825 16.6371 16.0979 16.4188 16.3284Z" fill="#F2C14E"/>
</svg>
