<svg width="75" height="62" viewBox="0 0 75 62" fill="none" xmlns="http://www.w3.org/2000/svg">
<path d="M71.1318 29.8082V11.1605C71.1318 9.18223 70.3459 7.28498 68.947 5.88613C67.5482 4.48728 65.6509 3.70142 63.6727 3.70142H11.4591C9.48081 3.70142 7.58356 4.48728 6.18471 5.88613C4.78587 7.28498 4 9.18223 4 11.1605V33.5378C4 35.516 4.78587 37.4133 6.18471 38.8121C7.58356 40.211 9.48081 40.9968 11.4591 40.9968H37.5659" stroke="#1D785A" stroke-width="6.85714" stroke-linecap="round" stroke-linejoin="round"/>
<path d="M70.6805 44.415C72.5229 45.5488 72.4073 48.3049 70.5127 48.5212L60.9389 49.6065L56.6462 58.2292C55.7959 59.9411 53.1666 59.1019 52.7302 56.9835L48.0496 34.1737C47.6804 32.3835 49.2916 31.2572 50.8468 32.2157L70.6805 44.415Z" fill="white" stroke="#FFB625" stroke-width="4.57143"/>
<path d="M37.5659 22.3865L37.6032 22.3455M52.484 22.3865L52.5213 22.3455M22.6477 22.3865L22.685 22.3455" stroke="#1D785A" stroke-width="9.87232" stroke-linecap="round" stroke-linejoin="round"/>
</svg>
