<svg width="208" height="133" viewBox="0 0 208 133" fill="none" xmlns="http://www.w3.org/2000/svg">
<rect x="54.1963" y="119.611" width="93.2356" height="13.3194" fill="#B3B3B3"/>
<path fill-rule="evenodd" clip-rule="evenodd" d="M207.089 0H0.918701V119.866H207.089V0ZM197.5 9.58915H10.5081V110.277H197.5V9.58915Z" fill="#B3B3B3"/>
<path d="M102.891 27.71C84.5564 27.71 69.6394 42.627 69.6394 60.9619C69.6394 79.2968 84.5564 94.2138 102.891 94.2138C121.226 94.2138 136.143 79.2968 136.143 60.9619C136.143 42.627 121.226 27.71 102.891 27.71ZM122.075 58.2074H107.847L113.743 52.3116L112.848 51.2708C111.246 49.6084 109.258 48.3687 107.06 47.6626C104.863 46.9565 102.525 46.8059 100.255 47.2243C97.9847 47.6428 95.8538 48.6172 94.0524 50.0605C92.2511 51.5038 90.8355 53.371 89.9322 55.4951C89.0288 57.6192 88.666 59.9341 88.8759 62.2327C89.0859 64.5314 89.8623 66.7421 91.1355 68.6674C92.4088 70.5927 94.1393 72.1725 96.1723 73.2655C98.2054 74.3585 100.478 74.9306 102.786 74.9309C105.675 74.9282 108.492 74.0317 110.851 72.3645C113.21 70.6972 114.995 68.3409 115.962 65.6187L116.82 63.2L121.643 64.9057L120.796 67.3245C119.63 70.6238 117.58 73.5392 114.869 75.752C112.158 77.9648 108.891 79.3898 105.425 79.8713C101.959 80.3529 98.4277 79.8723 95.2164 78.4823C92.005 77.0922 89.2376 74.8462 87.2165 71.9895C85.1955 69.1329 83.9986 65.7757 83.7566 62.2848C83.5147 58.7939 84.237 55.3036 85.8447 52.1955C87.4524 49.0874 89.8835 46.481 92.8724 44.6613C95.8613 42.8415 99.2929 41.8784 102.792 41.8772C105.375 41.8673 107.932 42.3863 110.306 43.4022C112.681 44.4181 114.822 45.9094 116.598 47.7842L116.688 47.8833L117.377 48.6826L122.075 43.9858V58.2074Z" fill="#B3B3B3"/>
</svg>
