<svg width="62" height="62" viewBox="0 0 62 62" fill="none" xmlns="http://www.w3.org/2000/svg">
<path d="M11.5476 54.2495H50.4527C54.431 54.2495 56.911 49.9354 54.9218 46.4995L35.4693 12.8904C33.4801 9.45452 28.5202 9.45452 26.531 12.8904L7.07848 46.4995C5.08932 49.9354 7.56932 54.2495 11.5476 54.2495ZM31.0001 36.1662C29.5793 36.1662 28.4168 35.0037 28.4168 33.5829V28.4162C28.4168 26.9954 29.5793 25.8329 31.0001 25.8329C32.421 25.8329 33.5835 26.9954 33.5835 28.4162V33.5829C33.5835 35.0037 32.421 36.1662 31.0001 36.1662ZM33.5835 46.4995H28.4168V41.3329H33.5835V46.4995Z" fill="#FF7272"/>
</svg>
