<svg width="11" height="11" viewBox="0 0 11 11" fill="none" xmlns="http://www.w3.org/2000/svg">
<g clip-path="url(#clip0_1_3063)">
<path fill-rule="evenodd" clip-rule="evenodd" d="M9.87518 2.34263C10.0041 2.47156 10.0765 2.6464 10.0765 2.8287C10.0765 3.011 10.0041 3.18583 9.87518 3.31476L4.72214 8.4678C4.65404 8.53591 4.57319 8.58995 4.48421 8.62681C4.39523 8.66367 4.29985 8.68265 4.20353 8.68265C4.10722 8.68265 4.01184 8.66367 3.92286 8.62681C3.83388 8.58995 3.75303 8.53591 3.68493 8.4678L1.12468 5.90801C1.05902 5.84459 1.00664 5.76873 0.970611 5.68485C0.93458 5.60097 0.915614 5.51076 0.914821 5.41947C0.914028 5.32819 0.931423 5.23766 0.965991 5.15316C1.00056 5.06867 1.05161 4.99191 1.11616 4.92736C1.18071 4.86281 1.25747 4.81176 1.34196 4.77719C1.42645 4.74262 1.51698 4.72523 1.60827 4.72602C1.69955 4.72682 1.78977 4.74578 1.87365 4.78181C1.95752 4.81784 2.03339 4.87022 2.09681 4.93588L4.20331 7.04238L8.9026 2.34263C8.96644 2.27875 9.04225 2.22807 9.12569 2.19349C9.20913 2.15891 9.29857 2.14111 9.38889 2.14111C9.47921 2.14111 9.56865 2.15891 9.65209 2.19349C9.73553 2.22807 9.81133 2.27875 9.87518 2.34263Z" fill="#1D785A"/>
</g>
<defs>
<clipPath id="clip0_1_3063">
<rect width="11" height="11" fill="white"/>
</clipPath>
</defs>
</svg>
