<svg width="20" height="21" viewBox="0 0 20 21" fill="none" xmlns="http://www.w3.org/2000/svg">
<g clip-path="url(#clip0_2992_117)">
<path d="M16.1425 8.25283C16.5979 7.78133 16.8499 7.14982 16.8442 6.49433C16.8385 5.83884 16.5755 5.2118 16.112 4.74828C15.6485 4.28476 15.0215 4.02184 14.366 4.01615C13.7105 4.01045 13.079 4.26244 12.6075 4.71783L11.5612 5.76408C11.4747 5.85358 11.3712 5.92495 11.2568 5.97403C11.1424 6.02311 11.0194 6.04891 10.8949 6.04993C10.7704 6.05096 10.647 6.02718 10.5318 5.97999C10.4166 5.93279 10.312 5.86313 10.224 5.77507C10.136 5.687 10.0664 5.58229 10.0194 5.46706C9.97227 5.35182 9.94861 5.22836 9.94975 5.10388C9.95089 4.9794 9.97681 4.8564 10.026 4.74204C10.0752 4.62768 10.1466 4.52427 10.2362 4.43783L11.2812 3.39158C11.6875 2.9853 12.1698 2.66303 12.7007 2.44315C13.2315 2.22328 13.8004 2.11011 14.375 2.11011C14.9495 2.11011 15.5185 2.22328 16.0493 2.44315C16.5801 2.66303 17.0625 2.9853 17.4687 3.39158C17.875 3.79786 18.1973 4.28018 18.4172 4.81101C18.637 5.34183 18.7502 5.91077 18.7502 6.48533C18.7502 7.05989 18.637 7.62883 18.4172 8.15966C18.1973 8.69048 17.875 9.1728 17.4687 9.57908L17.225 9.82158C17.0473 9.98718 16.8122 10.0773 16.5693 10.073C16.3264 10.0688 16.0947 9.97037 15.923 9.79861C15.7512 9.62684 15.6528 9.39511 15.6485 9.15223C15.6442 8.90936 15.7344 8.6743 15.9 8.49658L16.1425 8.25283ZM13.805 12.6053C13.7776 12.6398 13.7484 12.6727 13.7175 12.7041C12.93 13.4916 11.8825 14.0891 10.7887 14.2828C9.67623 14.4816 8.46373 14.2616 7.53123 13.3291C7.43912 13.2433 7.36524 13.1398 7.314 13.0248C7.26276 12.9098 7.23521 12.7856 7.23299 12.6597C7.23077 12.5339 7.25392 12.4088 7.30108 12.2921C7.34823 12.1753 7.41841 12.0693 7.50743 11.9803C7.59645 11.8913 7.7025 11.8211 7.81923 11.7739C7.93597 11.7268 8.061 11.7036 8.18688 11.7058C8.31276 11.7081 8.4369 11.7356 8.5519 11.7869C8.6669 11.8381 8.7704 11.912 8.85623 12.0041C9.26748 12.4128 9.81498 12.5516 10.4612 12.4378C11.0775 12.3278 11.7337 11.9878 12.2675 11.4978L10.7087 10.3766L10.6962 10.3666L10.3275 10.1016C9.15248 9.35533 7.84748 9.47783 6.98248 10.3428L3.85748 13.4678C3.6187 13.6984 3.42825 13.9743 3.29723 14.2793C3.1662 14.5843 3.09724 14.9124 3.09435 15.2443C3.09147 15.5763 3.15472 15.9055 3.28043 16.2127C3.40613 16.52 3.59176 16.7991 3.82649 17.0338C4.06122 17.2685 4.34035 17.4542 4.64759 17.5799C4.95483 17.7056 5.28403 17.7688 5.61598 17.766C5.94793 17.7631 6.27598 17.6941 6.58099 17.5631C6.886 17.4321 7.16186 17.2416 7.39248 17.0028L8.43873 15.9578C8.61645 15.7922 8.85151 15.7021 9.09438 15.7064C9.33726 15.7106 9.56899 15.809 9.74076 15.9808C9.91252 16.1526 10.0109 16.3843 10.0152 16.6272C10.0195 16.8701 9.92933 17.1051 9.76373 17.2828L8.71873 18.3291C8.31245 18.7354 7.83013 19.0576 7.2993 19.2775C6.76848 19.4974 6.19954 19.6106 5.62498 19.6106C4.4646 19.6106 3.35174 19.1496 2.53123 18.3291C1.71072 17.5086 1.24976 16.3957 1.24976 15.2353C1.24976 14.0749 1.71072 12.9621 2.53123 12.1416L5.65623 9.01658C6.13113 8.53749 6.71039 8.17471 7.34873 7.95658L2.88998 4.74658C2.68808 4.60137 2.55214 4.38191 2.51205 4.13647C2.47197 3.89104 2.53102 3.63973 2.67623 3.43783C2.82144 3.23593 3.0409 3.09999 3.28633 3.0599C3.53177 3.01982 3.78308 3.07887 3.98498 3.22408L11.3975 8.56158C11.5408 8.65491 11.6804 8.75491 11.8162 8.86158L19.61 14.4741C19.7099 14.546 19.7948 14.6369 19.8596 14.7415C19.9245 14.8462 19.9681 14.9627 19.9879 15.0842C20.0078 15.2057 20.0035 15.33 19.9753 15.4498C19.9471 15.5697 19.8956 15.6829 19.8237 15.7828C19.7518 15.8828 19.6609 15.9676 19.5563 16.0325C19.4516 16.0973 19.3352 16.1409 19.2136 16.1608C19.0921 16.1806 18.9678 16.1763 18.848 16.1482C18.7281 16.12 18.6149 16.0685 18.515 15.9966L13.805 12.6053Z" fill="white"/>
</g>
<defs>
<clipPath id="clip0_2992_117">
<rect width="20" height="20" fill="white" transform="translate(0 0.860352)"/>
</clipPath>
</defs>
</svg>
