<svg width="47" height="42" viewBox="0 0 47 42" fill="none" xmlns="http://www.w3.org/2000/svg">
<path d="M4.88037 41.4999H41.3178C45.0438 41.4999 47.3665 37.4478 45.5035 34.2206L27.2848 2.65313C25.4218 -0.573991 20.7764 -0.573991 18.9134 2.65313L0.694664 34.2206C-1.16834 37.4478 1.15437 41.4999 4.88037 41.4999ZM23.0991 24.515C21.7684 24.515 20.6796 23.4231 20.6796 22.0886V17.2358C20.6796 15.9013 21.7684 14.8094 23.0991 14.8094C24.4298 14.8094 25.5186 15.9013 25.5186 17.2358V22.0886C25.5186 23.4231 24.4298 24.515 23.0991 24.515ZM25.5186 34.2206H20.6796V29.3678H25.5186V34.2206Z" fill="#FF7272"/>
</svg>
