<svg width="36" height="36" viewBox="0 0 36 36" fill="none" xmlns="http://www.w3.org/2000/svg">
<g clip-path="url(#clip0_3038_2)">
<g filter="url(#filter0_d_3038_2)">
<circle cx="17.8701" cy="17.8701" r="17.8701" fill="white"/>
</g>
<path d="M14.4296 10.2736C14.5609 10.0125 14.7622 9.79311 15.0111 9.63979C15.2599 9.48648 15.5464 9.40528 15.8387 9.40527H19.7967C20.0898 9.40528 20.3771 9.48692 20.6264 9.64103C20.8756 9.79514 21.077 10.0156 21.2079 10.2778L21.8231 11.5076H23.6002C24.2974 11.5076 24.9661 11.7845 25.4591 12.2774C25.9521 12.7702 26.2291 13.4386 26.2291 14.1356V18.0891C25.631 17.5929 24.9387 17.2229 24.1938 17.0012C23.4488 16.7795 22.6668 16.7109 21.8946 16.7993C21.6443 15.8051 21.0395 14.9365 20.1938 14.3566C19.348 13.7768 18.3196 13.5256 17.3016 13.6503C16.2837 13.775 15.3463 14.267 14.6657 15.0338C13.985 15.8006 13.6079 16.7896 13.6052 17.8147C13.6052 18.7534 13.9193 19.6651 14.4974 20.4047C15.0755 21.1443 15.8845 21.6695 16.7956 21.8965C16.6668 23.0234 16.8738 24.1633 17.3908 25.173H12.0342C11.3369 25.173 10.6683 24.8962 10.1753 24.4033C9.68224 23.9105 9.40527 23.2421 9.40527 22.5451V14.1356C9.40527 13.4386 9.68224 12.7702 10.1753 12.2774C10.6683 11.7845 11.3369 11.5076 12.0342 11.5076H13.8113L14.4296 10.2736ZM17.8114 14.6612C19.2762 14.6612 20.5076 15.6598 20.863 17.0116C19.9536 17.2887 19.1263 17.7851 18.454 18.4571C17.7817 19.1291 17.2851 19.9562 17.008 20.8653C16.2675 20.6693 15.6236 20.2107 15.1964 19.5751C14.7693 18.9395 14.5879 18.1702 14.6863 17.4108C14.7846 16.6514 15.1559 15.9537 15.7309 15.4478C16.3059 14.9418 17.0454 14.6623 17.8114 14.6612ZM27.2754 22.5451C27.2754 23.7996 26.7769 25.0028 25.8894 25.8899C25.002 26.777 23.7984 27.2754 22.5434 27.2754C21.2884 27.2754 20.0848 26.777 19.1974 25.8899C18.31 25.0028 17.8114 23.7996 17.8114 22.5451C17.8114 21.2905 18.31 20.0873 19.1974 19.2002C20.0848 18.3131 21.2884 17.8147 22.5434 17.8147C23.7984 17.8147 25.002 18.3131 25.8894 19.2002C26.7769 20.0873 27.2754 21.2905 27.2754 22.5451ZM23.0692 20.4427C23.0692 20.3033 23.0138 20.1696 22.9152 20.0711C22.8166 19.9725 22.6828 19.9171 22.5434 19.9171C22.404 19.9171 22.2702 19.9725 22.1716 20.0711C22.073 20.1696 22.0176 20.3033 22.0176 20.4427V22.0195H20.4403C20.3008 22.0195 20.1671 22.0749 20.0685 22.1734C19.9699 22.272 19.9145 22.4057 19.9145 22.5451C19.9145 22.6845 19.9699 22.8182 20.0685 22.9167C20.1671 23.0153 20.3008 23.0707 20.4403 23.0707H22.0176V24.6474C22.0176 24.7868 22.073 24.9205 22.1716 25.0191C22.2702 25.1177 22.404 25.173 22.5434 25.173C22.6828 25.173 22.8166 25.1177 22.9152 25.0191C23.0138 24.9205 23.0692 24.7868 23.0692 24.6474V23.0707H24.6465C24.786 23.0707 24.9197 23.0153 25.0183 22.9167C25.1169 22.8182 25.1723 22.6845 25.1723 22.5451C25.1723 22.4057 25.1169 22.272 25.0183 22.1734C24.9197 22.0749 24.786 22.0195 24.6465 22.0195H23.0692V20.4427Z" fill="#1B8368"/>
</g>
<defs>
<filter id="filter0_d_3038_2" x="-25" y="-23" width="85.7402" height="85.7402" filterUnits="userSpaceOnUse" color-interpolation-filters="sRGB">
<feFlood flood-opacity="0" result="BackgroundImageFix"/>
<feColorMatrix in="SourceAlpha" type="matrix" values="0 0 0 0 0 0 0 0 0 0 0 0 0 0 0 0 0 0 127 0" result="hardAlpha"/>
<feOffset dy="2"/>
<feGaussianBlur stdDeviation="12.5"/>
<feComposite in2="hardAlpha" operator="out"/>
<feColorMatrix type="matrix" values="0 0 0 0 0.441667 0 0 0 0 0.441667 0 0 0 0 0.441667 0 0 0 0.1 0"/>
<feBlend mode="normal" in2="BackgroundImageFix" result="effect1_dropShadow_3038_2"/>
<feBlend mode="normal" in="SourceGraphic" in2="effect1_dropShadow_3038_2" result="shape"/>
</filter>
<clipPath id="clip0_3038_2">
<rect width="35.74" height="35.74" fill="white"/>
</clipPath>
</defs>
</svg>
