<svg width="36" height="36" viewBox="0 0 36 36" fill="none" xmlns="http://www.w3.org/2000/svg">
<g clip-path="url(#clip0_3038_3)">
<g filter="url(#filter0_d_3038_3)">
<circle cx="17.8701" cy="17.8701" r="17.8701" fill="white"/>
</g>
<path d="M13.1637 23.4959C13.1637 24.497 13.9535 25.316 14.9188 25.316H21.9392C22.9045 25.316 23.6943 24.497 23.6943 23.4959V12.5753H13.1637V23.4959ZM15.9455 17.6625C15.7814 17.4923 15.6893 17.2615 15.6893 17.0209C15.6893 16.7802 15.7814 16.5495 15.9455 16.3793C16.1096 16.2091 16.3321 16.1135 16.5642 16.1135C16.7962 16.1135 17.0188 16.2091 17.1829 16.3793L18.429 17.6625L19.6663 16.3793C19.8304 16.2091 20.053 16.1135 20.285 16.1135C20.5171 16.1135 20.7396 16.2091 20.9037 16.3793C21.0678 16.5495 21.1599 16.7802 21.1599 17.0209C21.1599 17.2615 21.0678 17.4923 20.9037 17.6625L19.6663 18.9456L20.9037 20.2288C20.9849 20.3131 21.0494 20.4131 21.0933 20.5232C21.1373 20.6333 21.1599 20.7512 21.1599 20.8704C21.1599 20.9896 21.1373 21.1075 21.0933 21.2176C21.0494 21.3277 20.9849 21.4277 20.9037 21.512C20.8224 21.5962 20.726 21.6631 20.6198 21.7087C20.5137 21.7543 20.3999 21.7777 20.285 21.7777C20.1701 21.7777 20.0563 21.7543 19.9502 21.7087C19.844 21.6631 19.7476 21.5962 19.6663 21.512L18.429 20.2288L17.1916 21.512C17.1104 21.5962 17.0139 21.6631 16.9078 21.7087C16.8016 21.7543 16.6879 21.7777 16.573 21.7777C16.4581 21.7777 16.3443 21.7543 16.2381 21.7087C16.132 21.6631 16.0355 21.5962 15.9543 21.512C15.8731 21.4277 15.8086 21.3277 15.7646 21.2176C15.7207 21.1075 15.698 20.9896 15.698 20.8704C15.698 20.7512 15.7207 20.6333 15.7646 20.5232C15.8086 20.4131 15.8731 20.3131 15.9543 20.2288L17.1916 18.9456L15.9455 17.6625ZM23.6943 9.84511H21.5004L20.8774 9.19897C20.7194 9.03516 20.4912 8.93506 20.2631 8.93506H16.5949C16.3667 8.93506 16.1386 9.03516 15.9806 9.19897L15.3576 9.84511H13.1637C12.681 9.84511 12.2861 10.2546 12.2861 10.7552C12.2861 11.2557 12.681 11.6652 13.1637 11.6652H23.6943C24.1769 11.6652 24.5718 11.2557 24.5718 10.7552C24.5718 10.2546 24.1769 9.84511 23.6943 9.84511Z" fill="#FF5050"/>
</g>
<defs>
<filter id="filter0_d_3038_3" x="-25" y="-23" width="85.7402" height="85.7402" filterUnits="userSpaceOnUse" color-interpolation-filters="sRGB">
<feFlood flood-opacity="0" result="BackgroundImageFix"/>
<feColorMatrix in="SourceAlpha" type="matrix" values="0 0 0 0 0 0 0 0 0 0 0 0 0 0 0 0 0 0 127 0" result="hardAlpha"/>
<feOffset dy="2"/>
<feGaussianBlur stdDeviation="12.5"/>
<feComposite in2="hardAlpha" operator="out"/>
<feColorMatrix type="matrix" values="0 0 0 0 0.441667 0 0 0 0 0.441667 0 0 0 0 0.441667 0 0 0 0.1 0"/>
<feBlend mode="normal" in2="BackgroundImageFix" result="effect1_dropShadow_3038_3"/>
<feBlend mode="normal" in="SourceGraphic" in2="effect1_dropShadow_3038_3" result="shape"/>
</filter>
<clipPath id="clip0_3038_3">
<rect width="35.74" height="35.74" fill="white"/>
</clipPath>
</defs>
</svg>
