<svg width="349" height="245" viewBox="0 0 349 245" fill="none" xmlns="http://www.w3.org/2000/svg">
<g clip-path="url(#clip0_1386_32765)">
<g filter="url(#filter0_d_1386_32765)">
<path fill-rule="evenodd" clip-rule="evenodd" d="M126.911 40.6367H17.8466C7.99019 40.6367 0 48.6269 0 58.4833V228.365C0 238.222 7.99019 246.212 17.8466 246.212H331.153C341.01 246.212 349 238.222 349 228.365V58.4833C349 48.6269 341.01 40.6367 331.153 40.6367H221.097C220.838 66.4249 199.853 87.2503 174.004 87.2503C148.155 87.2503 127.17 66.4249 126.911 40.6367Z" fill="white"/>
</g>
<circle cx="174.415" cy="40.6506" r="40.6506" fill="white"/>
<path d="M349 192H174.5V245.54H333C341.837 245.54 349 238.376 349 229.54V192Z" fill="#FF7272"/>
<path d="M249.217 214.911H251.087L253.937 219.87H254.054L256.904 214.911H258.773L254.816 221.537V225.82H253.175V221.537L249.217 214.911ZM262.378 225.985C261.572 225.985 260.878 225.813 260.295 225.468C259.717 225.12 259.269 224.632 258.953 224.003C258.641 223.371 258.484 222.631 258.484 221.782C258.484 220.944 258.641 220.205 258.953 219.566C259.269 218.927 259.71 218.428 260.274 218.069C260.842 217.711 261.506 217.531 262.266 217.531C262.728 217.531 263.175 217.608 263.609 217.761C264.042 217.913 264.431 218.153 264.775 218.48C265.12 218.806 265.391 219.231 265.59 219.753C265.789 220.271 265.888 220.902 265.888 221.644V222.208H259.385V221.015H264.328C264.328 220.596 264.243 220.225 264.072 219.902C263.902 219.575 263.662 219.318 263.353 219.129C263.048 218.941 262.689 218.847 262.277 218.847C261.83 218.847 261.439 218.957 261.105 219.177C260.775 219.394 260.519 219.678 260.338 220.03C260.161 220.378 260.072 220.756 260.072 221.164V222.096C260.072 222.643 260.168 223.109 260.359 223.492C260.555 223.876 260.826 224.169 261.174 224.371C261.522 224.57 261.929 224.669 262.394 224.669C262.696 224.669 262.971 224.627 263.22 224.541C263.468 224.453 263.683 224.321 263.864 224.147C264.045 223.973 264.184 223.758 264.28 223.503L265.787 223.774C265.667 224.218 265.45 224.607 265.137 224.941C264.828 225.271 264.44 225.529 263.971 225.713C263.506 225.894 262.975 225.985 262.378 225.985ZM273.787 219.636L272.343 219.891C272.283 219.707 272.187 219.531 272.055 219.364C271.928 219.197 271.754 219.06 271.533 218.954C271.313 218.847 271.038 218.794 270.708 218.794C270.257 218.794 269.88 218.895 269.579 219.098C269.277 219.296 269.126 219.554 269.126 219.87C269.126 220.143 269.227 220.364 269.429 220.53C269.632 220.697 269.959 220.834 270.41 220.941L271.709 221.239C272.462 221.413 273.023 221.681 273.392 222.043C273.762 222.405 273.946 222.876 273.946 223.455C273.946 223.945 273.804 224.382 273.52 224.765C273.24 225.145 272.847 225.443 272.343 225.66C271.842 225.877 271.262 225.985 270.601 225.985C269.685 225.985 268.938 225.79 268.359 225.399C267.78 225.005 267.425 224.446 267.293 223.721L268.833 223.487C268.929 223.888 269.126 224.192 269.424 224.398C269.722 224.6 270.111 224.701 270.591 224.701C271.113 224.701 271.53 224.593 271.842 224.376C272.155 224.156 272.311 223.888 272.311 223.572C272.311 223.316 272.215 223.101 272.024 222.927C271.835 222.753 271.546 222.622 271.155 222.533L269.77 222.23C269.007 222.056 268.442 221.779 268.076 221.399C267.714 221.019 267.533 220.538 267.533 219.955C267.533 219.472 267.668 219.05 267.938 218.687C268.208 218.325 268.581 218.043 269.057 217.84C269.532 217.634 270.078 217.531 270.692 217.531C271.576 217.531 272.272 217.723 272.78 218.107C273.288 218.487 273.623 218.996 273.787 219.636Z" fill="white"/>
<path d="M0 192H174.5V245.54H15C6.71573 245.54 0 238.824 0 230.54V192Z" fill="#9F9E9E"/>
<path d="M85.692 213.911V224.82H84.1792L78.6341 216.819H78.5329V224.82H76.887V213.911H78.4104L83.9608 221.922H84.0621V213.911H85.692ZM91.4116 224.985C90.6445 224.985 89.9751 224.809 89.4034 224.458C88.8317 224.106 88.3878 223.614 88.0717 222.982C87.7557 222.35 87.5977 221.611 87.5977 220.766C87.5977 219.917 87.7557 219.175 88.0717 218.54C88.3878 217.904 88.8317 217.41 89.4034 217.059C89.9751 216.707 90.6445 216.531 91.4116 216.531C92.1786 216.531 92.848 216.707 93.4197 217.059C93.9915 217.41 94.4354 217.904 94.7514 218.54C95.0675 219.175 95.2255 219.917 95.2255 220.766C95.2255 221.611 95.0675 222.35 94.7514 222.982C94.4354 223.614 93.9915 224.106 93.4197 224.458C92.848 224.809 92.1786 224.985 91.4116 224.985ZM91.4169 223.648C91.9141 223.648 92.326 223.517 92.6527 223.254C92.9794 222.991 93.2209 222.641 93.3771 222.204C93.5369 221.768 93.6168 221.286 93.6168 220.761C93.6168 220.239 93.5369 219.759 93.3771 219.323C93.2209 218.882 92.9794 218.529 92.6527 218.263C92.326 217.996 91.9141 217.863 91.4169 217.863C90.9162 217.863 90.5007 217.996 90.1705 218.263C89.8437 218.529 89.6005 218.882 89.4407 219.323C89.2844 219.759 89.2063 220.239 89.2063 220.761C89.2063 221.286 89.2844 221.768 89.4407 222.204C89.6005 222.641 89.8437 222.991 90.1705 223.254C90.5007 223.517 90.9162 223.648 91.4169 223.648Z" fill="white"/>
</g>
<defs>
<filter id="filter0_d_1386_32765" x="-11.1306" y="30.1007" width="372.45" height="229.025" filterUnits="userSpaceOnUse" color-interpolation-filters="sRGB">
<feFlood flood-opacity="0" result="BackgroundImageFix"/>
<feColorMatrix in="SourceAlpha" type="matrix" values="0 0 0 0 0 0 0 0 0 0 0 0 0 0 0 0 0 0 127 0" result="hardAlpha"/>
<feOffset dx="0.594511" dy="1.18902"/>
<feGaussianBlur stdDeviation="5.86254"/>
<feComposite in2="hardAlpha" operator="out"/>
<feColorMatrix type="matrix" values="0 0 0 0 0 0 0 0 0 0 0 0 0 0 0 0 0 0 0.25 0"/>
<feBlend mode="normal" in2="BackgroundImageFix" result="effect1_dropShadow_1386_32765"/>
<feBlend mode="normal" in="SourceGraphic" in2="effect1_dropShadow_1386_32765" result="shape"/>
</filter>
<clipPath id="clip0_1386_32765">
<rect width="349" height="245" fill="white"/>
</clipPath>
</defs>
</svg>
