<svg width="103" height="81" viewBox="0 0 103 81" fill="none" xmlns="http://www.w3.org/2000/svg">
<g clip-path="url(#clip0_1423_33204)">
<path d="M75.8803 44.7344H74.0635H67.0989H51.5182H4.4595H2.64267C1.25251 44.7344 0 45.8361 0 47.351C0 48.8658 1.11487 49.9675 2.64267 49.9675H75.7427C77.1328 49.9675 78.3853 48.8658 78.3853 47.351C78.3853 45.8361 77.2704 44.7344 75.8803 44.7344Z" fill="#FF7272"/>
<path d="M66.2865 39.6392H52.3574V43.082H66.2865V39.6392Z" fill="#FF7272"/>
<path d="M68.778 66.0797C70.3058 64.978 71.4207 63.1877 71.4207 61.122C71.4207 57.8168 68.6404 55.0625 65.2958 55.0625C61.9511 55.0625 59.1708 57.8168 59.1708 61.122C59.1708 63.1877 60.1481 64.978 61.8135 66.0797C59.4461 66.906 57.6431 68.6963 56.5282 70.8997C55.5509 68.6963 53.6102 66.906 51.2428 66.0797C52.7706 64.978 53.8855 63.1877 53.8855 61.122C53.8855 57.8168 51.1052 55.0625 47.7606 55.0625C44.416 55.0625 41.6357 57.8168 41.6357 61.122C41.6357 63.1877 42.6129 64.978 44.2783 66.0797C41.9109 66.906 40.1079 68.6963 38.993 70.8997C38.0158 68.6963 36.075 66.906 33.7077 66.0797C35.2354 64.978 36.3503 63.1877 36.3503 61.122C36.3503 57.8168 33.57 55.0625 30.2254 55.0625C26.8808 55.0625 24.1005 57.8168 24.1005 61.122C24.1005 63.1877 25.0777 64.978 26.7431 66.0797C24.3757 66.906 22.5589 68.6963 21.4578 70.8997C20.4806 68.6963 18.5399 66.906 16.1725 66.0797C17.7003 64.978 18.8151 63.1877 18.8151 61.122C18.8151 57.8168 16.0348 55.0625 12.6902 55.0625C9.34558 55.0625 6.56527 57.8168 6.56527 61.122C6.56527 63.1877 7.54251 64.978 9.20794 66.0797C5.58803 67.4568 3.08301 70.8997 3.08301 74.8934C3.08301 75.3066 3.49592 75.7197 3.9226 75.7197C4.34929 75.7197 4.7622 75.3066 4.7622 74.8934C4.7622 70.6243 8.24447 67.1814 12.5526 67.1814C16.8744 67.1814 20.3429 70.6243 20.3429 74.8934C20.3429 75.3066 20.7558 75.7197 21.1825 75.7197C21.5954 75.7197 22.0221 75.3066 22.0221 74.8934C22.0221 70.6243 25.5044 67.1814 29.8125 67.1814C34.1343 67.1814 37.6166 70.6243 37.6166 74.8934C37.6166 75.3066 38.0295 75.7197 38.4562 75.7197C38.8829 75.7197 39.2958 75.3066 39.2958 74.8934C39.2958 70.6243 42.7781 67.1814 47.0999 67.1814C51.4218 67.1814 54.8903 70.6243 54.8903 74.8934C54.8903 75.3066 55.3032 75.7197 55.7299 75.7197C56.1428 75.7197 56.5695 75.3066 56.5695 74.8934C56.5695 70.6243 60.0517 67.1814 64.3736 67.1814C68.6955 67.1814 72.1777 70.6243 72.1777 74.8934C72.1777 75.3066 72.5906 75.7197 73.0173 75.7197C73.444 75.7197 73.8569 75.3066 73.8569 74.8934C74.903 70.8997 72.3979 67.4568 68.778 66.0797Z" fill="#FF7272"/>
<path d="M2.77972 55.8896C3.78449 55.8896 4.58279 56.6884 4.58279 57.6799C4.58279 58.6715 3.77072 59.4702 2.77972 59.4702C1.77496 59.4702 0.962891 58.6715 0.962891 57.6799C0.976655 56.6884 1.78872 55.8896 2.77972 55.8896Z" fill="#FF7272"/>
<path d="M75.8803 62.7773C76.8851 62.7773 77.6834 63.5761 77.6834 64.5676C77.6834 65.5592 76.8713 66.3579 75.8803 66.3579C74.8755 66.3579 74.0635 65.5592 74.0635 64.5676C74.0772 63.5761 74.8893 62.7773 75.8803 62.7773Z" fill="#FF7272"/>
<path fill-rule="evenodd" clip-rule="evenodd" d="M51.3794 38.0151C50.9527 38.0151 50.5398 38.4283 50.5398 38.8414V43.1106H5.28418V6.8916H63.6293C64.056 6.8916 64.4689 6.47845 64.4689 6.06531C64.4689 5.65216 64.0422 5.23902 63.6293 5.23902H5.28418V0.00585938H73.2365V43.1106H67.9511V38.8414C67.9511 38.4283 67.5245 38.0151 67.1115 38.0151H51.3794Z" fill="#FF7272"/>
</g>
<circle cx="84.0779" cy="62.4725" r="18.0779" fill="white"/>
<path d="M94.5555 52.2592C89.1504 46.8674 80.2803 46.8674 74.8752 52.2592C69.47 57.651 69.47 66.4991 74.8752 71.891C80.2803 77.2828 89.0118 77.2828 94.417 71.891C99.8221 66.4991 99.9607 57.651 94.5555 52.2592ZM88.596 67.8817L84.7154 64.0106L80.8347 67.8817L78.8944 65.9461L82.775 62.0751L78.8944 58.204L80.8347 56.2685L84.7154 60.1396L88.596 56.2685L90.5363 58.204L86.6557 62.0751L90.5363 65.9461L88.596 67.8817Z" fill="#FF7272"/>
<defs>
<clipPath id="clip0_1423_33204">
<rect width="78.3853" height="75.7431" fill="white"/>
</clipPath>
</defs>
</svg>
