<svg width="354" height="254" viewBox="0 0 354 254" fill="none" xmlns="http://www.w3.org/2000/svg">
<path fill-rule="evenodd" clip-rule="evenodd" d="M127.996 44.8119L18.9485 46.7626C9.09365 46.9389 1.24765 55.0707 1.42393 64.9255L4.46238 234.781C4.63867 244.635 12.7705 252.481 22.6253 252.305L335.882 246.701C345.737 246.525 353.583 238.393 353.407 228.538L350.368 58.6834C350.192 48.8286 342.06 40.9826 332.205 41.1589L222.166 43.1273C222.369 68.9159 201.76 90.1133 175.915 90.5756C150.07 91.0379 128.716 70.5912 127.996 44.8119Z" fill="white"/>
<circle cx="174.728" cy="43.9898" r="40.6506" transform="rotate(-1.02482 174.728 43.9898)" fill="white"/>
<g clip-path="url(#clip0_3_118457)">
<path d="M190.654 45.6589L189.8 45.6589L186.528 45.6589L179.207 45.6589L157.095 45.6589L156.242 45.6589C155.589 45.6589 155 46.1924 155 46.9258C155 47.6593 155.524 48.1927 156.242 48.1927L190.589 48.1927C191.242 48.1927 191.831 47.6593 191.831 46.9258C191.831 46.1924 191.307 45.6589 190.654 45.6589Z" fill="#FF7272"/>
<path d="M186.146 43.1919L179.601 43.1919L179.601 44.8588L186.146 44.8588L186.146 43.1919Z" fill="#FF7272"/>
<path d="M187.317 55.9936C188.035 55.4602 188.559 54.5934 188.559 53.5932C188.559 51.993 187.252 50.6594 185.681 50.6594C184.109 50.6594 182.803 51.993 182.803 53.5932C182.803 54.5934 183.262 55.4602 184.044 55.9936C182.932 56.3937 182.085 57.2605 181.561 58.3273C181.102 57.2605 180.19 56.3937 179.078 55.9936C179.795 55.4602 180.319 54.5934 180.319 53.5932C180.319 51.993 179.013 50.6594 177.441 50.6594C175.87 50.6594 174.563 51.993 174.563 53.5932C174.563 54.5934 175.023 55.4602 175.805 55.9936C174.693 56.3937 173.846 57.2605 173.322 58.3273C172.863 57.2605 171.951 56.3937 170.838 55.9936C171.556 55.4602 172.08 54.5934 172.08 53.5932C172.08 51.993 170.774 50.6594 169.202 50.6594C167.631 50.6594 166.324 51.993 166.324 53.5932C166.324 54.5934 166.783 55.4602 167.566 55.9936C166.454 56.3937 165.6 57.2605 165.082 58.3273C164.623 57.2605 163.711 56.3937 162.599 55.9936C163.317 55.4602 163.841 54.5934 163.841 53.5932C163.841 51.993 162.534 50.6594 160.963 50.6594C159.391 50.6594 158.085 51.993 158.085 53.5932C158.085 54.5934 158.544 55.4602 159.327 55.9936C157.626 56.6604 156.449 58.3273 156.449 60.2609C156.449 60.461 156.643 60.661 156.843 60.661C157.044 60.661 157.238 60.461 157.238 60.2609C157.238 58.1939 158.874 56.527 160.898 56.527C162.929 56.527 164.559 58.1939 164.559 60.2609C164.559 60.461 164.753 60.661 164.953 60.661C165.147 60.661 165.348 60.461 165.348 60.2609C165.348 58.1939 166.984 56.527 169.008 56.527C171.039 56.527 172.675 58.1939 172.675 60.2609C172.675 60.461 172.869 60.661 173.07 60.661C173.27 60.661 173.464 60.461 173.464 60.2609C173.464 58.1939 175.1 56.527 177.131 56.527C179.162 56.527 180.791 58.1939 180.791 60.2609C180.791 60.461 180.985 60.661 181.186 60.661C181.38 60.661 181.58 60.461 181.58 60.2609C181.58 58.1939 183.217 56.527 185.247 56.527C187.278 56.527 188.914 58.1939 188.914 60.2609C188.914 60.461 189.108 60.661 189.309 60.661C189.509 60.661 189.703 60.461 189.703 60.2609C190.195 58.3273 189.018 56.6604 187.317 55.9936Z" fill="#FF7272"/>
<path d="M156.306 51.0598C156.778 51.0598 157.153 51.4465 157.153 51.9266C157.153 52.4067 156.772 52.7934 156.306 52.7934C155.834 52.7934 155.452 52.4067 155.452 51.9266C155.459 51.4465 155.84 51.0598 156.306 51.0598Z" fill="#FF7272"/>
<path d="M190.654 54.3948C191.126 54.3948 191.501 54.7815 191.501 55.2616C191.501 55.7417 191.12 56.1284 190.654 56.1284C190.182 56.1284 189.8 55.7417 189.8 55.2616C189.807 54.7815 190.188 54.3948 190.654 54.3948Z" fill="#FF7272"/>
<path fill-rule="evenodd" clip-rule="evenodd" d="M179.142 42.4058C178.941 42.4058 178.747 42.6059 178.747 42.8059L178.747 44.8729L157.483 44.8729L157.483 27.3368L184.898 27.3368C185.098 27.3368 185.292 27.1368 185.292 26.9367C185.292 26.7367 185.092 26.5367 184.898 26.5367L157.483 26.5367L157.483 24.0029L189.412 24.0029L189.412 44.8729L186.928 44.8729L186.928 42.8059C186.928 42.6059 186.728 42.4058 186.534 42.4058L179.142 42.4058Z" fill="#FF7272"/>
</g>
<ellipse cx="194.506" cy="54.2472" rx="8.49429" ry="8.75278" fill="white"/>
<path d="M199.429 49.3022C196.889 46.6916 192.722 46.6916 190.182 49.3022C187.642 51.9127 187.642 56.1967 190.182 58.8072C192.722 61.4178 196.824 61.4178 199.364 58.8072C201.904 56.1967 201.969 51.9127 199.429 49.3022ZM196.629 56.8661L194.806 54.9918L192.982 56.8661L192.07 55.9289L193.894 54.0547L192.07 52.1805L192.982 51.2433L194.806 53.1176L196.629 51.2433L197.541 52.1805L195.717 54.0547L197.541 55.9289L196.629 56.8661Z" fill="#FF7272"/>
<path d="M352.785 193.802L178.313 196.923L179.271 250.454L335.899 247.652C345.754 247.476 353.6 239.344 353.424 229.489L352.785 193.802Z" fill="#FF7272"/>
<path d="M253.428 218.494L255.298 218.461L258.236 223.368L258.353 223.366L261.113 218.356L262.983 218.323L259.144 225.019L259.221 229.301L257.58 229.331L257.504 225.049L253.428 218.494ZM266.785 229.331C265.979 229.345 265.282 229.186 264.693 228.852C264.109 228.514 263.652 228.034 263.325 227.411C263.001 226.785 262.832 226.047 262.817 225.199C262.802 224.361 262.945 223.619 263.246 222.975C263.55 222.33 263.982 221.823 264.54 221.454C265.102 221.086 265.762 220.894 266.522 220.881C266.984 220.873 267.432 220.941 267.868 221.086C268.304 221.231 268.697 221.464 269.048 221.784C269.398 222.104 269.677 222.524 269.885 223.042C270.093 223.557 270.204 224.186 270.217 224.928L270.227 225.492L263.724 225.609L263.703 224.416L268.646 224.327C268.638 223.908 268.546 223.539 268.37 223.219C268.194 222.895 267.949 222.642 267.637 222.459C267.328 222.276 266.968 222.189 266.556 222.196C266.109 222.204 265.72 222.321 265.391 222.547C265.064 222.77 264.814 223.058 264.639 223.413C264.468 223.764 264.386 224.144 264.393 224.552L264.41 225.484C264.419 226.031 264.523 226.495 264.722 226.875C264.924 227.255 265.201 227.543 265.553 227.739C265.904 227.931 266.312 228.024 266.778 228.015C267.079 228.01 267.354 227.962 267.601 227.873C267.848 227.779 268.06 227.644 268.238 227.467C268.416 227.29 268.551 227.072 268.642 226.815L270.154 227.06C270.041 227.506 269.832 227.898 269.525 228.238C269.222 228.574 268.838 228.838 268.373 229.031C267.911 229.22 267.382 229.32 266.785 229.331ZM278.078 222.779L276.639 223.06C276.576 222.876 276.477 222.702 276.342 222.538C276.212 222.373 276.035 222.24 275.813 222.137C275.591 222.035 275.315 221.986 274.985 221.992C274.534 222 274.159 222.108 273.861 222.316C273.563 222.52 273.417 222.78 273.422 223.096C273.427 223.37 273.532 223.588 273.738 223.751C273.943 223.914 274.272 224.045 274.725 224.144L276.03 224.419C276.786 224.579 277.351 224.837 277.727 225.193C278.103 225.548 278.296 226.016 278.306 226.594C278.315 227.084 278.181 227.524 277.904 227.912C277.63 228.297 277.243 228.602 276.743 228.828C276.246 229.053 275.667 229.172 275.007 229.184C274.091 229.2 273.34 229.018 272.754 228.638C272.168 228.254 271.803 227.702 271.659 226.98L273.194 226.718C273.297 227.117 273.5 227.417 273.802 227.618C274.103 227.815 274.494 227.909 274.973 227.901C275.495 227.891 275.911 227.775 276.219 227.553C276.528 227.328 276.679 227.057 276.673 226.741C276.669 226.485 276.569 226.272 276.374 226.101C276.183 225.931 275.891 225.805 275.499 225.723L274.109 225.444C273.342 225.284 272.773 225.017 272.4 224.644C272.031 224.27 271.842 223.792 271.831 223.21C271.823 222.727 271.95 222.302 272.213 221.935C272.477 221.568 272.845 221.279 273.317 221.068C273.789 220.854 274.332 220.741 274.946 220.73C275.83 220.714 276.53 220.894 277.044 221.268C277.559 221.639 277.903 222.142 278.078 222.779Z" fill="white"/>
<path d="M3.84106 200.044L178.313 196.923L179.271 250.454L22.6424 253.256C12.7876 253.432 4.65575 245.586 4.47946 235.731L3.84106 200.044Z" fill="#9F9E9E"/>
<path d="M89.9112 220.419L90.1064 231.326L88.5938 231.353L82.9065 223.453L82.8053 223.455L82.9484 231.454L81.3027 231.484L81.1076 220.576L82.6308 220.549L88.3236 228.46L88.4248 228.458L88.2815 220.448L89.9112 220.419ZM95.8279 231.389C95.061 231.403 94.3886 231.239 93.8107 230.898C93.2327 230.556 92.7801 230.073 92.4528 229.446C92.1255 228.82 91.9543 228.084 91.9392 227.239C91.924 226.391 92.0687 225.646 92.3734 225.004C92.678 224.363 93.113 223.862 93.6783 223.5C94.2437 223.138 94.9098 222.951 95.6767 222.937C96.4437 222.923 97.1161 223.087 97.694 223.428C98.272 223.769 98.7246 224.255 99.052 224.885C99.3793 225.515 99.5506 226.254 99.5658 227.103C99.5809 227.948 99.4361 228.689 99.1314 229.327C98.8267 229.964 98.3917 230.464 97.8264 230.826C97.261 231.188 96.5949 231.375 95.8279 231.389ZM95.8094 230.052C96.3064 230.043 96.7159 229.904 97.0379 229.636C97.3599 229.367 97.595 229.013 97.7434 228.574C97.8954 228.134 97.9667 227.652 97.9573 227.126C97.948 226.604 97.8595 226.126 97.6919 225.692C97.5278 225.255 97.28 224.906 96.9486 224.646C96.6172 224.385 96.203 224.259 95.7059 224.268C95.2053 224.277 94.7922 224.418 94.4668 224.69C94.1449 224.962 93.908 225.32 93.7561 225.763C93.6077 226.202 93.5382 226.683 93.5475 227.205C93.5569 227.73 93.6436 228.21 93.8076 228.644C93.9752 229.078 94.2247 229.423 94.5561 229.68C94.891 229.937 95.3087 230.061 95.8094 230.052Z" fill="white"/>
<defs>
<clipPath id="clip0_3_118457">
<rect width="36.8309" height="36.6725" fill="white" transform="translate(155 24)"/>
</clipPath>
</defs>
</svg>
