<svg width="103" height="82" viewBox="0 0 103 82" fill="none" xmlns="http://www.w3.org/2000/svg">
<g clip-path="url(#clip0_1386_579)">
<path d="M75.8803 45.3398H74.0635H67.0989H51.5182H4.4595H2.64267C1.25251 45.3398 0 46.4416 0 47.9564C0 49.4713 1.11487 50.573 2.64267 50.573H75.7427C77.1328 50.573 78.3853 49.4713 78.3853 47.9564C78.3853 46.4416 77.2704 45.3398 75.8803 45.3398Z" fill="#3D5347"/>
<path d="M66.2865 40.2446H52.3574V43.6875H66.2865V40.2446Z" fill="#3D5347"/>
<path d="M68.778 66.6852C70.3058 65.5834 71.4207 63.7931 71.4207 61.7274C71.4207 58.4223 68.6404 55.668 65.2958 55.668C61.9511 55.668 59.1708 58.4223 59.1708 61.7274C59.1708 63.7931 60.1481 65.5834 61.8135 66.6852C59.4461 67.5114 57.6431 69.3017 56.5282 71.5052C55.5509 69.3017 53.6102 67.5114 51.2428 66.6852C52.7706 65.5834 53.8855 63.7931 53.8855 61.7274C53.8855 58.4223 51.1052 55.668 47.7606 55.668C44.416 55.668 41.6357 58.4223 41.6357 61.7274C41.6357 63.7931 42.6129 65.5834 44.2783 66.6852C41.9109 67.5114 40.1079 69.3017 38.993 71.5052C38.0158 69.3017 36.075 67.5114 33.7077 66.6852C35.2354 65.5834 36.3503 63.7931 36.3503 61.7274C36.3503 58.4223 33.57 55.668 30.2254 55.668C26.8808 55.668 24.1005 58.4223 24.1005 61.7274C24.1005 63.7931 25.0777 65.5834 26.7431 66.6852C24.3757 67.5114 22.5589 69.3017 21.4578 71.5052C20.4806 69.3017 18.5399 67.5114 16.1725 66.6852C17.7003 65.5834 18.8151 63.7931 18.8151 61.7274C18.8151 58.4223 16.0348 55.668 12.6902 55.668C9.34558 55.668 6.56527 58.4223 6.56527 61.7274C6.56527 63.7931 7.54251 65.5834 9.20794 66.6852C5.58803 68.0623 3.08301 71.5052 3.08301 75.4989C3.08301 75.912 3.49592 76.3252 3.9226 76.3252C4.34929 76.3252 4.7622 75.912 4.7622 75.4989C4.7622 71.2297 8.24447 67.7869 12.5526 67.7869C16.8744 67.7869 20.3429 71.2297 20.3429 75.4989C20.3429 75.912 20.7558 76.3252 21.1825 76.3252C21.5954 76.3252 22.0221 75.912 22.0221 75.4989C22.0221 71.2297 25.5044 67.7869 29.8125 67.7869C34.1343 67.7869 37.6166 71.2297 37.6166 75.4989C37.6166 75.912 38.0295 76.3252 38.4562 76.3252C38.8829 76.3252 39.2958 75.912 39.2958 75.4989C39.2958 71.2297 42.7781 67.7869 47.0999 67.7869C51.4218 67.7869 54.8903 71.2297 54.8903 75.4989C54.8903 75.912 55.3032 76.3252 55.7299 76.3252C56.1428 76.3252 56.5695 75.912 56.5695 75.4989C56.5695 71.2297 60.0517 67.7869 64.3736 67.7869C68.6955 67.7869 72.1777 71.2297 72.1777 75.4989C72.1777 75.912 72.5906 76.3252 73.0173 76.3252C73.444 76.3252 73.8569 75.912 73.8569 75.4989C74.903 71.5052 72.3979 68.0623 68.778 66.6852Z" fill="#3D5347"/>
<path d="M2.77972 56.4951C3.78449 56.4951 4.58279 57.2939 4.58279 58.2854C4.58279 59.277 3.77072 60.0757 2.77972 60.0757C1.77496 60.0757 0.962891 59.277 0.962891 58.2854C0.976655 57.2939 1.78872 56.4951 2.77972 56.4951Z" fill="#3D5347"/>
<path d="M75.8803 63.3828C76.8851 63.3828 77.6834 64.1816 77.6834 65.1731C77.6834 66.1647 76.8713 66.9634 75.8803 66.9634C74.8755 66.9634 74.0635 66.1647 74.0635 65.1731C74.0772 64.1816 74.8893 63.3828 75.8803 63.3828Z" fill="#3D5347"/>
<path fill-rule="evenodd" clip-rule="evenodd" d="M51.3794 38.6206C50.9527 38.6206 50.5398 39.0337 50.5398 39.4469V43.716H5.28418V7.49706H63.6293C64.056 7.49706 64.4689 7.08392 64.4689 6.67078C64.4689 6.25763 64.0422 5.84449 63.6293 5.84449H5.28418V0.611328H73.2365V43.716H67.9511V39.4469C67.9511 39.0337 67.5245 38.6206 67.1115 38.6206H51.3794Z" fill="#3D5347"/>
</g>
<circle cx="84.0779" cy="63.0779" r="18.0779" fill="#D0F9E4"/>
<path d="M94.5555 53.8647C89.1504 48.4728 80.2803 48.4728 74.8752 53.8647C69.47 59.2565 69.47 68.1046 74.8752 73.4964C80.2803 78.8883 89.0118 78.8883 94.417 73.4964C99.8221 68.1046 99.9607 59.2565 94.5555 53.8647ZM88.596 69.4871L84.7154 65.6161L80.8347 69.4871L78.8944 67.5516L82.775 63.6806L78.8944 59.8095L80.8347 57.874L84.7154 61.745L88.596 57.874L90.5363 59.8095L86.6557 63.6806L90.5363 67.5516L88.596 69.4871Z" fill="#3D5347"/>
<defs>
<clipPath id="clip0_1386_579">
<rect width="78.3853" height="75.7431" fill="white" transform="translate(0 0.605469)"/>
</clipPath>
</defs>
</svg>
