<svg width="351" height="250" viewBox="0 0 351 250" fill="none" xmlns="http://www.w3.org/2000/svg">
<path fill-rule="evenodd" clip-rule="evenodd" d="M127.136 41.8738L18.0729 42.4816C8.21663 42.5365 0.27109 50.5711 0.326017 60.4274L1.27273 230.307C1.32766 240.163 9.36225 248.109 19.2185 248.054L332.52 246.308C342.377 246.253 350.322 238.218 350.267 228.362L349.321 58.4825C349.266 48.6262 341.231 40.6807 331.375 40.7356L221.32 41.3489C221.206 67.138 200.337 88.08 174.488 88.2241C148.639 88.3681 127.538 67.66 127.136 41.8738Z" fill="white"/>
<circle cx="173.875" cy="41.6271" r="40.6506" transform="rotate(-0.319297 173.875 41.6271)" fill="white"/>
<g clip-path="url(#clip0_3_118457)">
<path d="M189.779 43.4921L188.925 43.4816L185.653 43.4413L178.332 43.3512L156.223 43.0789L155.369 43.0684C154.716 43.0603 154.121 43.5865 154.112 44.3199C154.103 45.0533 154.62 45.5931 155.338 45.6019L189.683 46.0249C190.336 46.0329 190.931 45.5068 190.94 44.7734C190.949 44.04 190.432 43.5002 189.779 43.4921Z" fill="#FF7272"/>
<path d="M185.301 40.9699L178.757 40.8893L178.736 42.5561L185.281 42.6367L185.301 40.9699Z" fill="#FF7272"/>
<path d="M186.314 53.7849C187.039 53.2604 187.573 52.4001 187.585 51.4C187.605 49.7999 186.315 48.4503 184.744 48.431C183.172 48.4116 181.85 49.729 181.83 51.3291C181.818 52.3292 182.266 53.2016 183.042 53.7446C181.925 54.131 181.067 54.9873 180.53 56.0476C180.084 54.9752 179.183 54.0972 178.076 53.6835C178.8 53.1589 179.334 52.2986 179.347 51.2985C179.367 49.6984 178.077 48.3489 176.505 48.3295C174.934 48.3102 173.611 49.6275 173.591 51.2277C173.579 52.2278 174.028 53.1001 174.803 53.6432C173.686 54.0295 172.828 54.8858 172.291 55.9461C171.845 54.8737 170.944 53.9957 169.837 53.582C170.561 53.0575 171.096 52.1972 171.108 51.1971C171.128 49.597 169.838 48.2474 168.267 48.2281C166.695 48.2087 165.372 49.5261 165.353 51.1262C165.34 52.1263 165.789 52.9987 166.565 53.5417C165.448 53.928 164.583 54.7843 164.053 55.8447C163.607 54.7722 162.706 53.8943 161.598 53.4805C162.323 52.956 162.857 52.0957 162.87 51.0956C162.889 49.4955 161.599 48.146 160.028 48.1266C158.457 48.1073 157.134 49.4246 157.114 51.0248C157.102 52.0248 157.55 52.8972 158.326 53.4403C156.617 54.086 155.42 55.7383 155.396 57.6718C155.393 57.8719 155.585 58.0743 155.785 58.0767C155.986 58.0792 156.182 57.8816 156.185 57.6816C156.21 55.6147 157.867 53.9681 159.891 53.993C161.922 54.018 163.531 55.7049 163.505 57.7717C163.503 57.9717 163.694 58.1741 163.895 58.1766C164.089 58.179 164.292 57.9814 164.294 57.7814C164.32 55.7146 165.976 54.0679 168 54.0928C170.031 54.1178 171.646 55.8048 171.621 57.8716C171.619 58.0717 171.81 58.2741 172.011 58.2765C172.211 58.279 172.407 58.0814 172.41 57.8814C172.435 55.8145 174.092 54.1679 176.123 54.1929C178.153 54.2179 179.762 55.9047 179.737 57.9716C179.734 58.1716 179.926 58.374 180.126 58.3765C180.32 58.3789 180.523 58.1813 180.526 57.9813C180.551 55.9145 182.208 54.2678 184.238 54.2928C186.269 54.3178 187.884 56.0048 187.859 58.0716C187.857 58.2716 188.048 58.474 188.249 58.4765C188.449 58.479 188.645 58.2813 188.648 58.0813C189.163 56.1539 188.007 54.4726 186.314 53.7849Z" fill="#FF7272"/>
<path d="M155.367 48.4699C155.839 48.4757 156.209 48.867 156.203 49.347C156.197 49.8271 155.811 50.2091 155.345 50.2033C154.873 50.1975 154.497 49.8061 154.503 49.3261C154.515 48.8461 154.901 48.4641 155.367 48.4699Z" fill="#FF7272"/>
<path d="M189.671 52.2273C190.143 52.2331 190.513 52.6244 190.507 53.1045C190.502 53.5845 190.115 53.9665 189.65 53.9608C189.178 53.955 188.801 53.5636 188.807 53.0835C188.819 52.6036 189.205 52.2216 189.671 52.2273Z" fill="#FF7272"/>
<path fill-rule="evenodd" clip-rule="evenodd" d="M178.307 40.0975C178.107 40.0951 177.911 40.2927 177.908 40.4927L177.883 42.5595L156.62 42.2977L156.836 24.7629L184.248 25.1005C184.449 25.103 184.645 24.9053 184.648 24.7053C184.65 24.5053 184.452 24.3028 184.258 24.3004L156.846 23.9629L156.877 21.4293L188.803 21.8225L188.546 42.6908L186.063 42.6603L186.089 40.5934C186.091 40.3934 185.893 40.1909 185.699 40.1885L178.307 40.0975Z" fill="#FF7272"/>
</g>
<ellipse cx="193.525" cy="52.1272" rx="8.49429" ry="8.75278" transform="rotate(0.705528 193.525 52.1272)" fill="white"/>
<path d="M198.508 47.2432C196.001 44.6015 191.834 44.5502 189.262 47.1293C186.69 49.7084 186.637 53.992 189.145 56.6337C191.652 59.2753 195.755 59.3258 198.326 56.7467C200.898 54.1676 201.016 49.8848 198.508 47.2432ZM195.615 54.772L193.815 52.8755L191.969 54.7271L191.069 53.7788L192.915 51.9272L191.115 50.0306L192.038 49.1048L193.838 51.0014L195.685 49.1497L196.585 50.098L194.738 51.9496L196.538 53.8462L195.615 54.772Z" fill="#FF7272"/>
<path d="M350.073 193.62L175.576 194.593L175.874 248.132L332.525 247.259C342.382 247.204 350.327 239.169 350.272 229.313L350.073 193.62Z" fill="#FF7272"/>
<path d="M250.42 217.087L252.29 217.077L255.167 222.02L255.284 222.019L258.106 217.044L259.976 217.034L256.055 223.682L256.079 227.965L254.438 227.974L254.415 223.691L250.42 217.087ZM263.642 228.088C262.836 228.092 262.141 227.924 261.557 227.583C260.976 227.238 260.526 226.752 260.206 226.125C259.89 225.495 259.73 224.756 259.725 223.907C259.721 223.069 259.873 222.329 260.182 221.688C260.494 221.047 260.932 220.546 261.494 220.184C262.061 219.822 262.724 219.639 263.484 219.635C263.945 219.633 264.393 219.706 264.827 219.857C265.261 220.007 265.651 220.245 265.998 220.569C266.344 220.894 266.618 221.317 266.82 221.838C267.021 222.355 267.124 222.985 267.129 223.727L267.132 224.292L260.628 224.328L260.621 223.135L265.564 223.107C265.562 222.688 265.475 222.318 265.302 221.995C265.13 221.67 264.889 221.414 264.579 221.227C264.273 221.041 263.913 220.948 263.501 220.951C263.054 220.953 262.664 221.066 262.331 221.288C262.002 221.506 261.748 221.792 261.569 222.144C261.394 222.493 261.307 222.872 261.309 223.28L261.314 224.212C261.317 224.759 261.416 225.224 261.61 225.606C261.807 225.989 262.081 226.28 262.43 226.481C262.779 226.678 263.186 226.775 263.651 226.772C263.953 226.77 264.228 226.726 264.476 226.64C264.724 226.549 264.938 226.417 265.118 226.242C265.298 226.067 265.436 225.851 265.53 225.595L267.039 225.858C266.921 226.303 266.706 226.693 266.396 227.028C266.089 227.36 265.701 227.62 265.234 227.807C264.769 227.991 264.239 228.085 263.642 228.088ZM275.015 221.675L273.573 221.939C273.512 221.754 273.415 221.579 273.283 221.413C273.154 221.247 272.979 221.111 272.758 221.006C272.538 220.9 272.262 220.849 271.932 220.851C271.481 220.853 271.105 220.956 270.804 221.16C270.504 221.361 270.354 221.619 270.356 221.935C270.357 222.209 270.46 222.428 270.663 222.594C270.867 222.76 271.194 222.895 271.646 222.999L272.947 223.29C273.701 223.46 274.263 223.725 274.635 224.085C275.006 224.445 275.193 224.914 275.196 225.493C275.199 225.983 275.06 226.421 274.778 226.806C274.499 227.188 274.108 227.488 273.605 227.707C273.106 227.927 272.526 228.038 271.865 228.042C270.949 228.047 270.201 227.856 269.62 227.469C269.039 227.078 268.68 226.52 268.545 225.797L270.083 225.554C270.181 225.954 270.38 226.257 270.679 226.461C270.979 226.662 271.368 226.761 271.848 226.758C272.37 226.755 272.786 226.645 273.098 226.426C273.409 226.205 273.564 225.936 273.562 225.62C273.56 225.364 273.463 225.15 273.271 224.977C273.081 224.804 272.791 224.674 272.4 224.587L271.014 224.291C270.249 224.122 269.683 223.848 269.315 223.47C268.951 223.092 268.767 222.612 268.764 222.029C268.761 221.546 268.894 221.123 269.161 220.759C269.429 220.396 269.801 220.111 270.275 219.906C270.75 219.698 271.295 219.592 271.909 219.588C272.793 219.583 273.49 219.771 274 220.152C274.51 220.529 274.848 221.037 275.015 221.675Z" fill="white"/>
<path d="M1.0791 195.565L175.576 194.592L175.875 248.131L19.2238 249.004C9.36753 249.059 1.33294 241.114 1.27801 231.258L1.0791 195.565Z" fill="#9F9E9E"/>
<path d="M86.8917 216.998L86.9525 227.907L85.4397 227.916L79.8501 219.946L79.7489 219.946L79.7935 227.947L78.1476 227.956L78.0868 217.047L79.6102 217.039L85.2052 225.019L85.3064 225.019L85.2618 217.007L86.8917 216.998ZM92.6729 228.04C91.9059 228.045 91.2355 227.873 90.6618 227.524C90.0881 227.176 89.6415 226.687 89.3219 226.056C89.0024 225.426 88.8402 224.688 88.8355 223.843C88.8308 222.994 88.9847 222.251 89.2972 221.614C89.6097 220.976 90.0508 220.48 90.6206 220.126C91.1903 219.771 91.8587 219.591 92.6258 219.587C93.3928 219.583 94.0632 219.755 94.6369 220.103C95.2105 220.452 95.6572 220.943 95.9768 221.577C96.2964 222.21 96.4585 222.952 96.4632 223.8C96.4679 224.646 96.314 225.385 96.0015 226.019C95.689 226.653 95.2479 227.147 94.6781 227.502C94.1083 227.857 93.4399 228.036 92.6729 228.04ZM92.6708 226.703C93.1679 226.701 93.5791 226.567 93.9043 226.302C94.2296 226.038 94.4691 225.687 94.6229 225.249C94.7803 224.811 94.8575 224.33 94.8546 223.804C94.8517 223.282 94.7691 222.803 94.6069 222.367C94.4482 221.928 94.2047 221.576 93.8765 221.311C93.5483 221.047 93.1357 220.916 92.6385 220.919C92.1378 220.921 91.7231 221.057 91.3943 221.325C91.0691 221.593 90.8278 221.948 90.6705 222.389C90.5167 222.827 90.4412 223.307 90.4441 223.829C90.4471 224.354 90.5279 224.835 90.6865 225.271C90.8488 225.707 91.094 226.055 91.4221 226.316C91.7539 226.577 92.1701 226.706 92.6708 226.703Z" fill="white"/>
<defs>
<clipPath id="clip0_3_118457">
<rect width="36.8309" height="36.6725" fill="white" transform="translate(154.394 21.3959) rotate(0.705528)"/>
</clipPath>
</defs>
</svg>
