<svg width="23" height="22" viewBox="0 0 23 22" fill="none" xmlns="http://www.w3.org/2000/svg">
<g clip-path="url(#clip0_1386_18315)">
<path d="M21.334 12.5723H20.8232H18.8651H14.4845H1.2538H0.742995C0.352149 12.5723 0 12.8818 0 13.3075C0 13.7332 0.313451 14.0428 0.742995 14.0428H21.2953C21.6862 14.0428 22.0383 13.7332 22.0383 13.3075C22.0383 12.8818 21.7249 12.5723 21.334 12.5723Z" fill="white"/>
<path d="M18.6369 11.1406H14.7207V12.1081H18.6369V11.1406Z" fill="white"/>
<path d="M19.3376 18.5704C19.7671 18.2608 20.0806 17.7578 20.0806 17.1773C20.0806 16.2486 19.2989 15.4746 18.3585 15.4746C17.4182 15.4746 16.6365 16.2486 16.6365 17.1773C16.6365 17.7578 16.9112 18.2608 17.3795 18.5704C16.7139 18.8026 16.207 19.3057 15.8935 19.9248C15.6187 19.3057 15.0731 18.8026 14.4075 18.5704C14.8371 18.2608 15.1505 17.7578 15.1505 17.1773C15.1505 16.2486 14.3688 15.4746 13.4285 15.4746C12.4881 15.4746 11.7064 16.2486 11.7064 17.1773C11.7064 17.7578 11.9812 18.2608 12.4494 18.5704C11.7838 18.8026 11.2769 19.3057 10.9634 19.9248C10.6887 19.3057 10.143 18.8026 9.47742 18.5704C9.90697 18.2608 10.2204 17.7578 10.2204 17.1773C10.2204 16.2486 9.43872 15.4746 8.49837 15.4746C7.55802 15.4746 6.77632 16.2486 6.77632 17.1773C6.77632 17.7578 7.05108 18.2608 7.51932 18.5704C6.85372 18.8026 6.34291 19.3057 6.03333 19.9248C5.75858 19.3057 5.21294 18.8026 4.54734 18.5704C4.97688 18.2608 5.29033 17.7578 5.29033 17.1773C5.29033 16.2486 4.50864 15.4746 3.56829 15.4746C2.62793 15.4746 1.84624 16.2486 1.84624 17.1773C1.84624 17.7578 2.12099 18.2608 2.58923 18.5704C1.57149 18.9574 0.867188 19.9248 0.867188 21.0471C0.867188 21.1632 0.983281 21.2793 1.10324 21.2793C1.22321 21.2793 1.3393 21.1632 1.3393 21.0471C1.3393 19.8474 2.31835 18.88 3.52959 18.88C4.7447 18.88 5.71988 19.8474 5.71988 21.0471C5.71988 21.1632 5.83597 21.2793 5.95593 21.2793C6.07203 21.2793 6.19199 21.1632 6.19199 21.0471C6.19199 19.8474 7.17104 18.88 8.38228 18.88C9.59739 18.88 10.5764 19.8474 10.5764 21.0471C10.5764 21.1632 10.6925 21.2793 10.8125 21.2793C10.9325 21.2793 11.0485 21.1632 11.0485 21.0471C11.0485 19.8474 12.0276 18.88 13.2427 18.88C14.4578 18.88 15.433 19.8474 15.433 21.0471C15.433 21.1632 15.5491 21.2793 15.6691 21.2793C15.7851 21.2793 15.9051 21.1632 15.9051 21.0471C15.9051 19.8474 16.8842 18.88 18.0993 18.88C19.3144 18.88 20.2934 19.8474 20.2934 21.0471C20.2934 21.1632 20.4095 21.2793 20.5295 21.2793C20.6494 21.2793 20.7655 21.1632 20.7655 21.0471C21.0596 19.9248 20.3553 18.9574 19.3376 18.5704Z" fill="white"/>
<path d="M0.781317 15.707C1.06381 15.707 1.28826 15.9315 1.28826 16.2101C1.28826 16.4887 1.05994 16.7132 0.781317 16.7132C0.498824 16.7132 0.270508 16.4887 0.270508 16.2101C0.274378 15.9315 0.502694 15.707 0.781317 15.707Z" fill="white"/>
<path d="M21.3341 17.6426C21.6165 17.6426 21.841 17.867 21.841 18.1456C21.841 18.4243 21.6127 18.6487 21.3341 18.6487C21.0516 18.6487 20.8232 18.4243 20.8232 18.1456C20.8271 17.867 21.0554 17.6426 21.3341 17.6426Z" fill="white"/>
<path fill-rule="evenodd" clip-rule="evenodd" d="M14.4462 10.6825C14.3262 10.6825 14.2101 10.7986 14.2101 10.9147V12.1143H1.48633V1.93684H17.8903C18.0102 1.93684 18.1263 1.82074 18.1263 1.70465C18.1263 1.58856 18.0064 1.47246 17.8903 1.47246H1.48633V0.00195312H20.5914V12.1143H19.1054V10.9147C19.1054 10.7986 18.9854 10.6825 18.8693 10.6825H14.4462Z" fill="white"/>
</g>
<defs>
<clipPath id="clip0_1386_18315">
<rect width="22.0383" height="21.2837" fill="white"/>
</clipPath>
</defs>
</svg>
