<svg width="349" height="364" viewBox="0 0 349 364" fill="none" xmlns="http://www.w3.org/2000/svg">
<g clip-path="url(#clip0_2041_7)">
<path fill-rule="evenodd" clip-rule="evenodd" d="M126.917 39H17.8466C7.99019 39 0 46.9902 0 56.8466V346.153C0 356.01 7.9902 364 17.8466 364H331.153C341.01 364 349 356.01 349 346.153V56.8466C349 46.9902 341.01 39 331.153 39H221.092C220.641 66.471 199.732 88.5914 174.004 88.5914C148.277 88.5914 127.367 66.471 126.917 39Z" fill="white"/>
<circle cx="174.651" cy="40.6506" r="40.6506" fill="white"/>
<path d="M349.5 310H175V363.54H331.653C341.51 363.54 349.5 355.55 349.5 345.693V310Z" fill="#FF7272"/>
<path d="M249.857 332.911H251.727L254.576 337.87H254.694L257.543 332.911H259.413L255.455 339.538V343.82H253.815V339.538L249.857 332.911ZM263.018 343.985C262.212 343.985 261.517 343.813 260.935 343.469C260.356 343.121 259.909 342.632 259.593 342.004C259.28 341.372 259.124 340.631 259.124 339.783C259.124 338.945 259.28 338.206 259.593 337.567C259.909 336.928 260.349 336.429 260.914 336.07C261.482 335.711 262.146 335.532 262.906 335.532C263.368 335.532 263.815 335.608 264.248 335.761C264.682 335.914 265.07 336.153 265.415 336.48C265.759 336.807 266.031 337.231 266.23 337.753C266.429 338.272 266.528 338.902 266.528 339.644V340.209H260.024V339.016H264.967C264.967 338.597 264.882 338.225 264.712 337.902C264.541 337.576 264.302 337.318 263.993 337.13C263.687 336.942 263.329 336.848 262.917 336.848C262.469 336.848 262.079 336.958 261.745 337.178C261.415 337.395 261.159 337.679 260.978 338.03C260.8 338.378 260.711 338.756 260.711 339.165V340.097C260.711 340.644 260.807 341.109 260.999 341.493C261.194 341.876 261.466 342.169 261.814 342.371C262.162 342.57 262.569 342.67 263.034 342.67C263.336 342.67 263.611 342.627 263.859 342.542C264.108 342.453 264.323 342.322 264.504 342.148C264.685 341.974 264.824 341.759 264.919 341.503L266.427 341.775C266.306 342.219 266.09 342.608 265.777 342.941C265.468 343.272 265.079 343.529 264.611 343.714C264.145 343.895 263.614 343.985 263.018 343.985ZM274.426 337.636L272.983 337.892C272.922 337.707 272.827 337.531 272.695 337.364C272.567 337.197 272.393 337.061 272.173 336.954C271.953 336.848 271.678 336.794 271.347 336.794C270.896 336.794 270.52 336.896 270.218 337.098C269.916 337.297 269.765 337.554 269.765 337.87C269.765 338.144 269.867 338.364 270.069 338.531C270.271 338.698 270.598 338.835 271.049 338.941L272.349 339.239C273.102 339.413 273.663 339.681 274.032 340.044C274.401 340.406 274.586 340.876 274.586 341.455C274.586 341.945 274.444 342.382 274.16 342.766C273.879 343.146 273.487 343.444 272.983 343.661C272.482 343.877 271.901 343.985 271.241 343.985C270.325 343.985 269.577 343.79 268.998 343.4C268.42 343.005 268.064 342.446 267.933 341.722L269.472 341.487C269.568 341.888 269.765 342.192 270.064 342.398C270.362 342.6 270.751 342.702 271.23 342.702C271.752 342.702 272.17 342.593 272.482 342.377C272.795 342.157 272.951 341.888 272.951 341.572C272.951 341.317 272.855 341.102 272.663 340.928C272.475 340.754 272.186 340.623 271.795 340.534L270.41 340.23C269.646 340.056 269.082 339.779 268.716 339.399C268.354 339.019 268.173 338.538 268.173 337.956C268.173 337.473 268.308 337.05 268.578 336.688C268.847 336.326 269.22 336.043 269.696 335.841C270.172 335.635 270.717 335.532 271.331 335.532C272.216 335.532 272.912 335.724 273.42 336.107C273.927 336.487 274.263 336.997 274.426 337.636Z" fill="white"/>
<path d="M0 310H174.5V363.54H17.8466C7.99019 363.54 0 355.55 0 345.693V310Z" fill="#9F9E9E"/>
<path d="M66.1985 342.82V331.911H70.1935C70.9677 331.911 71.6087 332.039 72.1165 332.295C72.6243 332.547 73.0043 332.89 73.2564 333.323C73.5085 333.752 73.6346 334.237 73.6346 334.777C73.6346 335.232 73.5511 335.615 73.3842 335.928C73.2173 336.237 72.9936 336.485 72.7131 336.673C72.4361 336.858 72.1307 336.993 71.7969 337.078V337.185C72.1591 337.202 72.5124 337.32 72.8569 337.536C73.2049 337.749 73.4925 338.053 73.7198 338.447C73.9471 338.841 74.0607 339.321 74.0607 339.885C74.0607 340.443 73.9293 340.944 73.6665 341.387C73.4073 341.828 73.006 342.178 72.4627 342.437C71.9194 342.692 71.2251 342.82 70.38 342.82H66.1985ZM67.8445 341.409H70.2202C71.0085 341.409 71.5732 341.256 71.9141 340.951C72.255 340.645 72.4254 340.263 72.4254 339.805C72.4254 339.461 72.3384 339.145 72.1644 338.857C71.9904 338.57 71.7418 338.341 71.4187 338.17C71.0991 338 70.7191 337.914 70.2788 337.914H67.8445V341.409ZM67.8445 336.631H70.0497C70.419 336.631 70.7511 336.56 71.0458 336.418C71.3441 336.276 71.5803 336.077 71.7543 335.821C71.9318 335.562 72.0206 335.256 72.0206 334.905C72.0206 334.454 71.8626 334.076 71.5465 333.77C71.2305 333.465 70.7457 333.312 70.0923 333.312H67.8445V336.631ZM78.2662 343.001C77.7477 343.001 77.2789 342.906 76.8599 342.714C76.4409 342.518 76.1088 342.236 75.8638 341.867C75.6223 341.498 75.5016 341.045 75.5016 340.509C75.5016 340.047 75.5904 339.667 75.7679 339.369C75.9455 339.07 76.1852 338.834 76.487 338.66C76.7889 338.486 77.1262 338.355 77.4991 338.266C77.872 338.177 78.252 338.11 78.639 338.064C79.1291 338.007 79.5268 337.961 79.8322 337.925C80.1376 337.886 80.3596 337.824 80.498 337.739C80.6365 337.653 80.7058 337.515 80.7058 337.323V337.286C80.7058 336.821 80.5744 336.46 80.3116 336.205C80.0524 335.949 79.6653 335.821 79.1504 335.821C78.6142 335.821 78.1916 335.94 77.8826 336.178C77.5772 336.412 77.3659 336.673 77.2488 336.961L75.752 336.62C75.9295 336.123 76.1887 335.722 76.5297 335.416C76.8741 335.107 77.2701 334.884 77.7175 334.745C78.165 334.603 78.6355 334.532 79.1291 334.532C79.4558 334.532 79.802 334.571 80.1678 334.649C80.5371 334.724 80.8816 334.862 81.2012 335.065C81.5243 335.267 81.7889 335.556 81.9949 335.933C82.2008 336.306 82.3038 336.79 82.3038 337.387V342.82H80.7484V341.702H80.6845C80.5815 341.908 80.427 342.11 80.2211 342.309C80.0151 342.508 79.7505 342.673 79.4274 342.804C79.1042 342.936 78.7172 343.001 78.2662 343.001ZM78.6124 341.723C79.0527 341.723 79.4292 341.636 79.7417 341.462C80.0577 341.288 80.2974 341.061 80.4608 340.78C80.6277 340.496 80.7111 340.192 80.7111 339.869V338.815C80.6543 338.871 80.5442 338.925 80.3809 338.974C80.2211 339.021 80.0382 339.061 79.8322 339.097C79.6262 339.129 79.4256 339.159 79.2303 339.188C79.035 339.212 78.8716 339.234 78.7402 339.251C78.4313 339.29 78.149 339.356 77.8933 339.449C77.6412 339.541 77.4387 339.674 77.286 339.848C77.1369 340.018 77.0623 340.246 77.0623 340.53C77.0623 340.924 77.2079 341.222 77.4991 341.425C77.7903 341.624 78.1614 341.723 78.6124 341.723ZM87.8715 342.985C87.0796 342.985 86.3978 342.806 85.8261 342.447C85.2579 342.085 84.8211 341.586 84.5157 340.951C84.2103 340.315 84.0576 339.587 84.0576 338.767C84.0576 337.936 84.2139 337.202 84.5264 336.567C84.8389 335.928 85.2792 335.429 85.8474 335.07C86.4156 334.711 87.085 334.532 87.8556 334.532C88.477 334.532 89.031 334.647 89.5175 334.878C90.004 335.105 90.3964 335.425 90.6947 335.837C90.9965 336.249 91.1759 336.73 91.2327 337.281H89.6826C89.5974 336.897 89.4021 336.567 89.0967 336.29C88.7948 336.013 88.39 335.874 87.8822 335.874C87.4383 335.874 87.0494 335.991 86.7156 336.226C86.3854 336.457 86.1279 336.787 85.9433 337.217C85.7586 337.643 85.6663 338.147 85.6663 338.729C85.6663 339.326 85.7568 339.841 85.9379 340.274C86.1191 340.707 86.3747 341.043 86.705 341.281C87.0388 341.519 87.4312 341.638 87.8822 341.638C88.184 341.638 88.4575 341.583 88.7025 341.473C88.9511 341.359 89.1588 341.197 89.3257 340.988C89.4962 340.778 89.6151 340.526 89.6826 340.232H91.2327C91.1759 340.761 91.0036 341.233 90.716 341.648C90.4284 342.064 90.0431 342.391 89.5601 342.629C89.0807 342.866 88.5178 342.985 87.8715 342.985ZM94.4007 340.045L94.3901 338.101H94.6671L97.927 334.638H99.834L96.1159 338.58H95.8656L94.4007 340.045ZM92.9359 342.82V331.911H94.5286V342.82H92.9359ZM98.1028 342.82L95.1731 338.932L96.2704 337.819L100.058 342.82H98.1028Z" fill="white"/>
<g clip-path="url(#clip1_2041_7)">
<path d="M191.654 42.6588H190.8H187.528H180.207H158.095H157.242C156.589 42.6588 156 43.1922 156 43.9257C156 44.6591 156.524 45.1925 157.242 45.1925H191.589C192.242 45.1925 192.831 44.6591 192.831 43.9257C192.831 43.1922 192.307 42.6588 191.654 42.6588Z" fill="#FF7272"/>
<path d="M187.146 40.1919H180.601V41.8588H187.146V40.1919Z" fill="#FF7272"/>
<path d="M188.317 52.9935C189.035 52.4601 189.559 51.5933 189.559 50.5931C189.559 48.9928 188.252 47.6593 186.681 47.6593C185.109 47.6593 183.803 48.9928 183.803 50.5931C183.803 51.5933 184.262 52.4601 185.044 52.9935C183.932 53.3935 183.085 54.2603 182.561 55.3272C182.102 54.2603 181.19 53.3935 180.078 52.9935C180.795 52.4601 181.319 51.5933 181.319 50.5931C181.319 48.9928 180.013 47.6593 178.441 47.6593C176.87 47.6593 175.563 48.9928 175.563 50.5931C175.563 51.5933 176.023 52.4601 176.805 52.9935C175.693 53.3935 174.846 54.2603 174.322 55.3272C173.863 54.2603 172.951 53.3935 171.838 52.9935C172.556 52.4601 173.08 51.5933 173.08 50.5931C173.08 48.9928 171.774 47.6593 170.202 47.6593C168.631 47.6593 167.324 48.9928 167.324 50.5931C167.324 51.5933 167.783 52.4601 168.566 52.9935C167.454 53.3935 166.6 54.2603 166.082 55.3272C165.623 54.2603 164.711 53.3935 163.599 52.9935C164.317 52.4601 164.841 51.5933 164.841 50.5931C164.841 48.9928 163.534 47.6593 161.963 47.6593C160.391 47.6593 159.085 48.9928 159.085 50.5931C159.085 51.5933 159.544 52.4601 160.327 52.9935C158.626 53.6602 157.449 55.3272 157.449 57.2608C157.449 57.4609 157.643 57.6609 157.843 57.6609C158.044 57.6609 158.238 57.4609 158.238 57.2608C158.238 55.1938 159.874 53.5269 161.898 53.5269C163.929 53.5269 165.559 55.1938 165.559 57.2608C165.559 57.4609 165.753 57.6609 165.953 57.6609C166.147 57.6609 166.348 57.4609 166.348 57.2608C166.348 55.1938 167.984 53.5269 170.008 53.5269C172.039 53.5269 173.675 55.1938 173.675 57.2608C173.675 57.4609 173.869 57.6609 174.07 57.6609C174.27 57.6609 174.464 57.4609 174.464 57.2608C174.464 55.1938 176.1 53.5269 178.131 53.5269C180.162 53.5269 181.791 55.1938 181.791 57.2608C181.791 57.4609 181.985 57.6609 182.186 57.6609C182.38 57.6609 182.58 57.4609 182.58 57.2608C182.58 55.1938 184.217 53.5269 186.247 53.5269C188.278 53.5269 189.914 55.1938 189.914 57.2608C189.914 57.4609 190.108 57.6609 190.309 57.6609C190.509 57.6609 190.703 57.4609 190.703 57.2608C191.195 55.3272 190.018 53.6602 188.317 52.9935Z" fill="#FF7272"/>
<path d="M157.306 48.0599C157.778 48.0599 158.153 48.4467 158.153 48.9267C158.153 49.4068 157.772 49.7935 157.306 49.7935C156.834 49.7935 156.452 49.4068 156.452 48.9267C156.459 48.4467 156.84 48.0599 157.306 48.0599Z" fill="#FF7272"/>
<path d="M191.654 51.3947C192.126 51.3947 192.501 51.7814 192.501 52.2615C192.501 52.7415 192.12 53.1283 191.654 53.1283C191.182 53.1283 190.8 52.7415 190.8 52.2615C190.807 51.7814 191.188 51.3947 191.654 51.3947Z" fill="#FF7272"/>
<path fill-rule="evenodd" clip-rule="evenodd" d="M180.142 39.4058C179.941 39.4058 179.747 39.6059 179.747 39.8059V41.8729H158.483V24.3368H185.898C186.098 24.3368 186.292 24.1368 186.292 23.9367C186.292 23.7367 186.092 23.5367 185.898 23.5367H158.483V21.0029H190.412V41.8729H187.928V39.8059C187.928 39.6059 187.728 39.4058 187.534 39.4058H180.142Z" fill="#FF7272"/>
</g>
<ellipse cx="195.506" cy="51.2473" rx="8.49429" ry="8.75278" fill="white"/>
<path d="M200.429 46.3023C197.889 43.6917 193.722 43.6917 191.182 46.3023C188.642 48.9128 188.642 53.1968 191.182 55.8074C193.722 58.4179 197.824 58.4179 200.364 55.8074C202.904 53.1968 202.969 48.9128 200.429 46.3023ZM197.629 53.8662L195.806 51.9919L193.982 53.8662L193.07 52.9291L194.894 51.0548L193.07 49.1806L193.982 48.2435L195.806 50.1177L197.629 48.2435L198.541 49.1806L196.717 51.0548L198.541 52.9291L197.629 53.8662Z" fill="#FF7272"/>
</g>
<defs>
<clipPath id="clip0_2041_7">
<rect width="349" height="364" fill="white"/>
</clipPath>
<clipPath id="clip1_2041_7">
<rect width="36.8309" height="36.6725" fill="white" transform="translate(156 21)"/>
</clipPath>
</defs>
</svg>
