<svg width="20" height="21" viewBox="0 0 20 21" fill="none" xmlns="http://www.w3.org/2000/svg">
<path d="M13.8424 2.1721V0.70521C13.8424 0.319695 13.4992 0 13.0852 0C12.6713 0 12.328 0.319695 12.328 0.70521V2.11563H5.76581V0.70521C5.76581 0.319695 5.42255 0 5.00863 0C4.5947 0 4.25145 0.319695 4.25145 0.70521V2.1721C1.5256 2.40717 0.203093 3.92102 0.00117785 6.16829C-0.0190136 6.44097 0.223284 6.66667 0.505965 6.66667H17.5879C17.8807 6.66667 18.123 6.43157 18.0927 6.16829C17.8908 3.92102 16.5683 2.40717 13.8424 2.1721Z" fill="#9F9E9E"/>
<path d="M16.1906 13.3333C14.0859 13.3333 12.3811 15.038 12.3811 17.1428C12.3811 17.8571 12.5812 18.5333 12.9336 19.1047C13.5907 20.2095 14.8002 20.9523 16.1906 20.9523C17.5811 20.9523 18.7906 20.2095 19.4477 19.1047C19.8001 18.5333 20.0002 17.8571 20.0002 17.1428C20.0002 15.038 18.2954 13.3333 16.1906 13.3333ZM18.1621 16.7333L16.1334 18.6095C16.0001 18.7333 15.8191 18.7999 15.6477 18.7999C15.4668 18.7999 15.2858 18.7333 15.1429 18.5904L14.2001 17.6476C13.9239 17.3714 13.9239 16.9142 14.2001 16.638C14.4763 16.3618 14.9335 16.3618 15.2096 16.638L15.6668 17.0951L17.1907 15.6856C17.4764 15.4189 17.9336 15.438 18.2003 15.7237C18.4669 16.0095 18.4478 16.4571 18.1621 16.7333Z" fill="#9F9E9E"/>
<path d="M17.0805 8.57129H1.00473C0.45213 8.57129 0 8.99422 0 9.51115V15.3006C0 18.1201 1.5071 19.9999 5.02366 19.9999H9.97692C10.6702 19.9999 11.1524 19.3701 10.9314 18.7592C10.7304 18.2141 10.5597 17.6126 10.5597 17.1803C10.5597 14.3325 13.0414 12.0111 16.0858 12.0111C16.3771 12.0111 16.6686 12.0299 16.95 12.0769C17.5528 12.1615 18.0952 11.7198 18.0952 11.1559V9.52055C18.0852 8.99423 17.6331 8.57129 17.0805 8.57129ZM6.23935 16.4378C6.04845 16.6069 5.78726 16.7104 5.52603 16.7104C5.2648 16.7104 5.00361 16.6069 4.81271 16.4378C4.63186 16.2592 4.5213 16.0149 4.5213 15.7705C4.5213 15.5261 4.63186 15.2818 4.81271 15.1032C4.91318 15.0187 5.01373 14.9529 5.14435 14.9059C5.5161 14.7555 5.95802 14.8401 6.23935 15.1032C6.4202 15.2818 6.53076 15.5261 6.53076 15.7705C6.53076 16.0149 6.4202 16.2592 6.23935 16.4378ZM6.23935 13.1483C6.18911 13.1859 6.13897 13.2236 6.08874 13.2612C6.02845 13.2988 5.96799 13.3268 5.90771 13.3456C5.84742 13.3738 5.78721 13.3927 5.72693 13.402C5.65659 13.4114 5.58631 13.4209 5.52603 13.4209C5.2648 13.4209 5.00361 13.3174 4.81271 13.1483C4.63186 12.9697 4.5213 12.7254 4.5213 12.481C4.5213 12.2366 4.63186 11.9923 4.81271 11.8137C5.0438 11.5976 5.39536 11.4942 5.72693 11.56C5.78721 11.5694 5.84742 11.5882 5.90771 11.6164C5.96799 11.6352 6.02845 11.6633 6.08874 11.7009C6.13897 11.7384 6.18911 11.7762 6.23935 11.8137C6.4202 11.9923 6.53076 12.2366 6.53076 12.481C6.53076 12.7254 6.4202 12.9697 6.23935 13.1483ZM9.75591 13.1483C9.56501 13.3174 9.30382 13.4209 9.04259 13.4209C8.78136 13.4209 8.52017 13.3174 8.32927 13.1483C8.14842 12.9697 8.03786 12.7254 8.03786 12.481C8.03786 12.2366 8.14842 11.9923 8.32927 11.8137C8.71107 11.466 9.38416 11.466 9.75591 11.8137C9.93676 11.9923 10.0473 12.2366 10.0473 12.481C10.0473 12.7254 9.93676 12.9697 9.75591 13.1483Z" fill="#9F9E9E"/>
</svg>
