<svg width="21" height="21" viewBox="0 0 21 21" fill="none" xmlns="http://www.w3.org/2000/svg">
<path d="M10.5 0C4.7145 0 0 4.7145 0 10.5C0 16.2855 4.7145 21 10.5 21C16.2855 21 21 16.2855 21 10.5C21 4.7145 16.2855 0 10.5 0ZM15.0676 14.2486C14.9206 14.5006 14.6579 14.6369 14.3849 14.6369C14.2484 14.6369 14.1121 14.6056 13.9861 14.5216L10.731 12.579C9.92247 12.096 9.32388 11.0356 9.32388 10.1011V5.79602C9.32388 5.36552 9.68088 5.00852 10.1114 5.00852C10.5419 5.00852 10.8989 5.36552 10.8989 5.79602V10.1011C10.8989 10.4791 11.214 11.0354 11.5395 11.2244L14.7946 13.167C15.1726 13.3875 15.2986 13.8706 15.0676 14.2486Z" fill="#9F9E9E"/>
</svg>
