<svg width="23" height="23" viewBox="0 0 23 23" fill="none" xmlns="http://www.w3.org/2000/svg">
<path d="M21.1849 7.04819L13.9996 1.20147C12.5954 0.0633638 10.4014 0.052195 9.00822 1.1903L1.8229 7.04819C0.79173 7.88504 0.166651 9.55864 0.386048 10.8753L1.76799 19.2884C2.08612 21.1741 3.80847 22.6581 5.68431 22.6581H17.3125C19.1664 22.6581 20.9214 21.1406 21.2395 19.2772L22.6217 10.8641C22.8192 9.55863 22.1941 7.88504 21.1849 7.04819ZM12.3211 18.1949C12.3211 18.6524 11.9482 19.0318 11.4984 19.0318C11.0486 19.0318 10.6757 18.6524 10.6757 18.1949V14.8476C10.6757 14.3901 11.0486 14.0107 11.4984 14.0107C11.9482 14.0107 12.3211 14.3901 12.3211 14.8476V18.1949Z" fill="white"/>
</svg>
