<svg width="45" height="30" viewBox="0 0 45 30" fill="none" xmlns="http://www.w3.org/2000/svg">
<path fill-rule="evenodd" clip-rule="evenodd" d="M41.698 18.5107C41.0752 18.0426 40.1908 18.168 39.7227 18.7908L34.7587 25.3946C34.2906 26.0174 34.416 26.9018 35.0388 27.3699L37.213 29.0042C37.8358 29.4724 38.7202 29.347 39.1883 28.7242L44.1523 22.1204C44.6204 21.4976 44.495 20.6132 43.8722 20.1451L41.698 18.5107ZM40.0623 21.6931C40.5071 22.0274 41.1387 21.9379 41.473 21.4931C41.8074 21.0483 41.7178 20.4166 41.273 20.0823C40.8282 19.7479 40.1966 19.8375 39.8623 20.2823C39.5279 20.7271 39.6175 21.3587 40.0623 21.6931Z" fill="#1D785A"/>
<path d="M22.5169 6.95085C22.5169 3.11061 19.3912 -0.00878906 15.5573 -0.00878906C11.7234 -0.00878906 8.59766 3.11699 8.59766 6.95085C8.59766 10.7847 11.7234 13.9105 15.5573 13.9105C19.3912 13.9105 22.5169 10.7847 22.5169 6.95085ZM15.0852 12.4497V11.3142C13.5861 11.1037 12.7377 10.2233 12.6931 10.1723C12.5144 9.98094 12.5208 9.67474 12.7186 9.49613C12.91 9.31751 13.2162 9.32389 13.3948 9.52164C13.433 9.56629 14.4409 10.5933 16.2143 10.3701C17.0691 10.2616 17.6433 9.36216 17.5859 8.62856C17.5284 7.88858 16.865 7.48032 15.7614 7.50583C13.3629 7.53135 12.7696 6.28742 12.6293 5.73881C12.3486 4.66074 12.9355 3.42319 13.9944 2.8682C14.358 2.67683 14.7216 2.58114 15.0789 2.54287V1.45203C15.0789 1.19049 15.2958 0.973597 15.5573 0.973597C15.8188 0.973597 16.0357 1.19049 16.0357 1.45203V2.58752C17.1138 2.78527 17.9367 3.40405 17.9941 3.4487C18.2046 3.60818 18.2429 3.908 18.0834 4.11851C17.924 4.32902 17.6241 4.3673 17.4136 4.20782C17.4009 4.20144 16.5588 3.57629 15.5764 3.49974C15.5701 3.49974 15.5637 3.49974 15.5573 3.49974C15.5382 3.49974 15.5254 3.49336 15.5063 3.48698C15.1554 3.46784 14.7854 3.52525 14.4409 3.71025C13.7775 4.0611 13.3884 4.83935 13.5606 5.49003C13.7392 6.18535 14.5494 6.58086 15.7423 6.53621C17.7071 6.49793 18.4662 7.55049 18.5427 8.54563C18.632 9.73215 17.7645 11.1228 16.3356 11.3078C16.2335 11.3206 16.1378 11.3206 16.0421 11.3269V12.4369C16.0421 12.6985 15.8252 12.9153 15.5637 12.9153C15.3021 12.9153 15.0852 12.6985 15.0852 12.4369V12.4497Z" fill="#1D785A"/>
<path d="M0.208569 17.1486C0.254723 17.064 0.30088 16.9871 0.354729 16.9178C0.793201 16.3409 1.57783 16.1178 2.25477 16.364L10.1011 19.241C11.5173 19.756 13.0448 19.9014 14.5244 19.6808C15.3554 19.5568 16.212 19.8868 16.9411 20.3043C17.45 20.5958 18.1263 20.823 19.0244 20.9179C20.8014 21.1026 22.4706 21.1564 23.8091 21.1564C25.6784 21.1564 26.9323 21.0487 27.0169 21.041C27.3323 21.0103 27.5707 20.7333 27.54 20.4179C27.5092 20.1025 27.2246 19.8641 26.9169 19.8948C26.8784 19.8948 23.2706 20.1948 19.1398 19.7718C17.6013 19.6102 16.6859 18.9717 16.5551 17.964C16.4474 17.1563 16.909 16.264 17.5551 16.0178C18.3936 15.6947 21.986 14.9101 27.663 13.8101C29.9016 13.3716 32.2247 13.7716 34.2017 14.9332L39.2402 17.8871L33.5632 25.3027C33.5632 25.3027 33.5478 25.3334 33.5324 25.3565C31.6324 24.4411 29.4862 24.1026 27.4015 24.4103L16.4859 26.0104C14.8551 26.2565 13.1473 25.9642 11.6934 25.1796L0.885509 19.4256C0.0624161 18.9871 -0.237591 17.9871 0.200882 17.164L0.208569 17.1486Z" fill="#1D785A"/>
</svg>
