<svg width="26" height="28" viewBox="0 0 26 28" fill="none" xmlns="http://www.w3.org/2000/svg">
<path d="M13.2468 4.21004C12.8211 4.63736 12.2431 4.87808 11.6399 4.87924C11.0368 4.8804 10.4578 4.64191 10.0305 4.21623C9.60321 3.79055 9.36249 3.21256 9.36133 2.6094C9.36017 2.00624 9.59866 1.42732 10.0243 1M11.3132 4.86715V8.7343" stroke="#FF4B4B" stroke-width="1.23749" stroke-linecap="round" stroke-linejoin="round"/>
<path d="M20.3357 24.203C21.1004 22.7369 21.5402 21.1233 21.6252 19.4721C21.6252 16.8944 20.4391 15.2832 17.4487 13.6583C15.1296 12.3908 13.0523 10.7239 11.3126 8.73438C9.57287 10.7239 7.49565 12.3908 5.17652 13.6583C2.18613 15.2825 1 16.9457 1 19.4721C1.08498 21.1233 1.52478 22.7369 2.28946 24.203H20.3357Z" fill="#FF4B4B" stroke="#FF4B4B" stroke-width="1.23749" stroke-linecap="round" stroke-linejoin="round"/>
<circle cx="18.4986" cy="19.8673" r="7.50007" fill="#D0F9E4"/>
<path d="M13.7258 20.8285C13.7258 23.3629 15.248 25.1346 16.6668 26.2344C17.5234 26.8918 18.463 27.4278 19.46 27.828C19.528 27.8542 19.5965 27.8792 19.6654 27.9029L19.7327 27.9275L19.8 27.9029C19.932 27.8566 20.0628 27.8066 20.1922 27.7531C21.1204 27.3614 21.9964 26.8511 22.7992 26.2344C24.2168 25.1346 25.7395 23.3629 25.7395 20.8285V15.8788L19.7327 13.7295L13.7258 15.8788V20.8285ZM20.3334 18.6791H19.1296V17.4485H20.3334V18.6791ZM19.132 23.5919V19.6003H20.3334V23.5919H19.132Z" fill="#FF4B4B"/>
</svg>
