<svg width="18" height="19" viewBox="0 0 18 19" fill="none" xmlns="http://www.w3.org/2000/svg">
<path d="M4.93852 1.66961C5.06761 1.41304 5.26547 1.19738 5.51004 1.04668C5.7546 0.895978 6.03624 0.816171 6.32353 0.816162H10.214C10.5021 0.816172 10.7844 0.896416 11.0295 1.04789C11.2745 1.19937 11.4724 1.41609 11.6011 1.67374L12.2057 2.88262H13.9525C14.6378 2.88262 15.2951 3.15477 15.7797 3.63919C16.2642 4.12361 16.5365 4.78062 16.5365 5.4657V9.35168C15.9486 8.86397 15.2681 8.50023 14.5359 8.28235C13.8037 8.06448 13.035 7.99697 12.276 8.08391C12.03 7.10669 11.4355 6.25289 10.6042 5.68294C9.77293 5.11298 8.76204 4.8661 7.76149 4.98866C6.76093 5.11123 5.83959 5.59481 5.17055 6.34856C4.50152 7.1023 4.13085 8.07433 4.12818 9.08201C4.12822 10.0046 4.43692 10.9007 5.00517 11.6277C5.57342 12.3547 6.36857 12.8709 7.26411 13.094C7.13749 14.2017 7.34101 15.3221 7.84912 16.3146H2.58399C1.89867 16.3146 1.24142 16.0425 0.756833 15.5581C0.272241 15.0736 0 14.4166 0 13.7315V5.4657C0 4.78062 0.272241 4.12361 0.756833 3.63919C1.24142 3.15477 1.89867 2.88262 2.58399 2.88262H4.33076L4.93852 1.66961ZM8.26256 5.98231C9.70236 5.98231 10.9127 6.96388 11.2621 8.29262C10.3681 8.56491 9.55495 9.05283 8.89417 9.71339C8.23338 10.3739 7.74528 11.1868 7.47289 12.0804C6.74505 11.8878 6.11216 11.437 5.69226 10.8123C5.27237 10.1875 5.09412 9.43141 5.19078 8.68498C5.28744 7.93854 5.6524 7.25273 6.21759 6.75545C6.78279 6.25817 7.50963 5.98338 8.26256 5.98231ZM17.5649 13.7315C17.5649 14.9647 17.0749 16.1473 16.2026 17.0193C15.3304 17.8912 14.1473 18.3811 12.9137 18.3811C11.6802 18.3811 10.4971 17.8912 9.62486 17.0193C8.75259 16.1473 8.26256 14.9647 8.26256 13.7315C8.26256 12.4984 8.75259 11.3158 9.62486 10.4438C10.4971 9.57187 11.6802 9.08201 12.9137 9.08201C14.1473 9.08201 15.3304 9.57187 16.2026 10.4438C17.0749 11.3158 17.5649 12.4984 17.5649 13.7315ZM13.4305 11.6651C13.4305 11.5281 13.3761 11.3967 13.2792 11.2998C13.1823 11.2029 13.0508 11.1485 12.9137 11.1485C12.7767 11.1485 12.6452 11.2029 12.5483 11.2998C12.4514 11.3967 12.3969 11.5281 12.3969 11.6651V13.2149H10.8465C10.7095 13.2149 10.578 13.2694 10.4811 13.3662C10.3842 13.4631 10.3298 13.5945 10.3298 13.7315C10.3298 13.8686 10.3842 14 10.4811 14.0968C10.578 14.1937 10.7095 14.2482 10.8465 14.2482H12.3969V15.798C12.3969 15.935 12.4514 16.0664 12.5483 16.1633C12.6452 16.2602 12.7767 16.3146 12.9137 16.3146C13.0508 16.3146 13.1823 16.2602 13.2792 16.1633C13.3761 16.0664 13.4305 15.935 13.4305 15.798V14.2482H14.9809C15.118 14.2482 15.2494 14.1937 15.3464 14.0968C15.4433 14 15.4977 13.8686 15.4977 13.7315C15.4977 13.5945 15.4433 13.4631 15.3464 13.3662C15.2494 13.2694 15.118 13.2149 14.9809 13.2149H13.4305V11.6651Z" fill="#5C6563"/>
</svg>
