<svg width="35" height="35" viewBox="0 0 35 35" fill="none" xmlns="http://www.w3.org/2000/svg">
<path d="M24.1601 34.9951V21.815H28.5743L29.2346 16.6913H24.1601V13.4237C24.1601 11.9403 24.5726 10.9281 26.6993 10.9281H29.4125V6.3436C28.0991 6.20352 26.779 6.13594 25.4581 6.14115C21.5472 6.14115 18.8699 8.52893 18.8699 12.9147V16.6913H14.4463V21.815H18.8699V34.9951H2.58688C2.08508 34.9951 1.60383 34.7957 1.249 34.4409C0.894166 34.0861 0.694824 33.6048 0.694824 33.103V2.83005C0.694824 2.32824 0.894166 1.84699 1.249 1.49216C1.60383 1.13733 2.08508 0.937988 2.58688 0.937988H32.8598C33.3616 0.937988 33.8429 1.13733 34.1977 1.49216C34.5526 1.84699 34.7519 2.32824 34.7519 2.83005V33.103C34.7519 33.6048 34.5526 34.0861 34.1977 34.4409C33.8429 34.7957 33.3616 34.9951 32.8598 34.9951H24.1601Z" fill="#9F9E9E"/>
</svg>
