<svg width="35" height="35" viewBox="0 0 35 35" fill="none" xmlns="http://www.w3.org/2000/svg">
<path d="M17.7188 8.38533C12.8838 8.38533 8.98166 12.2874 8.98166 17.1225C8.98166 21.9575 12.8838 25.8596 17.7188 25.8596C22.5538 25.8596 26.4559 21.9575 26.4559 17.1225C26.4559 12.2874 22.5538 8.38533 17.7188 8.38533ZM17.7188 22.8009C14.592 22.8009 12.0403 20.2492 12.0403 17.1225C12.0403 13.9957 14.592 11.444 17.7188 11.444C20.8456 11.444 23.3973 13.9957 23.3973 17.1225C23.3973 20.2492 20.8456 22.8009 17.7188 22.8009ZM26.8137 5.99125C25.6849 5.99125 24.7732 6.90288 24.7732 8.03176C24.7732 9.16064 25.6849 10.0723 26.8137 10.0723C27.9426 10.0723 28.8542 9.1649 28.8542 8.03176C28.8546 7.7637 28.802 7.49821 28.6996 7.25049C28.5972 7.00278 28.4469 6.7777 28.2573 6.58815C28.0678 6.39861 27.8427 6.24832 27.595 6.14589C27.3473 6.04347 27.0818 5.99092 26.8137 5.99125ZM34.75 17.1225C34.75 14.771 34.7713 12.4408 34.6392 10.0936C34.5072 7.36721 33.8852 4.94757 31.8916 2.95392C29.8937 0.956011 27.4783 0.338321 24.7519 0.206264C22.4004 0.0742057 20.0703 0.0955054 17.723 0.0955054C15.3716 0.0955054 13.0414 0.0742057 10.6942 0.206264C7.9678 0.338321 5.54815 0.960271 3.55451 2.95392C1.5566 4.95183 0.938907 7.36721 0.806849 10.0936C0.674792 12.4451 0.696091 14.7752 0.696091 17.1225C0.696091 19.4697 0.674792 21.8041 0.806849 24.1513C0.938907 26.8777 1.56086 29.2973 3.55451 31.291C5.55241 33.2889 7.9678 33.9066 10.6942 34.0387C13.0456 34.1707 15.3758 34.1494 17.723 34.1494C20.0745 34.1494 22.4047 34.1707 24.7519 34.0387C27.4783 33.9066 29.8979 33.2846 31.8916 31.291C33.8895 29.2931 34.5072 26.8777 34.6392 24.1513C34.7756 21.8041 34.75 19.4739 34.75 17.1225ZM31.0013 27.1674C30.6903 27.9427 30.3154 28.522 29.7148 29.1184C29.1141 29.7191 28.539 30.094 27.7637 30.4049C25.523 31.2953 20.2023 31.095 17.7188 31.095C15.2352 31.095 9.91033 31.2953 7.6696 30.4092C6.89429 30.0982 6.31494 29.7233 5.71855 29.1227C5.1179 28.522 4.74303 27.9469 4.43205 27.1716C3.54599 24.9267 3.7462 19.606 3.7462 17.1225C3.7462 14.6389 3.54599 9.314 4.43205 7.07328C4.74303 6.29797 5.1179 5.71862 5.71855 5.12223C6.3192 4.52584 6.89429 4.1467 7.6696 3.83573C9.91033 2.94966 15.2352 3.14988 17.7188 3.14988C20.2023 3.14988 25.5272 2.94966 27.768 3.83573C28.5433 4.1467 29.1226 4.52158 29.719 5.12223C30.3197 5.72288 30.6945 6.29797 31.0055 7.07328C31.8916 9.314 31.6914 14.6389 31.6914 17.1225C31.6914 19.606 31.8916 24.9267 31.0013 27.1674Z" fill="#9F9E9E"/>
</svg>
