<svg width="32" height="32" viewBox="0 0 32 32" fill="none" xmlns="http://www.w3.org/2000/svg">
<path d="M8.70861 21.0095L3.5611 15.862C1.78092 14.0818 0.891261 11.937 0.892119 9.42761C0.892977 6.9182 1.78264 4.7734 3.5611 2.99322C5.33956 1.21304 7.48436 0.323383 9.99548 0.324241C12.5066 0.325098 14.6514 1.21476 16.4299 2.99322L21.5774 8.14073L19.0036 10.7145L13.8561 5.56698C12.7837 4.49458 11.4968 3.95838 9.99548 3.95838C8.49413 3.95838 7.20725 4.49458 6.13485 5.56698C5.06246 6.63937 4.52626 7.92625 4.52626 9.42761C4.52626 10.929 5.06246 12.2158 6.13485 13.2882L11.2824 18.4357L8.70861 21.0095ZM9.99548 12.0014L12.5692 9.42761L22.8643 19.7226L20.2905 22.2964L9.99548 12.0014ZM11.2824 23.5832L13.8561 21.0095L19.0036 26.157C20.076 27.2294 21.3629 27.7656 22.8642 27.7656C24.3656 27.7656 25.6525 27.2294 26.7249 26.157C27.7973 25.0846 28.3335 23.7977 28.3335 22.2964C28.3335 20.795 27.7973 19.5081 26.7249 18.4357L21.5774 13.2882L24.1511 10.7145L29.2986 15.862C31.0788 17.6422 31.9689 19.7874 31.9689 22.2977C31.9689 24.8079 31.0788 26.9523 29.2986 28.7308C27.5185 30.5092 25.3732 31.3993 22.863 31.401C20.3527 31.4027 18.2083 30.5127 16.4299 28.7308L11.2824 23.5832Z" fill="#9F9E9E"/>
</svg>
