<svg width="35" height="35" viewBox="0 0 35 35" fill="none" xmlns="http://www.w3.org/2000/svg">
<path d="M25.8146 13.4763C25.9364 13.598 26.033 13.7425 26.0989 13.9015C26.1648 14.0605 26.1988 14.231 26.1988 14.4032C26.1988 14.5753 26.1648 14.7458 26.0989 14.9048C26.033 15.0638 25.9364 15.2083 25.8146 15.33L20.5751 20.57C20.4534 20.6918 20.3089 20.7885 20.1499 20.8544C19.9909 20.9203 19.8205 20.9543 19.6483 20.9543C19.4762 20.9543 19.3057 20.9203 19.1467 20.8544C18.9877 20.7885 18.8432 20.6918 18.7216 20.57L14.4088 16.2552L10.096 20.57C9.85017 20.8159 9.51681 20.954 9.16921 20.954C8.82161 20.954 8.48825 20.8159 8.24247 20.57C7.99668 20.3242 7.8586 19.9908 7.8586 19.6432C7.8586 19.2956 7.99668 18.9622 8.24247 18.7164L13.482 13.4763C13.6037 13.3545 13.7481 13.2579 13.9072 13.192C14.0662 13.126 14.2366 13.0921 14.4088 13.0921C14.5809 13.0921 14.7514 13.126 14.9104 13.192C15.0694 13.2579 15.2139 13.3545 15.3355 13.4763L19.6483 17.7912L23.9611 13.4763C24.0828 13.3545 24.2272 13.2579 24.3863 13.192C24.5453 13.126 24.7157 13.0921 24.8879 13.0921C25.06 13.0921 25.2305 13.126 25.3895 13.192C25.5485 13.2579 25.693 13.3545 25.8146 13.4763ZM34.0571 17.0232C34.0577 19.9634 33.2972 22.8537 31.8495 25.4127C30.4019 27.9718 28.3164 30.1124 25.7961 31.6263C23.2758 33.1401 20.4065 33.9756 17.4676 34.0514C14.5286 34.1272 11.6201 33.4408 9.02512 32.0589L3.44992 33.9174C2.98832 34.0714 2.49298 34.0937 2.0194 33.982C1.54582 33.8702 1.11273 33.6287 0.76866 33.2846C0.424592 32.9405 0.183146 32.5074 0.0713848 32.0338C-0.0403765 31.5601 -0.0180366 31.0647 0.1359 30.6031L1.9943 25.0274C0.779626 22.7434 0.101184 20.2127 0.0104747 17.6274C-0.0802345 15.042 0.419173 12.47 1.47079 10.1065C2.52241 7.74305 4.09859 5.65022 6.07971 3.9869C8.06082 2.32359 10.3948 1.13351 12.9045 0.50699C15.4141 -0.119526 18.0335 -0.166011 20.5639 0.371066C23.0942 0.908142 25.4689 2.01466 27.5078 3.60664C29.5466 5.19861 31.1961 7.2342 32.3309 9.55889C33.4657 11.8836 34.056 14.4363 34.0571 17.0232ZM31.4373 17.0232C31.4367 14.8127 30.9276 12.6321 29.9494 10.6499C28.9712 8.66769 27.5502 6.93712 25.7963 5.59206C24.0424 4.24701 22.0025 3.32351 19.8346 2.89304C17.6667 2.46256 15.4288 2.53663 13.2941 3.10953C11.1594 3.68243 9.18508 4.73879 7.52392 6.1969C5.86275 7.655 4.55926 9.47575 3.71429 11.5183C2.86931 13.5608 2.50552 15.7704 2.65104 17.976C2.79656 20.1817 3.4475 22.3243 4.5535 24.2381C4.64632 24.3988 4.70396 24.5773 4.72259 24.7619C4.74122 24.9466 4.72042 25.133 4.66156 25.309L2.61977 31.4333L8.7435 29.3897C8.91957 29.3311 9.10609 29.3106 9.2907 29.3295C9.47531 29.3484 9.6538 29.4063 9.81433 29.4994C12.0047 30.7665 14.4902 31.4343 17.0206 31.4357C19.551 31.4371 22.0372 30.772 24.229 29.5073C26.4208 28.2427 28.241 26.4231 29.5064 24.2315C30.7717 22.04 31.4377 19.5539 31.4373 17.0232Z" fill="#9F9E9E"/>
</svg>
