<svg width="35" height="35" viewBox="0 0 35 35" fill="none" xmlns="http://www.w3.org/2000/svg">
<path d="M29.7888 5.31525C28.2198 3.73829 26.3509 2.48796 24.2911 1.63719C22.2314 0.786416 20.022 0.352234 17.7918 0.359965C8.44751 0.359965 0.831737 7.93764 0.831737 17.2352C0.831737 20.2152 1.61899 23.11 3.0908 25.6643L0.694824 34.4169L9.67973 32.067C12.1613 33.4123 14.9509 34.1274 17.7918 34.1274C27.1361 34.1274 34.7519 26.5498 34.7519 17.2522C34.7519 12.7397 32.9891 8.49958 29.7888 5.31525ZM17.7918 31.2667C15.2589 31.2667 12.7774 30.5855 10.6039 29.3084L10.0905 29.0019L4.75087 30.3982L6.17134 25.2216L5.82906 24.6937C4.42184 22.4578 3.67463 19.8733 3.67268 17.2352C3.67268 9.50426 10.0049 3.20372 17.7747 3.20372C21.5398 3.20372 25.0824 4.66817 27.7351 7.32462C29.0486 8.62553 30.0895 10.1729 30.7975 11.8771C31.5055 13.5812 31.8665 15.4082 31.8596 17.2522C31.8938 24.9832 25.5616 31.2667 17.7918 31.2667ZM25.5274 20.7771C25.0995 20.5728 23.0116 19.5511 22.6351 19.3978C22.2415 19.2616 21.9677 19.1935 21.6767 19.6022C21.3858 20.0279 20.5814 20.9815 20.3418 21.2539C20.1022 21.5434 19.8455 21.5775 19.4177 21.3561C18.9898 21.1517 17.6207 20.692 16.0119 19.2616C14.7455 18.1377 13.9069 16.7584 13.6502 16.3327C13.4106 15.907 13.616 15.6856 13.8385 15.4642C14.0267 15.2769 14.2663 14.9704 14.4717 14.732C14.677 14.4936 14.7626 14.3063 14.8995 14.0338C15.0364 13.7444 14.968 13.506 14.8653 13.3016C14.7626 13.0973 13.9069 11.0198 13.5646 10.1684C13.2223 9.35101 12.863 9.45318 12.6062 9.43615H11.7848C11.4938 9.43615 11.0489 9.53832 10.6552 9.96403C10.2787 10.3897 9.18342 11.4115 9.18342 13.4889C9.18342 15.5664 10.7066 17.5758 10.9119 17.8482C11.1173 18.1377 13.9069 22.3948 18.1512 24.2169C19.1609 24.6596 19.9482 24.915 20.5643 25.1024C21.574 25.4259 22.4982 25.3748 23.2341 25.2726C24.0556 25.1534 25.7499 24.2509 26.0922 23.2633C26.4516 22.2756 26.4516 21.4412 26.3318 21.2539C26.212 21.0666 25.9552 20.9815 25.5274 20.7771Z" fill="#9F9E9E"/>
</svg>
