<svg width="8" height="10" viewBox="0 0 8 10" fill="none" xmlns="http://www.w3.org/2000/svg">
<path d="M1.28174 6.89876C1.40171 6.86376 1.53068 6.87786 1.64026 6.93796C1.74984 6.99805 1.83106 7.09921 1.86606 7.21919C1.90105 7.33917 1.88695 7.46813 1.82686 7.57772C1.76676 7.6873 1.6656 7.76852 1.54562 7.80351C1.31001 7.87231 1.14037 7.94488 1.03152 8.01085C1.14367 8.07824 1.32085 8.15363 1.56683 8.22385C2.1111 8.37935 2.89003 8.48208 3.76981 8.48208C4.64959 8.48208 5.42853 8.37935 5.9728 8.22385C6.21925 8.15363 6.39596 8.07824 6.50811 8.01085C6.39973 7.94488 6.23009 7.87231 5.99447 7.80351C5.87638 7.76698 5.77738 7.6855 5.7188 7.57665C5.66022 7.4678 5.64675 7.34029 5.68131 7.22161C5.71586 7.10293 5.79567 7.00257 5.90352 6.94218C6.01138 6.88179 6.13864 6.86619 6.25789 6.89876C6.57267 6.99065 6.86106 7.10845 7.08254 7.25972C7.28752 7.40061 7.53963 7.64612 7.53963 8.01085C7.53963 8.37982 7.28139 8.62722 7.07311 8.76811C6.84787 8.91985 6.55335 9.03813 6.2315 9.13001C5.58215 9.31615 4.71227 9.42453 3.76981 9.42453C2.82736 9.42453 1.95748 9.31615 1.30813 9.13001C0.986277 9.03813 0.691761 8.91985 0.466514 8.76811C0.258232 8.62674 0 8.37982 0 8.01085C0 7.64612 0.252106 7.40061 0.45709 7.25972C0.678566 7.10845 0.966957 6.99065 1.28174 6.89876ZM3.76981 0C4.70714 0 5.60608 0.372352 6.26887 1.03514C6.93166 1.69793 7.30401 2.59687 7.30401 3.5342C7.30401 4.74431 6.6443 5.72823 5.96102 6.42753C5.6894 6.70269 5.39752 6.95708 5.08783 7.18856C4.80793 7.39873 4.168 7.79267 4.168 7.79267C4.04663 7.86166 3.90942 7.89793 3.76981 7.89793C3.63021 7.89793 3.493 7.86166 3.37163 7.79267C3.05405 7.60852 2.74696 7.40684 2.45179 7.18856C2.14165 6.95765 1.84973 6.70322 1.57861 6.42753C0.895331 5.72823 0.235613 4.74431 0.235613 3.5342C0.235613 2.59687 0.607965 1.69793 1.27076 1.03514C1.93355 0.372352 2.83248 0 3.76981 0ZM3.76981 2.59175C3.51986 2.59175 3.28014 2.69104 3.1034 2.86778C2.92665 3.04453 2.82736 3.28425 2.82736 3.5342C2.82736 3.78415 2.92665 4.02387 3.1034 4.20061C3.28014 4.37736 3.51986 4.47665 3.76981 4.47665C4.01977 4.47665 4.25948 4.37736 4.43623 4.20061C4.61297 4.02387 4.71227 3.78415 4.71227 3.5342C4.71227 3.28425 4.61297 3.04453 4.43623 2.86778C4.25948 2.69104 4.01977 2.59175 3.76981 2.59175Z" fill="#3D5347"/>
</svg>
