<svg width="10" height="8" viewBox="0 0 10 8" fill="none" xmlns="http://www.w3.org/2000/svg">
<path d="M8.75 0H1.25C0.918588 0.00036096 0.600852 0.134567 0.366508 0.373172C0.132164 0.611776 0.000354515 0.93529 0 1.27273V6.72727C0.000354515 7.06471 0.132164 7.38822 0.366508 7.62683C0.600852 7.86543 0.918588 7.99964 1.25 8H8.75C9.08141 7.99964 9.39915 7.86543 9.63349 7.62683C9.86784 7.38822 9.99965 7.06471 10 6.72727V1.27273C9.99965 0.93529 9.86784 0.611776 9.63349 0.373172C9.39915 0.134567 9.08141 0.00036096 8.75 0ZM8.43348 2.10523L5.2192 4.65068C5.15652 4.70029 5.07939 4.72723 5 4.72723C4.92061 4.72723 4.84348 4.70029 4.7808 4.65068L1.56652 2.10523C1.52875 2.07619 1.49703 2.0398 1.4732 1.99817C1.44937 1.95654 1.4339 1.91051 1.42769 1.86274C1.42148 1.81497 1.42466 1.76643 1.43704 1.71992C1.44942 1.67341 1.47075 1.62988 1.4998 1.59184C1.52885 1.5538 1.56503 1.52202 1.60625 1.49834C1.64746 1.47466 1.69289 1.45956 1.73988 1.45391C1.78688 1.44826 1.83451 1.45218 1.88001 1.46544C1.92551 1.4787 1.96796 1.50103 2.00491 1.53114L5 3.90295L7.99509 1.53114C8.06998 1.47355 8.16413 1.44829 8.25717 1.46083C8.35021 1.47336 8.43466 1.52268 8.49227 1.59812C8.54987 1.67356 8.576 1.76905 8.565 1.86395C8.554 1.95884 8.50675 2.04552 8.43348 2.10523Z" fill="#3D5347"/>
</svg>
