<svg width="9" height="9" viewBox="0 0 9 9" fill="none" xmlns="http://www.w3.org/2000/svg">
<path d="M5.88435 5.25468C5.91713 4.98423 5.94171 4.71378 5.94171 4.43514C5.94171 4.15649 5.91713 3.88604 5.88435 3.61559H7.26938C7.33494 3.87784 7.37592 4.15239 7.37592 4.43514C7.37592 4.71788 7.33494 4.99243 7.26938 5.25468M5.15905 7.53302C5.40491 7.07817 5.59341 6.58645 5.72453 6.07423H6.93337C6.53636 6.75784 5.90652 7.27568 5.15905 7.53302ZM5.0566 5.25468H3.13886C3.09789 4.98423 3.0733 4.71378 3.0733 4.43514C3.0733 4.15649 3.09789 3.88194 3.13886 3.61559H5.0566C5.09348 3.88194 5.12217 4.15649 5.12217 4.43514C5.12217 4.71378 5.09348 4.98423 5.0566 5.25468ZM4.09773 7.69693C3.75762 7.2052 3.48307 6.6602 3.31507 6.07423H4.8804C4.71239 6.6602 4.43785 7.2052 4.09773 7.69693ZM2.45864 2.79604H1.2621C1.65493 2.11051 2.28435 1.59182 3.03232 1.33725C2.78646 1.7921 2.60206 2.28383 2.45864 2.79604ZM1.2621 6.07423H2.45864C2.60206 6.58645 2.78646 7.07817 3.03232 7.53302C2.28583 7.27581 1.65724 6.75781 1.2621 6.07423ZM0.926088 5.25468C0.860524 4.99243 0.819547 4.71788 0.819547 4.43514C0.819547 4.15239 0.860524 3.87784 0.926088 3.61559H2.31112C2.27834 3.88604 2.25375 4.15649 2.25375 4.43514C2.25375 4.71378 2.27834 4.98423 2.31112 5.25468M4.09773 1.16924C4.43785 1.66097 4.71239 2.21007 4.8804 2.79604H3.31507C3.48307 2.21007 3.75762 1.66097 4.09773 1.16924ZM6.93337 2.79604H5.72453C5.59609 2.28858 5.40619 1.7987 5.15905 1.33725C5.91303 1.59541 6.53998 2.11582 6.93337 2.79604ZM4.09773 0.337402C1.83169 0.337402 0 2.18138 0 4.43514C0 5.52192 0.431724 6.5642 1.2002 7.33267C1.58071 7.71318 2.03244 8.01502 2.5296 8.22095C3.02676 8.42688 3.55961 8.53287 4.09773 8.53287C5.18452 8.53287 6.22679 8.10115 6.99527 7.33267C7.76374 6.5642 8.19547 5.52192 8.19547 4.43514C8.19547 3.89701 8.08948 3.36416 7.88355 2.867C7.67762 2.36984 7.37578 1.91811 6.99527 1.5376C6.61476 1.15709 6.16303 0.855254 5.66587 0.649324C5.16871 0.443393 4.63586 0.337402 4.09773 0.337402Z" fill="#3D5347"/>
</svg>
