<svg width="10" height="9" viewBox="0 0 10 9" fill="none" xmlns="http://www.w3.org/2000/svg">
<path d="M6.97598 5.7738L6.72321 6.01363C6.72321 6.01363 6.12155 6.58328 4.47989 5.02785C2.83823 3.47243 3.4399 2.90278 3.4399 2.90278L3.59878 2.75136C3.99156 2.37971 4.02878 1.78253 3.68601 1.34629L2.98601 0.455287C2.56157 -0.0847174 1.74213 -0.156189 1.25602 0.304403L0.383806 1.13029C0.143252 1.359 -0.0178577 1.65441 0.00158666 1.98265C0.0515863 2.82284 0.450472 4.62973 2.6749 6.73787C5.03433 8.97306 7.2482 9.062 8.1532 8.98153C8.43986 8.95612 8.68875 8.81741 8.88931 8.62682L9.67819 7.87929C10.2115 7.37475 10.0615 6.50916 9.3793 6.15604L8.3182 5.60598C7.87042 5.37462 7.32598 5.44239 6.97598 5.7738Z" fill="#3D5347"/>
</svg>
