<svg width="12" height="12" viewBox="0 0 12 12" fill="none" xmlns="http://www.w3.org/2000/svg">
<path fill-rule="evenodd" clip-rule="evenodd" d="M7.41323 2.78018H3.70668C2.39641 2.78018 1.74081 2.78018 1.33402 3.18744C0.926758 3.59423 0.926758 4.24983 0.926758 5.5601C0.926758 6.87037 0.926758 7.52596 1.33402 7.93276C1.5629 8.1621 1.87054 8.26218 2.32969 8.30619C2.31672 7.97121 2.31672 7.11315 2.31672 6.7184C2.25528 6.7184 2.19635 6.69399 2.15291 6.65055C2.10946 6.6071 2.08506 6.54818 2.08506 6.48674C2.08506 6.4253 2.10946 6.36637 2.15291 6.32293C2.19635 6.27949 2.25528 6.25508 2.31672 6.25508H8.80319C8.86463 6.25508 8.92355 6.27949 8.967 6.32293C9.01044 6.36637 9.03485 6.4253 9.03485 6.48674C9.03485 6.54818 9.01044 6.6071 8.967 6.65055C8.92355 6.69399 8.86463 6.7184 8.80319 6.7184C8.80319 7.11315 8.80319 7.97121 8.79022 8.30619C9.2489 8.26218 9.55701 8.1621 9.78636 7.93276C10.1931 7.52596 10.1931 6.87037 10.1931 5.5601C10.1931 4.24983 10.1931 3.59423 9.78589 3.18744C9.3791 2.78018 8.7235 2.78018 7.41323 2.78018ZM4.17 4.98095C4.26216 4.98095 4.35054 4.94434 4.41571 4.87917C4.48087 4.81401 4.51748 4.72562 4.51748 4.63346C4.51748 4.5413 4.48087 4.45291 4.41571 4.38775C4.35054 4.32258 4.26216 4.28597 4.17 4.28597H2.78004C2.68788 4.28597 2.59949 4.32258 2.53432 4.38775C2.46916 4.45291 2.43255 4.5413 2.43255 4.63346C2.43255 4.72562 2.46916 4.81401 2.53432 4.87917C2.59949 4.94434 2.68788 4.98095 2.78004 4.98095H4.17ZM7.87655 5.09678C7.99943 5.09678 8.11728 5.04797 8.20417 4.96108C8.29106 4.87419 8.33987 4.75634 8.33987 4.63346C8.33987 4.51058 8.29106 4.39273 8.20417 4.30584C8.11728 4.21895 7.99943 4.17014 7.87655 4.17014C7.75367 4.17014 7.63582 4.21895 7.54893 4.30584C7.46205 4.39273 7.41323 4.51058 7.41323 4.63346C7.41323 4.75634 7.46205 4.87419 7.54893 4.96108C7.63582 5.04797 7.75367 5.09678 7.87655 5.09678Z" fill="#3D5347"/>
<path d="M7.93274 1.3335C7.52549 0.926239 6.87035 0.926239 5.56009 0.926239C4.24935 0.926239 3.59422 0.926239 3.18696 1.3335C2.95901 1.56145 2.85893 1.8677 2.81445 2.32315C3.07391 2.3162 3.36024 2.3162 3.67437 2.3162H7.44672C7.76039 2.3162 8.04672 2.3162 8.30572 2.32315C8.2617 1.8677 8.1607 1.56145 7.93274 1.3335Z" fill="#3D5347"/>
<path fill-rule="evenodd" clip-rule="evenodd" d="M8.34011 6.71826C8.34011 8.02853 8.34011 9.37911 7.93285 9.7859C7.52606 10.1932 6.87046 10.1932 5.56019 10.1932C4.24992 10.1932 3.59433 10.1932 3.18753 9.7859C2.78027 9.37911 2.78027 8.02853 2.78027 6.71826H8.34011ZM7.29764 7.76073C7.29764 7.85289 7.26103 7.94128 7.19586 8.00644C7.13069 8.07161 7.04231 8.10822 6.95015 8.10822H4.17023C4.07807 8.10822 3.98969 8.07161 3.92452 8.00644C3.85935 7.94128 3.82274 7.85289 3.82274 7.76073C3.82274 7.66857 3.85935 7.58018 3.92452 7.51502C3.98969 7.44985 4.07807 7.41324 4.17023 7.41324H6.95015C7.04231 7.41324 7.13069 7.44985 7.19586 7.51502C7.26103 7.58018 7.29764 7.66857 7.29764 7.76073ZM6.371 9.15069C6.371 9.24285 6.33439 9.33123 6.26922 9.3964C6.20406 9.46157 6.11567 9.49818 6.02351 9.49818H4.17023C4.07807 9.49818 3.98969 9.46157 3.92452 9.3964C3.85935 9.33123 3.82274 9.24285 3.82274 9.15069C3.82274 9.05853 3.85935 8.97014 3.92452 8.90498C3.98969 8.83981 4.07807 8.8032 4.17023 8.8032H6.02351C6.11567 8.8032 6.20406 8.83981 6.26922 8.90498C6.33439 8.97014 6.371 9.05853 6.371 9.15069Z" fill="#3D5347"/>
</svg>
