<svg width="10" height="10" viewBox="0 0 10 10" fill="none" xmlns="http://www.w3.org/2000/svg">
<path d="M5.10266 6.78278L3.18188 5.73519C2.99751 5.91821 2.76307 6.04254 2.50814 6.09252C2.2532 6.14249 1.98918 6.11587 1.74935 6.01601C1.50952 5.91615 1.30463 5.74752 1.1605 5.53139C1.01637 5.31525 0.939453 5.06127 0.939453 4.80149C0.939453 4.5417 1.01637 4.28773 1.1605 4.07159C1.30463 3.85545 1.50952 3.68682 1.74935 3.58696C1.98918 3.4871 2.2532 3.46048 2.50814 3.51046C2.76307 3.56044 2.99751 3.68477 3.18188 3.86779L5.10266 2.82019C5.03678 2.51112 5.08436 2.18865 5.23669 1.91177C5.38903 1.63489 5.63594 1.4221 5.93227 1.3123C6.22861 1.20251 6.55456 1.20305 6.85053 1.31383C7.1465 1.4246 7.3927 1.63822 7.54411 1.9156C7.69553 2.19298 7.74204 2.5156 7.67514 2.82446C7.60824 3.13332 7.43239 3.40777 7.17977 3.59764C6.92714 3.7875 6.61461 3.88009 6.29933 3.85846C5.98405 3.83684 5.68709 3.70245 5.46276 3.47987L3.54198 4.52747C3.5804 4.708 3.5804 4.8946 3.54198 5.07513L5.46276 6.1231C5.68709 5.90052 5.98405 5.76614 6.29933 5.74451C6.61461 5.72289 6.92714 5.81547 7.17977 6.00534C7.43239 6.1952 7.60824 6.46966 7.67514 6.77851C7.74204 7.08737 7.69553 7.40999 7.54411 7.68738C7.3927 7.96476 7.1465 8.17837 6.85053 8.28915C6.55456 8.39993 6.22861 8.40047 5.93227 8.29067C5.63594 8.18088 5.38903 7.96808 5.23669 7.6912C5.08436 7.41432 5.03678 7.09186 5.10266 6.78278Z" fill="#3D544E"/>
</svg>
