<svg width="19" height="18" viewBox="0 0 19 18" fill="none" xmlns="http://www.w3.org/2000/svg">
<path d="M15.1427 6.39224C15.5981 5.92073 15.8501 5.28922 15.8444 4.63373C15.8387 3.97824 15.5758 3.35121 15.1123 2.88769C14.6487 2.42417 14.0217 2.16125 13.3662 2.15555C12.7107 2.14985 12.0792 2.40184 11.6077 2.85723L10.5615 3.90349C10.4749 3.99298 10.3715 4.06436 10.2571 4.11343C10.1427 4.16251 10.0196 4.18832 9.89515 4.18934C9.77067 4.19036 9.64723 4.16658 9.53204 4.11939C9.41685 4.0722 9.31221 4.00254 9.22423 3.91447C9.13624 3.82641 9.06668 3.7217 9.0196 3.60646C8.97251 3.49123 8.94885 3.36776 8.94999 3.24329C8.95113 3.11881 8.97705 2.9958 9.02624 2.88144C9.07542 2.76709 9.14689 2.66367 9.23647 2.57723L10.2815 1.53099C10.6877 1.12471 11.1701 0.802431 11.7009 0.582556C12.2317 0.36268 12.8007 0.249512 13.3752 0.249512C13.9498 0.249512 14.5187 0.36268 15.0495 0.582556C15.5804 0.802431 16.0627 1.12471 16.469 1.53098C16.8752 1.93726 17.1975 2.41958 17.4174 2.95041C17.6373 3.48124 17.7504 4.05017 17.7504 4.62473C17.7504 5.1993 17.6373 5.76823 17.4174 6.29906C17.1975 6.82989 16.8752 7.31221 16.469 7.71848L16.2252 7.96099C16.0475 8.12659 15.8124 8.21674 15.5696 8.21245C15.3267 8.20817 15.095 8.10978 14.9232 7.93801C14.7514 7.76625 14.653 7.53451 14.6488 7.29164C14.6445 7.04876 14.7346 6.8137 14.9002 6.63598L15.1427 6.39224ZM12.8052 10.7447C12.7778 10.7792 12.7486 10.8121 12.7177 10.8435C11.9302 11.631 10.8827 12.2285 9.78897 12.4222C8.67647 12.621 7.46397 12.401 6.53147 11.4685C6.43936 11.3827 6.36549 11.2792 6.31425 11.1642C6.26301 11.0492 6.23545 10.925 6.23323 10.7991C6.23101 10.6733 6.25417 10.5482 6.30132 10.4315C6.34847 10.3148 6.41865 10.2087 6.50767 10.1197C6.5967 10.0307 6.70274 9.96048 6.81948 9.91333C6.93621 9.86618 7.06125 9.84302 7.18713 9.84525C7.313 9.84747 7.43715 9.87502 7.55215 9.92626C7.66715 9.9775 7.77065 10.0514 7.85647 10.1435C8.26772 10.5522 8.81522 10.691 9.46147 10.5772C10.0777 10.4672 10.734 10.1272 11.2677 9.63723L9.70897 8.51598L9.69647 8.50599L9.32772 8.24099C8.15272 7.49474 6.84772 7.61724 5.98272 8.48223L2.85772 11.6072C2.61895 11.8379 2.42849 12.1137 2.29747 12.4187C2.16645 12.7237 2.09748 13.0518 2.0946 13.3837C2.09171 13.7157 2.15497 14.0449 2.28067 14.3521C2.40637 14.6594 2.592 14.9385 2.82674 15.1732C3.06147 15.408 3.3406 15.5936 3.64784 15.7193C3.95508 15.845 4.28428 15.9082 4.61623 15.9054C4.94817 15.9025 5.27623 15.8335 5.58123 15.7025C5.88624 15.5715 6.16211 15.381 6.39272 15.1422L7.43897 14.0972C7.61669 13.9316 7.85175 13.8415 8.09463 13.8458C8.3375 13.8501 8.56923 13.9484 8.741 14.1202C8.91277 14.292 9.01116 14.5237 9.01544 14.7666C9.01973 15.0095 8.92957 15.2445 8.76397 15.4222L7.71897 16.4685C7.3127 16.8748 6.83037 17.197 6.29955 17.4169C5.76872 17.6368 5.19979 17.75 4.62522 17.75C3.46484 17.75 2.35199 17.289 1.53147 16.4685C0.71096 15.648 0.25 14.5351 0.25 13.3747C0.25 12.2144 0.71096 11.1015 1.53147 10.281L4.65647 7.15599C5.13137 6.67689 5.71063 6.31411 6.34897 6.09598L1.89022 2.88598C1.68833 2.74078 1.55238 2.52132 1.5123 2.27588C1.47221 2.03044 1.53127 1.77913 1.67647 1.57723C1.82168 1.37534 2.04114 1.23939 2.28658 1.19931C2.53202 1.15922 2.78333 1.21828 2.98522 1.36348L10.3977 6.70098C10.5411 6.79432 10.6806 6.89432 10.8165 7.00098L18.6102 12.6135C18.7102 12.6854 18.795 12.7763 18.8599 12.881C18.9247 12.9856 18.9683 13.1021 18.9881 13.2236C19.008 13.3451 19.0037 13.4694 18.9755 13.5892C18.9474 13.7091 18.8959 13.8223 18.824 13.9222C18.7521 14.0222 18.6612 14.107 18.5565 14.1719C18.4518 14.2367 18.3354 14.2803 18.2139 14.3002C18.0923 14.32 17.9681 14.3157 17.8482 14.2876C17.7283 14.2594 17.6152 14.2079 17.5152 14.136L12.8052 10.7447Z" fill="#FF7272"/>
</svg>
