<svg width="63" height="50" viewBox="0 0 63 50" fill="none" xmlns="http://www.w3.org/2000/svg">
<path d="M63.0002 8.70224C63.0026 7.02813 62.5214 5.38895 61.6144 3.98182C60.7074 2.57469 59.4133 1.45951 57.8876 0.770374C56.3619 0.0812419 54.6696 -0.152503 53.0142 0.0972458C51.3588 0.346995 49.8108 1.06961 48.5563 2.17819C47.8772 2.77728 47.295 3.47807 46.8306 4.25557V4.26371C46.7573 4.38591 46.688 4.51082 46.6201 4.63574L46.5876 4.70227C46.5305 4.80953 46.4776 4.91815 46.426 5.02813C46.4097 5.06208 46.3948 5.09602 46.3798 5.12996C46.335 5.22908 46.2916 5.32956 46.2508 5.43139C46.2332 5.47348 46.2169 5.51557 46.2006 5.55766C46.1639 5.6527 46.1286 5.74775 46.0947 5.84415L46.0458 5.98807C46.0159 6.0804 45.9874 6.17409 45.9603 6.26777C45.944 6.32072 45.929 6.37232 45.9155 6.42527C45.8897 6.51624 45.8679 6.60857 45.8462 6.69682C45.8326 6.75249 45.8191 6.80816 45.8068 6.86383C45.7878 6.95616 45.7702 7.04984 45.7539 7.13538C45.743 7.19241 45.7322 7.24943 45.7227 7.30646C45.7077 7.4015 45.6955 7.49791 45.6833 7.59431C45.6765 7.64998 45.6684 7.70564 45.6616 7.76267C45.6507 7.86722 45.6439 7.97177 45.6358 8.07767C45.6358 8.12655 45.6276 8.17543 45.6249 8.22431C45.6168 8.3791 45.6113 8.53388 45.6113 8.69138C45.6113 8.82716 45.6113 8.96293 45.6222 9.09056V9.17746C45.6294 9.30509 45.6389 9.43272 45.6507 9.56035L45.6589 9.62552C45.6711 9.74093 45.6846 9.85498 45.7023 9.96768C45.7023 9.99076 45.7023 10.0152 45.7118 10.0383C45.7308 10.1618 45.7539 10.284 45.7783 10.4062C45.7783 10.4361 45.7906 10.4646 45.796 10.4945C45.8204 10.6113 45.8476 10.728 45.8775 10.8434V10.8692C45.9087 10.9901 45.9426 11.1082 45.9793 11.2263L46.0078 11.3187C46.0445 11.4341 46.0825 11.5468 46.1232 11.6595C46.1314 11.6839 46.1409 11.7083 46.1504 11.7328C46.187 11.8292 46.225 11.9256 46.2644 12.0206C46.2753 12.0491 46.2861 12.0763 46.2984 12.1034C46.3445 12.2107 46.392 12.318 46.4423 12.4239L46.4871 12.5148C46.5346 12.6099 46.5821 12.7049 46.6324 12.7986C47.3411 14.1158 48.3762 15.229 49.6385 16.0315C49.9698 16.2431 50.3155 16.4314 50.6731 16.5949L50.726 16.6194C50.9668 16.728 51.2126 16.8257 51.4633 16.9126L51.5923 16.9561L51.7959 17.0199C51.857 17.0389 51.9181 17.0552 51.9806 17.0729L52.2413 17.1407L52.4762 17.1951L52.6323 17.2263L52.8808 17.2711L53.0084 17.2915C53.1306 17.3091 53.2542 17.3254 53.3777 17.339L53.4823 17.3485C53.5814 17.3566 53.6819 17.3648 53.7824 17.3702L53.8991 17.377C54.0349 17.377 54.1625 17.3879 54.2956 17.3879C54.4531 17.3879 54.6079 17.3879 54.7627 17.3743L54.9093 17.3634C55.0152 17.3553 55.1198 17.3485 55.2243 17.3376L55.394 17.3159C55.4891 17.3037 55.5855 17.2915 55.6805 17.2765L55.8516 17.2453C55.9439 17.229 56.0376 17.2113 56.1231 17.1923L56.2901 17.153C56.3825 17.1312 56.4748 17.1095 56.5617 17.0837C56.6146 17.0701 56.6662 17.0552 56.7192 17.0389C56.8129 17.0118 56.9066 16.9832 56.9989 16.9534L57.1428 16.9045C57.2392 16.8706 57.3343 16.8352 57.4293 16.7986L57.5556 16.7484C57.6574 16.7076 57.7579 16.6642 57.857 16.6194L57.9588 16.5732C58.0688 16.5216 58.1774 16.4687 58.2847 16.4116L58.3512 16.379C58.4761 16.3112 58.6011 16.2433 58.7233 16.1686H58.7314C59.5152 15.7079 60.2224 15.1279 60.8278 14.4497C62.2298 12.8636 63.0025 10.8191 63.0002 8.70224Z" fill="#FFB625"/>
<path d="M46.0798 18.8159L31.7472 29.9631C31.366 30.2595 30.8968 30.4204 30.4139 30.4204C29.931 30.4204 29.4618 30.2595 29.0806 29.9631L9.52879 14.7562C9.29907 14.5827 9.10612 14.3653 8.96115 14.1166C8.81618 13.8679 8.72209 13.5929 8.68433 13.3075C8.64657 13.0221 8.6659 12.7321 8.7412 12.4543C8.81649 12.1764 8.94626 11.9163 9.12295 11.6891C9.29964 11.4618 9.51974 11.272 9.77044 11.1305C10.0211 10.9891 10.2975 10.8988 10.5833 10.8651C10.8692 10.8314 11.1589 10.8548 11.4357 10.934C11.7124 11.0132 11.9707 11.1466 12.1954 11.3265L30.4139 25.4961L43.2068 15.5464C41.9689 13.5439 41.2974 11.2432 41.2637 8.88925C41.23 6.53532 41.8354 4.21631 43.0153 2.1792H7.60348C5.58757 2.18136 3.65485 2.98313 2.22939 4.40859C0.803928 5.83405 0.00215644 7.76677 0 9.78268V42.369C0.00215644 44.3849 0.803928 46.3176 2.22939 47.7431C3.65485 49.1686 5.58757 49.9703 7.60348 49.9725H53.2243C55.2403 49.9703 57.173 49.1686 58.5984 47.7431C60.0239 46.3176 60.8257 44.3849 60.8278 42.369V19.9917C58.5409 21.3164 55.905 21.9134 53.2705 21.7033C50.636 21.4933 48.1279 20.4862 46.0798 18.8159Z" fill="#1D785A"/>
</svg>
